<svg width="40" height="40" viewBox="0 0 40 40" fill="none" xmlns="http://www.w3.org/2000/svg">
<g clip-path="url(#clip0_1562_8433)">
<path d="M11.0015 1C9.0309 0.99994 9.24541 4.89843 8.83221 6.76528L13.4807 5.60808C13.1708 4.07067 12.6012 1.00005 11.0015 1Z" fill="#FAA21E"/>
<path d="M11.0015 1C9.0309 0.99994 9.24541 4.89843 8.83221 6.76528L13.4807 5.60808C13.1708 4.07067 12.6012 1.00005 11.0015 1Z" fill="white" fill-opacity="0.2"/>
<path d="M29.3534 1C31.4859 1 31.0797 4.89785 31.4859 6.76443L26.9164 5.60808C27.221 4.0709 27.7226 1.00005 29.3534 1Z" fill="#FAA21E"/>
<path d="M29.3534 1C31.4859 1 31.0797 4.89785 31.4859 6.76443L26.9164 5.60808C27.221 4.0709 27.7226 1.00005 29.3534 1Z" fill="white" fill-opacity="0.2"/>
<path d="M4.80344 5.60811C3.19196 5.60811 0.929698 6.267 0 6.59644C0.309899 7.63968 1.33257 9.89089 2.94404 10.5498C4.55552 11.2087 6.92109 11.1538 7.90243 11.0439C7.28263 11.8126 5.79512 14.1737 4.80344 17.4681C3.81176 20.7626 3.35724 25.1002 3.25394 26.8573C2.78909 27.7907 1.73544 30.5141 1.2396 33.9403C0.743758 37.3666 0.723098 41.4077 0.774748 43H39.8221C39.7704 41.243 39.5432 36.9712 39.0473 33.9403C38.5515 30.9094 37.4978 27.9554 37.033 26.8573C36.9297 24.8806 36.5061 20.2354 35.6384 17.4681C34.7707 14.7008 33.2109 12.0323 32.5394 11.0439C33.4691 10.8243 35.6384 10.5498 36.7231 9.89088C37.7441 9.27064 38.8407 7.52987 39.2023 6.59644C38.1693 6.37681 35.7624 5.93755 34.3988 5.93755C33.0353 5.93755 31.7647 6.37681 31.2998 6.59644C29.2855 6.04737 24.1412 4.94922 19.6786 4.94922C15.2161 4.94922 10.4849 6.04737 8.67718 6.59644C8.05738 6.267 6.41492 5.60811 4.80344 5.60811Z" fill="#FEFEFE"/>
<path d="M20.3719 31.239C12.8112 31.407 10.0809 39.0097 9.66089 42.7901H30.8729C30.5229 38.8697 27.9326 31.071 20.3719 31.239Z" fill="#D0333D"/>
<path d="M20.3719 31.239C12.8112 31.407 10.0809 39.0097 9.66089 42.7901H30.8729C30.5229 38.8697 27.9326 31.071 20.3719 31.239Z" fill="white" fill-opacity="0.9"/>
<path d="M21.8429 8.89436C19.9835 7.84014 19.6386 5.91981 19.7419 4.98638C20.792 4.9864 23.4233 4.87514 26.0265 5.27047C28.6296 5.6658 30.7072 6.09408 31.4303 6.42353C32.6699 5.92936 33.5819 5.48272 36.2338 5.76464C37.7833 5.92936 39.2811 6.2588 39.3328 6.42353C39.0229 7.24714 38.2481 9.2238 37.1635 9.88269C36.0788 10.5416 33.3932 11.0769 32.5531 11.0769C32.7597 11.2965 33.1934 11.814 33.8132 12.9671C34.3934 14.0465 35.0733 15.6973 35.2834 16.5374C34.1471 16.0433 32.515 14.9893 31.1204 14.001C29.505 12.8561 27.6276 11.0357 27.1111 10.3769C26.1298 10.322 23.7023 9.94858 21.8429 8.89436Z" fill="#898989"/>
<path d="M21.8429 8.89436C19.9835 7.84014 19.6386 5.91981 19.7419 4.98638C20.792 4.9864 23.4233 4.87514 26.0265 5.27047C28.6296 5.6658 30.7072 6.09408 31.4303 6.42353C32.6699 5.92936 33.5819 5.48272 36.2338 5.76464C37.7833 5.92936 39.2811 6.2588 39.3328 6.42353C39.0229 7.24714 38.2481 9.2238 37.1635 9.88269C36.0788 10.5416 33.3932 11.0769 32.5531 11.0769C32.7597 11.2965 33.1934 11.814 33.8132 12.9671C34.3934 14.0465 35.0733 15.6973 35.2834 16.5374C34.1471 16.0433 32.515 14.9893 31.1204 14.001C29.505 12.8561 27.6276 11.0357 27.1111 10.3769C26.1298 10.322 23.7023 9.94858 21.8429 8.89436Z" fill="white" fill-opacity="0.2"/>
<path d="M19.9886 15.821C15.805 15.821 11.9312 17.9624 11.9312 21.5863C11.9312 25.2102 17.1995 26.528 20.2985 26.528C24.1722 26.528 28.046 24.5513 28.046 21.5863C28.046 18.6213 24.1722 15.821 19.9886 15.821Z" fill="#CE4317"/>
<path d="M19.9886 15.821C15.805 15.821 11.9312 17.9624 11.9312 21.5863C11.9312 25.2102 17.1995 26.528 20.2985 26.528C24.1722 26.528 28.046 24.5513 28.046 21.5863C28.046 18.6213 24.1722 15.821 19.9886 15.821Z" fill="white" fill-opacity="0.8"/>
<ellipse cx="12.2412" cy="14.6681" rx="1.39455" ry="1.4825" fill="#898989"/>
<ellipse cx="12.2412" cy="14.6681" rx="1.39455" ry="1.4825" fill="black" fill-opacity="0.8"/>
<ellipse cx="27.736" cy="14.6681" rx="1.39455" ry="1.4825" fill="#898989"/>
<ellipse cx="27.736" cy="14.6681" rx="1.39455" ry="1.4825" fill="black" fill-opacity="0.8"/>
<ellipse cx="22.1577" cy="18.1272" rx="0.6198" ry="0.658891" fill="#898989"/>
<ellipse cx="22.1577" cy="18.1272" rx="0.6198" ry="0.658891" fill="black" fill-opacity="0.8"/>
<ellipse cx="17.8192" cy="18.1272" rx="0.619797" ry="0.658891" fill="#898989"/>
<ellipse cx="17.8192" cy="18.1272" rx="0.619797" ry="0.658891" fill="black" fill-opacity="0.8"/>
<line x1="19.4018" y1="22.3384" x2="20.922" y2="22.3384" stroke="#898989" stroke-linecap="round"/>
<line x1="19.4018" y1="22.3384" x2="20.922" y2="22.3384" stroke="black" stroke-opacity="0.6" stroke-linecap="round"/>
<path d="M8.67716 29.8223C9.60686 30.6459 10.6915 31.9637 11.4663 33.4462C12.2974 35.0366 12.5509 37.5642 9.76181 37.5642C7.53053 37.5642 5.93972 35.4777 5.42322 34.4345" stroke="#898989" stroke-width="2" stroke-linecap="round"/>
<path d="M8.67716 29.8223C9.60686 30.6459 10.6915 31.9637 11.4663 33.4462C12.2974 35.0366 12.5509 37.5642 9.76181 37.5642C7.53053 37.5642 5.93972 35.4777 5.42322 34.4345" stroke="white" stroke-opacity="0.4" stroke-width="2" stroke-linecap="round"/>
<path d="M31.5053 29.6577C30.5457 30.4813 29.4263 31.7991 28.6267 33.2816C27.7688 34.8721 27.5072 37.3997 30.3858 37.3997C32.6887 37.3997 34.3306 35.3132 34.8637 34.2699" stroke="#898989" stroke-width="2" stroke-linecap="round"/>
<path d="M31.5053 29.6577C30.5457 30.4813 29.4263 31.7991 28.6267 33.2816C27.7688 34.8721 27.5072 37.3997 30.3858 37.3997C32.6887 37.3997 34.3306 35.3132 34.8637 34.2699" stroke="white" stroke-opacity="0.4" stroke-width="2" stroke-linecap="round"/>
<path d="M6.32866 22.2371C6.01877 20.4252 5.03742 19.382 4.46927 19.1074C4.26267 19.7663 3.87966 21.8156 3.69452 23.3902C3.53957 24.708 3.43627 26.1905 3.38462 26.6846C3.28132 26.9043 2.86812 27.8377 2.45492 29.1555C2.04172 30.4733 1.83513 31.2969 1.68018 32.1205C3.17802 32.0656 5.70887 32.1205 6.63856 29.1555C7.41331 26.6846 6.63856 25.3669 6.17372 24.8727C6.32866 24.5433 6.52312 23.3741 6.32866 22.2371Z" fill="#898989"/>
<path d="M6.32866 22.2371C6.01877 20.4252 5.03742 19.382 4.46927 19.1074C4.26267 19.7663 3.87966 21.8156 3.69452 23.3902C3.53957 24.708 3.43627 26.1905 3.38462 26.6846C3.28132 26.9043 2.86812 27.8377 2.45492 29.1555C2.04172 30.4733 1.83513 31.2969 1.68018 32.1205C3.17802 32.0656 5.70887 32.1205 6.63856 29.1555C7.41331 26.6846 6.63856 25.3669 6.17372 24.8727C6.32866 24.5433 6.52312 23.3741 6.32866 22.2371Z" fill="white" fill-opacity="0.2"/>
<path d="M36.3888 34.2618C36.3888 31.758 37.6284 30.3634 38.2482 29.979C38.5064 30.7477 39.1159 32.8781 39.4878 35.2501C39.8597 37.6221 39.8493 39.9722 39.7977 40.8507C38.6614 39.6976 36.3888 36.7656 36.3888 34.2618Z" fill="#898989"/>
<path d="M36.3888 34.2618C36.3888 31.758 37.6284 30.3634 38.2482 29.979C38.5064 30.7477 39.1159 32.8781 39.4878 35.2501C39.8597 37.6221 39.8493 39.9722 39.7977 40.8507C38.6614 39.6976 36.3888 36.7656 36.3888 34.2618Z" fill="white" fill-opacity="0.2"/>
<path d="M11.7611 33.1292L7.98077 37.5314L11.2347 40.3316L14.7986 36.2136L11.7611 33.1292Z" fill="#898989"/>
<path d="M11.7611 33.1292L7.98077 37.5314L11.2347 40.3316L14.7986 36.2136L11.7611 33.1292Z" fill="white" fill-opacity="0.2"/>
<path d="M32.825 37.0621L28.4864 32.7793L25.8522 36.2385L29.726 40.0271L32.825 37.0621Z" fill="#898989"/>
<path d="M32.825 37.0621L28.4864 32.7793L25.8522 36.2385L29.726 40.0271L32.825 37.0621Z" fill="white" fill-opacity="0.2"/>
</g>
<defs>
<clipPath id="clip0_1562_8433">
<rect width="40" height="40" fill="white"/>
</clipPath>
</defs>
</svg>
