<svg width="50" height="50" viewBox="0 0 50 50" fill="none" xmlns="http://www.w3.org/2000/svg">
<g clip-path="url(#clip0_1511_8277)">
<path d="M20.4738 21.1444L27 30.505L34.5 25L33.5077 33.5562L45.9294 34.9896L36.511 37.6962L45.5 43.5001L34.6895 40.8096L38 48.5L29.9037 42.5581L27 50L24.7408 42.4933L15.5 46.5L19.775 38.6686L9.22221 37.6962L18.9377 34.1545L9.22221 25.5117L21.2916 30.505L20.4738 21.1444Z" fill="#D0333D"/>
<path d="M20.4738 21.1444L27 30.505L34.5 25L33.5077 33.5562L45.9294 34.9896L36.511 37.6962L45.5 43.5001L34.6895 40.8096L38 48.5L29.9037 42.5581L27 50L24.7408 42.4933L15.5 46.5L19.775 38.6686L9.22221 37.6962L18.9377 34.1545L9.22221 25.5117L21.2916 30.505L20.4738 21.1444Z" fill="black" fill-opacity="0.2"/>
<rect x="32.3109" y="21.9639" width="35" height="4" rx="2" transform="rotate(-150 32.3109 21.9639)" fill="#D0333D"/>
<path d="M27.3108 30.624L34.239 34.624C35.1956 35.1763 36.4188 34.8486 36.971 33.892L46.971 16.5715C47.5233 15.6149 47.1956 14.3917 46.239 13.8394L39.3108 9.83941C38.3542 9.28713 37.131 9.61488 36.5787 10.5715L26.5787 27.892C26.0264 28.8486 26.3542 30.0717 27.3108 30.624Z" fill="#D0333D"/>
<path d="M27.3108 30.624L34.239 34.624C35.1956 35.1763 36.4188 34.8486 36.971 33.892L46.971 16.5715C47.5233 15.6149 47.1956 14.3917 46.239 13.8394L39.3108 9.83941C38.3542 9.28713 37.131 9.61488 36.5787 10.5715L26.5787 27.892C26.0264 28.8486 26.3542 30.0717 27.3108 30.624Z" fill="white" fill-opacity="0.6"/>
<rect x="45.8368" y="20.5356" width="14" height="2" rx="1" transform="rotate(-150 45.8368 20.5356)" fill="#D0333D"/>
<rect x="38.8368" y="32.6602" width="14" height="2" rx="1" transform="rotate(-150 38.8368 32.6602)" fill="#D0333D"/>
</g>
<defs>
<clipPath id="clip0_1511_8277">
<rect width="50" height="50" fill="white"/>
</clipPath>
</defs>
</svg>
