<svg width="50" height="50" viewBox="0 0 50 50" fill="none" xmlns="http://www.w3.org/2000/svg">
<path d="M23 44.5C17.5313 44.5 14 42.5 13.5 41.5C13 40.5 13 36.9304 13 36.9304H33C33 39.0638 33.124 40.4959 32.5 41.5C31.5057 43.1 27.9715 44.5 23 44.5Z" fill="#898989"/>
<path d="M23 44.5C17.5313 44.5 14 42.5 13.5 41.5C13 40.5 13 36.9304 13 36.9304H33C33 39.0638 33.124 40.4959 32.5 41.5C31.5057 43.1 27.9715 44.5 23 44.5Z" fill="white" fill-opacity="0.6"/>
<path d="M40.3836 22.2136C39.5714 22.1775 38.3919 21.2478 38.876 19.515C39.36 17.7823 41.4491 16.5595 43.8859 16.6679C46.3227 16.7763 47.4827 18.1436 48.6621 19.0733C48.6232 19.9487 48.8735 23.4685 46.7065 26.4421C44.5395 29.4158 42.1388 30.5912 39.5686 31.3875C37.918 31.8988 37.46 33.048 37.421 33.9234C37.3821 34.7988 38.1554 35.7104 38.9677 35.7465" stroke="#FEFEFE" stroke-width="2.5" stroke-linecap="round"/>
<path d="M42 11.0909H4C5.63012 14.8946 6.71687 15.4379 7.80362 19.7849C8.347 21.9584 7.80362 28.8709 8.89037 32.6745C10.2666 37.4914 13.0913 40.0112 15.9542 41.3685C18.8052 42.7201 26.7013 42.7201 30.082 41.3685C33.024 40.1923 35.8121 37.5649 37.1459 32.6745C38.6857 27.0284 37.5844 23.026 38.2326 19.7849C38.776 17.0681 39.8265 15.4379 42 11.0909Z" fill="#898989"/>
<path d="M42 11.0909H4C5.63012 14.8946 6.71687 15.4379 7.80362 19.7849C8.347 21.9584 7.80362 28.8709 8.89037 32.6745C10.2666 37.4914 13.0913 40.0112 15.9542 41.3685C18.8052 42.7201 26.7013 42.7201 30.082 41.3685C33.024 40.1923 35.8121 37.5649 37.1459 32.6745C38.6857 27.0284 37.5844 23.026 38.2326 19.7849C38.776 17.0681 39.8265 15.4379 42 11.0909Z" fill="white" fill-opacity="0.95"/>
<path d="M42 10.8857C42 13.584 33.7218 15.8607 23.2284 15.8607C12.735 15.8607 4 13.584 4 10.8857C4 8.18741 12.735 6 23.2284 6C33.7218 6 42 8.18741 42 10.8857Z" fill="#898989"/>
<path d="M42 10.8857C42 13.584 33.7218 15.8607 23.2284 15.8607C12.735 15.8607 4 13.584 4 10.8857C4 8.18741 12.735 6 23.2284 6C33.7218 6 42 8.18741 42 10.8857Z" fill="white" fill-opacity="0.6"/>
<path d="M42 10.8857C42 13.584 33.7218 15.8607 23.2284 15.8607C12.735 15.8607 4 13.584 4 10.8857C4 8.18741 12.735 6 23.2284 6C33.7218 6 42 8.18741 42 10.8857Z" stroke="#FEFEFE" stroke-width="1.5"/>
<path d="M37 13.4304C37 13.0805 29.3513 11.9305 23 11.9305C16.6487 11.9305 9 13.0805 9 13.4304C9 13.7804 15 15.2305 23 15.2305C32 15.2305 37 13.7804 37 13.4304Z" fill="#FAA21E"/>
<path d="M37 13.4304C37 13.0805 29.3513 11.9305 23 11.9305C16.6487 11.9305 9 13.0805 9 13.4304C9 13.7804 15 15.2305 23 15.2305C32 15.2305 37 13.7804 37 13.4304Z" fill="white" fill-opacity="0.4"/>
<path d="M15.3776 37.3201L13.124 35.0665C13.591 34.3915 14.8307 32.7479 15.6125 31.9143C16.5896 30.8723 19.2576 29.4454 19.8063 28.8967C20.3481 28.355 21.4411 26.7493 21.5857 26.6047C21.7508 26.4396 22.1656 26.1848 22.4144 26.1078C22.6543 26.1829 23.3248 26.3805 23.7416 26.7714C24.1584 27.1623 24.4177 27.8856 24.4052 28.0986C24.3319 28.3081 24.0831 28.7719 23.9083 28.9273C23.7335 29.0828 22.0963 30.2691 21.6218 30.7437C20.9663 31.3995 19.75 33.7492 18.5987 34.9006C17.6166 35.8827 16.0112 36.9297 15.3776 37.3201Z" fill="#FAA21E"/>
<path d="M15.3776 37.3201L13.124 35.0665C13.591 34.3915 14.8307 32.7479 15.6125 31.9143C16.5896 30.8723 19.2576 29.4454 19.8063 28.8967C20.3481 28.355 21.4411 26.7493 21.5857 26.6047C21.7508 26.4396 22.1656 26.1848 22.4144 26.1078C22.6543 26.1829 23.3248 26.3805 23.7416 26.7714C24.1584 27.1623 24.4177 27.8856 24.4052 28.0986C24.3319 28.3081 24.0831 28.7719 23.9083 28.9273C23.7335 29.0828 22.0963 30.2691 21.6218 30.7437C20.9663 31.3995 19.75 33.7492 18.5987 34.9006C17.6166 35.8827 16.0112 36.9297 15.3776 37.3201Z" fill="black" fill-opacity="0.4"/>
<path d="M24.4053 24.7806L22.4145 26.1078C22.6848 26.1847 23.159 26.5464 23.5758 26.9373C23.9926 27.3282 24.3909 27.8229 24.4053 28.0986L25.7325 26.1078C25.7736 25.927 25.6078 25.6513 25.2348 25.2783C24.903 24.9465 24.5288 24.7573 24.4053 24.7806Z" fill="#898989"/>
<path d="M24.4053 24.7806L22.4145 26.1078C22.6848 26.1847 23.159 26.5464 23.5758 26.9373C23.9926 27.3282 24.3909 27.8229 24.4053 28.0986L25.7325 26.1078C25.7736 25.927 25.6078 25.6513 25.2348 25.2783C24.903 24.9465 24.5288 24.7573 24.4053 24.7806Z" fill="white" fill-opacity="0.2"/>
<path d="M25.2911 24.0918C25.1674 24.2156 24.6594 24.6124 24.4053 24.7807C24.5879 24.7914 24.903 24.9466 25.2348 25.2784C25.5274 25.571 25.7683 26.0184 25.7325 26.1079C25.8685 25.8716 26.2665 25.3147 26.3902 25.1909C26.5768 25.0044 27.4649 25.223 27.8892 25.2784L32.2026 20.965L29.5482 18.3105L25.2348 22.624C25.2742 22.9927 25.4463 23.9366 25.2911 24.0918Z" fill="#898989"/>
<path d="M25.2911 24.0918C25.1674 24.2156 24.6594 24.6124 24.4053 24.7807C24.5879 24.7914 24.903 24.9466 25.2348 25.2784C25.5274 25.571 25.7683 26.0184 25.7325 26.1079C25.8685 25.8716 26.2665 25.3147 26.3902 25.1909C26.5768 25.0044 27.4649 25.223 27.8892 25.2784L32.2026 20.965L29.5482 18.3105L25.2348 22.624C25.2742 22.9927 25.4463 23.9366 25.2911 24.0918Z" fill="white" fill-opacity="0.6"/>
<path d="M29.146 18.7001L29.8096 18.0365L32.464 20.6909L31.8004 21.3545L29.146 18.7001Z" fill="#898989"/>
<path d="M29.146 18.7001L29.8096 18.0365L32.464 20.6909L31.8004 21.3545L29.146 18.7001Z" fill="white" fill-opacity="0.2"/>
<path fill-rule="evenodd" clip-rule="evenodd" d="M13.0001 18L26.1646 29.1741C26.3476 29.3113 26.796 29.5721 27.1254 29.5172C27.3074 29.4869 27.4627 29.3358 27.6444 29.1589C27.8738 28.9356 28.1454 28.6713 28.5666 28.5564C29.3215 28.3505 30.145 28.2819 30.9685 28.9682C31.792 29.6544 32.1352 30.8211 31.8607 32.125C31.5861 33.4289 30.0764 33.8407 28.9783 33.6348C27.8803 33.4289 27.4685 32.7427 27.1254 31.9191C26.8509 31.2603 24.8607 29.9061 23.8999 29.3113C24.3803 30.2492 25.834 32.674 26.1646 32.7843C26.65 32.9461 27.3313 33.4976 27.6058 34.3211C27.8803 35.1446 27.8117 35.8995 27.3999 36.5171C26.9881 37.1348 26.2333 37.6152 25.1352 37.5465C24.0372 37.4779 23.2137 36.9289 22.6647 35.8995C22.1156 34.8701 22.6647 33.9779 22.9392 33.6348C23.0457 33.5016 23.1936 33.3788 23.3387 33.2583C23.5675 33.0682 23.7893 32.884 23.8313 32.674C23.8313 31.6493 19.936 26.7549 16.3625 22.2649C15.1497 20.741 13.9739 19.2637 13.0001 18ZM22.7079 27.3891C22.7079 27.7582 22.4087 28.0574 22.0396 28.0574C21.6706 28.0574 21.3714 27.7582 21.3714 27.3891C21.3714 27.02 21.6706 26.7208 22.0396 26.7208C22.4087 26.7208 22.7079 27.02 22.7079 27.3891ZM27.1184 35.0073C27.1184 35.9669 26.3405 36.7448 25.3809 36.7448C24.4214 36.7448 23.6435 35.9669 23.6435 35.0073C23.6435 34.0477 24.4214 33.2698 25.3809 33.2698C26.3405 33.2698 27.1184 34.0477 27.1184 35.0073ZM29.5242 33.0025C30.4838 33.0025 31.2617 32.2246 31.2617 31.265C31.2617 30.3054 30.4838 29.5275 29.5242 29.5275C28.5646 29.5275 27.7867 30.3054 27.7867 31.265C27.7867 32.2246 28.5646 33.0025 29.5242 33.0025Z" fill="#546DDB"/>
</svg>
