<svg width="50" height="50" viewBox="0 0 50 50" fill="none" xmlns="http://www.w3.org/2000/svg">
<path d="M37 14.8182V18.4545C37.619 17.697 39.1357 15.7273 42.1071 15.7273C45.8214 15.7273 47.2143 19.8182 47.2143 23C47.2143 26.1818 45.3571 30.2727 42.1071 30.2727C39.5071 30.2727 37.4643 28 37 27.5455V31.1818C37.4643 31.1818 38.3929 33 42.1071 33C46.75 33 50 28.9091 50 23C50 17.0909 46.75 13 42.1071 13C38.8571 13 37.4643 14.8182 37 14.8182Z" fill="#898989"/>
<path d="M37 14.8182V18.4545C37.619 17.697 39.1357 15.7273 42.1071 15.7273C45.8214 15.7273 47.2143 19.8182 47.2143 23C47.2143 26.1818 45.3571 30.2727 42.1071 30.2727C39.5071 30.2727 37.4643 28 37 27.5455V31.1818C37.4643 31.1818 38.3929 33 42.1071 33C46.75 33 50 28.9091 50 23C50 17.0909 46.75 13 42.1071 13C38.8571 13 37.4643 14.8182 37 14.8182Z" fill="white" fill-opacity="0.95"/>
<path d="M5 7H38V43.5C38 43.5 35 48.5 21.5 48.5C8.00003 48.5 5 43.5 5 43.5V7Z" fill="#898989"/>
<path d="M5 7H38V43.5C38 43.5 35 48.5 21.5 48.5C8.00003 48.5 5 43.5 5 43.5V7Z" fill="white" fill-opacity="0.85"/>
<ellipse cx="21.5" cy="6.5" rx="16.5" ry="4.5" fill="#FEFEFE"/>
<ellipse cx="21.5" cy="6.5" rx="14.5" ry="3.5" fill="#898989"/>
<ellipse cx="21.5" cy="6.5" rx="14.5" ry="3.5" fill="white" fill-opacity="0.4"/>
<path d="M33 8.5C33 8 27.8513 7 21.5 7C15.1487 7 10 8 10 8.5C10 9 15.1487 10 21.5 10C27.8513 10 33 9 33 8.5Z" fill="#FAA21E"/>
<path d="M33 8.5C33 8 27.8513 7 21.5 7C15.1487 7 10 8 10 8.5C10 9 15.1487 10 21.5 10C27.8513 10 33 9 33 8.5Z" fill="black" fill-opacity="0.6"/>
<path d="M28.5601 32.3587L22.0303 22.0914L17.0553 24.8916L22.7363 35.7811C24.6943 38.277 26.6944 39.8258 29.4953 40.6852C30.1148 37.6479 29.7413 35.3033 28.5601 32.3587Z" fill="#D0333D"/>
<path d="M28.5601 32.3587L22.0303 22.0914L17.0553 24.8916L22.7363 35.7811C24.6943 38.277 26.6944 39.8258 29.4953 40.6852C30.1148 37.6479 29.7413 35.3033 28.5601 32.3587Z" fill="white" fill-opacity="0.6"/>
<path d="M18.0648 16.284C17.7422 15.5935 16.8976 15.3277 16.2377 15.7089L14.2893 16.8345C13.6249 17.2183 13.4354 18.0911 13.8808 18.7158L17.6786 24.043C18.0722 24.5951 18.824 24.7517 19.4053 24.4027L20.3159 23.856C20.8871 23.5131 21.1068 22.7937 20.8248 22.1901L18.0648 16.284Z" fill="#D0333D"/>
<rect width="13.5962" height="1.70004" rx="0.850021" transform="matrix(-0.865895 0.500226 0.499774 0.866156 24.9672 19.2408)" fill="#D0333D"/>
</svg>
