<svg width="50" height="50" viewBox="0 0 50 50" fill="none" xmlns="http://www.w3.org/2000/svg">
<circle cx="25" cy="25" r="22.5" stroke="#1D8CE0"/>
<circle cx="25" cy="25" r="22.5" stroke="white" stroke-opacity="0.95"/>
<path d="M40.5 32C43.7 24.4 40.5 15.5 35.5 11C36.5 15.5 35.8 22.2 33 29C30.2 35.8 23.8333 40.1667 21 41.5C26.5 43 37.3 39.6 40.5 32Z" fill="#FEFEFE" fill-opacity="0.15"/>
<path d="M15.6858 13.5C17.2977 13.5 18.4117 15.2871 18.7692 15.8314L15.6858 20.7308C14.7473 20.0608 12.8972 18.2183 13.0045 16.2083C13.1223 14 13.6858 13.5 15.6858 13.5Z" fill="#FAA21E"/>
<path d="M15.6858 13.5C17.2977 13.5 18.4117 15.2871 18.7692 15.8314L15.6858 20.7308C14.7473 20.0608 12.8972 18.2183 13.0045 16.2083C13.1223 14 13.6858 13.5 15.6858 13.5Z" fill="black" fill-opacity="0.4"/>
<path d="M34.5 13.4999C32.8912 13.6004 31.6267 15.287 31.2692 15.8314L34.3527 20.7307C35.2911 20.0607 37.1412 18.2182 37.034 16.2082C36.9267 14.1982 36.511 13.3743 34.5 13.4999Z" fill="#FAA21E"/>
<path d="M34.5 13.4999C32.8912 13.6004 31.6267 15.287 31.2692 15.8314L34.3527 20.7307C35.2911 20.0607 37.1412 18.2182 37.034 16.2082C36.9267 14.1982 36.511 13.3743 34.5 13.4999Z" fill="black" fill-opacity="0.4"/>
<path d="M32.5445 15.732C31.0878 14.6186 27.9315 14 24.7753 14C22.5092 14.2474 18.8162 14.7288 17.613 15.732C16.2777 16.8455 13 25.9122 13 29.5C13 33.0878 17.613 36.5166 20.5265 38.0013C23.2669 39.3977 26.5 39.5 29.5 38C31.3173 37.0914 37 33.5 37 29.5C37 25.5 34.0012 16.8455 32.5445 15.732Z" fill="#FAA21E"/>
<path d="M32.5445 15.732C31.0878 14.6186 27.9315 14 24.7753 14C22.5092 14.2474 18.8162 14.7288 17.613 15.732C16.2777 16.8455 13 25.9122 13 29.5C13 33.0878 17.613 36.5166 20.5265 38.0013C23.2669 39.3977 26.5 39.5 29.5 38C31.3173 37.0914 37 33.5 37 29.5C37 25.5 34.0012 16.8455 32.5445 15.732Z" fill="black" fill-opacity="0.4"/>
<path d="M19.5 24C18.7 24 18.0556 24.9286 18 25.5C18.1667 26 18.5667 27 19.5 27C20.4333 27 21 26 21 25.5C20.7778 24.9286 20.3 24 19.5 24Z" fill="#FAA21E"/>
<path d="M19.5 24C18.7 24 18.0556 24.9286 18 25.5C18.1667 26 18.5667 27 19.5 27C20.4333 27 21 26 21 25.5C20.7778 24.9286 20.3 24 19.5 24Z" fill="black" fill-opacity="0.8"/>
<path d="M30.5 24C31.3 24 31.9444 24.9286 32 25.5C31.8333 26 31.4333 27 30.5 27C29.5667 27 29 26 29 25.5C29.2222 24.9286 29.7 24 30.5 24Z" fill="#FAA21E"/>
<path d="M30.5 24C31.3 24 31.9444 24.9286 32 25.5C31.8333 26 31.4333 27 30.5 27C29.5667 27 29 26 29 25.5C29.2222 24.9286 29.7 24 30.5 24Z" fill="black" fill-opacity="0.8"/>
<path d="M29 34.5C28 35.5 26.7523 36 25.0697 36C23.7032 36 22 35.5 21 34.5C20.253 33.753 20.0055 30.7952 20.3672 28.9157C20.729 27.0361 22.417 24 25.0697 24C27.7224 24 29.1693 27.3253 29.531 28.9157C29.8927 30.506 29.7235 33.7765 29 34.5Z" fill="#FAA21E"/>
<path d="M29 34.5C28 35.5 26.7523 36 25.0697 36C23.7032 36 22 35.5 21 34.5C20.253 33.753 20.0055 30.7952 20.3672 28.9157C20.729 27.0361 22.417 24 25.0697 24C27.7224 24 29.1693 27.3253 29.531 28.9157C29.8927 30.506 29.7235 33.7765 29 34.5Z" fill="white" fill-opacity="0.8"/>
<path d="M25 32V34M25 34L23.5 35.5M25 34L26.5 35.5" stroke="#FAA21E" stroke-linecap="round"/>
<path d="M25 32V34M25 34L23.5 35.5M25 34L26.5 35.5" stroke="black" stroke-opacity="0.8" stroke-linecap="round"/>
<path d="M27 30.7263C27 30.1579 25.7429 30 25.0571 30C24.3714 30 23 30.1251 23 30.7263C23 31.4211 23.9143 33 25.0571 33C26.2 33 27 31.2947 27 30.7263Z" fill="#FAA21E"/>
<path d="M27 30.7263C27 30.1579 25.7429 30 25.0571 30C24.3714 30 23 30.1251 23 30.7263C23 31.4211 23.9143 33 25.0571 33C26.2 33 27 31.2947 27 30.7263Z" fill="black" fill-opacity="0.8"/>
<path d="M14.5 9.00006C11.6489 11.5108 10.5 15 10.5 18C10.9875 15.933 14.0949 11.7432 17 10.0001C19.4724 8.5166 21.5 7.00006 25 6.50006C21.5 6.00006 17.3512 6.48933 14.5 9.00006Z" fill="#FEFEFE"/>
<path d="M34 40.0001C37.5 38.0001 41 33.0001 41 30.0001C40.2571 33.0001 36.2975 36.8405 33.5 38.5001C30.4369 40.3173 24.5 42.0001 21 42.0001C24.5 43.0001 30 42.2858 34 40.0001Z" fill="#FEFEFE"/>
</svg>
