<svg width="50" height="50" viewBox="0 0 50 50" fill="none" xmlns="http://www.w3.org/2000/svg">
<path d="M23 44.5C17.5313 44.5 14 42.5 13.5 41.5C13 40.5 13 36.9304 13 36.9304H33C33 39.0638 33.124 40.4959 32.5 41.5C31.5057 43.1 27.9715 44.5 23 44.5Z" fill="#898989"/>
<path d="M23 44.5C17.5313 44.5 14 42.5 13.5 41.5C13 40.5 13 36.9304 13 36.9304H33C33 39.0638 33.124 40.4959 32.5 41.5C31.5057 43.1 27.9715 44.5 23 44.5Z" fill="white" fill-opacity="0.6"/>
<path d="M40.3836 22.2136C39.5714 22.1775 38.3919 21.2478 38.876 19.515C39.36 17.7823 41.4491 16.5595 43.8859 16.6679C46.3227 16.7763 47.4827 18.1436 48.6621 19.0733C48.6232 19.9487 48.8735 23.4685 46.7065 26.4421C44.5395 29.4158 42.1388 30.5912 39.5686 31.3875C37.918 31.8988 37.46 33.048 37.421 33.9234C37.3821 34.7988 38.1554 35.7104 38.9677 35.7465" stroke="#FEFEFE" stroke-width="2.5" stroke-linecap="round"/>
<path d="M42 11.0909H4C5.63012 14.8946 6.71687 15.4379 7.80362 19.7849C8.347 21.9584 7.80362 28.8709 8.89037 32.6745C10.2666 37.4914 13.0913 40.0112 15.9542 41.3685C18.8052 42.7201 26.7013 42.7201 30.082 41.3685C33.024 40.1923 35.8121 37.5649 37.1459 32.6745C38.6857 27.0284 37.5844 23.026 38.2326 19.7849C38.776 17.0681 39.8265 15.4379 42 11.0909Z" fill="#898989"/>
<path d="M42 11.0909H4C5.63012 14.8946 6.71687 15.4379 7.80362 19.7849C8.347 21.9584 7.80362 28.8709 8.89037 32.6745C10.2666 37.4914 13.0913 40.0112 15.9542 41.3685C18.8052 42.7201 26.7013 42.7201 30.082 41.3685C33.024 40.1923 35.8121 37.5649 37.1459 32.6745C38.6857 27.0284 37.5844 23.026 38.2326 19.7849C38.776 17.0681 39.8265 15.4379 42 11.0909Z" fill="white" fill-opacity="0.95"/>
<path d="M42 10.8857C42 13.584 33.7218 15.8607 23.2284 15.8607C12.735 15.8607 4 13.584 4 10.8857C4 8.18741 12.735 6 23.2284 6C33.7218 6 42 8.18741 42 10.8857Z" fill="#898989"/>
<path d="M42 10.8857C42 13.584 33.7218 15.8607 23.2284 15.8607C12.735 15.8607 4 13.584 4 10.8857C4 8.18741 12.735 6 23.2284 6C33.7218 6 42 8.18741 42 10.8857Z" fill="white" fill-opacity="0.6"/>
<path d="M42 10.8857C42 13.584 33.7218 15.8607 23.2284 15.8607C12.735 15.8607 4 13.584 4 10.8857C4 8.18741 12.735 6 23.2284 6C33.7218 6 42 8.18741 42 10.8857Z" stroke="#FEFEFE" stroke-width="1.5"/>
<path d="M37 13.4304C37 13.0805 29.3513 11.9305 23 11.9305C16.6487 11.9305 9 13.0805 9 13.4304C9 13.7804 15 15.2305 23 15.2305C32 15.2305 37 13.7804 37 13.4304Z" fill="#FAA21E"/>
<path d="M37 13.4304C37 13.0805 29.3513 11.9305 23 11.9305C16.6487 11.9305 9 13.0805 9 13.4304C9 13.7804 15 15.2305 23 15.2305C32 15.2305 37 13.7804 37 13.4304Z" fill="white" fill-opacity="0.4"/>
<path d="M17.5954 36.5132L17.3531 30.9625C14.8507 29.1436 12.7664 28.2928 13.9954 24.9388C14.9195 22.4169 17.6503 21.4331 19.6916 23.3149C19.2954 21.4431 21.0297 18.5943 24.1428 18.7608C27.2558 18.9274 29.0302 22.2268 28.016 24.4322C29.372 24.3879 32.4434 24.462 32.3795 27.5C32.3231 30.1852 30.1435 31.4225 27.5762 31.5385L26.7558 36.7663L17.5954 36.5132Z" fill="#FEFEFE"/>
<path d="M17.5954 36.5132L17.3531 30.9625C14.8507 29.1436 12.7664 28.2928 13.9954 24.9388C14.9195 22.4169 17.6503 21.4331 19.6916 23.3149C19.2954 21.4431 21.0297 18.5943 24.1428 18.7608C27.2558 18.9274 29.0302 22.2268 28.016 24.4322C29.372 24.3879 32.4434 24.462 32.3795 27.5C32.3231 30.1852 30.1435 31.4225 27.5762 31.5385L26.7558 36.7663L17.5954 36.5132Z" stroke="#898989" stroke-width="0.5"/>
<path d="M17.5954 36.5132L17.3531 30.9625C14.8507 29.1436 12.7664 28.2928 13.9954 24.9388C14.9195 22.4169 17.6503 21.4331 19.6916 23.3149C19.2954 21.4431 21.0297 18.5943 24.1428 18.7608C27.2558 18.9274 29.0302 22.2268 28.016 24.4322C29.372 24.3879 32.4434 24.462 32.3795 27.5C32.3231 30.1852 30.1435 31.4225 27.5762 31.5385L26.7558 36.7663L17.5954 36.5132Z" stroke="white" stroke-opacity="0.2" stroke-width="0.5"/>
<path d="M19.9236 31.2302C19.9244 30.9541 19.7012 30.7296 19.4251 30.7288C19.1489 30.7279 18.9244 30.9511 18.9236 31.2273L19.9236 31.2302ZM18.9236 31.2273L18.908 36.5154L19.908 36.5183L19.9236 31.2302L18.9236 31.2273Z" fill="#898989"/>
<path d="M19.9236 31.2302C19.9244 30.9541 19.7012 30.7296 19.4251 30.7288C19.1489 30.7279 18.9244 30.9511 18.9236 31.2273L19.9236 31.2302ZM18.9236 31.2273L18.908 36.5154L19.908 36.5183L19.9236 31.2302L18.9236 31.2273Z" fill="white" fill-opacity="0.2"/>
<path d="M22.891 31.3952C22.9039 31.1194 22.6908 30.8853 22.4149 30.8724C22.1391 30.8595 21.905 31.0726 21.8921 31.3485L22.891 31.3952ZM21.8921 31.3485L21.6489 36.5447L22.6478 36.5915L22.891 31.3952L21.8921 31.3485Z" fill="#898989"/>
<path d="M22.891 31.3952C22.9039 31.1194 22.6908 30.8853 22.4149 30.8724C22.1391 30.8595 21.905 31.0726 21.8921 31.3485L22.891 31.3952ZM21.8921 31.3485L21.6489 36.5447L22.6478 36.5915L22.891 31.3952L21.8921 31.3485Z" fill="white" fill-opacity="0.2"/>
<path d="M25.7789 31.6526C25.8043 31.3776 25.6019 31.1342 25.327 31.1088C25.052 31.0834 24.8085 31.2858 24.7831 31.5608L25.7789 31.6526ZM24.7831 31.5608L24.3123 36.6652L25.3081 36.7571L25.7789 31.6526L24.7831 31.5608Z" fill="#898989"/>
<path d="M25.7789 31.6526C25.8043 31.3776 25.6019 31.1342 25.327 31.1088C25.052 31.0834 24.8085 31.2858 24.7831 31.5608L25.7789 31.6526ZM24.7831 31.5608L24.3123 36.6652L25.3081 36.7571L25.7789 31.6526L24.7831 31.5608Z" fill="white" fill-opacity="0.2"/>
</svg>
