<svg width="50" height="50" viewBox="0 0 50 50" fill="none" xmlns="http://www.w3.org/2000/svg">
<path d="M37 14.8182V18.4545C37.619 17.697 39.1357 15.7273 42.1071 15.7273C45.8214 15.7273 47.2143 19.8182 47.2143 23C47.2143 26.1818 45.3571 30.2727 42.1071 30.2727C39.5071 30.2727 37.4643 28 37 27.5455V31.1818C37.4643 31.1818 38.3929 33 42.1071 33C46.75 33 50 28.9091 50 23C50 17.0909 46.75 13 42.1071 13C38.8571 13 37.4643 14.8182 37 14.8182Z" fill="#898989"/>
<path d="M37 14.8182V18.4545C37.619 17.697 39.1357 15.7273 42.1071 15.7273C45.8214 15.7273 47.2143 19.8182 47.2143 23C47.2143 26.1818 45.3571 30.2727 42.1071 30.2727C39.5071 30.2727 37.4643 28 37 27.5455V31.1818C37.4643 31.1818 38.3929 33 42.1071 33C46.75 33 50 28.9091 50 23C50 17.0909 46.75 13 42.1071 13C38.8571 13 37.4643 14.8182 37 14.8182Z" fill="white" fill-opacity="0.95"/>
<path d="M5 7H38V43.5C38 43.5 35 48.5 21.5 48.5C8.00003 48.5 5 43.5 5 43.5V7Z" fill="#898989"/>
<path d="M5 7H38V43.5C38 43.5 35 48.5 21.5 48.5C8.00003 48.5 5 43.5 5 43.5V7Z" fill="white" fill-opacity="0.85"/>
<ellipse cx="21.5" cy="6.5" rx="16.5" ry="4.5" fill="#FEFEFE"/>
<ellipse cx="21.5" cy="6.5" rx="14.5" ry="3.5" fill="#898989"/>
<ellipse cx="21.5" cy="6.5" rx="14.5" ry="3.5" fill="white" fill-opacity="0.4"/>
<path d="M33 8.5C33 8 27.8513 7 21.5 7C15.1487 7 10 8 10 8.5C10 9 15.1487 10 21.5 10C27.8513 10 33 9 33 8.5Z" fill="#FAA21E"/>
<path d="M33 8.5C33 8 27.8513 7 21.5 7C15.1487 7 10 8 10 8.5C10 9 15.1487 10 21.5 10C27.8513 10 33 9 33 8.5Z" fill="black" fill-opacity="0.6"/>
<path d="M16.2319 18.0776C14.5753 18.7567 12.1204 19.1388 11.1 19.2449V29.4327C11.1 31.3429 11.1966 32.8883 13.2608 35.4816C15.325 38.075 21.5 41 21.5 41C21.5 41 27.675 38.075 29.7099 35.4816C31.7449 32.8883 31.9279 30.6354 31.8979 29.4327V19.2449C30.6074 19.068 27.7203 18.5869 26.4958 18.0776C25.2714 17.5682 22.7001 15.8136 21.4997 15C20.4793 15.7429 17.8886 17.3984 16.2319 18.0776Z" fill="#546DDB"/>
<path d="M16.2319 18.0776C14.5753 18.7567 12.1204 19.1388 11.1 19.2449V29.4327C11.1 31.3429 11.1966 32.8883 13.2608 35.4816C15.325 38.075 21.5 41 21.5 41C21.5 41 27.675 38.075 29.7099 35.4816C31.7449 32.8883 31.9279 30.6354 31.8979 29.4327V19.2449C30.6074 19.068 27.7203 18.5869 26.4958 18.0776C25.2714 17.5682 22.7001 15.8136 21.4997 15C20.4793 15.7429 17.8886 17.3984 16.2319 18.0776Z" fill="white" fill-opacity="0.2"/>
<path d="M17.5491 20.062C16.3066 20.6054 14.4653 20.911 13.7 20.9959V29.1461V29.1703C13.7 30.6867 13.6999 31.8569 15.3207 33.9853C16.95 36.125 21.5 38.4 21.5 38.4C21.5 38.4 25.4 36.45 27.5432 33.9853C29.6864 31.5206 29.3214 30.1083 29.2989 29.1461V20.9959C28.331 20.8544 26.1656 20.4696 25.2473 20.062C24.3289 19.6545 22.4004 18.2509 21.5 17.6C20.7347 18.1943 18.7916 19.5187 17.5491 20.062Z" fill="#FEFEFE"/>
<path d="M18.9 22.0465C18.0716 22.454 16.8102 22.7363 16.3 22.8V28.8596C16.3 30.0057 16.95 31.575 17.6 32.55C18.25 33.525 21.5 35.8 21.5 35.8C21.5 35.8 24.425 33.85 25.4 32.55C26.375 31.25 26.7143 29.5812 26.6993 28.8596V22.8C26.054 22.6939 24.7122 22.3522 24.1 22.0465C23.4877 21.7409 22.1002 20.6882 21.5 20.2C20.9898 20.6457 19.7283 21.639 18.9 22.0465Z" fill="#546DDB"/>
<path d="M18.9 22.0465C18.0716 22.454 16.8102 22.7363 16.3 22.8V28.8596C16.3 30.0057 16.95 31.575 17.6 32.55C18.25 33.525 21.5 35.8 21.5 35.8C21.5 35.8 24.425 33.85 25.4 32.55C26.375 31.25 26.7143 29.5812 26.6993 28.8596V22.8C26.054 22.6939 24.7122 22.3522 24.1 22.0465C23.4877 21.7409 22.1002 20.6882 21.5 20.2C20.9898 20.6457 19.7283 21.639 18.9 22.0465Z" fill="white" fill-opacity="0.2"/>
</svg>
