<svg width="50" height="50" viewBox="0 0 50 50" fill="none" xmlns="http://www.w3.org/2000/svg">
<path d="M23 44.5C17.5313 44.5 14 42.5 13.5 41.5C13 40.5 13 36.9304 13 36.9304H33C33 39.0638 33.124 40.4959 32.5 41.5C31.5057 43.1 27.9715 44.5 23 44.5Z" fill="#898989"/>
<path d="M23 44.5C17.5313 44.5 14 42.5 13.5 41.5C13 40.5 13 36.9304 13 36.9304H33C33 39.0638 33.124 40.4959 32.5 41.5C31.5057 43.1 27.9715 44.5 23 44.5Z" fill="white" fill-opacity="0.6"/>
<path d="M40.3836 22.2136C39.5714 22.1775 38.3919 21.2478 38.876 19.515C39.36 17.7823 41.4491 16.5595 43.8859 16.6679C46.3227 16.7763 47.4827 18.1436 48.6621 19.0733C48.6232 19.9487 48.8735 23.4685 46.7065 26.4421C44.5395 29.4158 42.1388 30.5912 39.5686 31.3875C37.918 31.8988 37.46 33.048 37.421 33.9234C37.3821 34.7988 38.1554 35.7104 38.9677 35.7465" stroke="#FEFEFE" stroke-width="2.5" stroke-linecap="round"/>
<path d="M42 11.0909H4C5.63012 14.8946 6.71687 15.4379 7.80362 19.7849C8.347 21.9584 7.80362 28.8709 8.89037 32.6745C10.2666 37.4914 13.0913 40.0112 15.9542 41.3685C18.8052 42.7201 26.7013 42.7201 30.082 41.3685C33.024 40.1923 35.8121 37.5649 37.1459 32.6745C38.6857 27.0284 37.5844 23.026 38.2326 19.7849C38.776 17.0681 39.8265 15.4379 42 11.0909Z" fill="#898989"/>
<path d="M42 11.0909H4C5.63012 14.8946 6.71687 15.4379 7.80362 19.7849C8.347 21.9584 7.80362 28.8709 8.89037 32.6745C10.2666 37.4914 13.0913 40.0112 15.9542 41.3685C18.8052 42.7201 26.7013 42.7201 30.082 41.3685C33.024 40.1923 35.8121 37.5649 37.1459 32.6745C38.6857 27.0284 37.5844 23.026 38.2326 19.7849C38.776 17.0681 39.8265 15.4379 42 11.0909Z" fill="white" fill-opacity="0.95"/>
<path d="M42 10.8857C42 13.584 33.7218 15.8607 23.2284 15.8607C12.735 15.8607 4 13.584 4 10.8857C4 8.18741 12.735 6 23.2284 6C33.7218 6 42 8.18741 42 10.8857Z" fill="#898989"/>
<path d="M42 10.8857C42 13.584 33.7218 15.8607 23.2284 15.8607C12.735 15.8607 4 13.584 4 10.8857C4 8.18741 12.735 6 23.2284 6C33.7218 6 42 8.18741 42 10.8857Z" fill="white" fill-opacity="0.6"/>
<path d="M42 10.8857C42 13.584 33.7218 15.8607 23.2284 15.8607C12.735 15.8607 4 13.584 4 10.8857C4 8.18741 12.735 6 23.2284 6C33.7218 6 42 8.18741 42 10.8857Z" stroke="#FEFEFE" stroke-width="1.5"/>
<path d="M37 13.4304C37 13.0805 29.3513 11.9305 23 11.9305C16.6487 11.9305 9 13.0805 9 13.4304C9 13.7804 15 15.2305 23 15.2305C32 15.2305 37 13.7804 37 13.4304Z" fill="#FAA21E"/>
<path d="M37 13.4304C37 13.0805 29.3513 11.9305 23 11.9305C16.6487 11.9305 9 13.0805 9 13.4304C9 13.7804 15 15.2305 23 15.2305C32 15.2305 37 13.7804 37 13.4304Z" fill="white" fill-opacity="0.4"/>
<path d="M29.1662 21.5687C28.3934 20.7125 26.0234 19 22.7259 19C18.6041 19 15.5127 21.8255 14.4823 24.908C13.4518 27.9904 13.9671 31.8434 17.0584 34.6689C20.1498 37.4945 24.7868 37.7513 27.8782 35.4395C30.7449 33.2957 32 30.3022 32 28.5041" stroke="#2FC4A7" stroke-width="2"/>
<path d="M29.1662 21.5687C28.3934 20.7125 26.0234 19 22.7259 19C18.6041 19 15.5127 21.8255 14.4823 24.908C13.4518 27.9904 13.9671 31.8434 17.0584 34.6689C20.1498 37.4945 24.7868 37.7513 27.8782 35.4395C30.7449 33.2957 32 30.3022 32 28.5041" stroke="white" stroke-opacity="0.4" stroke-width="2"/>
<path d="M31 23.5H26L31 18V23.5Z" fill="#2FC4A7"/>
<path d="M31 23.5H26L31 18V23.5Z" fill="white" fill-opacity="0.4"/>
<rect x="21.5" y="21.5" width="3" height="13" rx="1.5" fill="#2FC4A7"/>
<rect x="21.5" y="21.5" width="3" height="13" rx="1.5" fill="black" fill-opacity="0.4"/>
<rect x="29.5" y="26.5" width="3" height="13" rx="1.5" transform="rotate(90 29.5 26.5)" fill="#2FC4A7"/>
<rect x="29.5" y="26.5" width="3" height="13" rx="1.5" transform="rotate(90 29.5 26.5)" fill="black" fill-opacity="0.4"/>
</svg>
