<svg width="50" height="50" viewBox="0 0 50 50" fill="none" xmlns="http://www.w3.org/2000/svg">
<path d="M23 44.5C17.5313 44.5 14 42.5 13.5 41.5C13 40.5 13 36.9304 13 36.9304H33C33 39.0638 33.124 40.4959 32.5 41.5C31.5057 43.1 27.9715 44.5 23 44.5Z" fill="#898989"/>
<path d="M23 44.5C17.5313 44.5 14 42.5 13.5 41.5C13 40.5 13 36.9304 13 36.9304H33C33 39.0638 33.124 40.4959 32.5 41.5C31.5057 43.1 27.9715 44.5 23 44.5Z" fill="white" fill-opacity="0.6"/>
<path d="M40.3836 22.2136C39.5714 22.1775 38.3919 21.2478 38.876 19.515C39.36 17.7823 41.4491 16.5595 43.8859 16.6679C46.3227 16.7763 47.4827 18.1436 48.6621 19.0733C48.6232 19.9487 48.8735 23.4685 46.7065 26.4421C44.5395 29.4158 42.1388 30.5912 39.5686 31.3875C37.918 31.8988 37.46 33.048 37.421 33.9234C37.3821 34.7988 38.1554 35.7104 38.9677 35.7465" stroke="#FEFEFE" stroke-width="2.5" stroke-linecap="round"/>
<path d="M42 11.0909H4C5.63012 14.8946 6.71687 15.4379 7.80362 19.7849C8.347 21.9584 7.80362 28.8709 8.89037 32.6745C10.2666 37.4914 13.0913 40.0112 15.9542 41.3685C18.8052 42.7201 26.7013 42.7201 30.082 41.3685C33.024 40.1923 35.8121 37.5649 37.1459 32.6745C38.6857 27.0284 37.5844 23.026 38.2326 19.7849C38.776 17.0681 39.8265 15.4379 42 11.0909Z" fill="#898989"/>
<path d="M42 11.0909H4C5.63012 14.8946 6.71687 15.4379 7.80362 19.7849C8.347 21.9584 7.80362 28.8709 8.89037 32.6745C10.2666 37.4914 13.0913 40.0112 15.9542 41.3685C18.8052 42.7201 26.7013 42.7201 30.082 41.3685C33.024 40.1923 35.8121 37.5649 37.1459 32.6745C38.6857 27.0284 37.5844 23.026 38.2326 19.7849C38.776 17.0681 39.8265 15.4379 42 11.0909Z" fill="white" fill-opacity="0.95"/>
<path d="M42 10.8857C42 13.584 33.7218 15.8607 23.2284 15.8607C12.735 15.8607 4 13.584 4 10.8857C4 8.18741 12.735 6 23.2284 6C33.7218 6 42 8.18741 42 10.8857Z" fill="#898989"/>
<path d="M42 10.8857C42 13.584 33.7218 15.8607 23.2284 15.8607C12.735 15.8607 4 13.584 4 10.8857C4 8.18741 12.735 6 23.2284 6C33.7218 6 42 8.18741 42 10.8857Z" fill="white" fill-opacity="0.6"/>
<path d="M42 10.8857C42 13.584 33.7218 15.8607 23.2284 15.8607C12.735 15.8607 4 13.584 4 10.8857C4 8.18741 12.735 6 23.2284 6C33.7218 6 42 8.18741 42 10.8857Z" stroke="#FEFEFE" stroke-width="1.5"/>
<path d="M37 13.4304C37 13.0805 29.3513 11.9305 23 11.9305C16.6487 11.9305 9 13.0805 9 13.4304C9 13.7804 15 15.2305 23 15.2305C32 15.2305 37 13.7804 37 13.4304Z" fill="#FAA21E"/>
<path d="M37 13.4304C37 13.0805 29.3513 11.9305 23 11.9305C16.6487 11.9305 9 13.0805 9 13.4304C9 13.7804 15 15.2305 23 15.2305C32 15.2305 37 13.7804 37 13.4304Z" fill="white" fill-opacity="0.4"/>
<path d="M20.3371 29.6158C20.211 28.4044 20.6796 27.4606 20.9232 27.286L19.0603 27.4381L17.7537 29.6529C17.7825 29.9182 18.4756 31.1394 19.1877 31.945C20.1196 32.9991 21.0397 33.779 21.4594 34.0802L22.0893 33.5682C21.3531 32.5154 20.4388 30.5935 20.3371 29.6158Z" fill="#898989"/>
<path d="M20.3371 29.6158C20.211 28.4044 20.6796 27.4606 20.9232 27.286L19.0603 27.4381L17.7537 29.6529C17.7825 29.9182 18.4756 31.1394 19.1877 31.945C20.1196 32.9991 21.0397 33.779 21.4594 34.0802L22.0893 33.5682C21.3531 32.5154 20.4388 30.5935 20.3371 29.6158Z" fill="white" fill-opacity="0.2"/>
<path d="M22.75 25.0813H17.7121C17.7121 25.0813 16.2917 26.4314 15.25 28.1961C14.2083 29.9608 14 33.6863 14 38H18.375C18.3308 37.3054 17.7121 35.122 17.7121 33.0326C17.7121 30.7451 17.9179 29.4754 18.7917 28.5882C19.6505 27.7162 21.2917 27.8039 22.75 27.8039V25.0813Z" fill="#898989"/>
<path d="M22.75 25.0813H17.7121C17.7121 25.0813 16.2917 26.4314 15.25 28.1961C14.2083 29.9608 14 33.6863 14 38H18.375C18.3308 37.3054 17.7121 35.122 17.7121 33.0326C17.7121 30.7451 17.9179 29.4754 18.7917 28.5882C19.6505 27.7162 21.2917 27.8039 22.75 27.8039V25.0813Z" fill="white" fill-opacity="0.6"/>
<path d="M28.375 18L22.75 25.0588V27.8039L28.375 34.4706C28.0972 33.6209 27.3333 30.6667 27.3333 26.4314C27.3333 22.1961 28.0972 19.0458 28.375 18Z" fill="#898989"/>
<path d="M28.375 18L22.75 25.0588V27.8039L28.375 34.4706C28.0972 33.6209 27.3333 30.6667 27.3333 26.4314C27.3333 22.1961 28.0972 19.0458 28.375 18Z" fill="white" fill-opacity="0.6"/>
<ellipse cx="28.5834" cy="26.2353" rx="1.25" ry="8.2353" fill="#898989"/>
<rect x="27.5" y="26" width="3" height="1" fill="#D0333D"/>
<rect x="27.5" y="26" width="3" height="1" fill="black" fill-opacity="0.2"/>
<circle cx="30.5" cy="26.5" r="1.5" fill="#D0333D"/>
<circle cx="30.5" cy="26.5" r="1.5" fill="black" fill-opacity="0.2"/>
</svg>
