<svg width="50" height="50" viewBox="0 0 50 50" fill="none" xmlns="http://www.w3.org/2000/svg">
<path d="M23 44.5C17.5313 44.5 14 42.5 13.5 41.5C13 40.5 13 36.9304 13 36.9304H33C33 39.0638 33.124 40.4959 32.5 41.5C31.5057 43.1 27.9715 44.5 23 44.5Z" fill="#898989"/>
<path d="M23 44.5C17.5313 44.5 14 42.5 13.5 41.5C13 40.5 13 36.9304 13 36.9304H33C33 39.0638 33.124 40.4959 32.5 41.5C31.5057 43.1 27.9715 44.5 23 44.5Z" fill="white" fill-opacity="0.6"/>
<path d="M40.3836 22.2136C39.5714 22.1775 38.3919 21.2478 38.876 19.515C39.36 17.7823 41.4491 16.5595 43.8859 16.6679C46.3227 16.7763 47.4827 18.1436 48.6621 19.0733C48.6232 19.9487 48.8735 23.4685 46.7065 26.4421C44.5395 29.4158 42.1388 30.5912 39.5686 31.3875C37.918 31.8988 37.46 33.048 37.421 33.9234C37.3821 34.7988 38.1554 35.7104 38.9677 35.7465" stroke="#FEFEFE" stroke-width="2.5" stroke-linecap="round"/>
<path d="M42 11.0909H4C5.63012 14.8946 6.71687 15.4379 7.80362 19.7849C8.347 21.9584 7.80362 28.8709 8.89037 32.6745C10.2666 37.4914 13.0913 40.0112 15.9542 41.3685C18.8052 42.7201 26.7013 42.7201 30.082 41.3685C33.024 40.1923 35.8121 37.5649 37.1459 32.6745C38.6857 27.0284 37.5844 23.026 38.2326 19.7849C38.776 17.0681 39.8265 15.4379 42 11.0909Z" fill="#898989"/>
<path d="M42 11.0909H4C5.63012 14.8946 6.71687 15.4379 7.80362 19.7849C8.347 21.9584 7.80362 28.8709 8.89037 32.6745C10.2666 37.4914 13.0913 40.0112 15.9542 41.3685C18.8052 42.7201 26.7013 42.7201 30.082 41.3685C33.024 40.1923 35.8121 37.5649 37.1459 32.6745C38.6857 27.0284 37.5844 23.026 38.2326 19.7849C38.776 17.0681 39.8265 15.4379 42 11.0909Z" fill="white" fill-opacity="0.95"/>
<path d="M42 10.8857C42 13.584 33.7218 15.8607 23.2284 15.8607C12.735 15.8607 4 13.584 4 10.8857C4 8.18741 12.735 6 23.2284 6C33.7218 6 42 8.18741 42 10.8857Z" fill="#898989"/>
<path d="M42 10.8857C42 13.584 33.7218 15.8607 23.2284 15.8607C12.735 15.8607 4 13.584 4 10.8857C4 8.18741 12.735 6 23.2284 6C33.7218 6 42 8.18741 42 10.8857Z" fill="white" fill-opacity="0.6"/>
<path d="M42 10.8857C42 13.584 33.7218 15.8607 23.2284 15.8607C12.735 15.8607 4 13.584 4 10.8857C4 8.18741 12.735 6 23.2284 6C33.7218 6 42 8.18741 42 10.8857Z" stroke="#FEFEFE" stroke-width="1.5"/>
<path d="M37 13.4304C37 13.0805 29.3513 11.9305 23 11.9305C16.6487 11.9305 9 13.0805 9 13.4304C9 13.7804 15 15.2305 23 15.2305C32 15.2305 37 13.7804 37 13.4304Z" fill="#FAA21E"/>
<path d="M37 13.4304C37 13.0805 29.3513 11.9305 23 11.9305C16.6487 11.9305 9 13.0805 9 13.4304C9 13.7804 15 15.2305 23 15.2305C32 15.2305 37 13.7804 37 13.4304Z" fill="white" fill-opacity="0.4"/>
<path d="M27 34.8485C27 36.3636 26.5952 37.5 22.9524 37.5C21.4683 37.5 18.5 36.9697 18.5 34.8485C18.5 32.197 19.7143 25 22.9524 25C26.1905 25 27 33.3333 27 34.8485Z" fill="#546DDB"/>
<path d="M27 34.8485C27 36.3636 26.5952 37.5 22.9524 37.5C21.4683 37.5 18.5 36.9697 18.5 34.8485C18.5 32.197 19.7143 25 22.9524 25C26.1905 25 27 33.3333 27 34.8485Z" fill="white" fill-opacity="0.6"/>
<path d="M32.9371 27.25C33.675 25.2857 27.7718 19 22.9753 19C17.0725 19 12.719 25.6786 13.0142 27.25C13.3831 29.2143 18.917 30 22.9753 30C27.0336 30 32.1992 29.2143 32.9371 27.25Z" fill="#7445B8"/>
<path d="M32.9371 27.25C33.675 25.2857 27.7718 19 22.9753 19C17.0725 19 12.719 25.6786 13.0142 27.25C13.3831 29.2143 18.917 30 22.9753 30C27.0336 30 32.1992 29.2143 32.9371 27.25Z" fill="white" fill-opacity="0.4"/>
<path d="M20.8831 22.6185C21.4796 22.1567 22.38 21.841 21.6131 21.0978C20.8462 20.3546 19.8027 20.9758 19.206 21.4375C18.4513 22.0215 17.7207 22.9693 18.4865 23.712C19.5075 24.7021 20.2866 23.0803 20.8831 22.6185Z" fill="#FEFEFE"/>
<path d="M18.1863 25.1536C17.9685 24.729 17.4295 24.2012 17.005 24.419C16.5801 24.6367 16.0954 25.2606 16.2699 25.6001C16.4881 26.0247 16.8505 26.6421 17.4511 26.3347C17.8762 26.1171 18.3403 25.4537 18.1863 25.1536Z" fill="#FEFEFE"/>
</svg>
