<svg width="50" height="50" viewBox="0 0 50 50" fill="none" xmlns="http://www.w3.org/2000/svg">
<path d="M23 44.5C17.5313 44.5 14 42.5 13.5 41.5C13 40.5 13 36.9304 13 36.9304H33C33 39.0638 33.124 40.4959 32.5 41.5C31.5057 43.1 27.9715 44.5 23 44.5Z" fill="#898989"/>
<path d="M23 44.5C17.5313 44.5 14 42.5 13.5 41.5C13 40.5 13 36.9304 13 36.9304H33C33 39.0638 33.124 40.4959 32.5 41.5C31.5057 43.1 27.9715 44.5 23 44.5Z" fill="white" fill-opacity="0.6"/>
<path d="M40.3836 22.2136C39.5714 22.1775 38.3919 21.2478 38.876 19.515C39.36 17.7823 41.4491 16.5595 43.8859 16.6679C46.3227 16.7763 47.4827 18.1436 48.6621 19.0733C48.6232 19.9487 48.8735 23.4685 46.7065 26.4421C44.5395 29.4158 42.1388 30.5912 39.5686 31.3875C37.918 31.8988 37.46 33.048 37.421 33.9234C37.3821 34.7988 38.1554 35.7104 38.9677 35.7465" stroke="#FEFEFE" stroke-width="2.5" stroke-linecap="round"/>
<path d="M42 11.0909H4C5.63012 14.8946 6.71687 15.4379 7.80362 19.7849C8.347 21.9584 7.80362 28.8709 8.89037 32.6745C10.2666 37.4914 13.0913 40.0112 15.9542 41.3685C18.8052 42.7201 26.7013 42.7201 30.082 41.3685C33.024 40.1923 35.8121 37.5649 37.1459 32.6745C38.6857 27.0284 37.5844 23.026 38.2326 19.7849C38.776 17.0681 39.8265 15.4379 42 11.0909Z" fill="#898989"/>
<path d="M42 11.0909H4C5.63012 14.8946 6.71687 15.4379 7.80362 19.7849C8.347 21.9584 7.80362 28.8709 8.89037 32.6745C10.2666 37.4914 13.0913 40.0112 15.9542 41.3685C18.8052 42.7201 26.7013 42.7201 30.082 41.3685C33.024 40.1923 35.8121 37.5649 37.1459 32.6745C38.6857 27.0284 37.5844 23.026 38.2326 19.7849C38.776 17.0681 39.8265 15.4379 42 11.0909Z" fill="white" fill-opacity="0.95"/>
<path d="M42 10.8857C42 13.584 33.7218 15.8607 23.2284 15.8607C12.735 15.8607 4 13.584 4 10.8857C4 8.18741 12.735 6 23.2284 6C33.7218 6 42 8.18741 42 10.8857Z" fill="#898989"/>
<path d="M42 10.8857C42 13.584 33.7218 15.8607 23.2284 15.8607C12.735 15.8607 4 13.584 4 10.8857C4 8.18741 12.735 6 23.2284 6C33.7218 6 42 8.18741 42 10.8857Z" fill="white" fill-opacity="0.6"/>
<path d="M42 10.8857C42 13.584 33.7218 15.8607 23.2284 15.8607C12.735 15.8607 4 13.584 4 10.8857C4 8.18741 12.735 6 23.2284 6C33.7218 6 42 8.18741 42 10.8857Z" stroke="#FEFEFE" stroke-width="1.5"/>
<path d="M37 13.4304C37 13.0805 29.3513 11.9305 23 11.9305C16.6487 11.9305 9 13.0805 9 13.4304C9 13.7804 15 15.2305 23 15.2305C32 15.2305 37 13.7804 37 13.4304Z" fill="#FAA21E"/>
<path d="M37 13.4304C37 13.0805 29.3513 11.9305 23 11.9305C16.6487 11.9305 9 13.0805 9 13.4304C9 13.7804 15 15.2305 23 15.2305C32 15.2305 37 13.7804 37 13.4304Z" fill="white" fill-opacity="0.4"/>
<path d="M19.7554 27.0808C18.5295 27.3133 16.0695 27.9349 15 28.2551C16.5278 28.522 19.9388 29.1199 21.3597 29.3761C23.1358 29.6964 26.688 30.4971 28.636 30.3903C30.584 30.2835 31.5007 29.9099 31.9591 29.3761C32.4174 28.8423 32.2946 28.4901 30.95 27.7016C29.8653 27.0655 28.2369 26.5784 26.0991 26.4361C23.3826 26.2553 21.2482 26.7977 19.7554 27.0808Z" fill="#FAA21E"/>
<path d="M19.7554 27.0808C18.5295 27.3133 16.0695 27.9349 15 28.2551C16.5278 28.522 19.9388 29.1199 21.3597 29.3761C23.1358 29.6964 26.688 30.4971 28.636 30.3903C30.584 30.2835 31.5007 29.9099 31.9591 29.3761C32.4174 28.8423 32.2946 28.4901 30.95 27.7016C29.8653 27.0655 28.2369 26.5784 26.0991 26.4361C23.3826 26.2553 21.2482 26.7977 19.7554 27.0808Z" fill="black" fill-opacity="0.4"/>
<path d="M16.8581 27.6314C14.7549 27.4361 13.7814 28.2072 13.8003 28.3802C14.1955 29.1299 15.2972 31.1113 15.6033 31.6674C16.2845 32.9047 17.6393 35.5312 17.8652 35.8196C18.1965 36.4203 22.0205 36.8 24.4706 36.8C26.3697 36.8 27.4064 36.3771 27.6887 36.1079C28.3097 34.993 29.6985 32.544 30.2857 31.6674C31.0196 30.5716 31.9229 29.8796 32.1488 29.3606C32.3746 28.8416 31.7717 28.022 31.9229 28.3802C32.114 28.8326 31.6406 29.995 29.5517 30.1103C27.4628 30.2256 23.4617 29.6174 21.8293 29.1939C19.8677 28.685 18.5718 27.7906 16.8581 27.6314Z" fill="#C57A09"/>
<path d="M17.1586 24.4963C16.667 25.9147 16.5822 28.0607 16.6027 28.8179L17.7998 29.2C17.7793 28.3135 17.7855 25.9036 18.0804 24.8841C18.4492 23.6098 19.2481 22.3355 20.1699 21.3936C21.0917 20.4517 21.7899 20.0311 22.7875 19.8401C23.4565 19.7119 24.5207 20.0195 25.3811 20.7952C26.2414 21.5708 26.5781 22.1323 26.9298 23.5544C27.2216 24.7342 27.2659 25.5526 27.0664 26.5076L28.1877 26.7C28.2287 26.109 28.1835 24.4187 27.7902 23.0004C27.2985 21.2274 25.9199 20.0121 24.3835 19.458C22.8472 18.904 21.8068 19.2802 20.3934 20.2221C18.9799 21.164 17.7732 22.7233 17.1586 24.4963Z" fill="#FAA21E"/>
<path d="M17.1586 24.4963C16.667 25.9147 16.5822 28.0607 16.6027 28.8179L17.7998 29.2C17.7793 28.3135 17.7855 25.9036 18.0804 24.8841C18.4492 23.6098 19.2481 22.3355 20.1699 21.3936C21.0917 20.4517 21.7899 20.0311 22.7875 19.8401C23.4565 19.7119 24.5207 20.0195 25.3811 20.7952C26.2414 21.5708 26.5781 22.1323 26.9298 23.5544C27.2216 24.7342 27.2659 25.5526 27.0664 26.5076L28.1877 26.7C28.2287 26.109 28.1835 24.4187 27.7902 23.0004C27.2985 21.2274 25.9199 20.0121 24.3835 19.458C22.8472 18.904 21.8068 19.2802 20.3934 20.2221C18.9799 21.164 17.7732 22.7233 17.1586 24.4963Z" fill="black" fill-opacity="0.6"/>
<ellipse cx="17.1926" cy="29.431" rx="1.31544" ry="0.751679" transform="rotate(13.4102 17.1926 29.431)" fill="#FAA21E"/>
<ellipse cx="17.1926" cy="29.431" rx="1.31544" ry="0.751679" transform="rotate(13.4102 17.1926 29.431)" fill="black" fill-opacity="0.6"/>
</svg>
