<svg width="50" height="50" viewBox="0 0 50 50" fill="none" xmlns="http://www.w3.org/2000/svg">
<path d="M23 44.5C17.5313 44.5 14 42.5 13.5 41.5C13 40.5 13 36.9304 13 36.9304H33C33 39.0638 33.124 40.4959 32.5 41.5C31.5057 43.1 27.9715 44.5 23 44.5Z" fill="#898989"/>
<path d="M23 44.5C17.5313 44.5 14 42.5 13.5 41.5C13 40.5 13 36.9304 13 36.9304H33C33 39.0638 33.124 40.4959 32.5 41.5C31.5057 43.1 27.9715 44.5 23 44.5Z" fill="white" fill-opacity="0.6"/>
<path d="M40.3836 22.2136C39.5714 22.1775 38.3919 21.2478 38.876 19.515C39.36 17.7823 41.4491 16.5595 43.8859 16.6679C46.3227 16.7763 47.4827 18.1436 48.6621 19.0733C48.6232 19.9487 48.8735 23.4685 46.7065 26.4421C44.5395 29.4158 42.1388 30.5912 39.5686 31.3875C37.918 31.8988 37.46 33.048 37.421 33.9234C37.3821 34.7988 38.1554 35.7104 38.9677 35.7465" stroke="#FEFEFE" stroke-width="2.5" stroke-linecap="round"/>
<path d="M42 11.0909H4C5.63012 14.8946 6.71687 15.4379 7.80362 19.7849C8.347 21.9584 7.80362 28.8709 8.89037 32.6745C10.2666 37.4914 13.0913 40.0112 15.9542 41.3685C18.8052 42.7201 26.7013 42.7201 30.082 41.3685C33.024 40.1923 35.8121 37.5649 37.1459 32.6745C38.6857 27.0284 37.5844 23.026 38.2326 19.7849C38.776 17.0681 39.8265 15.4379 42 11.0909Z" fill="#898989"/>
<path d="M42 11.0909H4C5.63012 14.8946 6.71687 15.4379 7.80362 19.7849C8.347 21.9584 7.80362 28.8709 8.89037 32.6745C10.2666 37.4914 13.0913 40.0112 15.9542 41.3685C18.8052 42.7201 26.7013 42.7201 30.082 41.3685C33.024 40.1923 35.8121 37.5649 37.1459 32.6745C38.6857 27.0284 37.5844 23.026 38.2326 19.7849C38.776 17.0681 39.8265 15.4379 42 11.0909Z" fill="white" fill-opacity="0.95"/>
<path d="M42 10.8857C42 13.584 33.7218 15.8607 23.2284 15.8607C12.735 15.8607 4 13.584 4 10.8857C4 8.18741 12.735 6 23.2284 6C33.7218 6 42 8.18741 42 10.8857Z" fill="#898989"/>
<path d="M42 10.8857C42 13.584 33.7218 15.8607 23.2284 15.8607C12.735 15.8607 4 13.584 4 10.8857C4 8.18741 12.735 6 23.2284 6C33.7218 6 42 8.18741 42 10.8857Z" fill="white" fill-opacity="0.6"/>
<path d="M42 10.8857C42 13.584 33.7218 15.8607 23.2284 15.8607C12.735 15.8607 4 13.584 4 10.8857C4 8.18741 12.735 6 23.2284 6C33.7218 6 42 8.18741 42 10.8857Z" stroke="#FEFEFE" stroke-width="1.5"/>
<path d="M37 13.4304C37 13.0805 29.3513 11.9305 23 11.9305C16.6487 11.9305 9 13.0805 9 13.4304C9 13.7804 15 15.2305 23 15.2305C32 15.2305 37 13.7804 37 13.4304Z" fill="#FAA21E"/>
<path d="M37 13.4304C37 13.0805 29.3513 11.9305 23 11.9305C16.6487 11.9305 9 13.0805 9 13.4304C9 13.7804 15 15.2305 23 15.2305C32 15.2305 37 13.7804 37 13.4304Z" fill="white" fill-opacity="0.4"/>
<path d="M16.5714 33.2857L14.8571 32.1428H31.1429L29.4286 33.2857C28.9829 33.4995 27.7143 34 25.8571 34.2857C23.6712 34.622 22.3062 34.5947 20.1429 34.2857C18.1429 34 17.1063 33.5578 16.5714 33.2857Z" fill="#898989"/>
<path d="M13.9938 29.4286C14.5714 29.1429 15.6713 28.9347 16 28.8572H30C30.254 28.9347 31.1325 29.0164 31.9938 29.4286C32.5652 29.7021 32.9925 30.0649 32.9925 30.5787C32.9925 31.4286 31.5711 32.0597 30.1367 32.5715L30.0799 32.5917C28.6567 33.0998 26.9351 33.7143 22.9938 33.7143C19 33.7143 17.3594 33.026 15.8509 32.5715C14.4286 32.1429 13 31.1429 13 30.5787C13 30.0144 13.5321 29.657 13.9938 29.4286Z" fill="#898989"/>
<path d="M13.9938 29.4286C14.5714 29.1429 15.6713 28.9347 16 28.8572H30C30.254 28.9347 31.1325 29.0164 31.9938 29.4286C32.5652 29.7021 32.9925 30.0649 32.9925 30.5787C32.9925 31.4286 31.5711 32.0597 30.1367 32.5715L30.0799 32.5917C28.6567 33.0998 26.9351 33.7143 22.9938 33.7143C19 33.7143 17.3594 33.026 15.8509 32.5715C14.4286 32.1429 13 31.1429 13 30.5787C13 30.0144 13.5321 29.657 13.9938 29.4286Z" fill="white" fill-opacity="0.4"/>
<ellipse cx="23" cy="30.4286" rx="8.28571" ry="1.57143" fill="#898989"/>
<path d="M15.9737 28C15.8413 29.2857 15.8571 30.4286 15.8571 30.5714C15.8571 30.7143 16 31.1429 16.1428 31.2857C16.2857 31.4286 19.5635 32.2857 22.9921 32.2857C26.4206 32.2857 29.7143 31.4286 29.8571 31.2857C30 31.1429 30.1428 30.7143 30.1428 30.5714C30.1428 30.4286 30.1428 29.1429 30.0104 28C29.878 26.8571 29.0007 25.3698 27.7592 24.4286C26.2043 23.2497 24.5394 23 23 23C21.4109 23 19.5273 23.3877 18.2249 24.4286C16.9225 25.4695 16.1061 26.7143 15.9737 28Z" fill="#898989"/>
<path d="M15.9737 28C15.8413 29.2857 15.8571 30.4286 15.8571 30.5714C15.8571 30.7143 16 31.1429 16.1428 31.2857C16.2857 31.4286 19.5635 32.2857 22.9921 32.2857C26.4206 32.2857 29.7143 31.4286 29.8571 31.2857C30 31.1429 30.1428 30.7143 30.1428 30.5714C30.1428 30.4286 30.1428 29.1429 30.0104 28C29.878 26.8571 29.0007 25.3698 27.7592 24.4286C26.2043 23.2497 24.5394 23 23 23C21.4109 23 19.5273 23.3877 18.2249 24.4286C16.9225 25.4695 16.1061 26.7143 15.9737 28Z" fill="white" fill-opacity="0.6"/>
<path d="M19 24.8571C19.7143 24.2857 20.5714 23.8571 21.4286 23.7142C20.7143 24.2857 20 25.1428 19.5714 25.8571C19.1556 26.55 18.8571 27.9999 18.8571 28.9999C18.8571 29.8571 19 31.1428 19.2857 31.9999L17.1429 31.5714C17.0476 31.1428 17.0286 29.9428 17.1429 28.5714C17.2857 26.8571 18.1287 25.5541 19 24.8571Z" fill="#FEFEFE"/>
<path d="M22.2857 23.1428C22.2857 22.9965 21.8572 22.1428 21.5714 21.7142H24.4286C24.1429 22.1428 23.7143 22.9999 23.7143 23.1428C23.7143 23.2857 24.2857 23.5771 24.2857 23.7142C24.2857 23.8514 23.7834 23.9999 23 23.9999C22.2166 23.9999 21.7143 23.8514 21.7143 23.7142C21.7143 23.5771 22.2857 23.2891 22.2857 23.1428Z" fill="#898989"/>
<path d="M22.2857 23.1428C22.2857 22.9965 21.8572 22.1428 21.5714 21.7142H24.4286C24.1429 22.1428 23.7143 22.9999 23.7143 23.1428C23.7143 23.2857 24.2857 23.5771 24.2857 23.7142C24.2857 23.8514 23.7834 23.9999 23 23.9999C22.2166 23.9999 21.7143 23.8514 21.7143 23.7142C21.7143 23.5771 22.2857 23.2891 22.2857 23.1428Z" fill="white" fill-opacity="0.4"/>
<ellipse cx="23" cy="21.7143" rx="1.42857" ry="0.285714" fill="#898989"/>
<ellipse cx="23" cy="21.7143" rx="1.42857" ry="0.285714" fill="white" fill-opacity="0.6"/>
</svg>
