<svg width="50" height="50" viewBox="0 0 50 50" fill="none" xmlns="http://www.w3.org/2000/svg">
<path d="M46.7441 22.9592L23.9215 23.5919V33.5774C22.7736 33.3861 19.5594 33.4626 15.8861 35.2993C12.2128 37.136 11.7901 41.9388 13.6881 45.1021C16.7492 45.4848 18.9385 45.7348 26.9738 45.7348C34.7222 45.7348 41.4357 44.6021 44.6881 43.8368L46.7441 22.9592Z" fill="#FAA21E"/>
<path d="M46.7441 22.9592L23.9215 23.5919V33.5774C22.7736 33.3861 19.5594 33.4626 15.8861 35.2993C12.2128 37.136 11.7901 41.9388 13.6881 45.1021C16.7492 45.4848 18.9385 45.7348 26.9738 45.7348C34.7222 45.7348 41.4357 44.6021 44.6881 43.8368L46.7441 22.9592Z" fill="black" fill-opacity="0.6"/>
<path d="M27.788 47.0001C21.0866 47.0001 14.9751 46.3099 13.0554 45.9648V43.8368C15.1496 44.0669 21.5055 44.5845 27.788 44.5845C34.0706 44.5845 42.0704 43.6643 44.6881 43.2042V45.9648C42.2449 46.3099 34.4894 47.0001 27.788 47.0001Z" fill="#FAA21E"/>
<path d="M27.788 47.0001C21.0866 47.0001 14.9751 46.3099 13.0554 45.9648V43.8368C15.1496 44.0669 21.5055 44.5845 27.788 44.5845C34.0706 44.5845 42.0704 43.6643 44.6881 43.2042V45.9648C42.2449 46.3099 34.4894 47.0001 27.788 47.0001Z" fill="black" fill-opacity="0.4"/>
<path d="M35.3563 26.7551C31.2567 26.7551 26.0563 27.3175 23.9685 27.5987V34.9796L27 32L28 36L30.5 33L32 37L33.5 32.5L35.5 36.5L37.5 34.5L39.5 36.5L41 33.5034L42.5 37.5L44 32.5L45.5 37L46.744 26.7551C44.6563 26.5677 39.4559 26.7551 35.3563 26.7551Z" fill="#FAA21E"/>
<path d="M35.3563 26.7551C31.2567 26.7551 26.0563 27.3175 23.9685 27.5987V34.9796L27 32L28 36L30.5 33L32 37L33.5 32.5L35.5 36.5L37.5 34.5L39.5 36.5L41 33.5034L42.5 37.5L44 32.5L45.5 37L46.744 26.7551C44.6563 26.5677 39.4559 26.7551 35.3563 26.7551Z" fill="black" fill-opacity="0.4"/>
<path d="M35.9889 19.1632C32.543 19.1632 25.2338 19.7959 22.7032 21.1919L23.6823 29.5391L26.2187 27.2626L29 31L30 28L32 30L34 28.5L35.5 31L37.5 27.5L39 31L41 28L43 30L43.7917 26.755L46.8043 29.5391L48.0093 20.4331C44.9967 19.1632 39.4349 19.1632 35.9889 19.1632Z" fill="#C57A09"/>
<path d="M34.2649 16C29.7686 16 23.5862 16.4016 22.7032 17.2653C21.8203 18.129 22.4916 21.6003 22.7032 24.2245L25 21.0612L26.5 23.6854L28.5 21.5291L30 25L32 22.5L33.5 24L35 21.0612L37.5 25L39.5 21L40.5 24.5L42 22L44.1563 24.2245L45.5 21.5291L48.0094 23.5918C48.0094 21.6939 48.6637 18.4819 47.3767 17.2653C46.0897 16.0487 38.7612 16 34.2649 16Z" fill="#FAA21E"/>
<path d="M34.2649 16C29.7686 16 23.5862 16.4016 22.7032 17.2653C21.8203 18.129 22.4916 21.6003 22.7032 24.2245L25 21.0612L26.5 23.6854L28.5 21.5291L30 25L32 22.5L33.5 24L35 21.0612L37.5 25L39.5 21L40.5 24.5L42 22L44.1563 24.2245L45.5 21.5291L48.0094 23.5918C48.0094 21.6939 48.6637 18.4819 47.3767 17.2653C46.0897 16.0487 38.7612 16 34.2649 16Z" fill="black" fill-opacity="0.1"/>
<mask id="mask0_1602_8469" style="mask-type:alpha" maskUnits="userSpaceOnUse" x="0" y="1" width="40" height="34">
<path d="M11 2.49998C13.9051 1.63366 33.9478 1.81952 40 2L38.5 13.5C38.5 13.5 22.7969 13.2031 20.5 15.5C18.2031 17.7968 21.5 31 21.5 31C16.7553 31.1147 14.9161 32.0156 12.5 34.5L1.5 34L0.5 22.5L10.719 19.3373C8.71912 16.6072 8.09495 3.3663 11 2.49998Z" fill="#FEFEFE"/>
</mask>
<g mask="url(#mask0_1602_8469)">
<path d="M35.7441 9.95923L12.9215 10.5919V20.5774C11.7736 20.3861 8.55944 20.4626 4.88613 22.2993C1.21282 24.136 0.790126 28.9388 2.68809 32.1021C5.74918 32.4848 7.93846 32.7348 15.9738 32.7348C23.7222 32.7348 30.4357 31.6021 33.6881 30.8368L35.7441 9.95923Z" fill="#FAA21E"/>
<path d="M35.7441 9.95923L12.9215 10.5919V20.5774C11.7736 20.3861 8.55944 20.4626 4.88613 22.2993C1.21282 24.136 0.790126 28.9388 2.68809 32.1021C5.74918 32.4848 7.93846 32.7348 15.9738 32.7348C23.7222 32.7348 30.4357 31.6021 33.6881 30.8368L35.7441 9.95923Z" fill="black" fill-opacity="0.6"/>
<path d="M16.788 34.0001C10.0866 34.0001 3.97509 33.3099 2.05542 32.9648V30.8368C4.14961 31.0669 10.5055 31.5845 16.788 31.5845C23.0706 31.5845 31.0704 30.6643 33.6881 30.2042V32.9648C31.2449 33.3099 23.4894 34.0001 16.788 34.0001Z" fill="#FAA21E"/>
<path d="M16.788 34.0001C10.0866 34.0001 3.97509 33.3099 2.05542 32.9648V30.8368C4.14961 31.0669 10.5055 31.5845 16.788 31.5845C23.0706 31.5845 31.0704 30.6643 33.6881 30.2042V32.9648C31.2449 33.3099 23.4894 34.0001 16.788 34.0001Z" fill="black" fill-opacity="0.4"/>
<path d="M24.3563 13.7551C20.2567 13.7551 15.0563 14.3175 12.9685 14.5987V21.9796L16 19L17 23L19.5 20L21 24L22.5 19.5L24.5 23.5L26.5 21.5L28.5 23.5L30 20.5034L31.5 24.5L33 19.5L34.5 24L35.744 13.7551C33.6563 13.5677 28.4559 13.7551 24.3563 13.7551Z" fill="#FAA21E"/>
<path d="M24.3563 13.7551C20.2567 13.7551 15.0563 14.3175 12.9685 14.5987V21.9796L16 19L17 23L19.5 20L21 24L22.5 19.5L24.5 23.5L26.5 21.5L28.5 23.5L30 20.5034L31.5 24.5L33 19.5L34.5 24L35.744 13.7551C33.6563 13.5677 28.4559 13.7551 24.3563 13.7551Z" fill="black" fill-opacity="0.4"/>
<path d="M24.9889 6.16321C21.543 6.16321 14.2338 6.79586 11.7032 8.19193L12.6823 16.5391L15.2187 14.2626L18 18L19 15L21.5 17L23 15L24.5 18L26.5 14.5L28 18L30 15L32 17L32.7917 13.755L35.8043 16.5391L37.0093 7.43309C33.9967 6.16321 28.4349 6.16321 24.9889 6.16321Z" fill="#C57A09"/>
<path d="M23.2649 3C18.7686 3 12.5862 3.40156 11.7032 4.26528C10.8203 5.129 11.4916 8.60033 11.7032 11.2245L14 8.06123L15.5 10.6854L17.5 8.52914L19 12L21 9.5L22.5 11L24 8.06123L26.5 12L28.5 8L29.5 11.5L31 9L33.1563 11.2245L34.5 8.52914L37.0094 10.5918C37.0094 8.69389 37.6637 5.48192 36.3767 4.26531C35.0897 3.0487 27.7612 3 23.2649 3Z" fill="#FAA21E"/>
<path d="M23.2649 3C18.7686 3 12.5862 3.40156 11.7032 4.26528C10.8203 5.129 11.4916 8.60033 11.7032 11.2245L14 8.06123L15.5 10.6854L17.5 8.52914L19 12L21 9.5L22.5 11L24 8.06123L26.5 12L28.5 8L29.5 11.5L31 9L33.1563 11.2245L34.5 8.52914L37.0094 10.5918C37.0094 8.69389 37.6637 5.48192 36.3767 4.26531C35.0897 3.0487 27.7612 3 23.2649 3Z" fill="black" fill-opacity="0.1"/>
</g>
</svg>
