<svg width="50" height="51" viewBox="0 0 50 51" fill="none" xmlns="http://www.w3.org/2000/svg">
<line x1="25" y1="8.72363" x2="25" y2="3.26242" stroke="#FAA21E" stroke-linecap="round"/>
<line x1="25" y1="8.72363" x2="25" y2="3.26242" stroke="white" stroke-opacity="0.4" stroke-linecap="round"/>
<line x1="25" y1="48.6655" x2="25" y2="43.2043" stroke="#FAA21E" stroke-linecap="round"/>
<line x1="25" y1="48.6655" x2="25" y2="43.2043" stroke="white" stroke-opacity="0.4" stroke-linecap="round"/>
<line x1="47.3843" y1="26" x2="41.9608" y2="26" stroke="#FAA21E" stroke-linecap="round"/>
<line x1="47.3843" y1="26" x2="41.9608" y2="26" stroke="white" stroke-opacity="0.4" stroke-linecap="round"/>
<line x1="0.5" y1="-0.5" x2="5.95199" y2="-0.5" transform="matrix(-0.492924 0.870072 -0.867579 -0.4973 35.8818 5.40527)" stroke="#FAA21E" stroke-linecap="round"/>
<line x1="0.5" y1="-0.5" x2="5.95199" y2="-0.5" transform="matrix(-0.492924 0.870072 -0.867579 -0.4973 35.8818 5.40527)" stroke="white" stroke-opacity="0.4" stroke-linecap="round"/>
<line x1="0.5" y1="-0.5" x2="5.93396" y2="-0.5" transform="matrix(-0.849006 0.528383 -0.523928 -0.851763 44.7008 13.4287)" stroke="#FAA21E" stroke-linecap="round"/>
<line x1="0.5" y1="-0.5" x2="5.93396" y2="-0.5" transform="matrix(-0.849006 0.528383 -0.523928 -0.851763 44.7008 13.4287)" stroke="white" stroke-opacity="0.4" stroke-linecap="round"/>
<line x1="0.5" y1="-0.5" x2="5.93221" y2="-0.5" transform="matrix(-0.875939 -0.482423 0.478097 -0.878307 45.6342 37.103)" stroke="#FAA21E" stroke-linecap="round"/>
<line x1="0.5" y1="-0.5" x2="5.93221" y2="-0.5" transform="matrix(-0.875939 -0.482423 0.478097 -0.878307 45.6342 37.103)" stroke="white" stroke-opacity="0.4" stroke-linecap="round"/>
<line x1="0.5" y1="-0.5" x2="5.95021" y2="-0.5" transform="matrix(-0.538306 -0.842749 0.839871 -0.542786 37.3983 45.6436)" stroke="#FAA21E" stroke-linecap="round"/>
<line x1="0.5" y1="-0.5" x2="5.95021" y2="-0.5" transform="matrix(-0.538306 -0.842749 0.839871 -0.542786 37.3983 45.6436)" stroke="white" stroke-opacity="0.4" stroke-linecap="round"/>
<line x1="2.54382" y1="26.0537" x2="7.96732" y2="26.0537" stroke="#FAA21E" stroke-linecap="round"/>
<line x1="2.54382" y1="26.0537" x2="7.96732" y2="26.0537" stroke="white" stroke-opacity="0.4" stroke-linecap="round"/>
<line x1="0.5" y1="-0.5" x2="5.95199" y2="-0.5" transform="matrix(0.492924 -0.870072 0.867579 0.4973 14.0463 46.231)" stroke="#FAA21E" stroke-linecap="round"/>
<line x1="0.5" y1="-0.5" x2="5.95199" y2="-0.5" transform="matrix(0.492924 -0.870072 0.867579 0.4973 14.0463 46.231)" stroke="white" stroke-opacity="0.4" stroke-linecap="round"/>
<line x1="0.5" y1="-0.5" x2="5.93396" y2="-0.5" transform="matrix(0.849006 -0.528383 0.523928 0.851763 5.22729 38.2075)" stroke="#FAA21E" stroke-linecap="round"/>
<line x1="0.5" y1="-0.5" x2="5.93396" y2="-0.5" transform="matrix(0.849006 -0.528383 0.523928 0.851763 5.22729 38.2075)" stroke="white" stroke-opacity="0.4" stroke-linecap="round"/>
<line x1="0.5" y1="-0.5" x2="5.93221" y2="-0.5" transform="matrix(0.875938 0.482423 -0.478097 0.878307 4.70435 14.9985)" stroke="#FAA21E" stroke-linecap="round"/>
<line x1="0.5" y1="-0.5" x2="5.93221" y2="-0.5" transform="matrix(0.875938 0.482423 -0.478097 0.878307 4.70435 14.9985)" stroke="white" stroke-opacity="0.4" stroke-linecap="round"/>
<line x1="0.5" y1="-0.5" x2="5.95021" y2="-0.5" transform="matrix(0.538306 0.842749 -0.839871 0.542786 12.5297 5.99268)" stroke="#FAA21E" stroke-linecap="round"/>
<line x1="0.5" y1="-0.5" x2="5.95021" y2="-0.5" transform="matrix(0.538306 0.842749 -0.839871 0.542786 12.5297 5.99268)" stroke="white" stroke-opacity="0.4" stroke-linecap="round"/>
<line x1="0.5" y1="-0.5" x2="8.7191" y2="-0.5" transform="matrix(0.267517 -0.963553 0.962737 0.270438 30 9.88281)" stroke="#FAA21E" stroke-linecap="round"/>
<line x1="0.5" y1="-0.5" x2="8.7191" y2="-0.5" transform="matrix(0.267517 -0.963553 0.962737 0.270438 30 9.88281)" stroke="white" stroke-opacity="0.4" stroke-linecap="round"/>
<line x1="0.5" y1="-0.5" x2="8.7191" y2="-0.5" transform="matrix(0.267517 -0.963553 0.962737 0.270438 18.6865 51)" stroke="#FAA21E" stroke-linecap="round"/>
<line x1="0.5" y1="-0.5" x2="8.7191" y2="-0.5" transform="matrix(0.267517 -0.963553 0.962737 0.270438 18.6865 51)" stroke="white" stroke-opacity="0.4" stroke-linecap="round"/>
<line x1="0.5" y1="-0.5" x2="8.67305" y2="-0.5" transform="matrix(-0.962737 -0.270438 0.267517 -0.963553 50 32.2627)" stroke="#FAA21E" stroke-linecap="round"/>
<line x1="0.5" y1="-0.5" x2="8.67305" y2="-0.5" transform="matrix(-0.962737 -0.270438 0.267517 -0.963553 50 32.2627)" stroke="white" stroke-opacity="0.4" stroke-linecap="round"/>
<line x1="0.5" y1="-0.5" x2="8.69584" y2="-0.5" transform="matrix(-0.708495 0.705716 -0.701557 -0.712614 43.0124 7.16748)" stroke="#FAA21E" stroke-linecap="round"/>
<line x1="0.5" y1="-0.5" x2="8.69584" y2="-0.5" transform="matrix(-0.708495 0.705716 -0.701557 -0.712614 43.0124 7.16748)" stroke="white" stroke-opacity="0.4" stroke-linecap="round"/>
<line x1="0.5" y1="-0.5" x2="8.67332" y2="-0.5" transform="matrix(-0.960135 0.279537 -0.276533 -0.961004 49.6844 18.6216)" stroke="#FAA21E" stroke-linecap="round"/>
<line x1="0.5" y1="-0.5" x2="8.67332" y2="-0.5" transform="matrix(-0.960135 0.279537 -0.276533 -0.961004 49.6844 18.6216)" stroke="white" stroke-opacity="0.4" stroke-linecap="round"/>
<line x1="0.5" y1="-0.5" x2="8.69545" y2="-0.5" transform="matrix(-0.713579 -0.700575 0.696387 -0.717667 43.6428 43.8599)" stroke="#FAA21E" stroke-linecap="round"/>
<line x1="0.5" y1="-0.5" x2="8.69545" y2="-0.5" transform="matrix(-0.713579 -0.700575 0.696387 -0.717667 43.6428 43.8599)" stroke="white" stroke-opacity="0.4" stroke-linecap="round"/>
<line x1="0.5" y1="-0.5" x2="8.71833" y2="-0.5" transform="matrix(-0.292762 -0.956185 0.955216 -0.29591 32.4805 50.6377)" stroke="#FAA21E" stroke-linecap="round"/>
<line x1="0.5" y1="-0.5" x2="8.71833" y2="-0.5" transform="matrix(-0.292762 -0.956185 0.955216 -0.29591 32.4805 50.6377)" stroke="white" stroke-opacity="0.4" stroke-linecap="round"/>
<line x1="0.5" y1="-0.5" x2="8.67305" y2="-0.5" transform="matrix(0.962737 0.270438 -0.267517 0.963553 0 19.5024)" stroke="#FAA21E" stroke-linecap="round"/>
<line x1="0.5" y1="-0.5" x2="8.67305" y2="-0.5" transform="matrix(0.962737 0.270438 -0.267517 0.963553 0 19.5024)" stroke="white" stroke-opacity="0.4" stroke-linecap="round"/>
<line x1="0.5" y1="-0.5" x2="8.69584" y2="-0.5" transform="matrix(0.708495 -0.705716 0.701557 0.712614 7 44.4897)" stroke="#FAA21E" stroke-linecap="round"/>
<line x1="0.5" y1="-0.5" x2="8.69584" y2="-0.5" transform="matrix(0.708495 -0.705716 0.701557 0.712614 7 44.4897)" stroke="white" stroke-opacity="0.4" stroke-linecap="round"/>
<line x1="0.5" y1="-0.5" x2="8.67332" y2="-0.5" transform="matrix(0.960135 -0.279536 0.276533 0.961004 0.291992 33.2271)" stroke="#FAA21E" stroke-linecap="round"/>
<line x1="0.5" y1="-0.5" x2="8.67332" y2="-0.5" transform="matrix(0.960135 -0.279536 0.276533 0.961004 0.291992 33.2271)" stroke="white" stroke-opacity="0.4" stroke-linecap="round"/>
<line x1="0.5" y1="-0.5" x2="8.69545" y2="-0.5" transform="matrix(0.713579 0.700575 -0.696387 0.717667 6.42346 8.04883)" stroke="#FAA21E" stroke-linecap="round"/>
<line x1="0.5" y1="-0.5" x2="8.69545" y2="-0.5" transform="matrix(0.713579 0.700575 -0.696387 0.717667 6.42346 8.04883)" stroke="white" stroke-opacity="0.4" stroke-linecap="round"/>
<line x1="0.5" y1="-0.5" x2="8.71833" y2="-0.5" transform="matrix(0.292762 0.956185 -0.955216 0.29591 17.5186 1)" stroke="#FAA21E" stroke-linecap="round"/>
<line x1="0.5" y1="-0.5" x2="8.71833" y2="-0.5" transform="matrix(0.292762 0.956185 -0.955216 0.29591 17.5186 1)" stroke="white" stroke-opacity="0.4" stroke-linecap="round"/>
<path d="M18.3426 30.0398C18.0275 27.0112 19.1988 24.6518 19.8079 24.2153L15.1507 24.5955L11.8841 30.1324C11.9562 30.7957 13.6889 33.8488 15.4692 35.8627C17.7989 38.498 20.0993 40.4476 21.1484 41.2008L22.7231 39.9207C20.8826 37.2888 18.597 32.4839 18.3426 30.0398Z" fill="#FAA21E"/>
<path d="M12.8955 50.4997H2.50075C2.51962 44.2404 2.89517 39.0646 3.67886 34.905C4.48424 30.6303 5.71365 27.4682 7.39468 25.3069C9.12687 23.0798 10.4631 21.7948 11.5961 20.9824C12.7219 20.1751 13.6677 19.8188 14.6643 19.472C15.0974 19.3214 15.9723 19.2042 17.1066 19.1238C18.2193 19.045 19.5207 19.0046 20.7652 18.9862C22.0087 18.9677 23.19 18.9711 24.0608 18.9792C24.4397 18.9827 24.7597 18.9871 25 18.9909V24.9989C24.8758 24.9985 24.7498 24.9979 24.6223 24.9974C22.9943 24.9901 21.1162 24.9818 19.3737 25.1706C17.3307 25.392 15.3283 25.8956 14.1229 27.1195C12.9381 28.3225 12.4076 29.6341 12.1749 31.3553C11.9848 32.762 11.9902 34.4792 11.9972 36.6575C11.9986 37.0867 12 37.5337 12 37.9998C12 41.8707 12.4549 46.2287 12.735 48.9121C12.8009 49.5434 12.8571 50.082 12.8955 50.4997Z" fill="#FEFEFE" stroke="#FAA21E"/>
<path d="M38.3172 2.59311C38.2896 2.6905 38.2609 2.79158 38.2312 2.89633C37.3373 6.04611 35.5 12.5203 35.5 22C35.5 31.6516 37.4028 38.5841 38.2847 41.4061C37.8585 41.2988 37.4077 41.1009 36.9351 40.8201C36.1913 40.3783 35.4254 39.7503 34.6588 39.0143C33.3366 37.745 32.0589 36.2016 30.9249 34.8317C30.7407 34.6092 30.5603 34.3913 30.3841 34.1799C29.1628 32.7143 27.7742 30.498 26.6817 28.6277C26.1379 27.6966 25.6716 26.8585 25.3412 26.2532C25.1761 25.9506 25.0451 25.7064 24.9555 25.5381C24.9232 25.4773 24.8962 25.4265 24.875 25.3863V18.7788L24.9744 18.6039C25.0802 18.4178 25.2337 18.1491 25.4237 17.8187C25.8037 17.1578 26.3299 16.2509 26.9143 15.2663C28.0883 13.2884 29.4813 11.0249 30.4 9.8C31.3309 8.55876 32.8117 6.70909 34.423 5.17457C35.2288 4.4071 36.0551 3.73022 36.8509 3.24792C37.3748 2.93042 37.8666 2.70878 38.3172 2.59311Z" fill="#FEFEFE" stroke="#FAA21E"/>
<ellipse cx="39" cy="22" rx="3" ry="20" fill="#FAA21E"/>
<circle cx="45" cy="22" r="3.5" fill="#FEFEFE" stroke="#FAA21E"/>
<path d="M36 21H43V23.5H36V21Z" fill="#FEFEFE"/>
</svg>
