<svg width="51" height="51" viewBox="0 0 51 51" fill="none" xmlns="http://www.w3.org/2000/svg">
<line x1="25" y1="8.72314" x2="25" y2="3.26193" stroke="#FAA21E" stroke-linecap="round"/>
<line x1="25" y1="8.72314" x2="25" y2="3.26193" stroke="white" stroke-opacity="0.4" stroke-linecap="round"/>
<line x1="25" y1="48.6655" x2="25" y2="43.2043" stroke="#FAA21E" stroke-linecap="round"/>
<line x1="25" y1="48.6655" x2="25" y2="43.2043" stroke="white" stroke-opacity="0.4" stroke-linecap="round"/>
<line x1="47.3843" y1="26" x2="41.9608" y2="26" stroke="#FAA21E" stroke-linecap="round"/>
<line x1="47.3843" y1="26" x2="41.9608" y2="26" stroke="white" stroke-opacity="0.4" stroke-linecap="round"/>
<line x1="0.5" y1="-0.5" x2="5.95199" y2="-0.5" transform="matrix(-0.492924 0.870072 -0.867579 -0.4973 35.8818 5.40527)" stroke="#FAA21E" stroke-linecap="round"/>
<line x1="0.5" y1="-0.5" x2="5.95199" y2="-0.5" transform="matrix(-0.492924 0.870072 -0.867579 -0.4973 35.8818 5.40527)" stroke="white" stroke-opacity="0.4" stroke-linecap="round"/>
<line x1="0.5" y1="-0.5" x2="5.93396" y2="-0.5" transform="matrix(-0.849006 0.528383 -0.523928 -0.851763 44.7008 13.4287)" stroke="#FAA21E" stroke-linecap="round"/>
<line x1="0.5" y1="-0.5" x2="5.93396" y2="-0.5" transform="matrix(-0.849006 0.528383 -0.523928 -0.851763 44.7008 13.4287)" stroke="white" stroke-opacity="0.4" stroke-linecap="round"/>
<line x1="0.5" y1="-0.5" x2="5.93221" y2="-0.5" transform="matrix(-0.875939 -0.482423 0.478097 -0.878307 45.6342 37.103)" stroke="#FAA21E" stroke-linecap="round"/>
<line x1="0.5" y1="-0.5" x2="5.93221" y2="-0.5" transform="matrix(-0.875939 -0.482423 0.478097 -0.878307 45.6342 37.103)" stroke="white" stroke-opacity="0.4" stroke-linecap="round"/>
<line x1="0.5" y1="-0.5" x2="5.95021" y2="-0.5" transform="matrix(-0.538306 -0.842749 0.839871 -0.542786 37.3983 45.6436)" stroke="#FAA21E" stroke-linecap="round"/>
<line x1="0.5" y1="-0.5" x2="5.95021" y2="-0.5" transform="matrix(-0.538306 -0.842749 0.839871 -0.542786 37.3983 45.6436)" stroke="white" stroke-opacity="0.4" stroke-linecap="round"/>
<line x1="2.54382" y1="26.0537" x2="7.96732" y2="26.0537" stroke="#FAA21E" stroke-linecap="round"/>
<line x1="2.54382" y1="26.0537" x2="7.96732" y2="26.0537" stroke="white" stroke-opacity="0.4" stroke-linecap="round"/>
<line x1="0.5" y1="-0.5" x2="5.95199" y2="-0.5" transform="matrix(0.492924 -0.870072 0.867579 0.4973 14.0463 46.231)" stroke="#FAA21E" stroke-linecap="round"/>
<line x1="0.5" y1="-0.5" x2="5.95199" y2="-0.5" transform="matrix(0.492924 -0.870072 0.867579 0.4973 14.0463 46.231)" stroke="white" stroke-opacity="0.4" stroke-linecap="round"/>
<line x1="0.5" y1="-0.5" x2="5.93396" y2="-0.5" transform="matrix(0.849006 -0.528383 0.523928 0.851763 5.22729 38.2075)" stroke="#FAA21E" stroke-linecap="round"/>
<line x1="0.5" y1="-0.5" x2="5.93396" y2="-0.5" transform="matrix(0.849006 -0.528383 0.523928 0.851763 5.22729 38.2075)" stroke="white" stroke-opacity="0.4" stroke-linecap="round"/>
<line x1="0.5" y1="-0.5" x2="5.93221" y2="-0.5" transform="matrix(0.875938 0.482423 -0.478097 0.878307 4.70435 14.9985)" stroke="#FAA21E" stroke-linecap="round"/>
<line x1="0.5" y1="-0.5" x2="5.93221" y2="-0.5" transform="matrix(0.875938 0.482423 -0.478097 0.878307 4.70435 14.9985)" stroke="white" stroke-opacity="0.4" stroke-linecap="round"/>
<line x1="0.5" y1="-0.5" x2="5.95021" y2="-0.5" transform="matrix(0.538306 0.842749 -0.839871 0.542786 12.5297 5.99268)" stroke="#FAA21E" stroke-linecap="round"/>
<line x1="0.5" y1="-0.5" x2="5.95021" y2="-0.5" transform="matrix(0.538306 0.842749 -0.839871 0.542786 12.5297 5.99268)" stroke="white" stroke-opacity="0.4" stroke-linecap="round"/>
<line x1="0.5" y1="-0.5" x2="8.7191" y2="-0.5" transform="matrix(0.267517 -0.963553 0.962737 0.270438 30 9.88281)" stroke="#FAA21E" stroke-linecap="round"/>
<line x1="0.5" y1="-0.5" x2="8.7191" y2="-0.5" transform="matrix(0.267517 -0.963553 0.962737 0.270438 30 9.88281)" stroke="white" stroke-opacity="0.4" stroke-linecap="round"/>
<line x1="0.5" y1="-0.5" x2="8.7191" y2="-0.5" transform="matrix(0.267517 -0.963553 0.962737 0.270438 18.6865 51)" stroke="#FAA21E" stroke-linecap="round"/>
<line x1="0.5" y1="-0.5" x2="8.7191" y2="-0.5" transform="matrix(0.267517 -0.963553 0.962737 0.270438 18.6865 51)" stroke="white" stroke-opacity="0.4" stroke-linecap="round"/>
<line x1="0.5" y1="-0.5" x2="8.67305" y2="-0.5" transform="matrix(-0.962737 -0.270438 0.267517 -0.963553 50 32.2627)" stroke="#FAA21E" stroke-linecap="round"/>
<line x1="0.5" y1="-0.5" x2="8.67305" y2="-0.5" transform="matrix(-0.962737 -0.270438 0.267517 -0.963553 50 32.2627)" stroke="white" stroke-opacity="0.4" stroke-linecap="round"/>
<line x1="0.5" y1="-0.5" x2="8.69584" y2="-0.5" transform="matrix(-0.708495 0.705716 -0.701557 -0.712614 43.0124 7.16748)" stroke="#FAA21E" stroke-linecap="round"/>
<line x1="0.5" y1="-0.5" x2="8.69584" y2="-0.5" transform="matrix(-0.708495 0.705716 -0.701557 -0.712614 43.0124 7.16748)" stroke="white" stroke-opacity="0.4" stroke-linecap="round"/>
<line x1="0.5" y1="-0.5" x2="8.67332" y2="-0.5" transform="matrix(-0.960135 0.279537 -0.276533 -0.961004 49.6844 18.6216)" stroke="#FAA21E" stroke-linecap="round"/>
<line x1="0.5" y1="-0.5" x2="8.67332" y2="-0.5" transform="matrix(-0.960135 0.279537 -0.276533 -0.961004 49.6844 18.6216)" stroke="white" stroke-opacity="0.4" stroke-linecap="round"/>
<line x1="0.5" y1="-0.5" x2="8.69545" y2="-0.5" transform="matrix(-0.713579 -0.700575 0.696387 -0.717667 43.6428 43.8599)" stroke="#FAA21E" stroke-linecap="round"/>
<line x1="0.5" y1="-0.5" x2="8.69545" y2="-0.5" transform="matrix(-0.713579 -0.700575 0.696387 -0.717667 43.6428 43.8599)" stroke="white" stroke-opacity="0.4" stroke-linecap="round"/>
<line x1="0.5" y1="-0.5" x2="8.71833" y2="-0.5" transform="matrix(-0.292762 -0.956185 0.955216 -0.29591 32.4805 50.6377)" stroke="#FAA21E" stroke-linecap="round"/>
<line x1="0.5" y1="-0.5" x2="8.71833" y2="-0.5" transform="matrix(-0.292762 -0.956185 0.955216 -0.29591 32.4805 50.6377)" stroke="white" stroke-opacity="0.4" stroke-linecap="round"/>
<line x1="0.5" y1="-0.5" x2="8.67305" y2="-0.5" transform="matrix(0.962737 0.270438 -0.267517 0.963553 0 19.5024)" stroke="#FAA21E" stroke-linecap="round"/>
<line x1="0.5" y1="-0.5" x2="8.67305" y2="-0.5" transform="matrix(0.962737 0.270438 -0.267517 0.963553 0 19.5024)" stroke="white" stroke-opacity="0.4" stroke-linecap="round"/>
<line x1="0.5" y1="-0.5" x2="8.69584" y2="-0.5" transform="matrix(0.708495 -0.705716 0.701557 0.712614 7 44.4897)" stroke="#FAA21E" stroke-linecap="round"/>
<line x1="0.5" y1="-0.5" x2="8.69584" y2="-0.5" transform="matrix(0.708495 -0.705716 0.701557 0.712614 7 44.4897)" stroke="white" stroke-opacity="0.4" stroke-linecap="round"/>
<line x1="0.5" y1="-0.5" x2="8.67332" y2="-0.5" transform="matrix(0.960135 -0.279537 0.276533 0.961004 0.291992 33.2271)" stroke="#FAA21E" stroke-linecap="round"/>
<line x1="0.5" y1="-0.5" x2="8.67332" y2="-0.5" transform="matrix(0.960135 -0.279537 0.276533 0.961004 0.291992 33.2271)" stroke="white" stroke-opacity="0.4" stroke-linecap="round"/>
<line x1="0.5" y1="-0.5" x2="8.69545" y2="-0.5" transform="matrix(0.713579 0.700575 -0.696387 0.717667 6.42346 8.04883)" stroke="#FAA21E" stroke-linecap="round"/>
<line x1="0.5" y1="-0.5" x2="8.69545" y2="-0.5" transform="matrix(0.713579 0.700575 -0.696387 0.717667 6.42346 8.04883)" stroke="white" stroke-opacity="0.4" stroke-linecap="round"/>
<line x1="0.5" y1="-0.5" x2="8.71833" y2="-0.5" transform="matrix(0.292762 0.956185 -0.955216 0.29591 17.5186 1)" stroke="#FAA21E" stroke-linecap="round"/>
<line x1="0.5" y1="-0.5" x2="8.71833" y2="-0.5" transform="matrix(0.292762 0.956185 -0.955216 0.29591 17.5186 1)" stroke="white" stroke-opacity="0.4" stroke-linecap="round"/>
<line x1="42.6134" y1="8.25342" x2="49.0758" y2="14.7158" stroke="#FAA21E" stroke-width="2" stroke-linecap="round"/>
<line x1="37.1851" y1="20.2334" x2="43.6475" y2="26.6958" stroke="#FAA21E" stroke-width="2" stroke-linecap="round"/>
<line x1="23.4008" y1="30.0796" x2="29.8632" y2="36.542" stroke="#FAA21E" stroke-width="2" stroke-linecap="round"/>
<line x1="19.1741" y1="31.7603" x2="25.6365" y2="38.2227" stroke="#FAA21E" stroke-width="2" stroke-linecap="round"/>
<line x1="27.3392" y1="28.1104" x2="33.8016" y2="34.5728" stroke="#FAA21E" stroke-width="2" stroke-linecap="round"/>
<line x1="31.2775" y1="26.1411" x2="37.7399" y2="32.6035" stroke="#FAA21E" stroke-width="2" stroke-linecap="round"/>
<line x1="34.2312" y1="23.1875" x2="40.6936" y2="29.6499" stroke="#FAA21E" stroke-width="2" stroke-linecap="round"/>
<line x1="39.1541" y1="16.2959" x2="45.6166" y2="22.7583" stroke="#FAA21E" stroke-width="2" stroke-linecap="round"/>
<line x1="41.1233" y1="12.3569" x2="47.5857" y2="18.8194" stroke="#FAA21E" stroke-width="2" stroke-linecap="round"/>
<path d="M14.4992 31.5883L14.6461 31.4414L14.6456 31.2336C14.6412 29.3258 14.7246 27.053 15.8988 24.1527C17.0765 21.2442 19.3654 17.6715 23.8267 13.2101C28.2815 8.75532 32.541 6.13289 36.0192 4.98411C39.5321 3.82388 42.1028 4.2028 43.3807 5.4807C43.9996 6.09961 44.3648 7.09361 44.4016 8.43354C44.4383 9.76903 44.1455 11.397 43.5073 13.2059C42.2316 16.8215 39.6025 21.0834 35.6513 25.0347C31.0979 29.588 27.6621 31.7689 24.8554 32.8776C22.4925 33.811 20.5599 33.9949 18.6903 34.1727C18.3361 34.2064 17.9842 34.2399 17.6321 34.2782L17.4571 34.2972L17.3326 34.4217C15.8626 35.8917 13.5178 38.734 11.3664 41.3764C11.0275 41.7926 10.6938 42.2034 10.3691 42.6031C8.60995 44.7684 7.11358 46.6103 6.48196 47.2419C6.06906 47.6548 5.29629 48.1213 4.40317 48.2454C3.53602 48.3659 2.54486 48.1674 1.61945 47.2419C0.694032 46.3165 0.495477 45.3254 0.615962 44.4582C0.740053 43.5651 1.20654 42.7923 1.61945 42.3794C2.23944 41.7594 4.01234 40.3407 6.12349 38.6512C6.55443 38.3064 6.99947 37.9502 7.45168 37.5873C10.0894 35.4703 12.9475 33.14 14.4992 31.5883Z" fill="#FEFEFE" stroke="#FAA21E"/>
<path d="M25.2458 23.0172C25.2612 22.2099 26.0365 21.2366 26.3032 20.4749C25.5415 20.7416 24.7701 21.513 23.7609 21.5323C22.8582 21.5496 21.9995 21.3138 20.9999 20.8284C21.4853 21.828 21.7193 22.782 21.7038 23.5894C21.6884 24.3967 20.9957 25.4525 20.6464 26.1317C21.4113 25.6968 22.2861 25.0915 23.1888 25.0743C24.198 25.055 24.9501 25.2928 25.9497 25.7782C25.7118 25.0261 25.2265 24.0265 25.2458 23.0172Z" fill="#FAA21E"/>
<path d="M36.895 13.4716C36.9056 12.913 37.4421 12.2395 37.6266 11.7125C37.0996 11.897 36.5658 12.4308 35.8675 12.4441C35.2429 12.4561 34.6487 12.2929 33.9571 11.9571C34.2929 12.6487 34.4548 13.3088 34.4441 13.8675C34.4335 14.4261 33.9541 15.1566 33.7125 15.6266C34.2418 15.3257 34.847 14.9069 35.4716 14.895C36.1699 14.8816 36.6903 15.0462 37.382 15.382C37.2174 14.8616 36.8816 14.1699 36.895 13.4716Z" fill="#FAA21E"/>
<path d="M36.895 13.4716C36.9056 12.913 37.4421 12.2395 37.6266 11.7125C37.0996 11.897 36.5658 12.4308 35.8675 12.4441C35.2429 12.4561 34.6487 12.2929 33.9571 11.9571C34.2929 12.6487 34.4548 13.3088 34.4441 13.8675C34.4335 14.4261 33.9541 15.1566 33.7125 15.6266C34.2418 15.3257 34.847 14.9069 35.4716 14.895C36.1699 14.8816 36.6903 15.0462 37.382 15.382C37.2174 14.8616 36.8816 14.1699 36.895 13.4716Z" fill="white" fill-opacity="0.2"/>
<circle cx="31" cy="22" r="1" fill="#FAA21E"/>
<circle cx="31" cy="22" r="1" fill="white" fill-opacity="0.2"/>
<circle cx="29.5" cy="14.5" r="1.5" fill="#FAA21E"/>
</svg>
