<svg width="50" height="51" viewBox="0 0 50 51" fill="none" xmlns="http://www.w3.org/2000/svg">
<line x1="25" y1="8.72339" x2="25" y2="3.26218" stroke="#FAA21E" stroke-linecap="round"/>
<line x1="25" y1="8.72339" x2="25" y2="3.26218" stroke="white" stroke-opacity="0.4" stroke-linecap="round"/>
<line x1="25" y1="48.6655" x2="25" y2="43.2043" stroke="#FAA21E" stroke-linecap="round"/>
<line x1="25" y1="48.6655" x2="25" y2="43.2043" stroke="white" stroke-opacity="0.4" stroke-linecap="round"/>
<line x1="47.3843" y1="26" x2="41.9608" y2="26" stroke="#FAA21E" stroke-linecap="round"/>
<line x1="47.3843" y1="26" x2="41.9608" y2="26" stroke="white" stroke-opacity="0.4" stroke-linecap="round"/>
<line x1="0.5" y1="-0.5" x2="5.95199" y2="-0.5" transform="matrix(-0.492924 0.870072 -0.867579 -0.4973 35.8818 5.40552)" stroke="#FAA21E" stroke-linecap="round"/>
<line x1="0.5" y1="-0.5" x2="5.95199" y2="-0.5" transform="matrix(-0.492924 0.870072 -0.867579 -0.4973 35.8818 5.40552)" stroke="white" stroke-opacity="0.4" stroke-linecap="round"/>
<line x1="0.5" y1="-0.5" x2="5.93396" y2="-0.5" transform="matrix(-0.849006 0.528383 -0.523928 -0.851763 44.7008 13.429)" stroke="#FAA21E" stroke-linecap="round"/>
<line x1="0.5" y1="-0.5" x2="5.93396" y2="-0.5" transform="matrix(-0.849006 0.528383 -0.523928 -0.851763 44.7008 13.429)" stroke="white" stroke-opacity="0.4" stroke-linecap="round"/>
<line x1="0.5" y1="-0.5" x2="5.93221" y2="-0.5" transform="matrix(-0.875939 -0.482423 0.478097 -0.878307 45.6342 37.103)" stroke="#FAA21E" stroke-linecap="round"/>
<line x1="0.5" y1="-0.5" x2="5.93221" y2="-0.5" transform="matrix(-0.875939 -0.482423 0.478097 -0.878307 45.6342 37.103)" stroke="white" stroke-opacity="0.4" stroke-linecap="round"/>
<line x1="0.5" y1="-0.5" x2="5.95021" y2="-0.5" transform="matrix(-0.538306 -0.842749 0.839871 -0.542786 37.3983 45.6436)" stroke="#FAA21E" stroke-linecap="round"/>
<line x1="0.5" y1="-0.5" x2="5.95021" y2="-0.5" transform="matrix(-0.538306 -0.842749 0.839871 -0.542786 37.3983 45.6436)" stroke="white" stroke-opacity="0.4" stroke-linecap="round"/>
<line x1="2.54382" y1="26.0537" x2="7.96732" y2="26.0537" stroke="#FAA21E" stroke-linecap="round"/>
<line x1="2.54382" y1="26.0537" x2="7.96732" y2="26.0537" stroke="white" stroke-opacity="0.4" stroke-linecap="round"/>
<line x1="0.5" y1="-0.5" x2="5.95199" y2="-0.5" transform="matrix(0.492924 -0.870072 0.867579 0.4973 14.0463 46.231)" stroke="#FAA21E" stroke-linecap="round"/>
<line x1="0.5" y1="-0.5" x2="5.95199" y2="-0.5" transform="matrix(0.492924 -0.870072 0.867579 0.4973 14.0463 46.231)" stroke="white" stroke-opacity="0.4" stroke-linecap="round"/>
<line x1="0.5" y1="-0.5" x2="5.93396" y2="-0.5" transform="matrix(0.849006 -0.528383 0.523928 0.851763 5.22729 38.2075)" stroke="#FAA21E" stroke-linecap="round"/>
<line x1="0.5" y1="-0.5" x2="5.93396" y2="-0.5" transform="matrix(0.849006 -0.528383 0.523928 0.851763 5.22729 38.2075)" stroke="white" stroke-opacity="0.4" stroke-linecap="round"/>
<line x1="0.5" y1="-0.5" x2="5.93221" y2="-0.5" transform="matrix(0.875938 0.482423 -0.478097 0.878307 4.70435 14.9988)" stroke="#FAA21E" stroke-linecap="round"/>
<line x1="0.5" y1="-0.5" x2="5.93221" y2="-0.5" transform="matrix(0.875938 0.482423 -0.478097 0.878307 4.70435 14.9988)" stroke="white" stroke-opacity="0.4" stroke-linecap="round"/>
<line x1="0.5" y1="-0.5" x2="5.95021" y2="-0.5" transform="matrix(0.538306 0.842749 -0.839871 0.542786 12.5297 5.99292)" stroke="#FAA21E" stroke-linecap="round"/>
<line x1="0.5" y1="-0.5" x2="5.95021" y2="-0.5" transform="matrix(0.538306 0.842749 -0.839871 0.542786 12.5297 5.99292)" stroke="white" stroke-opacity="0.4" stroke-linecap="round"/>
<line x1="0.5" y1="-0.5" x2="8.7191" y2="-0.5" transform="matrix(0.267517 -0.963553 0.962737 0.270438 30 9.88306)" stroke="#FAA21E" stroke-linecap="round"/>
<line x1="0.5" y1="-0.5" x2="8.7191" y2="-0.5" transform="matrix(0.267517 -0.963553 0.962737 0.270438 30 9.88306)" stroke="white" stroke-opacity="0.4" stroke-linecap="round"/>
<line x1="0.5" y1="-0.5" x2="8.7191" y2="-0.5" transform="matrix(0.267517 -0.963553 0.962737 0.270438 18.6865 51)" stroke="#FAA21E" stroke-linecap="round"/>
<line x1="0.5" y1="-0.5" x2="8.7191" y2="-0.5" transform="matrix(0.267517 -0.963553 0.962737 0.270438 18.6865 51)" stroke="white" stroke-opacity="0.4" stroke-linecap="round"/>
<line x1="0.5" y1="-0.5" x2="8.67305" y2="-0.5" transform="matrix(-0.962737 -0.270438 0.267517 -0.963553 50 32.2627)" stroke="#FAA21E" stroke-linecap="round"/>
<line x1="0.5" y1="-0.5" x2="8.67305" y2="-0.5" transform="matrix(-0.962737 -0.270438 0.267517 -0.963553 50 32.2627)" stroke="white" stroke-opacity="0.4" stroke-linecap="round"/>
<line x1="0.5" y1="-0.5" x2="8.69584" y2="-0.5" transform="matrix(-0.708495 0.705716 -0.701557 -0.712614 43.0124 7.16772)" stroke="#FAA21E" stroke-linecap="round"/>
<line x1="0.5" y1="-0.5" x2="8.69584" y2="-0.5" transform="matrix(-0.708495 0.705716 -0.701557 -0.712614 43.0124 7.16772)" stroke="white" stroke-opacity="0.4" stroke-linecap="round"/>
<line x1="0.5" y1="-0.5" x2="8.67332" y2="-0.5" transform="matrix(-0.960135 0.279537 -0.276533 -0.961004 49.6844 18.6216)" stroke="#FAA21E" stroke-linecap="round"/>
<line x1="0.5" y1="-0.5" x2="8.67332" y2="-0.5" transform="matrix(-0.960135 0.279537 -0.276533 -0.961004 49.6844 18.6216)" stroke="white" stroke-opacity="0.4" stroke-linecap="round"/>
<line x1="0.5" y1="-0.5" x2="8.69545" y2="-0.5" transform="matrix(-0.713579 -0.700575 0.696387 -0.717667 43.6428 43.8599)" stroke="#FAA21E" stroke-linecap="round"/>
<line x1="0.5" y1="-0.5" x2="8.69545" y2="-0.5" transform="matrix(-0.713579 -0.700575 0.696387 -0.717667 43.6428 43.8599)" stroke="white" stroke-opacity="0.4" stroke-linecap="round"/>
<line x1="0.5" y1="-0.5" x2="8.71833" y2="-0.5" transform="matrix(-0.292762 -0.956185 0.955216 -0.29591 32.4805 50.6377)" stroke="#FAA21E" stroke-linecap="round"/>
<line x1="0.5" y1="-0.5" x2="8.71833" y2="-0.5" transform="matrix(-0.292762 -0.956185 0.955216 -0.29591 32.4805 50.6377)" stroke="white" stroke-opacity="0.4" stroke-linecap="round"/>
<line x1="0.5" y1="-0.5" x2="8.67305" y2="-0.5" transform="matrix(0.962737 0.270438 -0.267517 0.963553 0 19.5027)" stroke="#FAA21E" stroke-linecap="round"/>
<line x1="0.5" y1="-0.5" x2="8.67305" y2="-0.5" transform="matrix(0.962737 0.270438 -0.267517 0.963553 0 19.5027)" stroke="white" stroke-opacity="0.4" stroke-linecap="round"/>
<line x1="0.5" y1="-0.5" x2="8.69584" y2="-0.5" transform="matrix(0.708495 -0.705716 0.701557 0.712614 7 44.4897)" stroke="#FAA21E" stroke-linecap="round"/>
<line x1="0.5" y1="-0.5" x2="8.69584" y2="-0.5" transform="matrix(0.708495 -0.705716 0.701557 0.712614 7 44.4897)" stroke="white" stroke-opacity="0.4" stroke-linecap="round"/>
<line x1="0.5" y1="-0.5" x2="8.67332" y2="-0.5" transform="matrix(0.960135 -0.279537 0.276533 0.961004 0.291992 33.2271)" stroke="#FAA21E" stroke-linecap="round"/>
<line x1="0.5" y1="-0.5" x2="8.67332" y2="-0.5" transform="matrix(0.960135 -0.279537 0.276533 0.961004 0.291992 33.2271)" stroke="white" stroke-opacity="0.4" stroke-linecap="round"/>
<line x1="0.5" y1="-0.5" x2="8.69545" y2="-0.5" transform="matrix(0.713579 0.700575 -0.696387 0.717667 6.42346 8.04858)" stroke="#FAA21E" stroke-linecap="round"/>
<line x1="0.5" y1="-0.5" x2="8.69545" y2="-0.5" transform="matrix(0.713579 0.700575 -0.696387 0.717667 6.42346 8.04858)" stroke="white" stroke-opacity="0.4" stroke-linecap="round"/>
<line x1="0.5" y1="-0.5" x2="8.71833" y2="-0.5" transform="matrix(0.292762 0.956185 -0.955216 0.29591 17.5186 1)" stroke="#FAA21E" stroke-linecap="round"/>
<line x1="0.5" y1="-0.5" x2="8.71833" y2="-0.5" transform="matrix(0.292762 0.956185 -0.955216 0.29591 17.5186 1)" stroke="white" stroke-opacity="0.4" stroke-linecap="round"/>
<path d="M1.08624 43.7334L19.1121 28.4129L22.62 31.9209L7.29953 49.9467C6.50571 50.1951 4.74211 50.0688 2.85314 48.1798C0.964161 46.2908 0.837892 44.5272 1.08624 43.7334Z" fill="#FEFEFE" stroke="#FAA21E"/>
<path d="M8.0382 44.2824C8.05137 43.5933 8.71308 42.7626 8.94078 42.1124C8.2906 42.3401 7.63218 42.9985 6.77076 43.015C6.00028 43.0297 5.26738 42.8284 4.41418 42.4142C4.82844 43.2674 5.02816 44.0816 5.01499 44.7708C5.00182 45.4599 4.41053 46.361 4.11241 46.9408C4.76534 46.5695 5.51195 46.0529 6.28243 46.0382C7.14386 46.0217 7.78581 46.2248 8.63901 46.639C8.436 45.9971 8.02174 45.1439 8.0382 44.2824Z" fill="#FAA21E"/>
<path d="M19.3113 27.8912L20.662 12.3581L30.7165 2.30356C30.7128 2.30729 30.7131 2.30708 30.7186 2.30337C30.7309 2.295 30.7696 2.26882 30.8474 2.22988C30.9462 2.18041 31.0792 2.12472 31.2367 2.07257C31.5543 1.96739 31.9408 1.88667 32.313 1.88667C32.5897 1.88667 32.9678 1.95865 33.3249 2.07768C33.6987 2.20229 33.9519 2.34604 34.0394 2.43356L48.5995 16.9936C48.627 17.0211 48.6846 17.1004 48.7575 17.251C48.8261 17.3927 48.8936 17.5669 48.9533 17.754C49.0766 18.1401 49.1463 18.5171 49.1463 18.72C49.1463 18.9254 49.0758 19.3041 48.9658 19.6821C48.9127 19.8647 48.8552 20.0306 48.8016 20.158C48.7506 20.2791 48.7206 20.3223 48.7221 20.3233C48.7223 20.3235 48.7236 20.3223 48.7261 20.3199L38.6749 30.371L23.1418 31.7217L19.3113 27.8912Z" fill="#FEFEFE" stroke="#FAA21E"/>
<path d="M32.6596 9.36007C32.105 8.8054 31.3885 8.78229 30.9263 9.0134L27.4596 12.4801C27.3441 12.8267 27.2516 13.6587 27.8063 14.2134C28.361 14.7681 29.193 14.6756 29.5396 14.5601L33.0063 11.0934C33.2374 10.6312 33.2143 9.91474 32.6596 9.36007Z" fill="#FAA21E"/>
<path d="M37.1663 13.8667C36.6117 13.312 35.8952 13.2889 35.433 13.52L31.9663 16.9867C31.8508 17.3333 31.7583 18.1653 32.313 18.72C32.8677 19.2747 33.6997 19.1822 34.0463 19.0667L37.513 15.6C37.7441 15.1378 37.721 14.4213 37.1663 13.8667Z" fill="#FAA21E"/>
<path d="M41.673 18.3735C41.1183 17.8188 40.4019 17.7957 39.9397 18.0268L36.473 21.4935C36.3574 21.8402 36.265 22.6722 36.8197 23.2268C37.3743 23.7815 38.2063 23.6891 38.553 23.5735L42.0197 20.1068C42.2508 19.6446 42.2277 18.9282 41.673 18.3735Z" fill="#FAA21E"/>
</svg>
