<svg width="50" height="51" viewBox="0 0 50 51" fill="none" xmlns="http://www.w3.org/2000/svg">
<line x1="25" y1="8.72314" x2="25" y2="3.26193" stroke="#FAA21E" stroke-linecap="round"/>
<line x1="25" y1="8.72314" x2="25" y2="3.26193" stroke="white" stroke-opacity="0.4" stroke-linecap="round"/>
<line x1="25" y1="48.6655" x2="25" y2="43.2043" stroke="#FAA21E" stroke-linecap="round"/>
<line x1="25" y1="48.6655" x2="25" y2="43.2043" stroke="white" stroke-opacity="0.4" stroke-linecap="round"/>
<line x1="47.3843" y1="26" x2="41.9608" y2="26" stroke="#FAA21E" stroke-linecap="round"/>
<line x1="47.3843" y1="26" x2="41.9608" y2="26" stroke="white" stroke-opacity="0.4" stroke-linecap="round"/>
<line x1="0.5" y1="-0.5" x2="5.95199" y2="-0.5" transform="matrix(-0.492924 0.870072 -0.867579 -0.4973 35.8818 5.40527)" stroke="#FAA21E" stroke-linecap="round"/>
<line x1="0.5" y1="-0.5" x2="5.95199" y2="-0.5" transform="matrix(-0.492924 0.870072 -0.867579 -0.4973 35.8818 5.40527)" stroke="white" stroke-opacity="0.4" stroke-linecap="round"/>
<line x1="0.5" y1="-0.5" x2="5.93396" y2="-0.5" transform="matrix(-0.849006 0.528383 -0.523928 -0.851763 44.7008 13.4287)" stroke="#FAA21E" stroke-linecap="round"/>
<line x1="0.5" y1="-0.5" x2="5.93396" y2="-0.5" transform="matrix(-0.849006 0.528383 -0.523928 -0.851763 44.7008 13.4287)" stroke="white" stroke-opacity="0.4" stroke-linecap="round"/>
<line x1="0.5" y1="-0.5" x2="5.93221" y2="-0.5" transform="matrix(-0.875939 -0.482423 0.478097 -0.878307 45.6342 37.103)" stroke="#FAA21E" stroke-linecap="round"/>
<line x1="0.5" y1="-0.5" x2="5.93221" y2="-0.5" transform="matrix(-0.875939 -0.482423 0.478097 -0.878307 45.6342 37.103)" stroke="white" stroke-opacity="0.4" stroke-linecap="round"/>
<line x1="0.5" y1="-0.5" x2="5.95021" y2="-0.5" transform="matrix(-0.538306 -0.842749 0.839871 -0.542786 37.3983 45.6436)" stroke="#FAA21E" stroke-linecap="round"/>
<line x1="0.5" y1="-0.5" x2="5.95021" y2="-0.5" transform="matrix(-0.538306 -0.842749 0.839871 -0.542786 37.3983 45.6436)" stroke="white" stroke-opacity="0.4" stroke-linecap="round"/>
<line x1="2.54382" y1="26.0537" x2="7.96732" y2="26.0537" stroke="#FAA21E" stroke-linecap="round"/>
<line x1="2.54382" y1="26.0537" x2="7.96732" y2="26.0537" stroke="white" stroke-opacity="0.4" stroke-linecap="round"/>
<line x1="0.5" y1="-0.5" x2="5.95199" y2="-0.5" transform="matrix(0.492924 -0.870072 0.867579 0.4973 14.0463 46.231)" stroke="#FAA21E" stroke-linecap="round"/>
<line x1="0.5" y1="-0.5" x2="5.95199" y2="-0.5" transform="matrix(0.492924 -0.870072 0.867579 0.4973 14.0463 46.231)" stroke="white" stroke-opacity="0.4" stroke-linecap="round"/>
<line x1="0.5" y1="-0.5" x2="5.93396" y2="-0.5" transform="matrix(0.849006 -0.528383 0.523928 0.851763 5.22729 38.2075)" stroke="#FAA21E" stroke-linecap="round"/>
<line x1="0.5" y1="-0.5" x2="5.93396" y2="-0.5" transform="matrix(0.849006 -0.528383 0.523928 0.851763 5.22729 38.2075)" stroke="white" stroke-opacity="0.4" stroke-linecap="round"/>
<line x1="0.5" y1="-0.5" x2="5.93221" y2="-0.5" transform="matrix(0.875938 0.482423 -0.478097 0.878307 4.70435 14.9985)" stroke="#FAA21E" stroke-linecap="round"/>
<line x1="0.5" y1="-0.5" x2="5.93221" y2="-0.5" transform="matrix(0.875938 0.482423 -0.478097 0.878307 4.70435 14.9985)" stroke="white" stroke-opacity="0.4" stroke-linecap="round"/>
<line x1="0.5" y1="-0.5" x2="5.95021" y2="-0.5" transform="matrix(0.538306 0.842749 -0.839871 0.542786 12.5297 5.99268)" stroke="#FAA21E" stroke-linecap="round"/>
<line x1="0.5" y1="-0.5" x2="5.95021" y2="-0.5" transform="matrix(0.538306 0.842749 -0.839871 0.542786 12.5297 5.99268)" stroke="white" stroke-opacity="0.4" stroke-linecap="round"/>
<line x1="0.5" y1="-0.5" x2="8.7191" y2="-0.5" transform="matrix(0.267517 -0.963553 0.962737 0.270438 30 9.88281)" stroke="#FAA21E" stroke-linecap="round"/>
<line x1="0.5" y1="-0.5" x2="8.7191" y2="-0.5" transform="matrix(0.267517 -0.963553 0.962737 0.270438 30 9.88281)" stroke="white" stroke-opacity="0.4" stroke-linecap="round"/>
<line x1="0.5" y1="-0.5" x2="8.7191" y2="-0.5" transform="matrix(0.267517 -0.963553 0.962737 0.270438 18.6865 51)" stroke="#FAA21E" stroke-linecap="round"/>
<line x1="0.5" y1="-0.5" x2="8.7191" y2="-0.5" transform="matrix(0.267517 -0.963553 0.962737 0.270438 18.6865 51)" stroke="white" stroke-opacity="0.4" stroke-linecap="round"/>
<line x1="0.5" y1="-0.5" x2="8.67305" y2="-0.5" transform="matrix(-0.962737 -0.270438 0.267517 -0.963553 50 32.2627)" stroke="#FAA21E" stroke-linecap="round"/>
<line x1="0.5" y1="-0.5" x2="8.67305" y2="-0.5" transform="matrix(-0.962737 -0.270438 0.267517 -0.963553 50 32.2627)" stroke="white" stroke-opacity="0.4" stroke-linecap="round"/>
<line x1="0.5" y1="-0.5" x2="8.69584" y2="-0.5" transform="matrix(-0.708495 0.705716 -0.701557 -0.712614 43.0124 7.16748)" stroke="#FAA21E" stroke-linecap="round"/>
<line x1="0.5" y1="-0.5" x2="8.69584" y2="-0.5" transform="matrix(-0.708495 0.705716 -0.701557 -0.712614 43.0124 7.16748)" stroke="white" stroke-opacity="0.4" stroke-linecap="round"/>
<line x1="0.5" y1="-0.5" x2="8.67332" y2="-0.5" transform="matrix(-0.960135 0.279537 -0.276533 -0.961004 49.6844 18.6216)" stroke="#FAA21E" stroke-linecap="round"/>
<line x1="0.5" y1="-0.5" x2="8.67332" y2="-0.5" transform="matrix(-0.960135 0.279537 -0.276533 -0.961004 49.6844 18.6216)" stroke="white" stroke-opacity="0.4" stroke-linecap="round"/>
<line x1="0.5" y1="-0.5" x2="8.69545" y2="-0.5" transform="matrix(-0.713579 -0.700575 0.696387 -0.717667 43.6428 43.8599)" stroke="#FAA21E" stroke-linecap="round"/>
<line x1="0.5" y1="-0.5" x2="8.69545" y2="-0.5" transform="matrix(-0.713579 -0.700575 0.696387 -0.717667 43.6428 43.8599)" stroke="white" stroke-opacity="0.4" stroke-linecap="round"/>
<line x1="0.5" y1="-0.5" x2="8.71833" y2="-0.5" transform="matrix(-0.292762 -0.956185 0.955216 -0.29591 32.4805 50.6377)" stroke="#FAA21E" stroke-linecap="round"/>
<line x1="0.5" y1="-0.5" x2="8.71833" y2="-0.5" transform="matrix(-0.292762 -0.956185 0.955216 -0.29591 32.4805 50.6377)" stroke="white" stroke-opacity="0.4" stroke-linecap="round"/>
<line x1="0.5" y1="-0.5" x2="8.67305" y2="-0.5" transform="matrix(0.962737 0.270438 -0.267517 0.963553 0 19.5024)" stroke="#FAA21E" stroke-linecap="round"/>
<line x1="0.5" y1="-0.5" x2="8.67305" y2="-0.5" transform="matrix(0.962737 0.270438 -0.267517 0.963553 0 19.5024)" stroke="white" stroke-opacity="0.4" stroke-linecap="round"/>
<line x1="0.5" y1="-0.5" x2="8.69584" y2="-0.5" transform="matrix(0.708495 -0.705716 0.701557 0.712614 7 44.4897)" stroke="#FAA21E" stroke-linecap="round"/>
<line x1="0.5" y1="-0.5" x2="8.69584" y2="-0.5" transform="matrix(0.708495 -0.705716 0.701557 0.712614 7 44.4897)" stroke="white" stroke-opacity="0.4" stroke-linecap="round"/>
<line x1="0.5" y1="-0.5" x2="8.67332" y2="-0.5" transform="matrix(0.960135 -0.279537 0.276533 0.961004 0.291992 33.2271)" stroke="#FAA21E" stroke-linecap="round"/>
<line x1="0.5" y1="-0.5" x2="8.67332" y2="-0.5" transform="matrix(0.960135 -0.279537 0.276533 0.961004 0.291992 33.2271)" stroke="white" stroke-opacity="0.4" stroke-linecap="round"/>
<line x1="0.5" y1="-0.5" x2="8.69545" y2="-0.5" transform="matrix(0.713579 0.700575 -0.696387 0.717667 6.42346 8.04883)" stroke="#FAA21E" stroke-linecap="round"/>
<line x1="0.5" y1="-0.5" x2="8.69545" y2="-0.5" transform="matrix(0.713579 0.700575 -0.696387 0.717667 6.42346 8.04883)" stroke="white" stroke-opacity="0.4" stroke-linecap="round"/>
<line x1="0.5" y1="-0.5" x2="8.71833" y2="-0.5" transform="matrix(0.292762 0.956185 -0.955216 0.29591 17.5186 1)" stroke="#FAA21E" stroke-linecap="round"/>
<line x1="0.5" y1="-0.5" x2="8.71833" y2="-0.5" transform="matrix(0.292762 0.956185 -0.955216 0.29591 17.5186 1)" stroke="white" stroke-opacity="0.4" stroke-linecap="round"/>
<path d="M4.26179 36.2401L4.2444 36.2469L4.22757 36.255C3.45867 36.6237 2.68513 36.5385 2.03029 36.2486C1.35726 35.9506 0.872172 35.4634 0.70172 35.1364C0.532078 34.811 0.418996 34.1538 0.571929 33.4692C0.718441 32.8134 1.09684 32.1831 1.84776 31.8144L16.0888 26.6918L16.4719 31.4685L4.26179 36.2401Z" fill="#FEFEFE" stroke="#FAA21E"/>
<path d="M13.8125 46.0882L13.8049 46.1058L13.7959 46.1228C13.4004 46.872 13.4705 47.6346 13.7547 48.2881C14.0469 48.9601 14.5402 49.4552 14.8806 49.6349C15.2209 49.8146 15.9079 49.9429 16.6276 49.8053C17.3204 49.6728 17.9834 49.3067 18.3804 48.5723L23.9927 34.5581L19.0243 34.0648L13.8125 46.0882Z" fill="#FEFEFE" stroke="#FAA21E"/>
<path d="M29.4823 5.7412C31.4993 4.33887 34.3729 3.45505 36.1497 3.05482L27.8331 23.0429L20.8891 23.9609C21.6903 21.314 23.1019 16.6826 23.7599 14.6437C24.6621 11.8485 26.4972 7.81657 29.4823 5.7412Z" fill="#FEFEFE" stroke="#FAA21E"/>
<path d="M45.6819 22.1064C47.1262 20.1192 48.0702 17.2649 48.5077 15.4969L28.3509 23.3923L27.287 30.3154C29.95 29.5699 34.6096 28.2558 36.6617 27.6407C39.475 26.7973 43.5444 25.0473 45.6819 22.1064Z" fill="#FEFEFE" stroke="#FAA21E"/>
<circle cx="23" cy="28" r="7.5" fill="#FEFEFE" stroke="#FAA21E"/>
<path d="M25.4293 27.6259C25.4599 26.4949 26.5565 25.1806 26.9386 24.1299C25.8688 24.4546 24.7798 25.4862 23.3661 25.4479C22.1017 25.4137 20.9017 25.0276 19.5071 24.2825C20.1757 25.7153 20.4928 27.0679 20.4622 28.1988C20.4316 29.3298 19.4496 30.7651 18.9529 31.6948C20.0291 31.1345 21.2609 30.3425 22.5254 30.3767C23.9391 30.415 24.9898 30.7971 26.3843 31.5422C26.0596 30.4724 25.391 29.0396 25.4293 27.6259Z" fill="#FAA21E"/>
</svg>
