<svg width="50" height="51" viewBox="0 0 50 51" fill="none" xmlns="http://www.w3.org/2000/svg">
<line x1="25" y1="8.72363" x2="25" y2="3.26242" stroke="#FAA21E" stroke-linecap="round"/>
<line x1="25" y1="8.72363" x2="25" y2="3.26242" stroke="white" stroke-opacity="0.4" stroke-linecap="round"/>
<line x1="25" y1="48.6655" x2="25" y2="43.2043" stroke="#FAA21E" stroke-linecap="round"/>
<line x1="25" y1="48.6655" x2="25" y2="43.2043" stroke="white" stroke-opacity="0.4" stroke-linecap="round"/>
<line x1="47.3843" y1="26" x2="41.9608" y2="26" stroke="#FAA21E" stroke-linecap="round"/>
<line x1="47.3843" y1="26" x2="41.9608" y2="26" stroke="white" stroke-opacity="0.4" stroke-linecap="round"/>
<line x1="0.5" y1="-0.5" x2="5.95199" y2="-0.5" transform="matrix(-0.492924 0.870072 -0.867579 -0.4973 35.8818 5.40527)" stroke="#FAA21E" stroke-linecap="round"/>
<line x1="0.5" y1="-0.5" x2="5.95199" y2="-0.5" transform="matrix(-0.492924 0.870072 -0.867579 -0.4973 35.8818 5.40527)" stroke="white" stroke-opacity="0.4" stroke-linecap="round"/>
<line x1="0.5" y1="-0.5" x2="5.93396" y2="-0.5" transform="matrix(-0.849006 0.528383 -0.523928 -0.851763 44.7008 13.4287)" stroke="#FAA21E" stroke-linecap="round"/>
<line x1="0.5" y1="-0.5" x2="5.93396" y2="-0.5" transform="matrix(-0.849006 0.528383 -0.523928 -0.851763 44.7008 13.4287)" stroke="white" stroke-opacity="0.4" stroke-linecap="round"/>
<line x1="0.5" y1="-0.5" x2="5.93221" y2="-0.5" transform="matrix(-0.875939 -0.482423 0.478097 -0.878307 45.6342 37.103)" stroke="#FAA21E" stroke-linecap="round"/>
<line x1="0.5" y1="-0.5" x2="5.93221" y2="-0.5" transform="matrix(-0.875939 -0.482423 0.478097 -0.878307 45.6342 37.103)" stroke="white" stroke-opacity="0.4" stroke-linecap="round"/>
<line x1="0.5" y1="-0.5" x2="5.95021" y2="-0.5" transform="matrix(-0.538306 -0.842749 0.839871 -0.542786 37.3983 45.6436)" stroke="#FAA21E" stroke-linecap="round"/>
<line x1="0.5" y1="-0.5" x2="5.95021" y2="-0.5" transform="matrix(-0.538306 -0.842749 0.839871 -0.542786 37.3983 45.6436)" stroke="white" stroke-opacity="0.4" stroke-linecap="round"/>
<line x1="2.54382" y1="26.0537" x2="7.96732" y2="26.0537" stroke="#FAA21E" stroke-linecap="round"/>
<line x1="2.54382" y1="26.0537" x2="7.96732" y2="26.0537" stroke="white" stroke-opacity="0.4" stroke-linecap="round"/>
<line x1="0.5" y1="-0.5" x2="5.95199" y2="-0.5" transform="matrix(0.492924 -0.870072 0.867579 0.4973 14.0463 46.231)" stroke="#FAA21E" stroke-linecap="round"/>
<line x1="0.5" y1="-0.5" x2="5.95199" y2="-0.5" transform="matrix(0.492924 -0.870072 0.867579 0.4973 14.0463 46.231)" stroke="white" stroke-opacity="0.4" stroke-linecap="round"/>
<line x1="0.5" y1="-0.5" x2="5.93396" y2="-0.5" transform="matrix(0.849006 -0.528383 0.523928 0.851763 5.22729 38.2075)" stroke="#FAA21E" stroke-linecap="round"/>
<line x1="0.5" y1="-0.5" x2="5.93396" y2="-0.5" transform="matrix(0.849006 -0.528383 0.523928 0.851763 5.22729 38.2075)" stroke="white" stroke-opacity="0.4" stroke-linecap="round"/>
<line x1="0.5" y1="-0.5" x2="5.93221" y2="-0.5" transform="matrix(0.875938 0.482423 -0.478097 0.878307 4.70435 14.9985)" stroke="#FAA21E" stroke-linecap="round"/>
<line x1="0.5" y1="-0.5" x2="5.93221" y2="-0.5" transform="matrix(0.875938 0.482423 -0.478097 0.878307 4.70435 14.9985)" stroke="white" stroke-opacity="0.4" stroke-linecap="round"/>
<line x1="0.5" y1="-0.5" x2="5.95021" y2="-0.5" transform="matrix(0.538306 0.842749 -0.839871 0.542786 12.5297 5.99268)" stroke="#FAA21E" stroke-linecap="round"/>
<line x1="0.5" y1="-0.5" x2="5.95021" y2="-0.5" transform="matrix(0.538306 0.842749 -0.839871 0.542786 12.5297 5.99268)" stroke="white" stroke-opacity="0.4" stroke-linecap="round"/>
<line x1="0.5" y1="-0.5" x2="8.7191" y2="-0.5" transform="matrix(0.267517 -0.963553 0.962737 0.270438 30 9.88281)" stroke="#FAA21E" stroke-linecap="round"/>
<line x1="0.5" y1="-0.5" x2="8.7191" y2="-0.5" transform="matrix(0.267517 -0.963553 0.962737 0.270438 30 9.88281)" stroke="white" stroke-opacity="0.4" stroke-linecap="round"/>
<line x1="0.5" y1="-0.5" x2="8.7191" y2="-0.5" transform="matrix(0.267517 -0.963553 0.962737 0.270438 18.6865 51)" stroke="#FAA21E" stroke-linecap="round"/>
<line x1="0.5" y1="-0.5" x2="8.7191" y2="-0.5" transform="matrix(0.267517 -0.963553 0.962737 0.270438 18.6865 51)" stroke="white" stroke-opacity="0.4" stroke-linecap="round"/>
<line x1="0.5" y1="-0.5" x2="8.67305" y2="-0.5" transform="matrix(-0.962737 -0.270438 0.267517 -0.963553 50 32.2627)" stroke="#FAA21E" stroke-linecap="round"/>
<line x1="0.5" y1="-0.5" x2="8.67305" y2="-0.5" transform="matrix(-0.962737 -0.270438 0.267517 -0.963553 50 32.2627)" stroke="white" stroke-opacity="0.4" stroke-linecap="round"/>
<line x1="0.5" y1="-0.5" x2="8.69584" y2="-0.5" transform="matrix(-0.708495 0.705716 -0.701557 -0.712614 43.0124 7.16748)" stroke="#FAA21E" stroke-linecap="round"/>
<line x1="0.5" y1="-0.5" x2="8.69584" y2="-0.5" transform="matrix(-0.708495 0.705716 -0.701557 -0.712614 43.0124 7.16748)" stroke="white" stroke-opacity="0.4" stroke-linecap="round"/>
<line x1="0.5" y1="-0.5" x2="8.67332" y2="-0.5" transform="matrix(-0.960135 0.279537 -0.276533 -0.961004 49.6844 18.6216)" stroke="#FAA21E" stroke-linecap="round"/>
<line x1="0.5" y1="-0.5" x2="8.67332" y2="-0.5" transform="matrix(-0.960135 0.279537 -0.276533 -0.961004 49.6844 18.6216)" stroke="white" stroke-opacity="0.4" stroke-linecap="round"/>
<line x1="0.5" y1="-0.5" x2="8.69545" y2="-0.5" transform="matrix(-0.713579 -0.700575 0.696387 -0.717667 43.6428 43.8599)" stroke="#FAA21E" stroke-linecap="round"/>
<line x1="0.5" y1="-0.5" x2="8.69545" y2="-0.5" transform="matrix(-0.713579 -0.700575 0.696387 -0.717667 43.6428 43.8599)" stroke="white" stroke-opacity="0.4" stroke-linecap="round"/>
<line x1="0.5" y1="-0.5" x2="8.71833" y2="-0.5" transform="matrix(-0.292762 -0.956185 0.955216 -0.29591 32.4805 50.6377)" stroke="#FAA21E" stroke-linecap="round"/>
<line x1="0.5" y1="-0.5" x2="8.71833" y2="-0.5" transform="matrix(-0.292762 -0.956185 0.955216 -0.29591 32.4805 50.6377)" stroke="white" stroke-opacity="0.4" stroke-linecap="round"/>
<line x1="0.5" y1="-0.5" x2="8.67305" y2="-0.5" transform="matrix(0.962737 0.270438 -0.267517 0.963553 0 19.5024)" stroke="#FAA21E" stroke-linecap="round"/>
<line x1="0.5" y1="-0.5" x2="8.67305" y2="-0.5" transform="matrix(0.962737 0.270438 -0.267517 0.963553 0 19.5024)" stroke="white" stroke-opacity="0.4" stroke-linecap="round"/>
<line x1="0.5" y1="-0.5" x2="8.69584" y2="-0.5" transform="matrix(0.708495 -0.705716 0.701557 0.712614 7 44.4897)" stroke="#FAA21E" stroke-linecap="round"/>
<line x1="0.5" y1="-0.5" x2="8.69584" y2="-0.5" transform="matrix(0.708495 -0.705716 0.701557 0.712614 7 44.4897)" stroke="white" stroke-opacity="0.4" stroke-linecap="round"/>
<line x1="0.5" y1="-0.5" x2="8.67332" y2="-0.5" transform="matrix(0.960135 -0.279536 0.276533 0.961004 0.291992 33.2271)" stroke="#FAA21E" stroke-linecap="round"/>
<line x1="0.5" y1="-0.5" x2="8.67332" y2="-0.5" transform="matrix(0.960135 -0.279536 0.276533 0.961004 0.291992 33.2271)" stroke="white" stroke-opacity="0.4" stroke-linecap="round"/>
<line x1="0.5" y1="-0.5" x2="8.69545" y2="-0.5" transform="matrix(0.713579 0.700575 -0.696387 0.717667 6.42346 8.04883)" stroke="#FAA21E" stroke-linecap="round"/>
<line x1="0.5" y1="-0.5" x2="8.69545" y2="-0.5" transform="matrix(0.713579 0.700575 -0.696387 0.717667 6.42346 8.04883)" stroke="white" stroke-opacity="0.4" stroke-linecap="round"/>
<line x1="0.5" y1="-0.5" x2="8.71833" y2="-0.5" transform="matrix(0.292762 0.956185 -0.955216 0.29591 17.5186 1)" stroke="#FAA21E" stroke-linecap="round"/>
<line x1="0.5" y1="-0.5" x2="8.71833" y2="-0.5" transform="matrix(0.292762 0.956185 -0.955216 0.29591 17.5186 1)" stroke="white" stroke-opacity="0.4" stroke-linecap="round"/>
<path d="M42.1774 14.8015C42.1423 14.6657 42.1103 14.5418 42.0828 14.4316C42.3375 14.2756 42.6477 14.0787 42.9569 13.87C43.3969 13.5729 43.8643 13.2323 44.1599 12.9435C44.4943 12.6166 44.9235 12.1173 45.2825 11.6799C45.4642 12.3314 45.64 13.2405 45.64 14.5202L45.64 18.2782C45.5343 18.57 45.3478 18.9899 45.1088 19.3673C44.8333 19.8021 44.5558 20.0716 44.3341 20.1438C44.0522 20.2356 43.7388 20.2217 43.4417 20.1497C43.2629 20.1063 43.1033 20.0451 42.9785 19.9863C42.9729 19.9055 42.9677 19.8271 42.9626 19.7499C42.9168 19.0614 42.8769 18.4614 42.6657 17.011C42.5857 16.4617 42.4442 15.8554 42.3126 15.3304C42.2646 15.1393 42.2189 14.9621 42.1774 14.8015Z" fill="#FEFEFE" stroke="#FAA21E" stroke-width="0.96"/>
<path d="M4.68062 18.4411C4.97671 16.7049 5.21481 15.3993 5.53314 14.3723C6.54305 14.4369 8.28881 14.7724 9.88281 15.5877C12.3951 16.8728 14.0831 17.8027 15.3324 19.0237C15.7891 19.47 16.33 20.4092 16.8585 21.4773C17.1937 22.1546 17.5013 22.8345 17.7686 23.4255C17.8306 23.5626 17.8905 23.6949 17.948 23.8213C16.1013 24.3478 12.5044 25.0547 9.51788 24.6057C7.83772 24.3531 6.58132 24.0387 5.69823 23.7518C5.04219 23.5388 4.60829 23.3461 4.36161 23.2134C4.37573 21.9502 4.48308 19.5993 4.68062 18.4411Z" fill="#FEFEFE" stroke="#FAA21E" stroke-width="0.96"/>
<path d="M18.8342 10.7578C18.1184 10.2915 15.8278 8.67077 14.8838 7.92768L15.6663 3.84882C16.5518 4.52708 17.6937 5.4328 18.7703 6.34947C20.1353 7.51165 21.3387 8.64469 21.8202 9.3505C22.2894 10.0384 22.536 10.8677 22.6489 11.645C22.7135 12.0894 22.7329 12.5063 22.7284 12.8539C20.7891 12.0057 19.5338 11.2136 18.8342 10.7578ZM20.842 19.2576C20.2207 18.9551 19.5209 18.5316 18.8121 18.0825C18.5711 17.9298 18.3281 17.7735 18.0879 17.619C17.5495 17.2727 17.0248 16.9352 16.5656 16.6659C16.3501 16.5396 16.0796 16.3775 15.7682 16.191C14.9163 15.6806 13.7582 14.9868 12.5843 14.3396C11.7806 13.8966 10.9598 13.4699 10.2118 13.1324C9.47309 12.7993 8.77045 12.5369 8.21389 12.4462C7.62529 12.3504 7.16318 12.2804 6.80165 12.2305C7.61465 11.5192 8.58625 10.8346 9.32979 10.4713C10.2978 9.99828 11.3753 9.58168 12.9185 9.27399C13.7882 9.97247 15.5475 11.2234 16.7021 12.033C18.6632 13.4081 21.1052 14.6332 22.678 15.3148C22.6595 15.8184 22.5812 16.5448 22.2713 17.1929C21.8391 18.0966 21.4701 18.8356 20.842 19.2576Z" fill="#FEFEFE" stroke="#FAA21E" stroke-width="0.96"/>
<path d="M11.4081 41.7838L13.0251 38.3599H15.8365C18.0594 39.9873 22.5621 42.0516 24.3555 42.8027C26.1348 43.5479 31.2431 45.0692 34.4036 45.9036L33.872 47.9815C33.5169 48.9858 31.605 51.1938 26.5656 50.2088C23.4056 49.5912 20.8596 47.8891 18.7931 46.2259C18.2771 45.8107 17.7931 45.3996 17.3364 45.0089C17.2676 44.95 17.1992 44.8914 17.1314 44.8334C16.7518 44.5082 16.3897 44.1979 16.0489 43.9187C15.2655 43.2765 14.5167 42.7287 13.8324 42.5376C12.6355 42.2034 11.8546 41.946 11.4081 41.7838Z" fill="#FEFEFE" stroke="#FAA21E" stroke-width="0.96"/>
<path d="M37.91 45.8182C37.802 45.6484 37.6865 45.4669 37.5617 45.2847C38.3683 44.4119 39.5095 42.8942 39.9985 41.9385C40.385 41.1831 40.9046 39.9433 41.2873 38.99L42.3101 40.7891C42.1671 41.1678 42.0615 41.6636 41.9647 42.1667C41.9273 42.3609 41.8906 42.5603 41.8532 42.7634C41.7644 43.2456 41.6719 43.748 41.5583 44.2467C41.3971 44.9541 41.2028 45.6072 40.9438 46.1142C40.6822 46.6266 40.3914 46.9183 40.0736 47.0247C39.6576 47.1641 39.3701 47.1665 39.1601 47.1142C38.9514 47.0622 38.7676 46.9434 38.5798 46.7477C38.3858 46.5454 38.2069 46.2822 38.0011 45.961C37.9713 45.9145 37.941 45.8668 37.91 45.8182Z" fill="#FEFEFE" stroke="#FAA21E" stroke-width="0.96"/>
<path d="M34.3044 11.571C34.4407 11.5464 34.5807 11.5165 34.7239 11.4835C34.9467 11.4323 35.1986 11.3684 35.4695 11.2996C35.6654 11.2499 35.8712 11.1977 36.0832 11.1459C36.6979 10.9957 37.2509 10.6593 37.6817 10.3212C37.8633 10.1788 38.0284 10.032 38.1729 9.89136C38.7577 11.0072 39.6537 13.1707 40.0793 15.8742C40.7277 19.9928 40.7284 24.1184 40.7284 26.3596C40.7284 28.1226 40.5141 32.348 40.404 34.2912C40.1808 35.2318 39.3084 37.5485 38.7888 38.8178C38.4693 39.5985 37.8291 40.7089 37.214 41.6543C37.3185 39.7946 37.4316 36.9946 37.4316 34.0396C37.4316 28.8946 36.7748 22.1415 36.1121 18.9034C35.6467 16.6291 34.9331 13.4083 34.3044 11.571Z" fill="#FEFEFE" stroke="#FAA21E" stroke-width="0.96"/>
<path d="M4.42294 25.9337C5.97054 26.6684 8.80677 27.4272 12.7535 27.1588C14.8612 27.0155 16.2694 26.8132 17.2013 26.6012C17.5616 26.5192 17.8561 26.4346 18.0954 26.3491L18.1336 35.6406C17.3374 35.9292 15.4634 36.3417 12.7599 36.1215C10.8696 35.9676 9.48889 35.433 8.42906 34.6192C7.36545 33.8025 6.58884 32.6768 5.95413 31.2812C5.1264 29.4611 4.59682 27.3214 4.42294 25.9337Z" fill="#FEFEFE" stroke="#FAA21E" stroke-width="0.96"/>
<path d="M45.64 21.8679V25.0798V26.9998C45.64 26.9991 45.64 26.9999 45.6398 27.0023C45.6391 27.0116 45.6368 27.0455 45.6295 27.1117C45.6213 27.1862 45.6085 27.2858 45.5909 27.4047C45.5558 27.6426 45.5024 27.9518 45.4299 28.2843C45.2807 28.9686 45.0649 29.6816 44.797 30.1017C44.2535 30.9541 43.5002 31.2101 42.9945 31.287L42.9332 22.6038C43.3011 22.7426 43.7893 22.8146 44.3974 22.6661C44.9226 22.5378 45.332 22.2102 45.64 21.8679Z" fill="#FEFEFE" stroke="#FAA21E" stroke-width="0.96"/>
<path d="M20.4045 23.7878L20.4014 23.672L20.346 23.5704L18.7327 20.6143C18.8272 20.6779 18.9215 20.7406 19.0149 20.8018C19.3762 21.0386 19.7319 21.2576 20.0361 21.4192C20.1878 21.4999 20.335 21.5706 20.469 21.6224C20.5904 21.6694 20.749 21.7204 20.907 21.7204C21.2059 21.7204 21.525 21.5839 21.8188 21.3925C22.1255 21.1927 22.4559 20.8996 22.7866 20.5118C23.4492 19.7348 24.1328 18.5542 24.6403 16.9012C25.3132 14.709 25.1164 12.3862 24.8336 10.9975C27.2186 11.5058 29.4877 11.7629 31.874 11.6575C32.2057 12.5902 32.5558 13.9618 32.888 15.4264C33.1956 16.7826 33.4826 18.1935 33.7215 19.368C33.7704 19.6083 33.8172 19.8386 33.8618 20.0566C34.5106 23.2267 35.1619 29.9144 35.1619 32.1203C35.1619 33.7982 34.9687 40.1477 34.8549 43.6482C28.5389 41.8186 24.7925 40.47 19.2023 37.789C19.4505 37.7124 19.7076 37.6079 19.9198 37.4629C20.163 37.2967 20.4295 37.0161 20.4295 36.6003C20.4295 36.5362 20.4311 36.3278 20.4336 36.005C20.449 33.9693 20.4989 27.3854 20.4045 23.7878Z" fill="#FEFEFE" stroke="#FAA21E" stroke-width="0.96"/>
<path d="M41.5927 12.1491L40.9026 6.81308C41.1265 6.85771 41.4688 6.97305 41.9479 7.25394C42.9975 7.86942 43.7876 9.08349 44.1946 9.74415C44.1446 9.84426 44.0998 9.92633 44.0205 10.0386C43.8869 10.2278 43.6557 10.497 43.165 10.9766C42.5986 11.5301 42.0597 11.8781 41.5927 12.1491Z" fill="#FEFEFE" stroke="#FAA21E" stroke-width="0.96"/>
<path d="M35.1009 6.35982L35.3461 6.37692C35.3461 6.37693 35.3461 6.37695 35.3462 6.37696C35.283 6.37254 35.2028 6.36693 35.1009 6.35982ZM35.5543 6.53819C35.5614 6.51128 35.5666 6.48701 35.5703 6.46607C35.8369 6.57381 36.1014 6.68748 36.3054 6.78943C36.7397 7.00647 36.9289 7.19607 37.0174 7.3363C37.101 7.46863 37.1265 7.60535 37.1265 7.79975C37.1265 7.84422 37.096 7.96522 36.8934 8.15082C36.6994 8.32851 36.4021 8.51302 36.0216 8.68033C35.2618 9.01446 34.2633 9.23972 33.3497 9.23975C31.0255 9.23982 27.9292 9.23957 23.8741 8.64621C23.7606 8.40138 23.5931 8.12878 23.4232 7.88057C23.1633 7.50097 22.8433 7.10097 22.5522 6.81646C22.4066 6.67421 22.2152 6.49514 21.9997 6.30081C23.6368 6.70918 25.6999 7.15044 27.4091 7.31747C29.0588 7.47869 30.6255 7.55977 31.9083 7.55979C33.1665 7.5598 34.2172 7.48296 34.7904 7.29622C35.1238 7.18762 35.3307 6.98944 35.448 6.79053C35.5041 6.69557 35.536 6.60695 35.5543 6.53819Z" fill="#FEFEFE" stroke="#FAA21E" stroke-width="0.96"/>
<path d="M36.7347 4.97075C35.8579 4.53238 35.7423 4.47705 34.7077 4.13032L35.3434 1.90548L37.1801 3.3749C38.2862 4.25973 38.7113 5.1187 38.9303 6.15903C39.0041 6.50944 39.0544 6.88099 39.0972 7.2867C38.8541 6.85842 38.6203 6.51577 38.3915 6.23612C37.7865 5.49666 37.2325 5.21965 36.7368 4.97181L36.7347 4.97075Z" fill="#FEFEFE" stroke="#FAA21E" stroke-width="0.96"/>
<path d="M28.975 24.3188C28.1629 23.8075 27.6486 22.4213 27.0373 21.6823C26.8411 22.6211 27.1525 23.8795 26.5526 24.9181C26.016 25.8472 25.249 26.5761 24.1416 27.2952C25.4566 27.415 26.5708 27.7625 27.3828 28.2738C28.1948 28.7851 28.8438 30.138 29.3205 30.9104C29.3475 29.865 29.2686 28.6035 29.8052 27.6745C30.4051 26.6358 31.1088 26.0166 32.2162 25.2974C31.3049 25.0777 29.99 24.958 28.975 24.3188Z" fill="#FAA21E"/>
</svg>
