<svg width="50" height="51" viewBox="0 0 50 51" fill="none" xmlns="http://www.w3.org/2000/svg">
<line x1="25" y1="8.72363" x2="25" y2="3.26242" stroke="#FAA21E" stroke-linecap="round"/>
<line x1="25" y1="8.72363" x2="25" y2="3.26242" stroke="white" stroke-opacity="0.4" stroke-linecap="round"/>
<line x1="25" y1="48.6655" x2="25" y2="43.2043" stroke="#FAA21E" stroke-linecap="round"/>
<line x1="25" y1="48.6655" x2="25" y2="43.2043" stroke="white" stroke-opacity="0.4" stroke-linecap="round"/>
<line x1="47.3843" y1="26" x2="41.9608" y2="26" stroke="#FAA21E" stroke-linecap="round"/>
<line x1="47.3843" y1="26" x2="41.9608" y2="26" stroke="white" stroke-opacity="0.4" stroke-linecap="round"/>
<line x1="0.5" y1="-0.5" x2="5.95199" y2="-0.5" transform="matrix(-0.492924 0.870072 -0.867579 -0.4973 35.8818 5.40527)" stroke="#FAA21E" stroke-linecap="round"/>
<line x1="0.5" y1="-0.5" x2="5.95199" y2="-0.5" transform="matrix(-0.492924 0.870072 -0.867579 -0.4973 35.8818 5.40527)" stroke="white" stroke-opacity="0.4" stroke-linecap="round"/>
<line x1="0.5" y1="-0.5" x2="5.93396" y2="-0.5" transform="matrix(-0.849006 0.528383 -0.523928 -0.851763 44.7008 13.4287)" stroke="#FAA21E" stroke-linecap="round"/>
<line x1="0.5" y1="-0.5" x2="5.93396" y2="-0.5" transform="matrix(-0.849006 0.528383 -0.523928 -0.851763 44.7008 13.4287)" stroke="white" stroke-opacity="0.4" stroke-linecap="round"/>
<line x1="0.5" y1="-0.5" x2="5.93221" y2="-0.5" transform="matrix(-0.875939 -0.482423 0.478097 -0.878307 45.6342 37.103)" stroke="#FAA21E" stroke-linecap="round"/>
<line x1="0.5" y1="-0.5" x2="5.93221" y2="-0.5" transform="matrix(-0.875939 -0.482423 0.478097 -0.878307 45.6342 37.103)" stroke="white" stroke-opacity="0.4" stroke-linecap="round"/>
<line x1="0.5" y1="-0.5" x2="5.95021" y2="-0.5" transform="matrix(-0.538306 -0.842749 0.839871 -0.542786 37.3983 45.6436)" stroke="#FAA21E" stroke-linecap="round"/>
<line x1="0.5" y1="-0.5" x2="5.95021" y2="-0.5" transform="matrix(-0.538306 -0.842749 0.839871 -0.542786 37.3983 45.6436)" stroke="white" stroke-opacity="0.4" stroke-linecap="round"/>
<line x1="2.54382" y1="26.0537" x2="7.96732" y2="26.0537" stroke="#FAA21E" stroke-linecap="round"/>
<line x1="2.54382" y1="26.0537" x2="7.96732" y2="26.0537" stroke="white" stroke-opacity="0.4" stroke-linecap="round"/>
<line x1="0.5" y1="-0.5" x2="5.95199" y2="-0.5" transform="matrix(0.492924 -0.870072 0.867579 0.4973 14.0463 46.231)" stroke="#FAA21E" stroke-linecap="round"/>
<line x1="0.5" y1="-0.5" x2="5.95199" y2="-0.5" transform="matrix(0.492924 -0.870072 0.867579 0.4973 14.0463 46.231)" stroke="white" stroke-opacity="0.4" stroke-linecap="round"/>
<line x1="0.5" y1="-0.5" x2="5.93396" y2="-0.5" transform="matrix(0.849006 -0.528383 0.523928 0.851763 5.22729 38.2075)" stroke="#FAA21E" stroke-linecap="round"/>
<line x1="0.5" y1="-0.5" x2="5.93396" y2="-0.5" transform="matrix(0.849006 -0.528383 0.523928 0.851763 5.22729 38.2075)" stroke="white" stroke-opacity="0.4" stroke-linecap="round"/>
<line x1="0.5" y1="-0.5" x2="5.93221" y2="-0.5" transform="matrix(0.875938 0.482423 -0.478097 0.878307 4.70435 14.9985)" stroke="#FAA21E" stroke-linecap="round"/>
<line x1="0.5" y1="-0.5" x2="5.93221" y2="-0.5" transform="matrix(0.875938 0.482423 -0.478097 0.878307 4.70435 14.9985)" stroke="white" stroke-opacity="0.4" stroke-linecap="round"/>
<line x1="0.5" y1="-0.5" x2="5.95021" y2="-0.5" transform="matrix(0.538306 0.842749 -0.839871 0.542786 12.5297 5.99268)" stroke="#FAA21E" stroke-linecap="round"/>
<line x1="0.5" y1="-0.5" x2="5.95021" y2="-0.5" transform="matrix(0.538306 0.842749 -0.839871 0.542786 12.5297 5.99268)" stroke="white" stroke-opacity="0.4" stroke-linecap="round"/>
<line x1="0.5" y1="-0.5" x2="8.7191" y2="-0.5" transform="matrix(0.267517 -0.963553 0.962737 0.270438 30 9.88281)" stroke="#FAA21E" stroke-linecap="round"/>
<line x1="0.5" y1="-0.5" x2="8.7191" y2="-0.5" transform="matrix(0.267517 -0.963553 0.962737 0.270438 30 9.88281)" stroke="white" stroke-opacity="0.4" stroke-linecap="round"/>
<line x1="0.5" y1="-0.5" x2="8.7191" y2="-0.5" transform="matrix(0.267517 -0.963553 0.962737 0.270438 18.6865 51)" stroke="#FAA21E" stroke-linecap="round"/>
<line x1="0.5" y1="-0.5" x2="8.7191" y2="-0.5" transform="matrix(0.267517 -0.963553 0.962737 0.270438 18.6865 51)" stroke="white" stroke-opacity="0.4" stroke-linecap="round"/>
<line x1="0.5" y1="-0.5" x2="8.67305" y2="-0.5" transform="matrix(-0.962737 -0.270438 0.267517 -0.963553 50 32.2627)" stroke="#FAA21E" stroke-linecap="round"/>
<line x1="0.5" y1="-0.5" x2="8.67305" y2="-0.5" transform="matrix(-0.962737 -0.270438 0.267517 -0.963553 50 32.2627)" stroke="white" stroke-opacity="0.4" stroke-linecap="round"/>
<line x1="0.5" y1="-0.5" x2="8.69584" y2="-0.5" transform="matrix(-0.708495 0.705716 -0.701557 -0.712614 43.0124 7.16748)" stroke="#FAA21E" stroke-linecap="round"/>
<line x1="0.5" y1="-0.5" x2="8.69584" y2="-0.5" transform="matrix(-0.708495 0.705716 -0.701557 -0.712614 43.0124 7.16748)" stroke="white" stroke-opacity="0.4" stroke-linecap="round"/>
<line x1="0.5" y1="-0.5" x2="8.67332" y2="-0.5" transform="matrix(-0.960135 0.279537 -0.276533 -0.961004 49.6844 18.6216)" stroke="#FAA21E" stroke-linecap="round"/>
<line x1="0.5" y1="-0.5" x2="8.67332" y2="-0.5" transform="matrix(-0.960135 0.279537 -0.276533 -0.961004 49.6844 18.6216)" stroke="white" stroke-opacity="0.4" stroke-linecap="round"/>
<line x1="0.5" y1="-0.5" x2="8.69545" y2="-0.5" transform="matrix(-0.713579 -0.700575 0.696387 -0.717667 43.6428 43.8599)" stroke="#FAA21E" stroke-linecap="round"/>
<line x1="0.5" y1="-0.5" x2="8.69545" y2="-0.5" transform="matrix(-0.713579 -0.700575 0.696387 -0.717667 43.6428 43.8599)" stroke="white" stroke-opacity="0.4" stroke-linecap="round"/>
<line x1="0.5" y1="-0.5" x2="8.71833" y2="-0.5" transform="matrix(-0.292762 -0.956185 0.955216 -0.29591 32.4805 50.6377)" stroke="#FAA21E" stroke-linecap="round"/>
<line x1="0.5" y1="-0.5" x2="8.71833" y2="-0.5" transform="matrix(-0.292762 -0.956185 0.955216 -0.29591 32.4805 50.6377)" stroke="white" stroke-opacity="0.4" stroke-linecap="round"/>
<line x1="0.5" y1="-0.5" x2="8.67305" y2="-0.5" transform="matrix(0.962737 0.270438 -0.267517 0.963553 0 19.5024)" stroke="#FAA21E" stroke-linecap="round"/>
<line x1="0.5" y1="-0.5" x2="8.67305" y2="-0.5" transform="matrix(0.962737 0.270438 -0.267517 0.963553 0 19.5024)" stroke="white" stroke-opacity="0.4" stroke-linecap="round"/>
<line x1="0.5" y1="-0.5" x2="8.69584" y2="-0.5" transform="matrix(0.708495 -0.705716 0.701557 0.712614 7 44.4897)" stroke="#FAA21E" stroke-linecap="round"/>
<line x1="0.5" y1="-0.5" x2="8.69584" y2="-0.5" transform="matrix(0.708495 -0.705716 0.701557 0.712614 7 44.4897)" stroke="white" stroke-opacity="0.4" stroke-linecap="round"/>
<line x1="0.5" y1="-0.5" x2="8.67332" y2="-0.5" transform="matrix(0.960135 -0.279536 0.276533 0.961004 0.291992 33.2271)" stroke="#FAA21E" stroke-linecap="round"/>
<line x1="0.5" y1="-0.5" x2="8.67332" y2="-0.5" transform="matrix(0.960135 -0.279536 0.276533 0.961004 0.291992 33.2271)" stroke="white" stroke-opacity="0.4" stroke-linecap="round"/>
<line x1="0.5" y1="-0.5" x2="8.69545" y2="-0.5" transform="matrix(0.713579 0.700575 -0.696387 0.717667 6.42346 8.04883)" stroke="#FAA21E" stroke-linecap="round"/>
<line x1="0.5" y1="-0.5" x2="8.69545" y2="-0.5" transform="matrix(0.713579 0.700575 -0.696387 0.717667 6.42346 8.04883)" stroke="white" stroke-opacity="0.4" stroke-linecap="round"/>
<line x1="0.5" y1="-0.5" x2="8.71833" y2="-0.5" transform="matrix(0.292762 0.956185 -0.955216 0.29591 17.5186 1)" stroke="#FAA21E" stroke-linecap="round"/>
<line x1="0.5" y1="-0.5" x2="8.71833" y2="-0.5" transform="matrix(0.292762 0.956185 -0.955216 0.29591 17.5186 1)" stroke="white" stroke-opacity="0.4" stroke-linecap="round"/>
<mask id="path-25-inside-1_1357_8146" fill="white">
<path fill-rule="evenodd" clip-rule="evenodd" d="M48 26C48 38.7025 37.7025 49 25 49C12.2975 49 2 38.7025 2 26C2 13.2975 12.2975 3 25 3C37.7025 3 48 13.2975 48 26ZM25 40C32.732 40 39 33.732 39 26C39 18.268 32.732 12 25 12C17.268 12 11 18.268 11 26C11 33.732 17.268 40 25 40ZM25 41C33.2843 41 40 34.2843 40 26C40 17.7157 33.2843 11 25 11C16.7157 11 10 17.7157 10 26C10 34.2843 16.7157 41 25 41ZM25 4L22 7L25 10L28 7L25 4ZM25 42L22 45L25 48L28 45L25 42ZM3 26L6 23L9 26L6 29L3 26ZM44 23L41 26L44 29L47 26L44 23ZM9.5 10.5H13.5V14.5H9.5V10.5ZM40.5 10.5H36.5V14.5H40.5V10.5ZM9.5 37.5H13.5V41.5H9.5V37.5ZM40.5 37.5H36.5V41.5H40.5V37.5Z"/>
</mask>
<path fill-rule="evenodd" clip-rule="evenodd" d="M48 26C48 38.7025 37.7025 49 25 49C12.2975 49 2 38.7025 2 26C2 13.2975 12.2975 3 25 3C37.7025 3 48 13.2975 48 26ZM25 40C32.732 40 39 33.732 39 26C39 18.268 32.732 12 25 12C17.268 12 11 18.268 11 26C11 33.732 17.268 40 25 40ZM25 41C33.2843 41 40 34.2843 40 26C40 17.7157 33.2843 11 25 11C16.7157 11 10 17.7157 10 26C10 34.2843 16.7157 41 25 41ZM25 4L22 7L25 10L28 7L25 4ZM25 42L22 45L25 48L28 45L25 42ZM3 26L6 23L9 26L6 29L3 26ZM44 23L41 26L44 29L47 26L44 23ZM9.5 10.5H13.5V14.5H9.5V10.5ZM40.5 10.5H36.5V14.5H40.5V10.5ZM9.5 37.5H13.5V41.5H9.5V37.5ZM40.5 37.5H36.5V41.5H40.5V37.5Z" fill="#FEFEFE"/>
<path d="M22 7L21.2929 6.29289L20.5858 7L21.2929 7.70711L22 7ZM25 4L25.7071 3.29289L25 2.58579L24.2929 3.29289L25 4ZM25 10L24.2929 10.7071L25 11.4142L25.7071 10.7071L25 10ZM28 7L28.7071 7.70711L29.4142 7L28.7071 6.29289L28 7ZM22 45L21.2929 44.2929L20.5858 45L21.2929 45.7071L22 45ZM25 42L25.7071 41.2929L25 40.5858L24.2929 41.2929L25 42ZM25 48L24.2929 48.7071L25 49.4142L25.7071 48.7071L25 48ZM28 45L28.7071 45.7071L29.4142 45L28.7071 44.2929L28 45ZM6 23L6.70711 22.2929L6 21.5858L5.29289 22.2929L6 23ZM3 26L2.29289 25.2929L1.58579 26L2.29289 26.7071L3 26ZM9 26L9.70711 26.7071L10.4142 26L9.70711 25.2929L9 26ZM6 29L5.29289 29.7071L6 30.4142L6.70711 29.7071L6 29ZM41 26L40.2929 25.2929L39.5858 26L40.2929 26.7071L41 26ZM44 23L44.7071 22.2929L44 21.5858L43.2929 22.2929L44 23ZM44 29L43.2929 29.7071L44 30.4142L44.7071 29.7071L44 29ZM47 26L47.7071 26.7071L48.4142 26L47.7071 25.2929L47 26ZM13.5 10.5H14.5V9.5H13.5V10.5ZM9.5 10.5V9.5H8.5V10.5H9.5ZM13.5 14.5V15.5H14.5V14.5H13.5ZM9.5 14.5H8.5V15.5H9.5V14.5ZM36.5 10.5V9.5H35.5V10.5H36.5ZM40.5 10.5H41.5V9.5H40.5V10.5ZM36.5 14.5H35.5V15.5H36.5V14.5ZM40.5 14.5V15.5H41.5V14.5H40.5ZM13.5 37.5H14.5V36.5H13.5V37.5ZM9.5 37.5V36.5H8.5V37.5H9.5ZM13.5 41.5V42.5H14.5V41.5H13.5ZM9.5 41.5H8.5V42.5H9.5V41.5ZM36.5 37.5V36.5H35.5V37.5H36.5ZM40.5 37.5H41.5V36.5H40.5V37.5ZM36.5 41.5H35.5V42.5H36.5V41.5ZM40.5 41.5V42.5H41.5V41.5H40.5ZM25 50C38.2548 50 49 39.2548 49 26H47C47 38.1503 37.1503 48 25 48V50ZM1 26C1 39.2548 11.7452 50 25 50V48C12.8497 48 3 38.1503 3 26H1ZM25 2C11.7452 2 1 12.7452 1 26H3C3 13.8497 12.8497 4 25 4V2ZM49 26C49 12.7452 38.2548 2 25 2V4C37.1503 4 47 13.8497 47 26H49ZM38 26C38 33.1797 32.1797 39 25 39V41C33.2843 41 40 34.2843 40 26H38ZM25 13C32.1797 13 38 18.8203 38 26H40C40 17.7157 33.2843 11 25 11V13ZM12 26C12 18.8203 17.8203 13 25 13V11C16.7157 11 10 17.7157 10 26H12ZM25 39C17.8203 39 12 33.1797 12 26H10C10 34.2843 16.7157 41 25 41V39ZM39 26C39 33.732 32.732 40 25 40V42C33.8366 42 41 34.8366 41 26H39ZM25 12C32.732 12 39 18.268 39 26H41C41 17.1634 33.8366 10 25 10V12ZM11 26C11 18.268 17.268 12 25 12V10C16.1634 10 9 17.1634 9 26H11ZM25 40C17.268 40 11 33.732 11 26H9C9 34.8366 16.1634 42 25 42V40ZM22.7071 7.70711L25.7071 4.70711L24.2929 3.29289L21.2929 6.29289L22.7071 7.70711ZM25.7071 9.29289L22.7071 6.29289L21.2929 7.70711L24.2929 10.7071L25.7071 9.29289ZM27.2929 6.29289L24.2929 9.29289L25.7071 10.7071L28.7071 7.70711L27.2929 6.29289ZM24.2929 4.70711L27.2929 7.70711L28.7071 6.29289L25.7071 3.29289L24.2929 4.70711ZM22.7071 45.7071L25.7071 42.7071L24.2929 41.2929L21.2929 44.2929L22.7071 45.7071ZM25.7071 47.2929L22.7071 44.2929L21.2929 45.7071L24.2929 48.7071L25.7071 47.2929ZM27.2929 44.2929L24.2929 47.2929L25.7071 48.7071L28.7071 45.7071L27.2929 44.2929ZM24.2929 42.7071L27.2929 45.7071L28.7071 44.2929L25.7071 41.2929L24.2929 42.7071ZM5.29289 22.2929L2.29289 25.2929L3.70711 26.7071L6.70711 23.7071L5.29289 22.2929ZM9.70711 25.2929L6.70711 22.2929L5.29289 23.7071L8.29289 26.7071L9.70711 25.2929ZM6.70711 29.7071L9.70711 26.7071L8.29289 25.2929L5.29289 28.2929L6.70711 29.7071ZM2.29289 26.7071L5.29289 29.7071L6.70711 28.2929L3.70711 25.2929L2.29289 26.7071ZM41.7071 26.7071L44.7071 23.7071L43.2929 22.2929L40.2929 25.2929L41.7071 26.7071ZM44.7071 28.2929L41.7071 25.2929L40.2929 26.7071L43.2929 29.7071L44.7071 28.2929ZM46.2929 25.2929L43.2929 28.2929L44.7071 29.7071L47.7071 26.7071L46.2929 25.2929ZM43.2929 23.7071L46.2929 26.7071L47.7071 25.2929L44.7071 22.2929L43.2929 23.7071ZM13.5 9.5H9.5V11.5H13.5V9.5ZM14.5 14.5V10.5H12.5V14.5H14.5ZM9.5 15.5H13.5V13.5H9.5V15.5ZM8.5 10.5V14.5H10.5V10.5H8.5ZM36.5 11.5H40.5V9.5H36.5V11.5ZM37.5 14.5V10.5H35.5V14.5H37.5ZM40.5 13.5H36.5V15.5H40.5V13.5ZM39.5 10.5V14.5H41.5V10.5H39.5ZM13.5 36.5H9.5V38.5H13.5V36.5ZM14.5 41.5V37.5H12.5V41.5H14.5ZM9.5 42.5H13.5V40.5H9.5V42.5ZM8.5 37.5V41.5H10.5V37.5H8.5ZM36.5 38.5H40.5V36.5H36.5V38.5ZM37.5 41.5V37.5H35.5V41.5H37.5ZM40.5 40.5H36.5V42.5H40.5V40.5ZM39.5 37.5V41.5H41.5V37.5H39.5Z" fill="#FAA21E" mask="url(#path-25-inside-1_1357_8146)"/>
<circle cx="25" cy="26" r="13.5" fill="#FEFEFE" stroke="#FAA21E"/>
<path d="M26.5 23.9773C25.7 23.0682 25.5 21.1364 25 20C24.5 21.1364 24.5 22.8409 23.5 23.9773C22.6056 24.9937 21.5 25.6818 20 26.25C21.5 26.8182 22.7 27.6136 23.5 28.5227C24.3 29.4318 24.6667 31.3636 25 32.5C25.3333 31.1742 25.6056 29.5391 26.5 28.5227C27.5 27.3864 28.5 26.8182 30 26.25C29 25.6818 27.5 25.1136 26.5 23.9773Z" fill="#FAA21E"/>
</svg>
