<svg width="50" height="51" viewBox="0 0 50 51" fill="none" xmlns="http://www.w3.org/2000/svg">
<line x1="25" y1="8.72339" x2="25" y2="3.26218" stroke="#FAA21E" stroke-linecap="round"/>
<line x1="25" y1="8.72339" x2="25" y2="3.26218" stroke="white" stroke-opacity="0.4" stroke-linecap="round"/>
<line x1="25" y1="48.6655" x2="25" y2="43.2043" stroke="#FAA21E" stroke-linecap="round"/>
<line x1="25" y1="48.6655" x2="25" y2="43.2043" stroke="white" stroke-opacity="0.4" stroke-linecap="round"/>
<line x1="47.3843" y1="26" x2="41.9608" y2="26" stroke="#FAA21E" stroke-linecap="round"/>
<line x1="47.3843" y1="26" x2="41.9608" y2="26" stroke="white" stroke-opacity="0.4" stroke-linecap="round"/>
<line x1="0.5" y1="-0.5" x2="5.95199" y2="-0.5" transform="matrix(-0.492924 0.870072 -0.867579 -0.4973 35.8818 5.40552)" stroke="#FAA21E" stroke-linecap="round"/>
<line x1="0.5" y1="-0.5" x2="5.95199" y2="-0.5" transform="matrix(-0.492924 0.870072 -0.867579 -0.4973 35.8818 5.40552)" stroke="white" stroke-opacity="0.4" stroke-linecap="round"/>
<line x1="0.5" y1="-0.5" x2="5.93396" y2="-0.5" transform="matrix(-0.849006 0.528383 -0.523928 -0.851763 44.7008 13.429)" stroke="#FAA21E" stroke-linecap="round"/>
<line x1="0.5" y1="-0.5" x2="5.93396" y2="-0.5" transform="matrix(-0.849006 0.528383 -0.523928 -0.851763 44.7008 13.429)" stroke="white" stroke-opacity="0.4" stroke-linecap="round"/>
<line x1="0.5" y1="-0.5" x2="5.93221" y2="-0.5" transform="matrix(-0.875939 -0.482423 0.478097 -0.878307 45.6342 37.103)" stroke="#FAA21E" stroke-linecap="round"/>
<line x1="0.5" y1="-0.5" x2="5.93221" y2="-0.5" transform="matrix(-0.875939 -0.482423 0.478097 -0.878307 45.6342 37.103)" stroke="white" stroke-opacity="0.4" stroke-linecap="round"/>
<line x1="0.5" y1="-0.5" x2="5.95021" y2="-0.5" transform="matrix(-0.538306 -0.842749 0.839871 -0.542786 37.3983 45.6433)" stroke="#FAA21E" stroke-linecap="round"/>
<line x1="0.5" y1="-0.5" x2="5.95021" y2="-0.5" transform="matrix(-0.538306 -0.842749 0.839871 -0.542786 37.3983 45.6433)" stroke="white" stroke-opacity="0.4" stroke-linecap="round"/>
<line x1="2.54382" y1="26.0537" x2="7.96732" y2="26.0537" stroke="#FAA21E" stroke-linecap="round"/>
<line x1="2.54382" y1="26.0537" x2="7.96732" y2="26.0537" stroke="white" stroke-opacity="0.4" stroke-linecap="round"/>
<line x1="0.5" y1="-0.5" x2="5.95199" y2="-0.5" transform="matrix(0.492924 -0.870072 0.867579 0.4973 14.0463 46.2307)" stroke="#FAA21E" stroke-linecap="round"/>
<line x1="0.5" y1="-0.5" x2="5.95199" y2="-0.5" transform="matrix(0.492924 -0.870072 0.867579 0.4973 14.0463 46.2307)" stroke="white" stroke-opacity="0.4" stroke-linecap="round"/>
<line x1="0.5" y1="-0.5" x2="5.93396" y2="-0.5" transform="matrix(0.849006 -0.528383 0.523928 0.851763 5.22729 38.2073)" stroke="#FAA21E" stroke-linecap="round"/>
<line x1="0.5" y1="-0.5" x2="5.93396" y2="-0.5" transform="matrix(0.849006 -0.528383 0.523928 0.851763 5.22729 38.2073)" stroke="white" stroke-opacity="0.4" stroke-linecap="round"/>
<line x1="0.5" y1="-0.5" x2="5.93221" y2="-0.5" transform="matrix(0.875938 0.482423 -0.478097 0.878307 4.70435 14.9988)" stroke="#FAA21E" stroke-linecap="round"/>
<line x1="0.5" y1="-0.5" x2="5.93221" y2="-0.5" transform="matrix(0.875938 0.482423 -0.478097 0.878307 4.70435 14.9988)" stroke="white" stroke-opacity="0.4" stroke-linecap="round"/>
<line x1="0.5" y1="-0.5" x2="5.95021" y2="-0.5" transform="matrix(0.538306 0.842749 -0.839871 0.542786 12.5297 5.99292)" stroke="#FAA21E" stroke-linecap="round"/>
<line x1="0.5" y1="-0.5" x2="5.95021" y2="-0.5" transform="matrix(0.538306 0.842749 -0.839871 0.542786 12.5297 5.99292)" stroke="white" stroke-opacity="0.4" stroke-linecap="round"/>
<line x1="0.5" y1="-0.5" x2="8.7191" y2="-0.5" transform="matrix(0.267517 -0.963553 0.962737 0.270438 30 9.88306)" stroke="#FAA21E" stroke-linecap="round"/>
<line x1="0.5" y1="-0.5" x2="8.7191" y2="-0.5" transform="matrix(0.267517 -0.963553 0.962737 0.270438 30 9.88306)" stroke="white" stroke-opacity="0.4" stroke-linecap="round"/>
<line x1="0.5" y1="-0.5" x2="8.7191" y2="-0.5" transform="matrix(0.267517 -0.963553 0.962737 0.270438 18.6865 51)" stroke="#FAA21E" stroke-linecap="round"/>
<line x1="0.5" y1="-0.5" x2="8.7191" y2="-0.5" transform="matrix(0.267517 -0.963553 0.962737 0.270438 18.6865 51)" stroke="white" stroke-opacity="0.4" stroke-linecap="round"/>
<line x1="0.5" y1="-0.5" x2="8.67305" y2="-0.5" transform="matrix(-0.962737 -0.270438 0.267517 -0.963553 50 32.2625)" stroke="#FAA21E" stroke-linecap="round"/>
<line x1="0.5" y1="-0.5" x2="8.67305" y2="-0.5" transform="matrix(-0.962737 -0.270438 0.267517 -0.963553 50 32.2625)" stroke="white" stroke-opacity="0.4" stroke-linecap="round"/>
<line x1="0.5" y1="-0.5" x2="8.69584" y2="-0.5" transform="matrix(-0.708495 0.705716 -0.701557 -0.712614 43.0124 7.16772)" stroke="#FAA21E" stroke-linecap="round"/>
<line x1="0.5" y1="-0.5" x2="8.69584" y2="-0.5" transform="matrix(-0.708495 0.705716 -0.701557 -0.712614 43.0124 7.16772)" stroke="white" stroke-opacity="0.4" stroke-linecap="round"/>
<line x1="0.5" y1="-0.5" x2="8.67332" y2="-0.5" transform="matrix(-0.960135 0.279537 -0.276533 -0.961004 49.6844 18.6216)" stroke="#FAA21E" stroke-linecap="round"/>
<line x1="0.5" y1="-0.5" x2="8.67332" y2="-0.5" transform="matrix(-0.960135 0.279537 -0.276533 -0.961004 49.6844 18.6216)" stroke="white" stroke-opacity="0.4" stroke-linecap="round"/>
<line x1="0.5" y1="-0.5" x2="8.69545" y2="-0.5" transform="matrix(-0.713579 -0.700575 0.696387 -0.717667 43.6428 43.8599)" stroke="#FAA21E" stroke-linecap="round"/>
<line x1="0.5" y1="-0.5" x2="8.69545" y2="-0.5" transform="matrix(-0.713579 -0.700575 0.696387 -0.717667 43.6428 43.8599)" stroke="white" stroke-opacity="0.4" stroke-linecap="round"/>
<line x1="0.5" y1="-0.5" x2="8.71833" y2="-0.5" transform="matrix(-0.292762 -0.956185 0.955216 -0.29591 32.4805 50.6375)" stroke="#FAA21E" stroke-linecap="round"/>
<line x1="0.5" y1="-0.5" x2="8.71833" y2="-0.5" transform="matrix(-0.292762 -0.956185 0.955216 -0.29591 32.4805 50.6375)" stroke="white" stroke-opacity="0.4" stroke-linecap="round"/>
<line x1="0.5" y1="-0.5" x2="8.67305" y2="-0.5" transform="matrix(0.962737 0.270438 -0.267517 0.963553 0 19.5027)" stroke="#FAA21E" stroke-linecap="round"/>
<line x1="0.5" y1="-0.5" x2="8.67305" y2="-0.5" transform="matrix(0.962737 0.270438 -0.267517 0.963553 0 19.5027)" stroke="white" stroke-opacity="0.4" stroke-linecap="round"/>
<line x1="0.5" y1="-0.5" x2="8.69584" y2="-0.5" transform="matrix(0.708495 -0.705716 0.701557 0.712614 7 44.4897)" stroke="#FAA21E" stroke-linecap="round"/>
<line x1="0.5" y1="-0.5" x2="8.69584" y2="-0.5" transform="matrix(0.708495 -0.705716 0.701557 0.712614 7 44.4897)" stroke="white" stroke-opacity="0.4" stroke-linecap="round"/>
<line x1="0.5" y1="-0.5" x2="8.67332" y2="-0.5" transform="matrix(0.960135 -0.279537 0.276533 0.961004 0.291992 33.2273)" stroke="#FAA21E" stroke-linecap="round"/>
<line x1="0.5" y1="-0.5" x2="8.67332" y2="-0.5" transform="matrix(0.960135 -0.279537 0.276533 0.961004 0.291992 33.2273)" stroke="white" stroke-opacity="0.4" stroke-linecap="round"/>
<line x1="0.5" y1="-0.5" x2="8.69545" y2="-0.5" transform="matrix(0.713579 0.700575 -0.696387 0.717667 6.42346 8.04858)" stroke="#FAA21E" stroke-linecap="round"/>
<line x1="0.5" y1="-0.5" x2="8.69545" y2="-0.5" transform="matrix(0.713579 0.700575 -0.696387 0.717667 6.42346 8.04858)" stroke="white" stroke-opacity="0.4" stroke-linecap="round"/>
<line x1="0.5" y1="-0.5" x2="8.71833" y2="-0.5" transform="matrix(0.292762 0.956185 -0.955216 0.29591 17.5186 1)" stroke="#FAA21E" stroke-linecap="round"/>
<line x1="0.5" y1="-0.5" x2="8.71833" y2="-0.5" transform="matrix(0.292762 0.956185 -0.955216 0.29591 17.5186 1)" stroke="white" stroke-opacity="0.4" stroke-linecap="round"/>
<path d="M39.3669 7.11867C39.869 5.24506 35.1439 3.46003 32.3697 2.71669C29.5955 1.97335 24.5997 1.19881 24.109 3.03031C23.8382 4.0408 24.7883 4.65638 25.0448 5.08612C24.8595 6.23986 24.1366 9.0305 22.7267 10.9632C20.9644 13.3791 18.4591 13.5981 16.6083 14.378C14.5135 15.2607 13.4447 17.8624 13.0837 19.2097L7.30747 40.7667C7.38349 41.8701 9.49338 44.5549 12.4663 46.4812C15.3165 48.3279 23.2923 50.465 27.0308 50.3837C30.4278 50.3098 34.7785 49.2106 35.0493 48.2001L40.8254 26.6431C41.2165 25.1835 41.9446 22.4664 40.1889 20.6963C38.4331 18.9263 37.0964 16.9796 36.5976 14.6799C36.1985 12.8401 37.0219 9.85977 37.5286 8.43115C38.3124 8.28015 39.1413 7.96075 39.3669 7.11867Z" fill="#FEFEFE" stroke="#FAA21E"/>
<path d="M34.8257 28.9599C33.5335 29.3414 32.8669 28.0305 31.348 27.9919C29.829 27.9534 29.2275 28.2943 28.5209 29.0252C27.7822 29.7893 27.3413 31.5128 28.0727 32.5834C29.1087 34.1 30.5251 35.7371 33.196 36.5464C36.2555 37.4735 37.2948 35.872 38.4775 35.3713L39.613 31.1338C39.558 30.6017 39.7929 29.7606 39.3527 28.8712C38.8024 27.7595 37.5311 27.1165 36.6744 27.4583C35.6976 27.848 35.814 28.6681 34.8257 28.9599Z" fill="#FAA21E"/>
<path d="M21.1926 12.6369C19.8704 13.5379 18.3048 13.7594 17.5343 14.2397C17.978 15.5001 18.7527 15.7924 20.0031 16.0934C22.0039 16.5751 20.5746 17.4524 23.0023 19.6282C25.43 21.804 28.195 21.0108 29.1987 19.5894C30.2045 18.1686 28.7769 16.7213 28.1797 16.2261C27.5824 15.731 28.4963 15.0587 28.6662 13.9698C28.8343 12.8791 28.9506 11.644 27.7043 10.507C26.8722 9.74814 24.902 9.27266 23.6073 9.40928C22.8504 10.7536 22.3722 11.8332 21.1926 12.6369Z" fill="#FAA21E"/>
<path d="M14.8238 29.6574C12.9938 28.8059 10.3524 29.482 9.96058 30.9373L7.31003 40.7701C7.31003 40.7701 7.31003 41.5285 9.00003 43.5001C12.0971 47.1132 15.7585 48.0353 17.5 48.5001C17.8229 47.2951 15.8403 47.1892 16.1051 46.3755C16.3699 45.5619 18.2366 46.4322 20.0951 45.779C21.1696 45.4013 22.7333 43.291 21.0544 41.3066C19.2411 39.1635 16.1672 39.6848 16.1339 38.5036C16.1007 37.3225 17.3506 37.4342 17.8911 35.6867C18.5726 33.4832 18.0963 31.18 14.8238 29.6574Z" fill="#FAA21E"/>
<ellipse cx="31.8594" cy="4.87004" rx="6.29547" ry="1.59485" transform="rotate(14.9427 31.8594 4.87004)" fill="#898989"/>
<ellipse cx="31.8594" cy="4.87004" rx="6.29547" ry="1.59485" transform="rotate(14.9427 31.8594 4.87004)" fill="white" fill-opacity="0.6"/>
<path d="M31.1622 7.5615C33.2041 8.10862 35.1289 8.3672 36.5964 8.3334C37.3266 8.31658 37.973 8.22688 38.471 8.0456C38.9508 7.87093 39.4166 7.56256 39.5433 7.02455C39.67 6.48645 39.3963 5.97972 39.0507 5.5836C38.6922 5.17259 38.1623 4.76759 37.5261 4.38454C36.2478 3.61485 34.4369 2.87243 32.395 2.32531C30.3531 1.7782 28.4283 1.51961 26.9607 1.55356C26.2304 1.57045 25.584 1.66027 25.086 1.84175C24.606 2.01665 24.1404 2.32531 24.0137 2.86341C23.887 3.40141 24.1609 3.90799 24.5064 4.30381C24.865 4.71462 25.3949 5.11948 26.0311 5.50244C27.3094 6.27197 29.1203 7.01439 31.1622 7.5615Z" fill="#FEFEFE" stroke="#FAA21E"/>
<ellipse cx="31.7109" cy="5.57298" rx="6.47097" ry="1.61129" transform="matrix(0.965862 0.258583 -0.259056 0.965989 2.52625 -8.01035)" fill="#898989"/>
<ellipse cx="31.7109" cy="5.57298" rx="6.47097" ry="1.61129" transform="matrix(0.965862 0.258583 -0.259056 0.965989 2.52625 -8.01035)" fill="white" fill-opacity="0.8"/>
</svg>
