<svg width="50" height="51" viewBox="0 0 50 51" fill="none" xmlns="http://www.w3.org/2000/svg">
<line x1="25" y1="8.72363" x2="25" y2="3.26242" stroke="#FAA21E" stroke-linecap="round"/>
<line x1="25" y1="8.72363" x2="25" y2="3.26242" stroke="white" stroke-opacity="0.4" stroke-linecap="round"/>
<line x1="25" y1="48.6655" x2="25" y2="43.2043" stroke="#FAA21E" stroke-linecap="round"/>
<line x1="25" y1="48.6655" x2="25" y2="43.2043" stroke="white" stroke-opacity="0.4" stroke-linecap="round"/>
<line x1="47.3843" y1="26" x2="41.9608" y2="26" stroke="#FAA21E" stroke-linecap="round"/>
<line x1="47.3843" y1="26" x2="41.9608" y2="26" stroke="white" stroke-opacity="0.4" stroke-linecap="round"/>
<line x1="0.5" y1="-0.5" x2="5.95199" y2="-0.5" transform="matrix(-0.492924 0.870072 -0.867579 -0.4973 35.8818 5.40527)" stroke="#FAA21E" stroke-linecap="round"/>
<line x1="0.5" y1="-0.5" x2="5.95199" y2="-0.5" transform="matrix(-0.492924 0.870072 -0.867579 -0.4973 35.8818 5.40527)" stroke="white" stroke-opacity="0.4" stroke-linecap="round"/>
<line x1="0.5" y1="-0.5" x2="5.93396" y2="-0.5" transform="matrix(-0.849006 0.528383 -0.523928 -0.851763 44.7008 13.4287)" stroke="#FAA21E" stroke-linecap="round"/>
<line x1="0.5" y1="-0.5" x2="5.93396" y2="-0.5" transform="matrix(-0.849006 0.528383 -0.523928 -0.851763 44.7008 13.4287)" stroke="white" stroke-opacity="0.4" stroke-linecap="round"/>
<line x1="0.5" y1="-0.5" x2="5.93221" y2="-0.5" transform="matrix(-0.875939 -0.482423 0.478097 -0.878307 45.6342 37.103)" stroke="#FAA21E" stroke-linecap="round"/>
<line x1="0.5" y1="-0.5" x2="5.93221" y2="-0.5" transform="matrix(-0.875939 -0.482423 0.478097 -0.878307 45.6342 37.103)" stroke="white" stroke-opacity="0.4" stroke-linecap="round"/>
<line x1="0.5" y1="-0.5" x2="5.95021" y2="-0.5" transform="matrix(-0.538306 -0.842749 0.839871 -0.542786 37.3983 45.6436)" stroke="#FAA21E" stroke-linecap="round"/>
<line x1="0.5" y1="-0.5" x2="5.95021" y2="-0.5" transform="matrix(-0.538306 -0.842749 0.839871 -0.542786 37.3983 45.6436)" stroke="white" stroke-opacity="0.4" stroke-linecap="round"/>
<line x1="2.54382" y1="26.0537" x2="7.96732" y2="26.0537" stroke="#FAA21E" stroke-linecap="round"/>
<line x1="2.54382" y1="26.0537" x2="7.96732" y2="26.0537" stroke="white" stroke-opacity="0.4" stroke-linecap="round"/>
<line x1="0.5" y1="-0.5" x2="5.95199" y2="-0.5" transform="matrix(0.492924 -0.870072 0.867579 0.4973 14.0463 46.231)" stroke="#FAA21E" stroke-linecap="round"/>
<line x1="0.5" y1="-0.5" x2="5.95199" y2="-0.5" transform="matrix(0.492924 -0.870072 0.867579 0.4973 14.0463 46.231)" stroke="white" stroke-opacity="0.4" stroke-linecap="round"/>
<line x1="0.5" y1="-0.5" x2="5.93396" y2="-0.5" transform="matrix(0.849006 -0.528383 0.523928 0.851763 5.22729 38.2075)" stroke="#FAA21E" stroke-linecap="round"/>
<line x1="0.5" y1="-0.5" x2="5.93396" y2="-0.5" transform="matrix(0.849006 -0.528383 0.523928 0.851763 5.22729 38.2075)" stroke="white" stroke-opacity="0.4" stroke-linecap="round"/>
<line x1="0.5" y1="-0.5" x2="5.93221" y2="-0.5" transform="matrix(0.875938 0.482423 -0.478097 0.878307 4.70435 14.9985)" stroke="#FAA21E" stroke-linecap="round"/>
<line x1="0.5" y1="-0.5" x2="5.93221" y2="-0.5" transform="matrix(0.875938 0.482423 -0.478097 0.878307 4.70435 14.9985)" stroke="white" stroke-opacity="0.4" stroke-linecap="round"/>
<line x1="0.5" y1="-0.5" x2="5.95021" y2="-0.5" transform="matrix(0.538306 0.842749 -0.839871 0.542786 12.5297 5.99268)" stroke="#FAA21E" stroke-linecap="round"/>
<line x1="0.5" y1="-0.5" x2="5.95021" y2="-0.5" transform="matrix(0.538306 0.842749 -0.839871 0.542786 12.5297 5.99268)" stroke="white" stroke-opacity="0.4" stroke-linecap="round"/>
<line x1="0.5" y1="-0.5" x2="8.7191" y2="-0.5" transform="matrix(0.267517 -0.963553 0.962737 0.270438 30 9.88281)" stroke="#FAA21E" stroke-linecap="round"/>
<line x1="0.5" y1="-0.5" x2="8.7191" y2="-0.5" transform="matrix(0.267517 -0.963553 0.962737 0.270438 30 9.88281)" stroke="white" stroke-opacity="0.4" stroke-linecap="round"/>
<line x1="0.5" y1="-0.5" x2="8.7191" y2="-0.5" transform="matrix(0.267517 -0.963553 0.962737 0.270438 18.6865 51)" stroke="#FAA21E" stroke-linecap="round"/>
<line x1="0.5" y1="-0.5" x2="8.7191" y2="-0.5" transform="matrix(0.267517 -0.963553 0.962737 0.270438 18.6865 51)" stroke="white" stroke-opacity="0.4" stroke-linecap="round"/>
<line x1="0.5" y1="-0.5" x2="8.67305" y2="-0.5" transform="matrix(-0.962737 -0.270438 0.267517 -0.963553 50 32.2627)" stroke="#FAA21E" stroke-linecap="round"/>
<line x1="0.5" y1="-0.5" x2="8.67305" y2="-0.5" transform="matrix(-0.962737 -0.270438 0.267517 -0.963553 50 32.2627)" stroke="white" stroke-opacity="0.4" stroke-linecap="round"/>
<line x1="0.5" y1="-0.5" x2="8.69584" y2="-0.5" transform="matrix(-0.708495 0.705716 -0.701557 -0.712614 43.0124 7.16748)" stroke="#FAA21E" stroke-linecap="round"/>
<line x1="0.5" y1="-0.5" x2="8.69584" y2="-0.5" transform="matrix(-0.708495 0.705716 -0.701557 -0.712614 43.0124 7.16748)" stroke="white" stroke-opacity="0.4" stroke-linecap="round"/>
<line x1="0.5" y1="-0.5" x2="8.67332" y2="-0.5" transform="matrix(-0.960135 0.279537 -0.276533 -0.961004 49.6844 18.6216)" stroke="#FAA21E" stroke-linecap="round"/>
<line x1="0.5" y1="-0.5" x2="8.67332" y2="-0.5" transform="matrix(-0.960135 0.279537 -0.276533 -0.961004 49.6844 18.6216)" stroke="white" stroke-opacity="0.4" stroke-linecap="round"/>
<line x1="0.5" y1="-0.5" x2="8.69545" y2="-0.5" transform="matrix(-0.713579 -0.700575 0.696387 -0.717667 43.6428 43.8599)" stroke="#FAA21E" stroke-linecap="round"/>
<line x1="0.5" y1="-0.5" x2="8.69545" y2="-0.5" transform="matrix(-0.713579 -0.700575 0.696387 -0.717667 43.6428 43.8599)" stroke="white" stroke-opacity="0.4" stroke-linecap="round"/>
<line x1="0.5" y1="-0.5" x2="8.71833" y2="-0.5" transform="matrix(-0.292762 -0.956185 0.955216 -0.29591 32.4805 50.6377)" stroke="#FAA21E" stroke-linecap="round"/>
<line x1="0.5" y1="-0.5" x2="8.71833" y2="-0.5" transform="matrix(-0.292762 -0.956185 0.955216 -0.29591 32.4805 50.6377)" stroke="white" stroke-opacity="0.4" stroke-linecap="round"/>
<line x1="0.5" y1="-0.5" x2="8.67305" y2="-0.5" transform="matrix(0.962737 0.270438 -0.267517 0.963553 0 19.5024)" stroke="#FAA21E" stroke-linecap="round"/>
<line x1="0.5" y1="-0.5" x2="8.67305" y2="-0.5" transform="matrix(0.962737 0.270438 -0.267517 0.963553 0 19.5024)" stroke="white" stroke-opacity="0.4" stroke-linecap="round"/>
<line x1="0.5" y1="-0.5" x2="8.69584" y2="-0.5" transform="matrix(0.708495 -0.705716 0.701557 0.712614 7 44.4897)" stroke="#FAA21E" stroke-linecap="round"/>
<line x1="0.5" y1="-0.5" x2="8.69584" y2="-0.5" transform="matrix(0.708495 -0.705716 0.701557 0.712614 7 44.4897)" stroke="white" stroke-opacity="0.4" stroke-linecap="round"/>
<line x1="0.5" y1="-0.5" x2="8.67332" y2="-0.5" transform="matrix(0.960135 -0.279536 0.276533 0.961004 0.291992 33.2271)" stroke="#FAA21E" stroke-linecap="round"/>
<line x1="0.5" y1="-0.5" x2="8.67332" y2="-0.5" transform="matrix(0.960135 -0.279536 0.276533 0.961004 0.291992 33.2271)" stroke="white" stroke-opacity="0.4" stroke-linecap="round"/>
<line x1="0.5" y1="-0.5" x2="8.69545" y2="-0.5" transform="matrix(0.713579 0.700575 -0.696387 0.717667 6.42346 8.04883)" stroke="#FAA21E" stroke-linecap="round"/>
<line x1="0.5" y1="-0.5" x2="8.69545" y2="-0.5" transform="matrix(0.713579 0.700575 -0.696387 0.717667 6.42346 8.04883)" stroke="white" stroke-opacity="0.4" stroke-linecap="round"/>
<line x1="0.5" y1="-0.5" x2="8.71833" y2="-0.5" transform="matrix(0.292762 0.956185 -0.955216 0.29591 17.5186 1)" stroke="#FAA21E" stroke-linecap="round"/>
<line x1="0.5" y1="-0.5" x2="8.71833" y2="-0.5" transform="matrix(0.292762 0.956185 -0.955216 0.29591 17.5186 1)" stroke="white" stroke-opacity="0.4" stroke-linecap="round"/>
<path d="M37.9338 36.9109C39.714 37.8312 40.4391 39.1419 41.02 40L41.6684 24.0396L43.52 20L41.2061 15.2381L26.481 14L17.02 18.1188L19.0118 24.297L29.113 31.3333C30.3223 31.3333 31.0843 30.5729 33.52 32C34.7649 32.7294 35.0766 35.4276 35.1596 36.2857C35.1614 36.3047 36.1537 35.9906 37.9338 36.9109Z" fill="#FAA21E"/>
<path d="M37.9338 36.9109C39.714 37.8312 40.4391 39.1419 41.02 40L41.6684 24.0396L43.52 20L41.2061 15.2381L26.481 14L17.02 18.1188L19.0118 24.297L29.113 31.3333C30.3223 31.3333 31.0843 30.5729 33.52 32C34.7649 32.7294 35.0766 35.4276 35.1596 36.2857C35.1614 36.3047 36.1537 35.9906 37.9338 36.9109Z" fill="black" fill-opacity="0.4"/>
<path d="M33.446 18.0948L33.4136 17.8717L33.2249 17.7484C32.5417 17.3016 31.3582 16.656 29.9949 16.1466C28.638 15.6395 27.0556 15.2492 25.5919 15.3597C23.8387 15.4919 22.0063 15.9546 20.5634 16.6961C19.1454 17.4247 17.9706 18.4961 17.8109 19.9061C17.7406 20.5273 17.7689 21.0813 17.9596 21.5768C18.1538 22.0813 18.4969 22.4755 18.9672 22.8076C19.4283 23.1333 20.0231 23.4076 20.7433 23.6771C21.4664 23.9477 22.3466 24.2244 23.391 24.5446C26.2347 25.4163 28.3176 25.629 29.3806 25.617C29.7608 28.3718 30.5576 33.8108 31.1539 36.7354C31.7343 39.5821 33.1057 46.4551 33.8599 50.2437C30.9907 49.24 25.5399 47.1928 21.4043 45.1644C17.0318 43.0198 12.9359 39.916 11.2487 38.4791C11.3304 37.6559 11.4188 36.482 11.4466 35.3459C11.4621 34.7147 11.459 34.0882 11.4246 33.5366C11.3908 32.9956 11.3248 32.4874 11.1979 32.114C10.9185 31.2915 10.4995 30.5366 10.0402 29.9474C9.594 29.375 9.06035 28.8961 8.52651 28.7215C8.15454 28.5998 7.64817 28.5323 7.19828 28.4934C6.95733 28.4725 6.72034 28.4589 6.50983 28.4507C6.47857 26.145 6.51499 22.7602 6.71933 19.5452C6.82886 17.8219 6.98618 16.1547 7.2056 14.7321C7.42703 13.2964 7.7053 12.1555 8.03813 11.4559C9.81316 7.7247 13.8775 3.2342 20.7505 1.98566C24.235 1.35268 26.9761 1.35881 29.3453 1.8856C31.7116 2.41174 33.7405 3.46465 35.7928 4.97457C39.8548 7.96302 42.6678 13.4762 43.1759 17.7133C43.3808 19.4215 43.4687 24.4937 43.4927 30.1864C43.5164 35.7972 43.4783 41.9645 43.4354 45.9854L41.7355 48.8202L40.5249 24.8317C40.9331 24.5334 41.4509 24.0826 41.9171 23.5294C42.4764 22.8656 43.0006 22.0077 43.1224 21.0516C43.3918 18.9379 42.8848 16.5824 41.0162 15.6658C40.5618 15.443 40.0483 15.4523 39.5729 15.5546C39.0928 15.6579 38.5964 15.8676 38.1295 16.1157C37.195 16.6122 36.2989 17.3058 35.7548 17.795L35.56 17.9702L35.5932 18.23C35.6798 18.9104 35.906 20.7872 36.1147 22.8347C36.3076 24.7268 36.8026 26.6114 37.0962 27.5468L36.1932 28.6097L33.9742 27.8182V23.297C33.9742 22.0228 33.6191 19.2834 33.446 18.0948Z" fill="#898989"/>
<path d="M33.446 18.0948L33.4136 17.8717L33.2249 17.7484C32.5417 17.3016 31.3582 16.656 29.9949 16.1466C28.638 15.6395 27.0556 15.2492 25.5919 15.3597C23.8387 15.4919 22.0063 15.9546 20.5634 16.6961C19.1454 17.4247 17.9706 18.4961 17.8109 19.9061C17.7406 20.5273 17.7689 21.0813 17.9596 21.5768C18.1538 22.0813 18.4969 22.4755 18.9672 22.8076C19.4283 23.1333 20.0231 23.4076 20.7433 23.6771C21.4664 23.9477 22.3466 24.2244 23.391 24.5446C26.2347 25.4163 28.3176 25.629 29.3806 25.617C29.7608 28.3718 30.5576 33.8108 31.1539 36.7354C31.7343 39.5821 33.1057 46.4551 33.8599 50.2437C30.9907 49.24 25.5399 47.1928 21.4043 45.1644C17.0318 43.0198 12.9359 39.916 11.2487 38.4791C11.3304 37.6559 11.4188 36.482 11.4466 35.3459C11.4621 34.7147 11.459 34.0882 11.4246 33.5366C11.3908 32.9956 11.3248 32.4874 11.1979 32.114C10.9185 31.2915 10.4995 30.5366 10.0402 29.9474C9.594 29.375 9.06035 28.8961 8.52651 28.7215C8.15454 28.5998 7.64817 28.5323 7.19828 28.4934C6.95733 28.4725 6.72034 28.4589 6.50983 28.4507C6.47857 26.145 6.51499 22.7602 6.71933 19.5452C6.82886 17.8219 6.98618 16.1547 7.2056 14.7321C7.42703 13.2964 7.7053 12.1555 8.03813 11.4559C9.81316 7.7247 13.8775 3.2342 20.7505 1.98566C24.235 1.35268 26.9761 1.35881 29.3453 1.8856C31.7116 2.41174 33.7405 3.46465 35.7928 4.97457C39.8548 7.96302 42.6678 13.4762 43.1759 17.7133C43.3808 19.4215 43.4687 24.4937 43.4927 30.1864C43.5164 35.7972 43.4783 41.9645 43.4354 45.9854L41.7355 48.8202L40.5249 24.8317C40.9331 24.5334 41.4509 24.0826 41.9171 23.5294C42.4764 22.8656 43.0006 22.0077 43.1224 21.0516C43.3918 18.9379 42.8848 16.5824 41.0162 15.6658C40.5618 15.443 40.0483 15.4523 39.5729 15.5546C39.0928 15.6579 38.5964 15.8676 38.1295 16.1157C37.195 16.6122 36.2989 17.3058 35.7548 17.795L35.56 17.9702L35.5932 18.23C35.6798 18.9104 35.906 20.7872 36.1147 22.8347C36.3076 24.7268 36.8026 26.6114 37.0962 27.5468L36.1932 28.6097L33.9742 27.8182V23.297C33.9742 22.0228 33.6191 19.2834 33.446 18.0948Z" fill="white" fill-opacity="0.95"/>
<path d="M33.446 18.0948L33.4136 17.8717L33.2249 17.7484C32.5417 17.3016 31.3582 16.656 29.9949 16.1466C28.638 15.6395 27.0556 15.2492 25.5919 15.3597C23.8387 15.4919 22.0063 15.9546 20.5634 16.6961C19.1454 17.4247 17.9706 18.4961 17.8109 19.9061C17.7406 20.5273 17.7689 21.0813 17.9596 21.5768C18.1538 22.0813 18.4969 22.4755 18.9672 22.8076C19.4283 23.1333 20.0231 23.4076 20.7433 23.6771C21.4664 23.9477 22.3466 24.2244 23.391 24.5446C26.2347 25.4163 28.3176 25.629 29.3806 25.617C29.7608 28.3718 30.5576 33.8108 31.1539 36.7354C31.7343 39.5821 33.1057 46.4551 33.8599 50.2437C30.9907 49.24 25.5399 47.1928 21.4043 45.1644C17.0318 43.0198 12.9359 39.916 11.2487 38.4791C11.3304 37.6559 11.4188 36.482 11.4466 35.3459C11.4621 34.7147 11.459 34.0882 11.4246 33.5366C11.3908 32.9956 11.3248 32.4874 11.1979 32.114C10.9185 31.2915 10.4995 30.5366 10.0402 29.9474C9.594 29.375 9.06035 28.8961 8.52651 28.7215C8.15454 28.5998 7.64817 28.5323 7.19828 28.4934C6.95733 28.4725 6.72034 28.4589 6.50983 28.4507C6.47857 26.145 6.51499 22.7602 6.71933 19.5452C6.82886 17.8219 6.98618 16.1547 7.2056 14.7321C7.42703 13.2964 7.7053 12.1555 8.03813 11.4559C9.81316 7.7247 13.8775 3.2342 20.7505 1.98566C24.235 1.35268 26.9761 1.35881 29.3453 1.8856C31.7116 2.41174 33.7405 3.46465 35.7928 4.97457C39.8548 7.96302 42.6678 13.4762 43.1759 17.7133C43.3808 19.4215 43.4687 24.4937 43.4927 30.1864C43.5164 35.7972 43.4783 41.9645 43.4354 45.9854L41.7355 48.8202L40.5249 24.8317C40.9331 24.5334 41.4509 24.0826 41.9171 23.5294C42.4764 22.8656 43.0006 22.0077 43.1224 21.0516C43.3918 18.9379 42.8848 16.5824 41.0162 15.6658C40.5618 15.443 40.0483 15.4523 39.5729 15.5546C39.0928 15.6579 38.5964 15.8676 38.1295 16.1157C37.195 16.6122 36.2989 17.3058 35.7548 17.795L35.56 17.9702L35.5932 18.23C35.6798 18.9104 35.906 20.7872 36.1147 22.8347C36.3076 24.7268 36.8026 26.6114 37.0962 27.5468L36.1932 28.6097L33.9742 27.8182V23.297C33.9742 22.0228 33.6191 19.2834 33.446 18.0948Z" stroke="#FAA21E"/>
<path d="M35.134 9.14931C34.4302 8.446 34.1303 6.84725 33.6491 5.93337C33.3333 6.91673 33.4573 8.33965 32.743 9.35774C32.1042 10.2683 31.2731 10.9196 30.119 11.4981C31.3558 11.8682 32.3701 12.4489 33.0738 13.1522C33.7776 13.8555 34.2104 15.4427 34.5587 16.3681C34.7279 15.2383 34.8259 13.8544 35.4648 12.9438C36.179 11.9257 36.9347 11.3819 38.0888 10.8034C37.2505 10.3985 36.0136 10.0284 35.134 9.14931Z" fill="#FAA21E"/>
</svg>
