<svg width="50" height="51" viewBox="0 0 50 51" fill="none" xmlns="http://www.w3.org/2000/svg">
<line x1="25" y1="8.72314" x2="25" y2="3.26193" stroke="#FAA21E" stroke-linecap="round"/>
<line x1="25" y1="8.72314" x2="25" y2="3.26193" stroke="white" stroke-opacity="0.4" stroke-linecap="round"/>
<line x1="25" y1="48.6655" x2="25" y2="43.2043" stroke="#FAA21E" stroke-linecap="round"/>
<line x1="25" y1="48.6655" x2="25" y2="43.2043" stroke="white" stroke-opacity="0.4" stroke-linecap="round"/>
<line x1="47.3843" y1="26" x2="41.9608" y2="26" stroke="#FAA21E" stroke-linecap="round"/>
<line x1="47.3843" y1="26" x2="41.9608" y2="26" stroke="white" stroke-opacity="0.4" stroke-linecap="round"/>
<line x1="0.5" y1="-0.5" x2="5.95199" y2="-0.5" transform="matrix(-0.492924 0.870072 -0.867579 -0.4973 35.8818 5.40527)" stroke="#FAA21E" stroke-linecap="round"/>
<line x1="0.5" y1="-0.5" x2="5.95199" y2="-0.5" transform="matrix(-0.492924 0.870072 -0.867579 -0.4973 35.8818 5.40527)" stroke="white" stroke-opacity="0.4" stroke-linecap="round"/>
<line x1="0.5" y1="-0.5" x2="5.93396" y2="-0.5" transform="matrix(-0.849006 0.528383 -0.523928 -0.851763 44.7008 13.4287)" stroke="#FAA21E" stroke-linecap="round"/>
<line x1="0.5" y1="-0.5" x2="5.93396" y2="-0.5" transform="matrix(-0.849006 0.528383 -0.523928 -0.851763 44.7008 13.4287)" stroke="white" stroke-opacity="0.4" stroke-linecap="round"/>
<line x1="0.5" y1="-0.5" x2="5.93221" y2="-0.5" transform="matrix(-0.875939 -0.482423 0.478097 -0.878307 45.6342 37.103)" stroke="#FAA21E" stroke-linecap="round"/>
<line x1="0.5" y1="-0.5" x2="5.93221" y2="-0.5" transform="matrix(-0.875939 -0.482423 0.478097 -0.878307 45.6342 37.103)" stroke="white" stroke-opacity="0.4" stroke-linecap="round"/>
<line x1="0.5" y1="-0.5" x2="5.95021" y2="-0.5" transform="matrix(-0.538306 -0.842749 0.839871 -0.542786 37.3983 45.6436)" stroke="#FAA21E" stroke-linecap="round"/>
<line x1="0.5" y1="-0.5" x2="5.95021" y2="-0.5" transform="matrix(-0.538306 -0.842749 0.839871 -0.542786 37.3983 45.6436)" stroke="white" stroke-opacity="0.4" stroke-linecap="round"/>
<line x1="2.54382" y1="26.0537" x2="7.96732" y2="26.0537" stroke="#FAA21E" stroke-linecap="round"/>
<line x1="2.54382" y1="26.0537" x2="7.96732" y2="26.0537" stroke="white" stroke-opacity="0.4" stroke-linecap="round"/>
<line x1="0.5" y1="-0.5" x2="5.95199" y2="-0.5" transform="matrix(0.492924 -0.870072 0.867579 0.4973 14.0463 46.231)" stroke="#FAA21E" stroke-linecap="round"/>
<line x1="0.5" y1="-0.5" x2="5.95199" y2="-0.5" transform="matrix(0.492924 -0.870072 0.867579 0.4973 14.0463 46.231)" stroke="white" stroke-opacity="0.4" stroke-linecap="round"/>
<line x1="0.5" y1="-0.5" x2="5.93396" y2="-0.5" transform="matrix(0.849006 -0.528383 0.523928 0.851763 5.22729 38.2075)" stroke="#FAA21E" stroke-linecap="round"/>
<line x1="0.5" y1="-0.5" x2="5.93396" y2="-0.5" transform="matrix(0.849006 -0.528383 0.523928 0.851763 5.22729 38.2075)" stroke="white" stroke-opacity="0.4" stroke-linecap="round"/>
<line x1="0.5" y1="-0.5" x2="5.93221" y2="-0.5" transform="matrix(0.875938 0.482423 -0.478097 0.878307 4.70435 14.9985)" stroke="#FAA21E" stroke-linecap="round"/>
<line x1="0.5" y1="-0.5" x2="5.93221" y2="-0.5" transform="matrix(0.875938 0.482423 -0.478097 0.878307 4.70435 14.9985)" stroke="white" stroke-opacity="0.4" stroke-linecap="round"/>
<line x1="0.5" y1="-0.5" x2="5.95021" y2="-0.5" transform="matrix(0.538306 0.842749 -0.839871 0.542786 12.5297 5.99268)" stroke="#FAA21E" stroke-linecap="round"/>
<line x1="0.5" y1="-0.5" x2="5.95021" y2="-0.5" transform="matrix(0.538306 0.842749 -0.839871 0.542786 12.5297 5.99268)" stroke="white" stroke-opacity="0.4" stroke-linecap="round"/>
<line x1="0.5" y1="-0.5" x2="8.7191" y2="-0.5" transform="matrix(0.267517 -0.963553 0.962737 0.270438 30 9.88281)" stroke="#FAA21E" stroke-linecap="round"/>
<line x1="0.5" y1="-0.5" x2="8.7191" y2="-0.5" transform="matrix(0.267517 -0.963553 0.962737 0.270438 30 9.88281)" stroke="white" stroke-opacity="0.4" stroke-linecap="round"/>
<line x1="0.5" y1="-0.5" x2="8.7191" y2="-0.5" transform="matrix(0.267517 -0.963553 0.962737 0.270438 18.6865 51)" stroke="#FAA21E" stroke-linecap="round"/>
<line x1="0.5" y1="-0.5" x2="8.7191" y2="-0.5" transform="matrix(0.267517 -0.963553 0.962737 0.270438 18.6865 51)" stroke="white" stroke-opacity="0.4" stroke-linecap="round"/>
<line x1="0.5" y1="-0.5" x2="8.67305" y2="-0.5" transform="matrix(-0.962737 -0.270438 0.267517 -0.963553 50 32.2627)" stroke="#FAA21E" stroke-linecap="round"/>
<line x1="0.5" y1="-0.5" x2="8.67305" y2="-0.5" transform="matrix(-0.962737 -0.270438 0.267517 -0.963553 50 32.2627)" stroke="white" stroke-opacity="0.4" stroke-linecap="round"/>
<line x1="0.5" y1="-0.5" x2="8.69584" y2="-0.5" transform="matrix(-0.708495 0.705716 -0.701557 -0.712614 43.0124 7.16748)" stroke="#FAA21E" stroke-linecap="round"/>
<line x1="0.5" y1="-0.5" x2="8.69584" y2="-0.5" transform="matrix(-0.708495 0.705716 -0.701557 -0.712614 43.0124 7.16748)" stroke="white" stroke-opacity="0.4" stroke-linecap="round"/>
<line x1="0.5" y1="-0.5" x2="8.67332" y2="-0.5" transform="matrix(-0.960135 0.279537 -0.276533 -0.961004 49.6844 18.6216)" stroke="#FAA21E" stroke-linecap="round"/>
<line x1="0.5" y1="-0.5" x2="8.67332" y2="-0.5" transform="matrix(-0.960135 0.279537 -0.276533 -0.961004 49.6844 18.6216)" stroke="white" stroke-opacity="0.4" stroke-linecap="round"/>
<line x1="0.5" y1="-0.5" x2="8.69545" y2="-0.5" transform="matrix(-0.713579 -0.700575 0.696387 -0.717667 43.6428 43.8599)" stroke="#FAA21E" stroke-linecap="round"/>
<line x1="0.5" y1="-0.5" x2="8.69545" y2="-0.5" transform="matrix(-0.713579 -0.700575 0.696387 -0.717667 43.6428 43.8599)" stroke="white" stroke-opacity="0.4" stroke-linecap="round"/>
<line x1="0.5" y1="-0.5" x2="8.71833" y2="-0.5" transform="matrix(-0.292762 -0.956185 0.955216 -0.29591 32.4805 50.6377)" stroke="#FAA21E" stroke-linecap="round"/>
<line x1="0.5" y1="-0.5" x2="8.71833" y2="-0.5" transform="matrix(-0.292762 -0.956185 0.955216 -0.29591 32.4805 50.6377)" stroke="white" stroke-opacity="0.4" stroke-linecap="round"/>
<line x1="0.5" y1="-0.5" x2="8.67305" y2="-0.5" transform="matrix(0.962737 0.270438 -0.267517 0.963553 0 19.5024)" stroke="#FAA21E" stroke-linecap="round"/>
<line x1="0.5" y1="-0.5" x2="8.67305" y2="-0.5" transform="matrix(0.962737 0.270438 -0.267517 0.963553 0 19.5024)" stroke="white" stroke-opacity="0.4" stroke-linecap="round"/>
<line x1="0.5" y1="-0.5" x2="8.69584" y2="-0.5" transform="matrix(0.708495 -0.705716 0.701557 0.712614 7 44.4897)" stroke="#FAA21E" stroke-linecap="round"/>
<line x1="0.5" y1="-0.5" x2="8.69584" y2="-0.5" transform="matrix(0.708495 -0.705716 0.701557 0.712614 7 44.4897)" stroke="white" stroke-opacity="0.4" stroke-linecap="round"/>
<line x1="0.5" y1="-0.5" x2="8.67332" y2="-0.5" transform="matrix(0.960135 -0.279537 0.276533 0.961004 0.291992 33.2271)" stroke="#FAA21E" stroke-linecap="round"/>
<line x1="0.5" y1="-0.5" x2="8.67332" y2="-0.5" transform="matrix(0.960135 -0.279537 0.276533 0.961004 0.291992 33.2271)" stroke="white" stroke-opacity="0.4" stroke-linecap="round"/>
<line x1="0.5" y1="-0.5" x2="8.69545" y2="-0.5" transform="matrix(0.713579 0.700575 -0.696387 0.717667 6.42346 8.04883)" stroke="#FAA21E" stroke-linecap="round"/>
<line x1="0.5" y1="-0.5" x2="8.69545" y2="-0.5" transform="matrix(0.713579 0.700575 -0.696387 0.717667 6.42346 8.04883)" stroke="white" stroke-opacity="0.4" stroke-linecap="round"/>
<line x1="0.5" y1="-0.5" x2="8.71833" y2="-0.5" transform="matrix(0.292762 0.956185 -0.955216 0.29591 17.5186 1)" stroke="#FAA21E" stroke-linecap="round"/>
<line x1="0.5" y1="-0.5" x2="8.71833" y2="-0.5" transform="matrix(0.292762 0.956185 -0.955216 0.29591 17.5186 1)" stroke="white" stroke-opacity="0.4" stroke-linecap="round"/>
<path d="M36.0228 14.1488L36.5215 15.7446L36.9808 14.137C37.1232 13.6385 37.474 13.0028 37.9735 12.3992C38.471 11.7981 39.0855 11.2659 39.7236 10.9469C40.1247 10.7464 40.7486 10.6426 41.306 10.7946C41.827 10.9367 42.3108 11.3043 42.5149 12.1209C42.5867 12.408 42.5638 12.9713 42.4259 13.7779C42.2925 14.5581 42.0662 15.4897 41.7935 16.465C41.2483 18.4143 40.5283 20.5003 40.0318 21.8242L39.9553 22.0284L40.0528 22.2234L40.3292 22.7762L26.2537 29.8139L22.4608 20.8057L22.447 20.773L22.4287 20.7425C21.6844 19.5019 20.567 17.5153 19.6376 15.5945C19.1727 14.6337 18.7586 13.6972 18.462 12.8832C18.1593 12.0527 18 11.4052 18 10.9998C18 9.73662 18.0051 8.45351 18.4672 7.24026C18.9186 6.05552 19.825 4.89626 21.7236 3.94698C23.6724 2.97258 25.204 2.63308 26.5835 2.74803C27.9649 2.86315 29.2574 3.43895 30.7226 4.41579C31.2476 4.76576 31.7971 5.36626 32.3451 6.14902C32.8888 6.92565 33.4106 7.85169 33.8892 8.82105C34.8464 10.7602 35.6123 12.8353 36.0228 14.1488Z" fill="#FEFEFE" stroke="#FAA21E"/>
<path d="M20.5 4C21.4303 3.37983 24 2.5 24 2.5C23.5 3.16667 22.5 4.5 22 5.5C21.3676 6.76491 20.5 8.91886 20.5 10.5C20.5 12 22.5 14.5 25 21C27 26.2 30.3333 31.8333 31.5 34L28.5 35.5L26.5 31.5L24.5 27L22 21C21 19 17.5 13.6406 17.5 10C17.5 7.5 18.5673 5.28846 20.5 4Z" fill="black" fill-opacity="0.1"/>
<path d="M42.8292 27.7764L28.7236 34.8292L26.6708 30.7236L40.7764 23.6708L42.8292 27.7764Z" fill="#FEFEFE" stroke="#FAA21E"/>
<path d="M33.8985 35.1097L36.4714 37.7241L25.4597 49.0281L22.18 45.8332L32.2939 35.9121L33.8985 35.1097Z" fill="#FEFEFE" stroke="#FAA21E"/>
<path d="M20.8535 44.6461L20.6921 44.4847L20.4644 44.501C19.3288 44.5821 17.5281 44.5584 15.8534 44.463C15.0185 44.4155 14.2226 44.3506 13.5645 44.2735C12.8923 44.1947 12.4038 44.1073 12.1581 44.0254C11.423 43.7804 10.8552 43.532 10.419 43.1986C9.99642 42.8756 9.68026 42.4593 9.47433 41.8416C9.36747 41.521 9.35253 41.2891 9.37748 41.1194C9.40169 40.9547 9.46751 40.8198 9.57156 40.6949C9.80371 40.4163 10.1966 40.2105 10.7234 39.9471L10.7236 39.947C10.7236 39.947 10.7237 39.9469 10.7237 39.9469C11.1665 39.7255 11.8728 39.6044 12.6279 39.547C13.2835 39.4972 13.9166 39.4985 14.347 39.4995C14.4014 39.4996 14.4525 39.4997 14.5 39.4997H15.9573L14.807 38.605C14.064 38.0272 12.8723 37.0589 11.7189 36.0378C10.5559 35.0082 9.46616 33.9546 8.89999 33.1997C8.18228 32.2427 7.45736 30.9157 6.97433 29.4666C6.49045 28.0149 6.26086 26.4759 6.49319 25.0819C6.72111 23.7144 7.65104 22.0632 9.07924 20.8135C10.499 19.5712 12.3645 18.7655 14.4448 18.9966C17.84 19.3739 19.9386 21.3373 20.5619 22.2445L27.5443 37.7055L27.7584 38.1796L28.2236 37.947L29.4677 37.3249L21.5 45.2926L20.8535 44.6461Z" fill="#FEFEFE" stroke="#FAA21E"/>
<path d="M28.6527 13.0733C27.7894 12.747 27.039 11.5391 26.3212 10.9597C26.3163 11.8821 26.8508 13.0085 26.4845 14.1024C26.1568 15.0808 25.5736 15.9147 24.6677 16.8047C25.93 16.6656 27.0467 16.7796 27.91 17.1059C28.7733 17.4322 29.6441 18.583 30.2414 19.2195C30.0665 18.2291 29.7505 17.0553 30.0782 16.0769C30.4445 14.983 30.9891 14.2645 31.895 13.3746C30.9941 13.3421 29.7318 13.4812 28.6527 13.0733Z" fill="#FAA21E"/>
<path d="M16.7516 27.8122C15.8291 27.7844 14.7267 26.8862 13.8595 26.5717C14.1548 27.4456 15.0266 28.3368 15.0358 29.4904C15.0441 30.5222 14.7638 31.5005 14.1965 32.6367C15.345 32.0947 16.4381 31.8393 17.3606 31.8672C18.2831 31.895 19.4808 32.7 20.2526 33.1078C19.7652 32.2281 19.0846 31.2208 19.0763 30.189C19.067 29.0354 19.3483 28.1789 19.9156 27.0427C19.0531 27.305 17.9047 27.847 16.7516 27.8122Z" fill="#FAA21E"/>
</svg>
