<svg width="50" height="51" viewBox="0 0 50 51" fill="none" xmlns="http://www.w3.org/2000/svg">
<line x1="25" y1="8.72363" x2="25" y2="3.26242" stroke="#FAA21E" stroke-linecap="round"/>
<line x1="25" y1="8.72363" x2="25" y2="3.26242" stroke="white" stroke-opacity="0.4" stroke-linecap="round"/>
<line x1="25" y1="48.6655" x2="25" y2="43.2043" stroke="#FAA21E" stroke-linecap="round"/>
<line x1="25" y1="48.6655" x2="25" y2="43.2043" stroke="white" stroke-opacity="0.4" stroke-linecap="round"/>
<line x1="47.3843" y1="26" x2="41.9608" y2="26" stroke="#FAA21E" stroke-linecap="round"/>
<line x1="47.3843" y1="26" x2="41.9608" y2="26" stroke="white" stroke-opacity="0.4" stroke-linecap="round"/>
<line x1="0.5" y1="-0.5" x2="5.93221" y2="-0.5" transform="matrix(-0.875939 -0.482423 0.478097 -0.878307 45.6342 37.103)" stroke="#FAA21E" stroke-linecap="round"/>
<line x1="0.5" y1="-0.5" x2="5.93221" y2="-0.5" transform="matrix(-0.875939 -0.482423 0.478097 -0.878307 45.6342 37.103)" stroke="white" stroke-opacity="0.4" stroke-linecap="round"/>
<line x1="0.5" y1="-0.5" x2="5.95021" y2="-0.5" transform="matrix(-0.538306 -0.842749 0.839871 -0.542786 37.3983 45.6436)" stroke="#FAA21E" stroke-linecap="round"/>
<line x1="0.5" y1="-0.5" x2="5.95021" y2="-0.5" transform="matrix(-0.538306 -0.842749 0.839871 -0.542786 37.3983 45.6436)" stroke="white" stroke-opacity="0.4" stroke-linecap="round"/>
<line x1="2.54382" y1="26.0537" x2="7.96732" y2="26.0537" stroke="#FAA21E" stroke-linecap="round"/>
<line x1="2.54382" y1="26.0537" x2="7.96732" y2="26.0537" stroke="white" stroke-opacity="0.4" stroke-linecap="round"/>
<line x1="0.5" y1="-0.5" x2="5.95199" y2="-0.5" transform="matrix(0.492924 -0.870072 0.867579 0.4973 14.0463 46.231)" stroke="#FAA21E" stroke-linecap="round"/>
<line x1="0.5" y1="-0.5" x2="5.95199" y2="-0.5" transform="matrix(0.492924 -0.870072 0.867579 0.4973 14.0463 46.231)" stroke="white" stroke-opacity="0.4" stroke-linecap="round"/>
<line x1="0.5" y1="-0.5" x2="5.93396" y2="-0.5" transform="matrix(0.849006 -0.528383 0.523928 0.851763 5.22729 38.2075)" stroke="#FAA21E" stroke-linecap="round"/>
<line x1="0.5" y1="-0.5" x2="5.93396" y2="-0.5" transform="matrix(0.849006 -0.528383 0.523928 0.851763 5.22729 38.2075)" stroke="white" stroke-opacity="0.4" stroke-linecap="round"/>
<line x1="0.5" y1="-0.5" x2="5.93221" y2="-0.5" transform="matrix(0.875938 0.482423 -0.478097 0.878307 4.70435 14.9985)" stroke="#FAA21E" stroke-linecap="round"/>
<line x1="0.5" y1="-0.5" x2="5.93221" y2="-0.5" transform="matrix(0.875938 0.482423 -0.478097 0.878307 4.70435 14.9985)" stroke="white" stroke-opacity="0.4" stroke-linecap="round"/>
<line x1="0.5" y1="-0.5" x2="5.95021" y2="-0.5" transform="matrix(0.538306 0.842749 -0.839871 0.542786 12.5297 5.99268)" stroke="#FAA21E" stroke-linecap="round"/>
<line x1="0.5" y1="-0.5" x2="5.95021" y2="-0.5" transform="matrix(0.538306 0.842749 -0.839871 0.542786 12.5297 5.99268)" stroke="white" stroke-opacity="0.4" stroke-linecap="round"/>
<line x1="0.5" y1="-0.5" x2="8.7191" y2="-0.5" transform="matrix(0.267517 -0.963553 0.962737 0.270438 30 9.88281)" stroke="#FAA21E" stroke-linecap="round"/>
<line x1="0.5" y1="-0.5" x2="8.7191" y2="-0.5" transform="matrix(0.267517 -0.963553 0.962737 0.270438 30 9.88281)" stroke="white" stroke-opacity="0.4" stroke-linecap="round"/>
<line x1="0.5" y1="-0.5" x2="8.7191" y2="-0.5" transform="matrix(0.267517 -0.963553 0.962737 0.270438 18.6865 51)" stroke="#FAA21E" stroke-linecap="round"/>
<line x1="0.5" y1="-0.5" x2="8.7191" y2="-0.5" transform="matrix(0.267517 -0.963553 0.962737 0.270438 18.6865 51)" stroke="white" stroke-opacity="0.4" stroke-linecap="round"/>
<line x1="0.5" y1="-0.5" x2="8.67305" y2="-0.5" transform="matrix(-0.962737 -0.270438 0.267517 -0.963553 50 32.2627)" stroke="#FAA21E" stroke-linecap="round"/>
<line x1="0.5" y1="-0.5" x2="8.67305" y2="-0.5" transform="matrix(-0.962737 -0.270438 0.267517 -0.963553 50 32.2627)" stroke="white" stroke-opacity="0.4" stroke-linecap="round"/>
<line x1="0.5" y1="-0.5" x2="8.67332" y2="-0.5" transform="matrix(-0.960135 0.279537 -0.276533 -0.961004 49.6844 18.6216)" stroke="#FAA21E" stroke-linecap="round"/>
<line x1="0.5" y1="-0.5" x2="8.67332" y2="-0.5" transform="matrix(-0.960135 0.279537 -0.276533 -0.961004 49.6844 18.6216)" stroke="white" stroke-opacity="0.4" stroke-linecap="round"/>
<line x1="0.5" y1="-0.5" x2="8.69545" y2="-0.5" transform="matrix(-0.713579 -0.700575 0.696387 -0.717667 43.6428 43.8599)" stroke="#FAA21E" stroke-linecap="round"/>
<line x1="0.5" y1="-0.5" x2="8.69545" y2="-0.5" transform="matrix(-0.713579 -0.700575 0.696387 -0.717667 43.6428 43.8599)" stroke="white" stroke-opacity="0.4" stroke-linecap="round"/>
<line x1="0.5" y1="-0.5" x2="8.71833" y2="-0.5" transform="matrix(-0.292762 -0.956185 0.955216 -0.29591 32.4805 50.6377)" stroke="#FAA21E" stroke-linecap="round"/>
<line x1="0.5" y1="-0.5" x2="8.71833" y2="-0.5" transform="matrix(-0.292762 -0.956185 0.955216 -0.29591 32.4805 50.6377)" stroke="white" stroke-opacity="0.4" stroke-linecap="round"/>
<line x1="0.5" y1="-0.5" x2="8.67305" y2="-0.5" transform="matrix(0.962737 0.270438 -0.267517 0.963553 0 19.5024)" stroke="#FAA21E" stroke-linecap="round"/>
<line x1="0.5" y1="-0.5" x2="8.67305" y2="-0.5" transform="matrix(0.962737 0.270438 -0.267517 0.963553 0 19.5024)" stroke="white" stroke-opacity="0.4" stroke-linecap="round"/>
<line x1="0.5" y1="-0.5" x2="8.67332" y2="-0.5" transform="matrix(0.960135 -0.279536 0.276533 0.961004 0.291992 33.2271)" stroke="#FAA21E" stroke-linecap="round"/>
<line x1="0.5" y1="-0.5" x2="8.67332" y2="-0.5" transform="matrix(0.960135 -0.279536 0.276533 0.961004 0.291992 33.2271)" stroke="white" stroke-opacity="0.4" stroke-linecap="round"/>
<line x1="0.5" y1="-0.5" x2="8.69545" y2="-0.5" transform="matrix(0.713579 0.700575 -0.696387 0.717667 6.42346 8.04883)" stroke="#FAA21E" stroke-linecap="round"/>
<line x1="0.5" y1="-0.5" x2="8.69545" y2="-0.5" transform="matrix(0.713579 0.700575 -0.696387 0.717667 6.42346 8.04883)" stroke="white" stroke-opacity="0.4" stroke-linecap="round"/>
<line x1="0.5" y1="-0.5" x2="8.71833" y2="-0.5" transform="matrix(0.292762 0.956185 -0.955216 0.29591 17.5186 1)" stroke="#FAA21E" stroke-linecap="round"/>
<line x1="0.5" y1="-0.5" x2="8.71833" y2="-0.5" transform="matrix(0.292762 0.956185 -0.955216 0.29591 17.5186 1)" stroke="white" stroke-opacity="0.4" stroke-linecap="round"/>
<path d="M25.6343 22.4887C25.9906 22.9477 26.4934 23.5552 26.8928 23.9545C27.303 24.3648 27.9018 24.8532 28.3617 25.2098L12.8103 40.7612L10.086 38.037L25.6343 22.4887ZM0.521899 46.2162L8.00818 38.7299L12.1243 42.8461L4.77797 50.4781L3.21618 50.4781L0.521899 47.7838L0.521899 46.2162Z" fill="#FEFEFE" stroke="#FAA21E" stroke-width="1.0438"/>
<path d="M7.60906 44.2456C7.74732 43.6098 8.50756 42.7252 8.83586 42.086C8.19661 42.4143 7.47094 43.14 6.67622 43.3128C5.9654 43.4674 5.32866 43.4166 4.62035 43.192C4.84488 43.9003 4.87937 44.6121 4.74111 45.2479C4.60284 45.8837 3.89443 46.8201 3.5143 47.4075C4.18236 46.9468 4.96312 46.3353 5.67395 46.1807C6.46867 46.0079 7.02151 46.077 7.72982 46.3015C7.66076 45.7487 7.43623 45.0404 7.60906 44.2456Z" fill="#FAA21E"/>
<mask id="path-23-inside-1_1369_8325" fill="white">
<path fill-rule="evenodd" clip-rule="evenodd" d="M45.0583 6.76655L40.8169 9.05037L42.7745 11.0079L45.0583 6.76655ZM35.1074 1.38328L36.9018 10.0291L33.313 10.0291L35.1074 1.38328ZM41.5 15.0862V18.8381L49.9985 16.5L41.5 15.0862ZM28.0928 18.8381L28.256 15.0862L20.752 17.0437L28.0928 18.8381ZM32.9867 23.732H37.1235L35.1074 31.3991L32.9867 23.732ZM42.9376 22.5901L45.7108 26.9946L41.1432 24.3845L42.9376 22.5901ZM29.0716 8.72411L27.2772 10.5185L24.504 5.78777L29.0716 8.72411ZM29.0716 10.3554C30.2461 9.18087 31.8529 8.77848 32.3423 8.72411C32.1248 9.26787 31.846 10.5185 32.4985 11.171C33.3142 11.9867 36.7387 12.1498 37.7175 11.171C38.4681 10.4204 37.9794 9.20995 37.7461 8.63209L37.7175 8.56098C38.4244 8.94161 40.0665 9.93126 40.9801 10.8448C41.8367 11.7015 42.4256 13.0076 42.7198 13.6602L42.7745 13.7811L42.7712 13.7805C42.2264 13.6715 41.1498 13.4562 40.4985 14.1074C39.6829 14.923 39.6667 18.6682 40.4985 19.5C41.3169 20.3183 41.8466 20.1472 42.3995 19.9687C42.5222 19.929 42.6461 19.889 42.7745 19.8594C42.7551 19.9161 42.7358 19.9746 42.7159 20.0349C42.5057 20.6709 42.2308 21.5025 41.1432 22.5901C40.2839 23.4494 39.4471 23.9747 38.7616 24.4049C38.4974 24.5708 38.2556 24.7226 38.0437 24.8739C38.0437 24.7465 38.0512 24.5955 38.0593 24.4311C38.0928 23.7532 38.1376 22.8471 37.7175 22.427C37.065 21.7745 32.9867 21.6113 32.1711 22.427C31.5185 23.0795 31.6273 24.4389 31.8448 24.8739C31.301 24.7652 29.9199 24.254 28.7453 23.0795C27.5708 21.905 27.0597 20.5238 26.9509 19.98C27.3859 20.0888 28.4191 20.1432 29.0716 19.4907C29.8873 18.675 29.8872 14.7599 29.2347 14.1074C28.7127 13.5854 27.4947 13.6724 26.9509 13.7811C27.1684 13.1286 27.8971 11.5299 29.0716 10.3554ZM33.1498 18.6751C34.0508 19.5761 35.5115 19.5761 36.4124 18.6751C37.3134 17.7742 37.3134 16.3135 36.4124 15.4125C35.5115 14.5116 34.0508 14.5116 33.1498 15.4125C32.2489 16.3135 32.2489 17.7742 33.1498 18.6751Z"/>
</mask>
<path fill-rule="evenodd" clip-rule="evenodd" d="M45.0583 6.76655L40.8169 9.05037L42.7745 11.0079L45.0583 6.76655ZM35.1074 1.38328L36.9018 10.0291L33.313 10.0291L35.1074 1.38328ZM41.5 15.0862V18.8381L49.9985 16.5L41.5 15.0862ZM28.0928 18.8381L28.256 15.0862L20.752 17.0437L28.0928 18.8381ZM32.9867 23.732H37.1235L35.1074 31.3991L32.9867 23.732ZM42.9376 22.5901L45.7108 26.9946L41.1432 24.3845L42.9376 22.5901ZM29.0716 8.72411L27.2772 10.5185L24.504 5.78777L29.0716 8.72411ZM29.0716 10.3554C30.2461 9.18087 31.8529 8.77848 32.3423 8.72411C32.1248 9.26787 31.846 10.5185 32.4985 11.171C33.3142 11.9867 36.7387 12.1498 37.7175 11.171C38.4681 10.4204 37.9794 9.20995 37.7461 8.63209L37.7175 8.56098C38.4244 8.94161 40.0665 9.93126 40.9801 10.8448C41.8367 11.7015 42.4256 13.0076 42.7198 13.6602L42.7745 13.7811L42.7712 13.7805C42.2264 13.6715 41.1498 13.4562 40.4985 14.1074C39.6829 14.923 39.6667 18.6682 40.4985 19.5C41.3169 20.3183 41.8466 20.1472 42.3995 19.9687C42.5222 19.929 42.6461 19.889 42.7745 19.8594C42.7551 19.9161 42.7358 19.9746 42.7159 20.0349C42.5057 20.6709 42.2308 21.5025 41.1432 22.5901C40.2839 23.4494 39.4471 23.9747 38.7616 24.4049C38.4974 24.5708 38.2556 24.7226 38.0437 24.8739C38.0437 24.7465 38.0512 24.5955 38.0593 24.4311C38.0928 23.7532 38.1376 22.8471 37.7175 22.427C37.065 21.7745 32.9867 21.6113 32.1711 22.427C31.5185 23.0795 31.6273 24.4389 31.8448 24.8739C31.301 24.7652 29.9199 24.254 28.7453 23.0795C27.5708 21.905 27.0597 20.5238 26.9509 19.98C27.3859 20.0888 28.4191 20.1432 29.0716 19.4907C29.8873 18.675 29.8872 14.7599 29.2347 14.1074C28.7127 13.5854 27.4947 13.6724 26.9509 13.7811C27.1684 13.1286 27.8971 11.5299 29.0716 10.3554ZM33.1498 18.6751C34.0508 19.5761 35.5115 19.5761 36.4124 18.6751C37.3134 17.7742 37.3134 16.3135 36.4124 15.4125C35.5115 14.5116 34.0508 14.5116 33.1498 15.4125C32.2489 16.3135 32.2489 17.7742 33.1498 18.6751Z" fill="#FEFEFE"/>
<path d="M40.8169 9.05037L40.3221 8.13133L39.0869 8.79644L40.0789 9.78844L40.8169 9.05037ZM45.0583 6.76655L45.9773 7.26142L47.6269 4.19796L44.5634 5.84751L45.0583 6.76655ZM42.7745 11.0079L42.0364 11.746L43.0284 12.738L43.6935 11.5028L42.7745 11.0079ZM36.9018 10.0291V11.0729L38.1845 11.0729L37.9238 9.81703L36.9018 10.0291ZM35.1074 1.38328L36.1294 1.17116H34.0854L35.1074 1.38328ZM33.313 10.0291L32.2909 9.81702L32.0303 11.0729H33.313V10.0291ZM41.5 18.8381H40.4562L40.4562 20.2079L41.7769 19.8445L41.5 18.8381ZM41.5 15.0862L41.6713 14.0565L40.4562 13.8544L40.4562 15.0862H41.5ZM49.9985 16.5L50.2754 17.5064L50.1698 15.4703L49.9985 16.5ZM28.256 15.0862L29.2988 15.1315L29.3602 13.7194L27.9925 14.0762L28.256 15.0862ZM28.0928 18.8381L27.845 19.8521L29.0804 20.1541L29.1356 18.8835L28.0928 18.8381ZM20.752 17.0437L20.4885 16.0337L20.5041 18.0577L20.752 17.0437ZM37.1235 23.732L38.133 23.9975L38.4773 22.6882L37.1235 22.6882V23.732ZM32.9867 23.732V22.6882H31.615L31.9807 24.0103L32.9867 23.732ZM35.1074 31.3991L34.1014 31.6774L35.1329 35.4066L36.1169 31.6646L35.1074 31.3991ZM45.7108 26.9946L45.1929 27.9009L46.5941 26.4385L45.7108 26.9946ZM42.9376 22.5901L43.8209 22.034L43.1242 20.9274L42.1995 21.852L42.9376 22.5901ZM41.1432 24.3845L40.4051 23.6465L39.4388 24.6128L40.6253 25.2908L41.1432 24.3845ZM27.2772 10.5185L26.3767 11.0464L27.0599 12.2119L28.0153 11.2566L27.2772 10.5185ZM29.0716 8.72411L29.8097 9.46219L30.7255 8.54641L29.636 7.84608L29.0716 8.72411ZM24.504 5.78777L25.0684 4.90975L23.6035 6.31564L24.504 5.78777ZM32.3423 8.72411L33.3114 9.11176L33.9584 7.49431L32.227 7.68669L32.3423 8.72411ZM37.7461 8.63209L36.7778 9.02189L36.7782 9.02288L37.7461 8.63209ZM37.7175 8.56098L38.2123 7.64194L35.6715 6.27382L36.7492 8.95077L37.7175 8.56098ZM42.7198 13.6602L41.7683 14.0892L41.7687 14.0901L42.7198 13.6602ZM42.7745 13.7811L42.57 14.8047L44.5625 15.2027L43.7256 13.3512L42.7745 13.7811ZM42.7712 13.7805L42.5665 14.804L42.5668 14.8041L42.7712 13.7805ZM42.3995 19.9687L42.0786 18.9754L42.0786 18.9754L42.3995 19.9687ZM42.7745 19.8594L43.7623 20.1966L44.3688 18.4202L42.5398 18.8423L42.7745 19.8594ZM42.7159 20.0349L43.7069 20.3624L43.7069 20.3624L42.7159 20.0349ZM38.7616 24.4049L38.2067 23.5209L38.2067 23.5209L38.7616 24.4049ZM38.0437 24.8739H36.9999V26.9022L38.6504 25.7233L38.0437 24.8739ZM38.0593 24.4311L39.1018 24.4826L39.1018 24.4826L38.0593 24.4311ZM31.8448 24.8739L31.6401 25.8975L33.7328 26.316L32.7784 24.4071L31.8448 24.8739ZM26.9509 19.98L27.2041 18.9674L25.6039 18.5674L25.9274 20.1848L26.9509 19.98ZM26.9509 13.7811L25.9607 13.451L25.3919 15.1574L27.1556 14.8047L26.9509 13.7811ZM41.3118 9.9694L45.5532 7.68559L44.5634 5.84751L40.3221 8.13133L41.3118 9.9694ZM43.5126 10.2698L41.555 8.31229L40.0789 9.78844L42.0364 11.746L43.5126 10.2698ZM44.1393 6.27169L41.8554 10.5131L43.6935 11.5028L45.9773 7.26142L44.1393 6.27169ZM37.9238 9.81703L36.1294 1.17116L34.0854 1.59539L35.8798 10.2413L37.9238 9.81703ZM33.313 11.0729L36.9018 11.0729L36.9018 8.98534L33.313 8.98534V11.0729ZM34.0854 1.17116L32.2909 9.81702L34.335 10.2413L36.1294 1.59539L34.0854 1.17116ZM42.5438 18.8381L42.5438 15.0862L40.4562 15.0862V18.8381H42.5438ZM49.7217 15.4936L41.2231 17.8317L41.7769 19.8445L50.2754 17.5064L49.7217 15.4936ZM41.3287 16.1158L49.8272 17.5297L50.1698 15.4703L41.6713 14.0565L41.3287 16.1158ZM27.2131 15.0408L27.05 18.7928L29.1356 18.8835L29.2988 15.1315L27.2131 15.0408ZM21.0155 18.0537L28.5194 16.0962L27.9925 14.0762L20.4885 16.0337L21.0155 18.0537ZM28.3407 17.8242L20.9998 16.0298L20.5041 18.0577L27.845 19.8521L28.3407 17.8242ZM37.1235 22.6882H32.9867V24.7758H37.1235V22.6882ZM36.1169 31.6646L38.133 23.9975L36.1141 23.4666L34.0979 31.1337L36.1169 31.6646ZM31.9807 24.0103L34.1014 31.6774L36.1134 31.1209L33.9927 23.4538L31.9807 24.0103ZM46.5941 26.4385L43.8209 22.034L42.0543 23.1463L44.8275 27.5508L46.5941 26.4385ZM40.6253 25.2908L45.1929 27.9009L46.2287 26.0883L41.6611 23.4783L40.6253 25.2908ZM42.1995 21.852L40.4051 23.6465L41.8813 25.1226L43.6757 23.3282L42.1995 21.852ZM28.0153 11.2566L29.8097 9.46219L28.3335 7.98603L26.5391 9.78045L28.0153 11.2566ZM23.6035 6.31564L26.3767 11.0464L28.1777 9.99066L25.4045 5.2599L23.6035 6.31564ZM29.636 7.84608L25.0684 4.90975L23.9395 6.6658L28.5072 9.60213L29.636 7.84608ZM32.227 7.68669C31.5856 7.75796 29.7267 8.22413 28.3335 9.61732L29.8097 11.0935C30.7656 10.1376 32.1202 9.799 32.4576 9.76152L32.227 7.68669ZM33.2366 10.433C33.2073 10.4036 33.1262 10.2791 33.1374 9.94136C33.1479 9.62376 33.238 9.29526 33.3114 9.11176L31.3731 8.33645C31.229 8.69672 31.071 9.26543 31.0509 9.87223C31.0315 10.4589 31.1373 11.286 31.7605 11.9091L33.2366 10.433ZM36.9794 10.433C36.9374 10.4749 36.7642 10.5897 36.3674 10.682C35.9981 10.7679 35.5415 10.8093 35.0665 10.8003C34.5923 10.7914 34.1384 10.7329 33.7777 10.6412C33.376 10.539 33.2363 10.4326 33.2366 10.433L31.7605 11.9091C32.1686 12.3173 32.7628 12.5371 33.2632 12.6644C33.8046 12.8021 34.4209 12.8761 35.0271 12.8876C35.6326 12.899 36.2666 12.8487 36.8402 12.7154C37.3863 12.5884 38.0081 12.3566 38.4555 11.9091L36.9794 10.433ZM36.7782 9.02288C36.8998 9.32392 37.0263 9.65052 37.0647 9.9639C37.1017 10.2654 37.0378 10.3746 36.9794 10.433L38.4555 11.9091C39.1478 11.2169 39.2148 10.3455 39.1368 9.70963C39.0602 9.08567 38.8258 8.51812 38.714 8.2413L36.7782 9.02288ZM36.7492 8.95077L36.7778 9.02189L38.7144 8.24229L38.6858 8.17118L36.7492 8.95077ZM41.7181 10.1067C40.6908 9.07936 38.9343 8.03069 38.2123 7.64194L37.2226 9.48001C37.9144 9.85253 39.4423 10.7832 40.242 11.5829L41.7181 10.1067ZM43.6714 13.2311C43.3906 12.6084 42.732 11.1205 41.7181 10.1067L40.242 11.5829C40.9415 12.2824 41.4606 13.4069 41.7683 14.0892L43.6714 13.2311ZM43.7256 13.3512L43.671 13.2303L41.7687 14.0901L41.8233 14.211L43.7256 13.3512ZM42.5668 14.8041L42.57 14.8047L42.9789 12.7575L42.9757 12.7569L42.5668 14.8041ZM41.2366 14.8455C41.3027 14.7794 41.4317 14.7113 41.7095 14.7021C41.9914 14.6927 42.2853 14.7478 42.5665 14.804L42.9759 12.7569C42.7124 12.7042 42.1955 12.5971 41.64 12.6156C41.0806 12.6343 40.3456 12.7841 39.7605 13.3693L41.2366 14.8455ZM41.2366 18.7619C41.255 18.7803 41.149 18.6492 41.0537 18.2031C40.9698 17.8104 40.9236 17.3149 40.9245 16.7995C40.9255 16.2842 40.9734 15.7889 41.0578 15.3971C41.1542 14.9501 41.2593 14.8228 41.2366 14.8455L39.7605 13.3693C39.33 13.7998 39.1272 14.4465 39.0171 14.9571C38.8951 15.5229 38.8381 16.1689 38.8369 16.7958C38.8358 17.4226 38.8906 18.0703 39.0121 18.6392C39.1223 19.1548 39.3262 19.8038 39.7605 20.2381L41.2366 18.7619ZM42.0786 18.9754C41.7719 19.0745 41.7162 19.0771 41.6754 19.0721C41.6745 19.072 41.5406 19.0659 41.2366 18.7619L39.7605 20.2381C40.2748 20.7524 40.8149 21.07 41.4217 21.1442C41.9886 21.2136 42.4742 21.0414 42.7203 20.9619L42.0786 18.9754ZM42.5398 18.8423C42.3607 18.8836 42.1947 18.9379 42.0786 18.9754L42.7203 20.9619C42.8497 20.9202 42.9314 20.8944 43.0092 20.8764L42.5398 18.8423ZM43.7069 20.3624C43.7272 20.3013 43.7449 20.2477 43.7623 20.1966L41.7867 19.5221C41.7653 19.5846 41.7444 19.648 41.7248 19.7073L43.7069 20.3624ZM41.8813 23.3282C43.1316 22.0778 43.472 21.0733 43.7069 20.3624L41.7248 19.7073C41.5393 20.2684 41.3299 20.9272 40.4051 21.852L41.8813 23.3282ZM39.3166 25.289C40.0055 24.8566 40.9314 24.2781 41.8813 23.3282L40.4051 21.852C39.6365 22.6207 38.8886 23.0929 38.2067 23.5209L39.3166 25.289ZM38.6504 25.7233C38.832 25.5936 39.0455 25.4592 39.3166 25.289L38.2067 23.5209C37.9492 23.6825 37.6792 23.8516 37.437 24.0246L38.6504 25.7233ZM37.0168 24.3796C37.0091 24.536 36.9999 24.7153 36.9999 24.8739H39.0875C39.0875 24.7777 39.0933 24.6551 39.1018 24.4826L37.0168 24.3796ZM36.9794 23.1651C36.9259 23.1116 36.9892 23.1359 37.0201 23.4384C37.0478 23.7098 37.0343 24.0254 37.0168 24.3796L39.1018 24.4826C39.1178 24.1589 39.1435 23.6825 39.0969 23.2264C39.0535 22.8013 38.9291 22.1625 38.4555 21.6889L36.9794 23.1651ZM32.9091 23.1651C32.8639 23.2103 32.8634 23.1888 32.9867 23.1421C33.0977 23.1 33.2587 23.0565 33.4708 23.0192C33.8948 22.9446 34.4319 22.9107 34.9878 22.9201C35.5425 22.9295 36.0768 22.9814 36.4918 23.0618C36.7001 23.1021 36.8566 23.1455 36.9613 23.1845C37.0893 23.2321 37.0567 23.2424 36.9794 23.1651L38.4555 21.6889C38.2151 21.4484 37.9123 21.3109 37.6892 21.2279C37.4428 21.1362 37.1672 21.0662 36.8888 21.0123C36.3301 20.904 35.6715 20.8438 35.0231 20.8328C34.3759 20.8218 33.6997 20.8592 33.1092 20.9631C32.8141 21.015 32.5176 21.0874 32.2469 21.19C31.9885 21.2879 31.6822 21.4397 31.433 21.6889L32.9091 23.1651ZM32.7784 24.4071C32.7916 24.4336 32.7661 24.3853 32.7439 24.2411C32.7242 24.1127 32.7145 23.9547 32.7238 23.7916C32.7447 23.4254 32.8461 23.2281 32.9091 23.1651L31.433 21.6889C30.8435 22.2784 30.673 23.0871 30.6396 23.6725C30.6065 24.2505 30.6915 24.9013 30.9112 25.3407L32.7784 24.4071ZM28.0073 23.8176C29.3437 25.154 30.9179 25.753 31.6401 25.8975L32.0495 23.8504C31.6841 23.7773 30.4961 23.3541 29.4834 22.3414L28.0073 23.8176ZM25.9274 20.1848C26.0718 20.9069 26.6708 22.4812 28.0073 23.8176L29.4834 22.3414C28.4708 21.3288 28.0475 20.1407 27.9744 19.7753L25.9274 20.1848ZM28.3335 18.7526C28.2172 18.8689 28.0358 18.9525 27.7871 18.9868C27.534 19.0217 27.3014 18.9917 27.2041 18.9674L26.6978 20.9927C27.0354 21.0771 27.5369 21.1287 28.0723 21.0548C28.612 20.9804 29.2735 20.7649 29.8097 20.2287L28.3335 18.7526ZM28.4967 14.8455C28.4161 14.7649 28.4236 14.7258 28.4651 14.8424C28.4989 14.9376 28.5366 15.0835 28.5698 15.2816C28.6359 15.6762 28.6694 16.1864 28.6601 16.7195C28.6507 17.2529 28.5991 17.7699 28.5119 18.1803C28.4115 18.653 28.3052 18.7809 28.3335 18.7526L29.8097 20.2287C30.2458 19.7926 30.4454 19.1252 30.554 18.6141C30.6758 18.0405 30.7363 17.3851 30.7474 16.7562C30.7584 16.127 30.7206 15.4851 30.6287 14.9366C30.5829 14.6632 30.5198 14.3898 30.432 14.1428C30.3517 13.9172 30.2165 13.613 29.9728 13.3693L28.4967 14.8455ZM27.1556 14.8047C27.3543 14.7649 27.7007 14.7266 28.0298 14.7491C28.1919 14.7602 28.3207 14.7842 28.4123 14.8138C28.5067 14.8444 28.5179 14.8667 28.4967 14.8455L29.9728 13.3693C29.4325 12.829 28.6683 12.7002 28.1721 12.6663C27.6258 12.629 27.0913 12.6886 26.7462 12.7576L27.1556 14.8047ZM28.3335 9.61732C27.0093 10.9415 26.211 12.7 25.9607 13.451L27.9412 14.1112C28.1258 13.5572 28.7848 12.1184 29.8097 11.0935L28.3335 9.61732ZM35.6743 17.9371C35.181 18.4304 34.3812 18.4304 33.8879 17.9371L32.4118 19.4132C33.7203 20.7218 35.8419 20.7218 37.1505 19.4132L35.6743 17.9371ZM35.6743 16.1506C36.1677 16.6439 36.1677 17.4437 35.6743 17.9371L37.1505 19.4132C38.4591 18.1046 38.4591 15.983 37.1505 14.6745L35.6743 16.1506ZM33.8879 16.1506C34.3812 15.6573 35.181 15.6573 35.6743 16.1506L37.1505 14.6745C35.8419 13.3659 33.7203 13.3659 32.4118 14.6745L33.8879 16.1506ZM33.8879 17.9371C33.3946 17.4437 33.3946 16.6439 33.8879 16.1506L32.4118 14.6745C31.1032 15.983 31.1032 18.1046 32.4118 19.4132L33.8879 17.9371Z" fill="#FAA21E" mask="url(#path-23-inside-1_1369_8325)"/>
</svg>
