<svg width="50" height="50" viewBox="0 0 50 50" fill="none" xmlns="http://www.w3.org/2000/svg">
<g clip-path="url(#clip0_1369_8336)">
<line x1="25" y1="7.72363" x2="25" y2="2.26242" stroke="#FAA21E" stroke-linecap="round"/>
<line x1="25" y1="7.72363" x2="25" y2="2.26242" stroke="white" stroke-opacity="0.4" stroke-linecap="round"/>
<line x1="25" y1="47.6655" x2="25" y2="42.2043" stroke="#FAA21E" stroke-linecap="round"/>
<line x1="25" y1="47.6655" x2="25" y2="42.2043" stroke="white" stroke-opacity="0.4" stroke-linecap="round"/>
<line x1="47.3843" y1="25" x2="41.9608" y2="25" stroke="#FAA21E" stroke-linecap="round"/>
<line x1="47.3843" y1="25" x2="41.9608" y2="25" stroke="white" stroke-opacity="0.4" stroke-linecap="round"/>
<line x1="0.5" y1="-0.5" x2="5.93221" y2="-0.5" transform="matrix(-0.875939 -0.482423 0.478097 -0.878307 45.6342 36.103)" stroke="#FAA21E" stroke-linecap="round"/>
<line x1="0.5" y1="-0.5" x2="5.93221" y2="-0.5" transform="matrix(-0.875939 -0.482423 0.478097 -0.878307 45.6342 36.103)" stroke="white" stroke-opacity="0.4" stroke-linecap="round"/>
<line x1="0.5" y1="-0.5" x2="5.95021" y2="-0.5" transform="matrix(-0.538306 -0.842749 0.839871 -0.542786 37.3983 44.6436)" stroke="#FAA21E" stroke-linecap="round"/>
<line x1="0.5" y1="-0.5" x2="5.95021" y2="-0.5" transform="matrix(-0.538306 -0.842749 0.839871 -0.542786 37.3983 44.6436)" stroke="white" stroke-opacity="0.4" stroke-linecap="round"/>
<line x1="2.54382" y1="25.0537" x2="7.96732" y2="25.0537" stroke="#FAA21E" stroke-linecap="round"/>
<line x1="2.54382" y1="25.0537" x2="7.96732" y2="25.0537" stroke="white" stroke-opacity="0.4" stroke-linecap="round"/>
<line x1="0.5" y1="-0.5" x2="5.95199" y2="-0.5" transform="matrix(0.492924 -0.870072 0.867579 0.4973 14.0463 45.231)" stroke="#FAA21E" stroke-linecap="round"/>
<line x1="0.5" y1="-0.5" x2="5.95199" y2="-0.5" transform="matrix(0.492924 -0.870072 0.867579 0.4973 14.0463 45.231)" stroke="white" stroke-opacity="0.4" stroke-linecap="round"/>
<line x1="0.5" y1="-0.5" x2="5.93396" y2="-0.5" transform="matrix(0.849006 -0.528383 0.523928 0.851763 5.22729 37.2075)" stroke="#FAA21E" stroke-linecap="round"/>
<line x1="0.5" y1="-0.5" x2="5.93396" y2="-0.5" transform="matrix(0.849006 -0.528383 0.523928 0.851763 5.22729 37.2075)" stroke="white" stroke-opacity="0.4" stroke-linecap="round"/>
<line x1="0.5" y1="-0.5" x2="5.93221" y2="-0.5" transform="matrix(0.875938 0.482423 -0.478097 0.878307 4.70435 13.9985)" stroke="#FAA21E" stroke-linecap="round"/>
<line x1="0.5" y1="-0.5" x2="5.93221" y2="-0.5" transform="matrix(0.875938 0.482423 -0.478097 0.878307 4.70435 13.9985)" stroke="white" stroke-opacity="0.4" stroke-linecap="round"/>
<line x1="0.5" y1="-0.5" x2="5.95021" y2="-0.5" transform="matrix(0.538306 0.842749 -0.839871 0.542786 12.5297 4.99268)" stroke="#FAA21E" stroke-linecap="round"/>
<line x1="0.5" y1="-0.5" x2="5.95021" y2="-0.5" transform="matrix(0.538306 0.842749 -0.839871 0.542786 12.5297 4.99268)" stroke="white" stroke-opacity="0.4" stroke-linecap="round"/>
<line x1="0.5" y1="-0.5" x2="8.7191" y2="-0.5" transform="matrix(0.267517 -0.963553 0.962737 0.270438 30 8.88281)" stroke="#FAA21E" stroke-linecap="round"/>
<line x1="0.5" y1="-0.5" x2="8.7191" y2="-0.5" transform="matrix(0.267517 -0.963553 0.962737 0.270438 30 8.88281)" stroke="white" stroke-opacity="0.4" stroke-linecap="round"/>
<line x1="0.5" y1="-0.5" x2="8.7191" y2="-0.5" transform="matrix(0.267517 -0.963553 0.962737 0.270438 18.6865 50)" stroke="#FAA21E" stroke-linecap="round"/>
<line x1="0.5" y1="-0.5" x2="8.7191" y2="-0.5" transform="matrix(0.267517 -0.963553 0.962737 0.270438 18.6865 50)" stroke="white" stroke-opacity="0.4" stroke-linecap="round"/>
<line x1="0.5" y1="-0.5" x2="8.67305" y2="-0.5" transform="matrix(-0.962737 -0.270438 0.267517 -0.963553 50 31.2627)" stroke="#FAA21E" stroke-linecap="round"/>
<line x1="0.5" y1="-0.5" x2="8.67305" y2="-0.5" transform="matrix(-0.962737 -0.270438 0.267517 -0.963553 50 31.2627)" stroke="white" stroke-opacity="0.4" stroke-linecap="round"/>
<line x1="0.5" y1="-0.5" x2="8.67332" y2="-0.5" transform="matrix(-0.960135 0.279537 -0.276533 -0.961004 49.6844 17.6216)" stroke="#FAA21E" stroke-linecap="round"/>
<line x1="0.5" y1="-0.5" x2="8.67332" y2="-0.5" transform="matrix(-0.960135 0.279537 -0.276533 -0.961004 49.6844 17.6216)" stroke="white" stroke-opacity="0.4" stroke-linecap="round"/>
<line x1="0.5" y1="-0.5" x2="8.69545" y2="-0.5" transform="matrix(-0.713579 -0.700575 0.696387 -0.717667 43.6428 42.8599)" stroke="#FAA21E" stroke-linecap="round"/>
<line x1="0.5" y1="-0.5" x2="8.69545" y2="-0.5" transform="matrix(-0.713579 -0.700575 0.696387 -0.717667 43.6428 42.8599)" stroke="white" stroke-opacity="0.4" stroke-linecap="round"/>
<line x1="0.5" y1="-0.5" x2="8.71833" y2="-0.5" transform="matrix(-0.292762 -0.956185 0.955216 -0.29591 32.4805 49.6377)" stroke="#FAA21E" stroke-linecap="round"/>
<line x1="0.5" y1="-0.5" x2="8.71833" y2="-0.5" transform="matrix(-0.292762 -0.956185 0.955216 -0.29591 32.4805 49.6377)" stroke="white" stroke-opacity="0.4" stroke-linecap="round"/>
<line x1="0.5" y1="-0.5" x2="8.67305" y2="-0.5" transform="matrix(0.962737 0.270438 -0.267517 0.963553 0 18.5024)" stroke="#FAA21E" stroke-linecap="round"/>
<line x1="0.5" y1="-0.5" x2="8.67305" y2="-0.5" transform="matrix(0.962737 0.270438 -0.267517 0.963553 0 18.5024)" stroke="white" stroke-opacity="0.4" stroke-linecap="round"/>
<line x1="0.5" y1="-0.5" x2="8.69584" y2="-0.5" transform="matrix(0.708495 -0.705716 0.701557 0.712614 7 43.4897)" stroke="#FAA21E" stroke-linecap="round"/>
<line x1="0.5" y1="-0.5" x2="8.69584" y2="-0.5" transform="matrix(0.708495 -0.705716 0.701557 0.712614 7 43.4897)" stroke="white" stroke-opacity="0.4" stroke-linecap="round"/>
<line x1="0.5" y1="-0.5" x2="8.67332" y2="-0.5" transform="matrix(0.960135 -0.279536 0.276533 0.961004 0.291992 32.2271)" stroke="#FAA21E" stroke-linecap="round"/>
<line x1="0.5" y1="-0.5" x2="8.67332" y2="-0.5" transform="matrix(0.960135 -0.279536 0.276533 0.961004 0.291992 32.2271)" stroke="white" stroke-opacity="0.4" stroke-linecap="round"/>
<line x1="0.5" y1="-0.5" x2="8.69545" y2="-0.5" transform="matrix(0.713579 0.700575 -0.696387 0.717667 6.42346 7.04883)" stroke="#FAA21E" stroke-linecap="round"/>
<line x1="0.5" y1="-0.5" x2="8.69545" y2="-0.5" transform="matrix(0.713579 0.700575 -0.696387 0.717667 6.42346 7.04883)" stroke="white" stroke-opacity="0.4" stroke-linecap="round"/>
<line x1="0.5" y1="-0.5" x2="8.71833" y2="-0.5" transform="matrix(0.292762 0.956185 -0.955216 0.29591 17.5186 0)" stroke="#FAA21E" stroke-linecap="round"/>
<line x1="0.5" y1="-0.5" x2="8.71833" y2="-0.5" transform="matrix(0.292762 0.956185 -0.955216 0.29591 17.5186 0)" stroke="white" stroke-opacity="0.4" stroke-linecap="round"/>
<path d="M32.52 15.7581L34.2419 17.48L30.0393 21.2606L28.7394 19.9607L32.52 15.7581ZM0.438436 47.3058L27.108 21.6164L28.3836 22.892L2.69421 49.5616L1.22681 49.4887L0.511293 48.7732L0.438436 47.3058Z" fill="#FEFEFE" stroke="#FAA21E" stroke-width="1.0438"/>
<mask id="path-23-inside-1_1369_8336" fill="white">
<path fill-rule="evenodd" clip-rule="evenodd" d="M49.9942 0.0945164L41.6297 16.0474L38.687 16.1444C37.7061 16.1768 35.7317 16.7821 35.7317 16.7821L35.0733 16.1237L41.8884 8.20036L33.7563 14.8068L33.0976 14.1481C33.0976 14.1481 33.9119 12.3826 33.9443 11.4017L34.0413 8.45901L49.9942 0.0945164Z"/>
</mask>
<path fill-rule="evenodd" clip-rule="evenodd" d="M49.9942 0.0945164L41.6297 16.0474L38.687 16.1444C37.7061 16.1768 35.7317 16.7821 35.7317 16.7821L35.0733 16.1237L41.8884 8.20036L33.7563 14.8068L33.0976 14.1481C33.0976 14.1481 33.9119 12.3826 33.9443 11.4017L34.0413 8.45901L49.9942 0.0945164Z" fill="#FEFEFE"/>
<path d="M41.6297 16.0474L41.6626 17.0469L42.2448 17.0277L42.5153 16.5118L41.6297 16.0474ZM49.9942 0.0945164L50.8799 0.558884L52.368 -2.27921L49.5299 -0.791128L49.9942 0.0945164ZM38.687 16.1444L38.72 17.1439L38.72 17.1439L38.687 16.1444ZM35.7317 16.7821L35.0246 17.4892L35.4498 17.9145L36.0248 17.7382L35.7317 16.7821ZM35.0733 16.1237L34.3151 15.4716L33.7102 16.1749L34.3662 16.8308L35.0733 16.1237ZM41.8884 8.20036L42.6465 8.85246L41.2579 7.4242L41.8884 8.20036ZM33.7563 14.8068L33.0492 15.5139L33.6869 16.1516L34.3868 15.5829L33.7563 14.8068ZM33.0976 14.1481L32.1895 13.7292L31.8976 14.3623L32.3905 14.8552L33.0976 14.1481ZM33.9443 11.4017L32.9448 11.3687L32.9448 11.3687L33.9443 11.4017ZM34.0413 8.45901L33.5769 7.57337L33.061 7.84387L33.0418 8.42606L34.0413 8.45901ZM42.5153 16.5118L50.8799 0.558884L49.1086 -0.369851L40.744 15.583L42.5153 16.5118ZM38.72 17.1439L41.6626 17.0469L41.5967 15.048L38.6541 15.145L38.72 17.1439ZM35.7317 16.7821C36.0248 17.7382 36.0247 17.7382 36.0247 17.7382C36.0247 17.7382 36.0247 17.7383 36.0246 17.7383C36.0246 17.7383 36.0246 17.7383 36.0247 17.7382C36.0248 17.7382 36.025 17.7382 36.0253 17.7381C36.0259 17.7379 36.027 17.7375 36.0286 17.7371C36.0317 17.7361 36.0366 17.7346 36.0433 17.7326C36.0566 17.7286 36.0769 17.7225 36.1033 17.7146C36.1562 17.6989 36.2338 17.6761 36.3302 17.6486C36.5235 17.5934 36.7905 17.5196 37.086 17.4451C37.7085 17.2881 38.3505 17.1561 38.72 17.1439L38.6541 15.145C38.0426 15.1651 37.207 15.3519 36.597 15.5058C36.2762 15.5866 35.9884 15.6662 35.7808 15.7255C35.6768 15.7552 35.5924 15.78 35.5335 15.7975C35.504 15.8063 35.4809 15.8132 35.4648 15.8181C35.4568 15.8205 35.4505 15.8224 35.4461 15.8237C35.4439 15.8244 35.4422 15.825 35.4409 15.8253C35.4403 15.8255 35.4398 15.8257 35.4394 15.8258C35.4392 15.8259 35.439 15.8259 35.4389 15.826C35.4388 15.826 35.4387 15.826 35.4387 15.826C35.4386 15.826 35.4385 15.8261 35.7317 16.7821ZM34.3662 16.8308L35.0246 17.4892L36.4388 16.075L35.7804 15.4166L34.3662 16.8308ZM35.8314 16.7758L42.6465 8.85246L41.1303 7.54826L34.3151 15.4716L35.8314 16.7758ZM41.2579 7.4242L33.1258 14.0306L34.3868 15.5829L42.5189 8.97652L41.2579 7.4242ZM32.3905 14.8552L33.0492 15.5139L34.4634 14.0997L33.8047 13.441L32.3905 14.8552ZM32.9448 11.3687C32.9345 11.6803 32.7793 12.2298 32.5704 12.7972C32.4736 13.0601 32.3773 13.2957 32.305 13.4658C32.269 13.5505 32.2393 13.6181 32.219 13.6638C32.2088 13.6866 32.2011 13.7039 32.196 13.715C32.1935 13.7206 32.1917 13.7246 32.1906 13.727C32.19 13.7282 32.1897 13.729 32.1895 13.7294C32.1894 13.7296 32.1894 13.7296 32.1894 13.7296C32.1894 13.7296 32.1894 13.7296 32.1894 13.7295C32.1894 13.7295 32.1895 13.7294 32.1895 13.7294C32.1895 13.7293 32.1895 13.7292 33.0976 14.1481C34.0057 14.5669 34.0057 14.5668 34.0058 14.5667C34.0058 14.5667 34.0058 14.5666 34.0059 14.5665C34.0059 14.5663 34.006 14.5661 34.0061 14.5659C34.0063 14.5654 34.0066 14.5649 34.0069 14.5642C34.0075 14.5629 34.0083 14.5611 34.0093 14.559C34.0113 14.5546 34.014 14.5486 34.0175 14.541C34.0244 14.5258 34.0341 14.5042 34.0463 14.4768C34.0707 14.4221 34.1048 14.3441 34.1457 14.248C34.2271 14.0564 34.3364 13.7894 34.4472 13.4882C34.6536 12.9276 34.9217 12.1039 34.9437 11.4346L32.9448 11.3687ZM33.0418 8.42606L32.9448 11.3687L34.9437 11.4346L35.0408 8.49196L33.0418 8.42606ZM49.5299 -0.791128L33.5769 7.57337L34.5057 9.34466L50.4586 0.980161L49.5299 -0.791128Z" fill="#FAA21E" mask="url(#path-23-inside-1_1369_8336)"/>
</g>
<defs>
<clipPath id="clip0_1369_8336">
<rect width="50" height="50" fill="white"/>
</clipPath>
</defs>
</svg>
