<svg width="50" height="50" viewBox="0 0 50 50" fill="none" xmlns="http://www.w3.org/2000/svg">
<g clip-path="url(#clip0_1383_8448)">
<line x1="25" y1="7.72314" x2="25" y2="2.26193" stroke="#FAA21E" stroke-linecap="round"/>
<line x1="25" y1="7.72314" x2="25" y2="2.26193" stroke="white" stroke-opacity="0.4" stroke-linecap="round"/>
<line x1="25" y1="47.6655" x2="25" y2="42.2043" stroke="#FAA21E" stroke-linecap="round"/>
<line x1="25" y1="47.6655" x2="25" y2="42.2043" stroke="white" stroke-opacity="0.4" stroke-linecap="round"/>
<line x1="47.3843" y1="25" x2="41.9608" y2="25" stroke="#FAA21E" stroke-linecap="round"/>
<line x1="47.3843" y1="25" x2="41.9608" y2="25" stroke="white" stroke-opacity="0.4" stroke-linecap="round"/>
<line x1="0.5" y1="-0.5" x2="5.95199" y2="-0.5" transform="matrix(-0.492924 0.870072 -0.867579 -0.4973 35.8818 4.40527)" stroke="#FAA21E" stroke-linecap="round"/>
<line x1="0.5" y1="-0.5" x2="5.95199" y2="-0.5" transform="matrix(-0.492924 0.870072 -0.867579 -0.4973 35.8818 4.40527)" stroke="white" stroke-opacity="0.4" stroke-linecap="round"/>
<line x1="0.5" y1="-0.5" x2="5.93396" y2="-0.5" transform="matrix(-0.849006 0.528383 -0.523928 -0.851763 44.7008 12.4287)" stroke="#FAA21E" stroke-linecap="round"/>
<line x1="0.5" y1="-0.5" x2="5.93396" y2="-0.5" transform="matrix(-0.849006 0.528383 -0.523928 -0.851763 44.7008 12.4287)" stroke="white" stroke-opacity="0.4" stroke-linecap="round"/>
<line x1="0.5" y1="-0.5" x2="5.93221" y2="-0.5" transform="matrix(-0.875939 -0.482423 0.478097 -0.878307 45.6342 36.103)" stroke="#FAA21E" stroke-linecap="round"/>
<line x1="0.5" y1="-0.5" x2="5.93221" y2="-0.5" transform="matrix(-0.875939 -0.482423 0.478097 -0.878307 45.6342 36.103)" stroke="white" stroke-opacity="0.4" stroke-linecap="round"/>
<line x1="0.5" y1="-0.5" x2="5.95021" y2="-0.5" transform="matrix(-0.538306 -0.842749 0.839871 -0.542786 37.3983 44.6436)" stroke="#FAA21E" stroke-linecap="round"/>
<line x1="0.5" y1="-0.5" x2="5.95021" y2="-0.5" transform="matrix(-0.538306 -0.842749 0.839871 -0.542786 37.3983 44.6436)" stroke="white" stroke-opacity="0.4" stroke-linecap="round"/>
<line x1="2.54382" y1="25.0537" x2="7.96732" y2="25.0537" stroke="#FAA21E" stroke-linecap="round"/>
<line x1="2.54382" y1="25.0537" x2="7.96732" y2="25.0537" stroke="white" stroke-opacity="0.4" stroke-linecap="round"/>
<line x1="0.5" y1="-0.5" x2="5.95199" y2="-0.5" transform="matrix(0.492924 -0.870072 0.867579 0.4973 14.0463 45.231)" stroke="#FAA21E" stroke-linecap="round"/>
<line x1="0.5" y1="-0.5" x2="5.95199" y2="-0.5" transform="matrix(0.492924 -0.870072 0.867579 0.4973 14.0463 45.231)" stroke="white" stroke-opacity="0.4" stroke-linecap="round"/>
<line x1="0.5" y1="-0.5" x2="5.93396" y2="-0.5" transform="matrix(0.849006 -0.528383 0.523928 0.851763 5.22729 37.2075)" stroke="#FAA21E" stroke-linecap="round"/>
<line x1="0.5" y1="-0.5" x2="5.93396" y2="-0.5" transform="matrix(0.849006 -0.528383 0.523928 0.851763 5.22729 37.2075)" stroke="white" stroke-opacity="0.4" stroke-linecap="round"/>
<line x1="0.5" y1="-0.5" x2="5.93221" y2="-0.5" transform="matrix(0.875938 0.482423 -0.478097 0.878307 4.70435 13.9985)" stroke="#FAA21E" stroke-linecap="round"/>
<line x1="0.5" y1="-0.5" x2="5.93221" y2="-0.5" transform="matrix(0.875938 0.482423 -0.478097 0.878307 4.70435 13.9985)" stroke="white" stroke-opacity="0.4" stroke-linecap="round"/>
<line x1="0.5" y1="-0.5" x2="5.95021" y2="-0.5" transform="matrix(0.538306 0.842749 -0.839871 0.542786 12.5297 4.99268)" stroke="#FAA21E" stroke-linecap="round"/>
<line x1="0.5" y1="-0.5" x2="5.95021" y2="-0.5" transform="matrix(0.538306 0.842749 -0.839871 0.542786 12.5297 4.99268)" stroke="white" stroke-opacity="0.4" stroke-linecap="round"/>
<line x1="0.5" y1="-0.5" x2="8.7191" y2="-0.5" transform="matrix(0.267517 -0.963553 0.962737 0.270438 30 8.88281)" stroke="#FAA21E" stroke-linecap="round"/>
<line x1="0.5" y1="-0.5" x2="8.7191" y2="-0.5" transform="matrix(0.267517 -0.963553 0.962737 0.270438 30 8.88281)" stroke="white" stroke-opacity="0.4" stroke-linecap="round"/>
<line x1="0.5" y1="-0.5" x2="8.7191" y2="-0.5" transform="matrix(0.267517 -0.963553 0.962737 0.270438 18.6865 50)" stroke="#FAA21E" stroke-linecap="round"/>
<line x1="0.5" y1="-0.5" x2="8.7191" y2="-0.5" transform="matrix(0.267517 -0.963553 0.962737 0.270438 18.6865 50)" stroke="white" stroke-opacity="0.4" stroke-linecap="round"/>
<line x1="0.5" y1="-0.5" x2="8.67305" y2="-0.5" transform="matrix(-0.962737 -0.270438 0.267517 -0.963553 50 31.2627)" stroke="#FAA21E" stroke-linecap="round"/>
<line x1="0.5" y1="-0.5" x2="8.67305" y2="-0.5" transform="matrix(-0.962737 -0.270438 0.267517 -0.963553 50 31.2627)" stroke="white" stroke-opacity="0.4" stroke-linecap="round"/>
<line x1="0.5" y1="-0.5" x2="8.69584" y2="-0.5" transform="matrix(-0.708495 0.705716 -0.701557 -0.712614 43.0124 6.16748)" stroke="#FAA21E" stroke-linecap="round"/>
<line x1="0.5" y1="-0.5" x2="8.69584" y2="-0.5" transform="matrix(-0.708495 0.705716 -0.701557 -0.712614 43.0124 6.16748)" stroke="white" stroke-opacity="0.4" stroke-linecap="round"/>
<line x1="0.5" y1="-0.5" x2="8.67332" y2="-0.5" transform="matrix(-0.960135 0.279537 -0.276533 -0.961004 49.6844 17.6216)" stroke="#FAA21E" stroke-linecap="round"/>
<line x1="0.5" y1="-0.5" x2="8.67332" y2="-0.5" transform="matrix(-0.960135 0.279537 -0.276533 -0.961004 49.6844 17.6216)" stroke="white" stroke-opacity="0.4" stroke-linecap="round"/>
<line x1="0.5" y1="-0.5" x2="8.69545" y2="-0.5" transform="matrix(-0.713579 -0.700575 0.696387 -0.717667 43.6428 42.8599)" stroke="#FAA21E" stroke-linecap="round"/>
<line x1="0.5" y1="-0.5" x2="8.69545" y2="-0.5" transform="matrix(-0.713579 -0.700575 0.696387 -0.717667 43.6428 42.8599)" stroke="white" stroke-opacity="0.4" stroke-linecap="round"/>
<line x1="0.5" y1="-0.5" x2="8.71833" y2="-0.5" transform="matrix(-0.292762 -0.956185 0.955216 -0.29591 32.4805 49.6377)" stroke="#FAA21E" stroke-linecap="round"/>
<line x1="0.5" y1="-0.5" x2="8.71833" y2="-0.5" transform="matrix(-0.292762 -0.956185 0.955216 -0.29591 32.4805 49.6377)" stroke="white" stroke-opacity="0.4" stroke-linecap="round"/>
<line x1="0.5" y1="-0.5" x2="8.67305" y2="-0.5" transform="matrix(0.962737 0.270438 -0.267517 0.963553 0 18.5024)" stroke="#FAA21E" stroke-linecap="round"/>
<line x1="0.5" y1="-0.5" x2="8.67305" y2="-0.5" transform="matrix(0.962737 0.270438 -0.267517 0.963553 0 18.5024)" stroke="white" stroke-opacity="0.4" stroke-linecap="round"/>
<line x1="0.5" y1="-0.5" x2="8.69584" y2="-0.5" transform="matrix(0.708495 -0.705716 0.701557 0.712614 7 43.4897)" stroke="#FAA21E" stroke-linecap="round"/>
<line x1="0.5" y1="-0.5" x2="8.69584" y2="-0.5" transform="matrix(0.708495 -0.705716 0.701557 0.712614 7 43.4897)" stroke="white" stroke-opacity="0.4" stroke-linecap="round"/>
<line x1="0.5" y1="-0.5" x2="8.67332" y2="-0.5" transform="matrix(0.960135 -0.279537 0.276533 0.961004 0.291992 32.2271)" stroke="#FAA21E" stroke-linecap="round"/>
<line x1="0.5" y1="-0.5" x2="8.67332" y2="-0.5" transform="matrix(0.960135 -0.279537 0.276533 0.961004 0.291992 32.2271)" stroke="white" stroke-opacity="0.4" stroke-linecap="round"/>
<line x1="0.5" y1="-0.5" x2="8.69545" y2="-0.5" transform="matrix(0.713579 0.700575 -0.696387 0.717667 6.42346 7.04883)" stroke="#FAA21E" stroke-linecap="round"/>
<line x1="0.5" y1="-0.5" x2="8.69545" y2="-0.5" transform="matrix(0.713579 0.700575 -0.696387 0.717667 6.42346 7.04883)" stroke="white" stroke-opacity="0.4" stroke-linecap="round"/>
<line x1="0.5" y1="-0.5" x2="8.71833" y2="-0.5" transform="matrix(0.292762 0.956185 -0.955216 0.29591 17.5186 0)" stroke="#FAA21E" stroke-linecap="round"/>
<line x1="0.5" y1="-0.5" x2="8.71833" y2="-0.5" transform="matrix(0.292762 0.956185 -0.955216 0.29591 17.5186 0)" stroke="white" stroke-opacity="0.4" stroke-linecap="round"/>
<path d="M34.9628 10.2472C34.8014 9.39999 34.6314 8.53233 34.4292 7.68237L37.706 6.62082L42.0255 17.6596C42.2522 18.4679 42.1005 18.7636 41.9955 18.8648C41.8642 18.9913 41.5486 19.0841 40.9572 18.9816C39.8169 18.7839 38.2742 17.961 37.3316 17.1258C36.4833 16.3741 35.9651 14.9654 35.5413 13.1269C35.3604 12.3422 35.2019 11.5067 35.038 10.6429C35.0131 10.5116 34.9881 10.3797 34.9628 10.2472Z" fill="#FEFEFE" stroke="#FAA21E"/>
<path d="M16.1262 8.40124L16.152 8.40665L16.1783 8.40932L20.3242 8.8313C20.3007 8.96836 20.2772 9.10605 20.2536 9.24428C19.9345 11.1132 19.5983 13.0814 19.1689 14.936C18.6655 17.1105 18.044 19.08 17.2012 20.5165C16.7992 21.2019 15.9907 22.1129 14.9739 22.9742C13.9606 23.8325 12.7805 24.6075 11.6595 25.0472C10.5208 25.4939 9.55406 25.5538 8.86862 25.1696C8.21001 24.8004 7.63077 23.915 7.50261 22.0239L9.91018 7.09695L16.1262 8.40124Z" fill="#FEFEFE" stroke="#FAA21E"/>
<path d="M31.1125 9.05625C31.1743 9.0099 31.2243 8.96914 31.2625 8.93644L32.1289 8.62012L34.2986 18.6716L29.1295 28.0566L20.5541 20.8135L23.1101 9.39234H25.3212C25.4334 9.47438 25.5933 9.56932 25.8146 9.65933C26.2604 9.84065 26.9504 10 28 10C29.0864 10 29.9125 9.72779 30.4736 9.44721C30.7534 9.30734 30.9663 9.16592 31.1125 9.05625Z" fill="#FEFEFE" stroke="#FAA21E"/>
<path d="M29.6316 15.2481C28.9129 14.6122 28.6294 13.1611 28.1457 12.333C27.8003 13.2277 27.9041 14.5199 27.1442 15.4479C26.4645 16.278 25.5897 16.8733 24.3806 17.4039C25.6589 17.7347 26.7023 18.2578 27.421 18.8937C28.1397 19.5295 28.5613 20.9696 28.9069 21.8088C29.1025 20.7816 29.2287 19.5239 29.9084 18.6939C30.6683 17.7658 31.4629 17.2685 32.672 16.7379C31.8082 16.3737 30.5299 16.0429 29.6316 15.2481Z" fill="#FAA21E"/>
<path d="M19.9942 46.0002C18.3377 46.0194 17.2257 46.5417 16.152 47.2629C15.7776 47.5144 15.4221 47.7779 15.0549 48.05C14.4736 48.4808 13.8632 48.9332 13.1031 49.3935C13.0068 49.1431 12.8811 48.8151 12.7335 48.4269C12.3807 47.4987 11.9031 46.2277 11.404 44.8558C10.4003 42.0968 9.32704 38.9769 8.98895 37.3959C8.64791 35.8011 8.27529 32.9496 7.98653 30.476C7.85182 29.322 7.73605 28.2564 7.65101 27.4495C7.95935 27.687 8.2982 27.876 8.67142 28.0087C9.53352 28.3153 10.5194 28.3008 11.6374 27.9812C13.4741 27.4562 15.2762 26.3298 16.6359 25.2793C17.3194 24.7512 17.9012 24.2345 18.3308 23.8082C18.5189 23.6216 18.6807 23.4494 18.8104 23.2988L27.9351 30.6864C27.8975 30.8325 27.8479 31.0259 27.789 31.2588C27.649 31.8125 27.4558 32.5897 27.2435 33.4841C26.8194 35.2701 26.3161 37.5338 26.0066 39.4195C25.7035 41.2661 25.1011 43.8718 24.5712 46.0269C24.3069 47.102 24.0616 48.0609 23.8824 48.7509C23.8644 48.8202 23.8471 48.8868 23.8305 48.9505C23.7056 48.7869 23.5897 48.6225 23.4785 48.4587C23.4004 48.3437 23.3219 48.2245 23.2429 48.1047C23.0613 47.829 22.877 47.5492 22.6884 47.3055C22.407 46.9417 22.0771 46.6021 21.6311 46.3605C21.1813 46.117 20.6502 45.9926 19.9942 46.0002Z" fill="#FEFEFE" stroke="#FAA21E"/>
<path d="M40.0615 43.5245C38.8868 43.9065 38.0194 44.5889 37.2234 45.3158C37.0051 45.5151 36.7945 45.7152 36.5851 45.9142C36.1522 46.3254 35.7241 46.7321 35.2426 47.1186C35.2214 47.0735 35.1992 47.0258 35.1759 46.9757C34.9712 46.5348 34.6874 45.9041 34.372 45.1471C33.74 43.6302 32.9861 41.618 32.4851 39.6143C31.9818 37.601 31.6026 35.328 31.3489 33.5519C31.2222 32.6652 31.1272 31.9052 31.0639 31.3672C31.0323 31.0983 31.0086 30.8849 30.9928 30.7391C30.9898 30.7115 30.9871 30.6864 30.9847 30.6637L36.6257 19.8406C37.199 20.3594 38.1992 21.0569 39.8765 21.4845C41.3271 21.8543 42.2243 21.7459 42.8308 21.6726C42.872 21.6676 42.9119 21.6628 42.9506 21.6583C42.974 21.7972 43.0021 21.9662 43.0335 22.1611C43.1289 22.7526 43.2553 23.5823 43.3792 24.5341C43.6277 26.4439 43.8627 28.8218 43.823 30.752C43.7829 32.7014 43.5091 36.2276 43.2434 39.2815C43.1108 40.8052 42.9808 42.2061 42.8839 43.2262C42.8585 43.4932 42.8354 43.7341 42.8152 43.9443C42.5962 43.8216 42.3532 43.7152 42.1014 43.6306C41.4743 43.4199 40.7036 43.3157 40.0615 43.5245Z" fill="#FEFEFE" stroke="#FAA21E"/>
<path d="M22.342 3.49073C22.2258 3.99891 22.1962 4.43364 22.2228 4.82412C22.2594 5.35958 22.4014 5.78541 22.521 6.14402L22.5257 6.15811C22.6189 6.43785 22.769 6.71125 22.9246 6.94948C21.1068 6.81158 18.2113 6.41244 16.6213 6.01493C15.825 5.81587 14.7197 5.5966 13.5735 5.36924C13.4542 5.34558 13.3345 5.32183 13.2146 5.29801C12.1044 5.07734 10.9784 4.84964 10.0451 4.62193L10.4233 1.21817C12.9448 2.23143 15.1141 2.64677 16.428 2.89834C16.6012 2.9315 16.7596 2.96182 16.9019 2.99029C18.1878 3.24746 19.7164 3.37393 20.9112 3.43681C21.4788 3.46668 21.9757 3.48243 22.342 3.49073Z" fill="#FEFEFE" stroke="#FAA21E"/>
<path d="M33 4.5C33 4.01224 32.8519 3.44547 32.6509 2.94965C32.5703 2.75083 32.4765 2.55194 32.3725 2.36461C32.468 2.35281 32.5685 2.34083 32.6733 2.32832C32.7758 2.31609 32.8825 2.30337 32.9927 2.28984C33.5463 2.22189 34.1789 2.13408 34.6581 1.97434C34.9033 1.89262 35.132 1.82154 35.3456 1.75518C35.7414 1.63216 36.0851 1.52536 36.3845 1.39707C36.6376 1.28858 36.8707 1.16179 37.1075 0.995231L37.4605 4.17236C37.2537 4.25248 36.9789 4.35936 36.6938 4.47133C36.1252 4.69466 35.4709 4.95553 35.2764 5.05279C35.2764 5.05278 35.2747 5.05361 35.2709 5.05537L35.256 5.06213C35.2433 5.06779 35.2267 5.07491 35.2061 5.08354C35.1649 5.10084 35.1115 5.12249 35.0468 5.14815C34.9177 5.1994 34.7495 5.26427 34.555 5.33818C34.1663 5.4859 33.6786 5.66749 33.2001 5.84427C33.0306 5.90691 32.8624 5.96889 32.7004 6.02847C32.8727 5.62371 33 5.12156 33 4.5Z" fill="#FEFEFE" stroke="#FAA21E"/>
<path d="M30.5 4.5C30.5 6.15685 29.1569 7.5 27.5 7.5C25.8431 7.5 24.5 6.15685 24.5 4.5C24.5 2.84315 25.8431 1.5 27.5 1.5C29.1569 1.5 30.5 2.84315 30.5 4.5Z" fill="#FEFEFE" stroke="#FAA21E"/>
</g>
<defs>
<clipPath id="clip0_1383_8448">
<rect width="50" height="50" fill="white"/>
</clipPath>
</defs>
</svg>
