<svg width="50" height="50" viewBox="0 0 50 50" fill="none" xmlns="http://www.w3.org/2000/svg">
<path d="M37 14.8182V18.4545C37.619 17.697 39.1357 15.7273 42.1071 15.7273C45.8214 15.7273 47.2143 19.8182 47.2143 23C47.2143 26.1818 45.3571 30.2727 42.1071 30.2727C39.5071 30.2727 37.4643 28 37 27.5455V31.1818C37.4643 31.1818 38.3929 33 42.1071 33C46.75 33 50 28.9091 50 23C50 17.0909 46.75 13 42.1071 13C38.8571 13 37.4643 14.8182 37 14.8182Z" fill="#898989"/>
<path d="M37 14.8182V18.4545C37.619 17.697 39.1357 15.7273 42.1071 15.7273C45.8214 15.7273 47.2143 19.8182 47.2143 23C47.2143 26.1818 45.3571 30.2727 42.1071 30.2727C39.5071 30.2727 37.4643 28 37 27.5455V31.1818C37.4643 31.1818 38.3929 33 42.1071 33C46.75 33 50 28.9091 50 23C50 17.0909 46.75 13 42.1071 13C38.8571 13 37.4643 14.8182 37 14.8182Z" fill="white" fill-opacity="0.95"/>
<path d="M5 7H38V43.5C38 43.5 35 48.5 21.5 48.5C8.00003 48.5 5 43.5 5 43.5V7Z" fill="#898989"/>
<path d="M5 7H38V43.5C38 43.5 35 48.5 21.5 48.5C8.00003 48.5 5 43.5 5 43.5V7Z" fill="white" fill-opacity="0.85"/>
<ellipse cx="21.5" cy="6.5" rx="16.5" ry="4.5" fill="#FEFEFE"/>
<ellipse cx="21.5" cy="6.5" rx="14.5" ry="3.5" fill="#898989"/>
<ellipse cx="21.5" cy="6.5" rx="14.5" ry="3.5" fill="white" fill-opacity="0.4"/>
<path d="M33 8.5C33 8 27.8513 7 21.5 7C15.1487 7 10 8 10 8.5C10 9 15.1487 10 21.5 10C27.8513 10 33 9 33 8.5Z" fill="#FAA21E"/>
<path d="M33 8.5C33 8 27.8513 7 21.5 7C15.1487 7 10 8 10 8.5C10 9 15.1487 10 21.5 10C27.8513 10 33 9 33 8.5Z" fill="black" fill-opacity="0.6"/>
<path d="M8.5 26.4041C8.50015 23.382 10.8638 21.8479 11.5391 21.8479C11.4125 22.3993 11.4004 22.733 11.5391 23.4006C11.6478 23.9237 11.7642 24.2905 11.8768 24.4017L12.8897 24.068C12.5189 23.1828 12.4115 21.7248 12.8897 20.7306C13.5319 19.3957 14.2404 18.3945 16.604 18.3945C19.1033 18.3945 19.6098 19.062 20.3183 19.7294L21.2981 19.178L20.2851 18.1768C20.8479 17.9543 22.4793 17.5935 24.3702 18.3945C26.22 19.178 26.363 20.1792 27.0383 21.1804L27.7468 20.7306L27.0715 19.3957C27.5217 19.4513 28.6211 19.3957 30.1104 20.3969C31.359 21.2363 31.7987 22.0099 31.7987 22.3993C31.3485 22.3993 30.2455 22.466 29.4351 22.733C28.6247 23 27.9719 23.5118 27.7468 23.7342L28.4221 24.4017C29.0643 24.068 29.2331 23.4006 31.1234 23.4006C33.3484 23.4006 34.5 25.8527 34.5 28.0728C34.5 30.8588 33.1494 32.4114 31.1234 33.0789C29.5026 33.6129 27.7468 33.5239 27.0715 33.4126C27.2966 33.8576 27.7812 34.6634 28.0513 35.1974C28.3214 35.7313 28.389 36.1986 28.4221 36.75L26.3962 36.4163C26.0585 35.9713 25.35 34.8636 24.3702 34.0801C23.4792 33.3676 21.9734 32.75 21.6358 32.5275C21.9734 32.5275 22.9659 31.9913 23.3241 31.86C23.6406 31.7439 23.9994 31.5263 24.7078 31.0765L23.6949 30.409C22.907 30.9652 20.791 32.0109 18.63 31.7439C15.9287 31.4102 15.2534 29.8576 15.2534 28.2814C15.2534 27.1872 16.5709 25.9918 17.2462 25.519L16.2663 25.0692C15.7036 25.4029 14.5105 26.4709 14.2404 28.0728C13.9703 29.6748 14.8031 30.7427 15.2534 31.0765C14.4655 31.1877 12.3265 31.3427 11.2013 30.8588C10.1553 30.409 8.49984 29.5238 8.5 26.4041Z" fill="#CE4317"/>
<path d="M8.5 26.4041C8.50015 23.382 10.8638 21.8479 11.5391 21.8479C11.4125 22.3993 11.4004 22.733 11.5391 23.4006C11.6478 23.9237 11.7642 24.2905 11.8768 24.4017L12.8897 24.068C12.5189 23.1828 12.4115 21.7248 12.8897 20.7306C13.5319 19.3957 14.2404 18.3945 16.604 18.3945C19.1033 18.3945 19.6098 19.062 20.3183 19.7294L21.2981 19.178L20.2851 18.1768C20.8479 17.9543 22.4793 17.5935 24.3702 18.3945C26.22 19.178 26.363 20.1792 27.0383 21.1804L27.7468 20.7306L27.0715 19.3957C27.5217 19.4513 28.6211 19.3957 30.1104 20.3969C31.359 21.2363 31.7987 22.0099 31.7987 22.3993C31.3485 22.3993 30.2455 22.466 29.4351 22.733C28.6247 23 27.9719 23.5118 27.7468 23.7342L28.4221 24.4017C29.0643 24.068 29.2331 23.4006 31.1234 23.4006C33.3484 23.4006 34.5 25.8527 34.5 28.0728C34.5 30.8588 33.1494 32.4114 31.1234 33.0789C29.5026 33.6129 27.7468 33.5239 27.0715 33.4126C27.2966 33.8576 27.7812 34.6634 28.0513 35.1974C28.3214 35.7313 28.389 36.1986 28.4221 36.75L26.3962 36.4163C26.0585 35.9713 25.35 34.8636 24.3702 34.0801C23.4792 33.3676 21.9734 32.75 21.6358 32.5275C21.9734 32.5275 22.9659 31.9913 23.3241 31.86C23.6406 31.7439 23.9994 31.5263 24.7078 31.0765L23.6949 30.409C22.907 30.9652 20.791 32.0109 18.63 31.7439C15.9287 31.4102 15.2534 29.8576 15.2534 28.2814C15.2534 27.1872 16.5709 25.9918 17.2462 25.519L16.2663 25.0692C15.7036 25.4029 14.5105 26.4709 14.2404 28.0728C13.9703 29.6748 14.8031 30.7427 15.2534 31.0765C14.4655 31.1877 12.3265 31.3427 11.2013 30.8588C10.1553 30.409 8.49984 29.5238 8.5 26.4041Z" fill="white" fill-opacity="0.6"/>
</svg>
