<svg width="50" height="50" viewBox="0 0 50 50" fill="none" xmlns="http://www.w3.org/2000/svg">
<path d="M12.9322 21.2194L45.1732 7.79465L47.365 13.0585C48.8718 16.6774 47.4728 20.7342 46.0468 22.8721C43.9078 26.0789 41.0262 28.8229 36.231 30.8195C30.6382 33.1483 26.8003 33.2022 23.0175 32.4612C19.5117 31.7744 16.3568 29.4441 15.1239 26.4832L12.9322 21.2194Z" fill="#FAA21E"/>
<path d="M12.9322 21.2194L45.1732 7.79465L47.365 13.0585C48.8718 16.6774 47.4728 20.7342 46.0468 22.8721C43.9078 26.0789 41.0262 28.8229 36.231 30.8195C30.6382 33.1483 26.8003 33.2022 23.0175 32.4612C19.5117 31.7744 16.3568 29.4441 15.1239 26.4832L12.9322 21.2194Z" fill="black" fill-opacity="0.1"/>
<ellipse cx="29.0574" cy="14.5245" rx="12.1394" ry="17.4611" transform="rotate(67.4096 29.0574 14.5245)" fill="#FAA21E"/>
<ellipse cx="29.0574" cy="14.5245" rx="12.1394" ry="17.4611" transform="rotate(67.4096 29.0574 14.5245)" fill="white" fill-opacity="0.2"/>
<ellipse cx="28.7502" cy="13.7223" rx="9.39353" ry="14.589" transform="rotate(67.4096 28.7502 13.7223)" fill="#1D8CE0"/>
<ellipse cx="28.7502" cy="13.7223" rx="9.39353" ry="14.589" transform="rotate(67.4096 28.7502 13.7223)" fill="white" fill-opacity="0.8"/>
<mask id="mask0_1600_8453" style="mask-type:alpha" maskUnits="userSpaceOnUse" x="14" y="3" width="29" height="22">
<ellipse cx="28.7502" cy="13.7223" rx="9.39353" ry="14.589" transform="rotate(67.4096 28.7502 13.7223)" fill="#1D8CE0"/>
<ellipse cx="28.7502" cy="13.7223" rx="9.39353" ry="14.589" transform="rotate(67.4096 28.7502 13.7223)" fill="white" fill-opacity="0.8"/>
</mask>
<g mask="url(#mask0_1600_8453)">
<path d="M17.7628 25.4689L43.4772 8.21494L47.3718 11.1919L22.8927 28.4829L17.7628 25.4689Z" fill="#1D8CE0"/>
<path d="M17.7628 25.4689L43.4772 8.21494L47.3718 11.1919L22.8927 28.4829L17.7628 25.4689Z" fill="white" fill-opacity="0.6"/>
<path d="M15.8444 22.2398L41.4249 4.95313L43.8987 6.8964L17.9852 23.9215L15.8444 22.2398Z" fill="#1D8CE0"/>
<path d="M15.8444 22.2398L41.4249 4.95313L43.8987 6.8964L17.9852 23.9215L15.8444 22.2398Z" fill="white" fill-opacity="0.6"/>
</g>
<path d="M2.22355 43.4611C2.22355 43.4611 15.6536 29.7143 16.6536 28.7144C18.1536 26.7144 22.6536 26.7143 22.6536 30.2143C21.6944 31.4692 9.62093 46.1335 9.62093 46.1335C8.66174 47.3884 6.42848 48.6634 3.56545 47.4689C1.57159 46.7486 1.26437 44.716 2.22355 43.4611Z" fill="#FAA21E"/>
<path d="M2.22355 43.4611C2.22355 43.4611 15.6536 29.7143 16.6536 28.7144C18.1536 26.7144 22.6536 26.7143 22.6536 30.2143C21.6944 31.4692 9.62093 46.1335 9.62093 46.1335C8.66174 47.3884 6.42848 48.6634 3.56545 47.4689C1.57159 46.7486 1.26437 44.716 2.22355 43.4611Z" fill="black" fill-opacity="0.4"/>
<ellipse cx="5.65356" cy="45.0143" rx="4" ry="3" fill="#FAA21E"/>
<ellipse cx="5.65356" cy="45.0143" rx="4" ry="3" fill="black" fill-opacity="0.6"/>
</svg>
