<svg width="50" height="50" viewBox="0 0 50 50" fill="none" xmlns="http://www.w3.org/2000/svg">
<mask id="mask0_1613_8528" style="mask-type:alpha" maskUnits="userSpaceOnUse" x="0" y="11" width="36" height="39">
<path d="M3 16L17.5 11V13.5C17 15 17.347 17.3878 18 20C18.5 22 19.5 23.5 20 26L18 31.5C21.5 34.5 29.5 37 34 37L35.5 39L27 50H16.5L0 45V22L3 16Z" fill="#FEFEFE"/>
</mask>
<g mask="url(#mask0_1613_8528)">
<path d="M13.5018 15.0223C15.594 15.7079 20.1118 17.4124 21.4451 18.7458L24.3565 22.5011C22.6668 24.4686 18.7821 28.7421 16.7608 30.0967C14.2343 31.79 14.2236 33.4673 11.2538 38.9371C8.878 43.3129 6.33959 42.4624 5.36736 41.4902L3.19866 40.1655C3.20397 39.3268 1.62151 37.6107 1.95909 37.2731C2.29668 36.9355 6.86113 35.6696 7.84044 35.5237L0.821176 31.0363L2.51441 28.5097L0.431063 26.4264L4.63493 24.7225L3.40086 20.9566L7.5941 20.93L7.61535 17.5754L12.6472 17.5435L13.5018 15.0223Z" fill="#898989"/>
<path d="M13.5018 15.0223C15.594 15.7079 20.1118 17.4124 21.4451 18.7458L24.3565 22.5011C22.6668 24.4686 18.7821 28.7421 16.7608 30.0967C14.2343 31.79 14.2236 33.4673 11.2538 38.9371C8.878 43.3129 6.33959 42.4624 5.36736 41.4902L3.19866 40.1655C3.20397 39.3268 1.62151 37.6107 1.95909 37.2731C2.29668 36.9355 6.86113 35.6696 7.84044 35.5237L0.821176 31.0363L2.51441 28.5097L0.431063 26.4264L4.63493 24.7225L3.40086 20.9566L7.5941 20.93L7.61535 17.5754L12.6472 17.5435L13.5018 15.0223Z" fill="white" fill-opacity="0.4"/>
<path d="M24.2713 19.9192C25.9241 21.5719 27.0065 23.2441 27.4078 24.771L27.1041 27.0029L21.3501 28.9005L15.9379 36.2409L10.6361 43.471C8.74228 43.4365 5.89035 43.6716 4.46301 42.6198C3.50819 41.9162 2.04878 40.489 1.70842 39.8652L7.33056 39.3391L3.62046 35.0608L9.04886 34.453L3.26422 28.6683L9.55725 28.1599L7.45814 23.5103L14.7153 23.966L13.9484 18.9483L21.3764 22.1254L20.9501 17.4557C22.6185 18.2664 23.2125 18.8604 24.2713 19.9192Z" fill="#898989"/>
<path d="M24.2713 19.9192C25.9241 21.5719 27.0065 23.2441 27.4078 24.771L27.1041 27.0029L21.3501 28.9005L15.9379 36.2409L10.6361 43.471C8.74228 43.4365 5.89035 43.6716 4.46301 42.6198C3.50819 41.9162 2.04878 40.489 1.70842 39.8652L7.33056 39.3391L3.62046 35.0608L9.04886 34.453L3.26422 28.6683L9.55725 28.1599L7.45814 23.5103L14.7153 23.966L13.9484 18.9483L21.3764 22.1254L20.9501 17.4557C22.6185 18.2664 23.2125 18.8604 24.2713 19.9192Z" fill="white" fill-opacity="0.6"/>
<path d="M23.9965 27.2335L26.9953 22.6432C27.7594 24.5316 28.8565 29.0579 28.8186 30.3691C28.7711 32.0082 25.3506 37.0201 22.8209 39.5499C20.2912 42.0796 15.7246 44.2589 14.4834 44.7043C13.4905 45.0605 10.4065 44.8941 7.33054 44.2973L12.2888 40.9918L8.18846 35.8796L13.1055 35.7372L10.3678 31.3129L14.8869 30.7726L14.6077 26.2772L19.0557 28.1954L20.4155 23.6526L23.9965 27.2335Z" fill="#898989"/>
<path d="M23.9965 27.2335L26.9953 22.6432C27.7594 24.5316 28.8565 29.0579 28.8186 30.3691C28.7711 32.0082 25.3506 37.0201 22.8209 39.5499C20.2912 42.0796 15.7246 44.2589 14.4834 44.7043C13.4905 45.0605 10.4065 44.8941 7.33054 44.2973L12.2888 40.9918L8.18846 35.8796L13.1055 35.7372L10.3678 31.3129L14.8869 30.7726L14.6077 26.2772L19.0557 28.1954L20.4155 23.6526L23.9965 27.2335Z" fill="white" fill-opacity="0.8"/>
<path d="M28.4238 43.8634C30.5063 41.781 32.7899 38.3956 33.6713 36.9632L29.9526 33.2445L29.2296 28.1829L27.019 32.0462L22.8251 30.4555L23.5689 34.67L18.0735 34.3808L20.0981 38.1408L14.5407 40.3927L16.6066 42.4586L12.2888 45.9501L16.9579 45.4129L19.8295 49.1523C21.682 48.4016 26.3414 45.9459 28.4238 43.8634Z" fill="#FEFEFE"/>
<path d="M28.6218 43.6655C26.5434 45.7439 23.2677 47.3358 20.8336 48.2272L17.7782 44.3405C15.3735 44.4071 12.5006 44.1946 10.5953 43.7858C8.47841 43.3316 3.05508 42.1311 3.17757 38.8622C3.23762 37.2595 4.54263 35.1185 6.53301 34.7353C3.80332 32.837 1.51932 29.7216 2.85637 26.0705C3.74773 23.6364 7.10323 19.5096 12.3571 18.1125C17.6109 16.7154 21.7304 18.0251 23.9017 19.6808C27.4027 22.3505 27.6919 25.8089 28.4032 28.1829C29.1145 30.557 29.9257 30.3281 30.056 33.1412L33.7747 36.8599C33.2887 38.7474 30.7002 41.5871 28.6218 43.6655Z" fill="#898989"/>
<path d="M28.6218 43.6655C26.5434 45.7439 23.2677 47.3358 20.8336 48.2272L17.7782 44.3405C15.3735 44.4071 12.5006 44.1946 10.5953 43.7858C8.47841 43.3316 3.05508 42.1311 3.17757 38.8622C3.23762 37.2595 4.54263 35.1185 6.53301 34.7353C3.80332 32.837 1.51932 29.7216 2.85637 26.0705C3.74773 23.6364 7.10323 19.5096 12.3571 18.1125C17.6109 16.7154 21.7304 18.0251 23.9017 19.6808C27.4027 22.3505 27.6919 25.8089 28.4032 28.1829C29.1145 30.557 29.9257 30.3281 30.056 33.1412L33.7747 36.8599C33.2887 38.7474 30.7002 41.5871 28.6218 43.6655Z" fill="white" fill-opacity="0.95"/>
<path d="M16.0786 28.512C12.9949 29.5116 10.9597 32.9218 12.3599 35.5362C13.76 38.1506 14.4692 37.3073 16.0786 38C17.688 38.6927 17.8959 39.9482 19.5 40C21.1587 40.0535 24.5 38.5 25.1687 35.9494C25.8374 33.3988 24.7356 30.9912 23.944 30.2722C22.1993 28.6875 19.1623 27.5124 16.0786 28.512Z" fill="#898989"/>
<path d="M16.0786 28.512C12.9949 29.5116 10.9597 32.9218 12.3599 35.5362C13.76 38.1506 14.4692 37.3073 16.0786 38C17.688 38.6927 17.8959 39.9482 19.5 40C21.1587 40.0535 24.5 38.5 25.1687 35.9494C25.8374 33.3988 24.7356 30.9912 23.944 30.2722C22.1993 28.6875 19.1623 27.5124 16.0786 28.512Z" fill="black" fill-opacity="0.6"/>
<circle cx="7.74374" cy="38.9258" r="2.33735" transform="rotate(-45 7.74374 38.9258)" fill="#898989"/>
<circle cx="7.74374" cy="38.9258" r="2.33735" transform="rotate(-45 7.74374 38.9258)" fill="black" fill-opacity="0.6"/>
<circle cx="6.91739" cy="29.0093" r="2.33735" transform="rotate(-45 6.91739 29.0093)" fill="#898989"/>
<circle cx="6.91739" cy="29.0093" r="2.33735" transform="rotate(-45 6.91739 29.0093)" fill="black" fill-opacity="0.6"/>
<circle cx="10.6361" cy="23.6379" r="2.33735" transform="rotate(-45 10.6361 23.6379)" fill="#898989"/>
<circle cx="10.6361" cy="23.6379" r="2.33735" transform="rotate(-45 10.6361 23.6379)" fill="black" fill-opacity="0.6"/>
<circle cx="16.8339" cy="22.3983" r="2.33735" transform="rotate(-45 16.8339 22.3983)" fill="#898989"/>
<circle cx="16.8339" cy="22.3983" r="2.33735" transform="rotate(-45 16.8339 22.3983)" fill="black" fill-opacity="0.6"/>
<circle cx="22.2054" cy="24.4642" r="2.33735" transform="rotate(-45 22.2054 24.4642)" fill="#898989"/>
<circle cx="22.2054" cy="24.4642" r="2.33735" transform="rotate(-45 22.2054 24.4642)" fill="black" fill-opacity="0.6"/>
</g>
<path d="M27.0283 1.92279C25.5581 3.56235 22.4958 7.29682 22.0078 9.1182L21.3648 13.8263C23.8145 14.686 29.3216 16.4463 31.7519 16.6095C34.7897 16.8134 35.6388 18.261 40.9519 21.5148C45.2024 24.1178 46.9767 22.1124 47.3326 20.7843L48.549 18.5529C48.1245 17.8291 48.6368 15.5517 48.1751 15.428C47.7135 15.3043 43.1232 16.489 42.2013 16.852L46.0384 9.45671L43.3056 8.11442L44.0681 5.26851L39.5711 5.89369L38.755 2.01474L35.1072 4.08752L33.4089 1.19231L29.0315 3.67965L27.0283 1.92279Z" fill="#898989"/>
<path d="M27.0283 1.92279C25.5581 3.56235 22.4958 7.29682 22.0078 9.1182L21.3648 13.8263C23.8145 14.686 29.3216 16.4463 31.7519 16.6095C34.7897 16.8134 35.6388 18.261 40.9519 21.5148C45.2024 24.1178 46.9767 22.1124 47.3326 20.7843L48.549 18.5529C48.1245 17.8291 48.6368 15.5517 48.1751 15.428C47.7135 15.3043 43.1232 16.489 42.2013 16.852L46.0384 9.45671L43.3056 8.11442L44.0681 5.26851L39.5711 5.89369L38.755 2.01474L35.1072 4.08752L33.4089 1.19231L29.0315 3.67965L27.0283 1.92279Z" fill="white" fill-opacity="0.4"/>
<path d="M20.1457 11.5472C19.5407 13.8049 19.4398 15.7943 19.8566 17.3176L21.2374 19.0991L27.175 17.867L35.5418 21.5204L43.7577 25.1334C45.3819 24.1571 47.9716 22.9353 48.6821 21.3108C49.1574 20.2241 49.7076 18.2584 49.6903 17.548L44.5538 19.9022L45.6273 14.3419L40.6177 16.5285L42.735 8.62655L37.0259 11.3314L36.517 6.25466L30.455 10.2765L28.6071 5.54674L23.7596 12.0114L21.7908 7.75333C20.7506 9.28948 20.5332 10.1008 20.1457 11.5472Z" fill="#898989"/>
<path d="M20.1457 11.5472C19.5407 13.8049 19.4398 15.7943 19.8566 17.3176L21.2374 19.0991L27.175 17.867L35.5418 21.5204L43.7577 25.1334C45.3819 24.1571 47.9716 22.9353 48.6821 21.3108C49.1574 20.2241 49.7076 18.2584 49.6903 17.548L44.5538 19.9022L45.6273 14.3419L40.6177 16.5285L42.735 8.62655L37.0259 11.3314L36.517 6.25466L30.455 10.2765L28.6071 5.54674L23.7596 12.0114L21.7908 7.75333C20.7506 9.28948 20.5332 10.1008 20.1457 11.5472Z" fill="white" fill-opacity="0.6"/>
<path d="M24.0465 17.7457L19.1487 15.2682C19.432 17.286 20.7475 21.7551 21.437 22.8719C22.2989 24.268 27.7734 26.8999 31.2328 27.8269C34.6922 28.7538 39.7417 28.3592 41.0405 28.1247C42.0795 27.937 44.6693 26.2515 47.0366 24.1971L41.0837 23.812L42.0779 17.3343L37.7446 19.6685L37.9022 14.4678L33.7146 16.2584L31.7055 12.2248L28.8107 16.1095L25.3573 12.854L24.0465 17.7457Z" fill="#898989"/>
<path d="M24.0465 17.7457L19.1487 15.2682C19.432 17.286 20.7475 21.7551 21.437 22.8719C22.2989 24.268 27.7734 26.8999 31.2328 27.8269C34.6922 28.7538 39.7417 28.3592 41.0405 28.1247C42.0795 27.937 44.6693 26.2515 47.0366 24.1971L41.0837 23.812L42.0779 17.3343L37.7446 19.6685L37.9022 14.4678L33.7146 16.2584L31.7055 12.2248L28.8107 16.1095L25.3573 12.854L24.0465 17.7457Z" fill="white" fill-opacity="0.8"/>
<path d="M28.5364 34.3638C25.6885 33.6008 22.014 31.8096 20.5327 31.0094L21.8939 25.9295L19.9861 21.1837L23.8366 23.4253L26.6752 19.9513L28.1409 23.9737L32.7594 20.9766L32.8873 25.2455L38.8319 24.4185L38.0757 27.2407L43.5665 28.107L39.2506 29.9753L38.634 34.6497C36.6525 34.9253 31.3842 35.1269 28.5364 34.3638Z" fill="#FEFEFE"/>
<path d="M28.2656 34.2913C31.1079 35.0529 34.7443 34.7946 37.3005 34.3502L38.0025 29.4563C40.1203 28.3122 42.504 26.6922 43.9507 25.3859C45.5581 23.9344 49.6577 20.1838 47.9147 17.4134C47.0601 16.0552 44.8569 14.8528 42.9398 15.5157C44.3552 12.5071 44.7749 8.66689 41.7877 6.17245C39.7963 4.50949 34.8214 2.61184 29.5679 4.02751C24.3145 5.44318 21.3996 8.63657 20.3467 11.156C18.6489 15.2184 20.1301 18.3586 20.7023 20.7706C21.2746 23.1826 20.4568 23.3897 21.7526 25.8916L20.3915 30.9715C21.7579 32.3636 25.4234 33.5297 28.2656 34.2913Z" fill="#898989"/>
<path d="M28.2656 34.2913C31.1079 35.0529 34.7443 34.7946 37.3005 34.3502L38.0025 29.4563C40.1203 28.3122 42.504 26.6922 43.9507 25.3859C45.5581 23.9344 49.6577 20.1838 47.9147 17.4134C47.0601 16.0552 44.8569 14.8528 42.9398 15.5157C44.3552 12.5071 44.7749 8.66689 41.7877 6.17245C39.7963 4.50949 34.8214 2.61184 29.5679 4.02751C24.3145 5.44318 21.3996 8.63657 20.3467 11.156C18.6489 15.2184 20.1301 18.3586 20.7023 20.7706C21.2746 23.1826 20.4568 23.3897 21.7526 25.8916L20.3915 30.9715C21.7579 32.3636 25.4234 33.5297 28.2656 34.2913Z" fill="white" fill-opacity="0.95"/>
<path d="M31.5497 14.8959C34.7231 14.2205 38.1947 16.1573 38.2903 19.1218C38.3858 22.0862 38.0481 22.0956 37 23.5C35.9519 24.9044 36.8645 26.1534 35.5 27C34.0891 27.8754 29.5 27.5 27.3949 25.8816C25.2897 24.2631 25.2875 21.3701 25.6136 20.3517C26.3323 18.107 28.3763 15.5712 31.5497 14.8959Z" fill="#898989"/>
<path d="M31.5497 14.8959C34.7231 14.2205 38.1947 16.1573 38.2903 19.1218C38.3858 22.0862 38.0481 22.0956 37 23.5C35.9519 24.9044 36.8645 26.1534 35.5 27C34.0891 27.8754 29.5 27.5 27.3949 25.8816C25.2897 24.2631 25.2875 21.3701 25.6136 20.3517C26.3323 18.107 28.3763 15.5712 31.5497 14.8959Z" fill="black" fill-opacity="0.6"/>
<ellipse rx="2.33989" ry="2.33735" transform="matrix(-0.965926 -0.258819 -0.258819 0.965926 43.9888 19.7508)" fill="#898989"/>
<ellipse rx="2.33989" ry="2.33735" transform="matrix(-0.965926 -0.258819 -0.258819 0.965926 43.9888 19.7508)" fill="black" fill-opacity="0.6"/>
<ellipse rx="2.33989" ry="2.33735" transform="matrix(-0.965926 -0.258819 -0.258819 0.965926 39.7394 10.7478)" fill="#898989"/>
<ellipse rx="2.33989" ry="2.33735" transform="matrix(-0.965926 -0.258819 -0.258819 0.965926 39.7394 10.7478)" fill="black" fill-opacity="0.6"/>
<ellipse rx="2.33989" ry="2.33735" transform="matrix(-0.965926 -0.258819 -0.258819 0.965926 33.8264 7.95349)" fill="#898989"/>
<ellipse rx="2.33989" ry="2.33735" transform="matrix(-0.965926 -0.258819 -0.258819 0.965926 33.8264 7.95349)" fill="black" fill-opacity="0.6"/>
<ellipse rx="2.33989" ry="2.33735" transform="matrix(-0.965926 -0.258819 -0.258819 0.965926 27.8336 9.97748)" fill="#898989"/>
<ellipse rx="2.33989" ry="2.33735" transform="matrix(-0.965926 -0.258819 -0.258819 0.965926 27.8336 9.97748)" fill="black" fill-opacity="0.6"/>
<ellipse rx="2.33989" ry="2.33735" transform="matrix(-0.965926 -0.258819 -0.258819 0.965926 24.2123 14.4517)" fill="#898989"/>
<ellipse rx="2.33989" ry="2.33735" transform="matrix(-0.965926 -0.258819 -0.258819 0.965926 24.2123 14.4517)" fill="black" fill-opacity="0.6"/>
</svg>
