<svg width="50" height="50" viewBox="0 0 50 50" fill="none" xmlns="http://www.w3.org/2000/svg">
<mask id="mask0_1368_8310" style="mask-type:alpha" maskUnits="userSpaceOnUse" x="9" y="0" width="41" height="41">
<path d="M46.2437 0.847774C47.3381 0.565239 49 0.5 49 0.5L11 38L9.5 34.5L44.055 1.97792C44.3286 1.69538 45.161 1.1273 46.2437 0.847774Z" fill="#D0333D"/>
<path d="M46.2437 0.847774C47.3381 0.565239 49 0.5 49 0.5L11 38L9.5 34.5L44.055 1.97792C44.3286 1.69538 45.161 1.1273 46.2437 0.847774Z" fill="white" fill-opacity="0.6"/>
<path d="M15.5 40.5L12 39L49.5 1.00003C49.5 1.00003 49.3383 2.59423 49.1691 3.79713C49 5.00003 48.3382 5.74086 48.3382 5.74086L15.5 40.5Z" fill="#D0333D"/>
<path d="M15.5 40.5L12 39L49.5 1.00003C49.5 1.00003 49.3383 2.59423 49.1691 3.79713C49 5.00003 48.3382 5.74086 48.3382 5.74086L15.5 40.5Z" fill="white" fill-opacity="0.6"/>
</mask>
<g mask="url(#mask0_1368_8310)">
<ellipse rx="48.2407" ry="48.2885" transform="matrix(-0.692989 -0.720948 0.726254 -0.687427 14.5 33.9739)" fill="#546DDB"/>
<ellipse rx="48.2407" ry="48.2885" transform="matrix(-0.692989 -0.720948 0.726254 -0.687427 14.5 33.9739)" fill="white" fill-opacity="0.2"/>
<circle r="36.2925" transform="matrix(-0.692989 -0.720948 0.726254 -0.687427 16.3961 34.805)" fill="#1D8CE0"/>
<circle r="36.2925" transform="matrix(-0.692989 -0.720948 0.726254 -0.687427 16.3961 34.805)" fill="white" fill-opacity="0.2"/>
<circle r="26.9584" transform="matrix(-0.692989 -0.720948 0.726254 -0.687427 16.0856 34.2644)" fill="#2FC4A7"/>
<circle r="26.9584" transform="matrix(-0.692989 -0.720948 0.726254 -0.687427 16.0856 34.2644)" fill="white" fill-opacity="0.2"/>
<ellipse rx="17.4437" ry="17.0615" transform="matrix(-0.692989 -0.720948 0.726254 -0.687427 16.4916 34.2414)" fill="#FAA21E"/>
<ellipse rx="17.4437" ry="17.0615" transform="matrix(-0.692989 -0.720948 0.726254 -0.687427 16.4916 34.2414)" fill="white" fill-opacity="0.4"/>
<circle r="10.4324" transform="matrix(-0.692989 -0.720948 0.726254 -0.687427 13.5359 36.3385)" fill="#D0333D"/>
<circle r="10.4324" transform="matrix(-0.692989 -0.720948 0.726254 -0.687427 13.5359 36.3385)" fill="white" fill-opacity="0.4"/>
</g>
<path d="M12.2449 37.7551C13.7697 39.2809 17.063 40.6453 18.5151 41.0086C18.7874 41.0994 19.6075 41.8162 19.3319 42.6434C19.0597 43.4608 18.2429 43.4608 17.9706 43.4608L12.7551 41.3265L6.48916 46.7304L5.99021 50L3.2674 50L2.88961e-05 46.7304L2.91343e-05 44.0057L3.2674 43.4608L8.44074 37.194L6.80705 32.0171C6.71629 31.6539 6.7526 30.8728 7.6239 30.6548C8.4952 30.4368 8.89454 31.1089 8.9853 31.4722C9.4391 33.0162 10.7201 36.2293 12.2449 37.7551Z" fill="#898989"/>
<path d="M12.2449 37.7551C13.7697 39.2809 17.063 40.6453 18.5151 41.0086C18.7874 41.0994 19.6075 41.8162 19.3319 42.6434C19.0597 43.4608 18.2429 43.4608 17.9706 43.4608L12.7551 41.3265L6.48916 46.7304L5.99021 50L3.2674 50L2.88961e-05 46.7304L2.91343e-05 44.0057L3.2674 43.4608L8.44074 37.194L6.80705 32.0171C6.71629 31.6539 6.7526 30.8728 7.6239 30.6548C8.4952 30.4368 8.89454 31.1089 8.9853 31.4722C9.4391 33.0162 10.7201 36.2293 12.2449 37.7551Z" fill="white" fill-opacity="0.8"/>
</svg>
