<svg width="50" height="50" viewBox="0 0 50 50" fill="none" xmlns="http://www.w3.org/2000/svg">
<path d="M27.2618 22.5855C26.7078 22.0315 25.9271 21.0349 25.6925 20.6925L9.34796 37.037L12.8103 40.4993L29.1548 24.1548C28.7546 23.8625 27.8158 23.1394 27.2618 22.5855Z" fill="#898989"/>
<path d="M27.2618 22.5855C26.7078 22.0315 25.9271 21.0349 25.6925 20.6925L9.34796 37.037L12.8103 40.4993L29.1548 24.1548C28.7546 23.8625 27.8158 23.1394 27.2618 22.5855Z" fill="white" fill-opacity="0.8"/>
<path d="M12.8555 41.8391L8.00818 36.9918L4.34245e-07 45L-4.08692e-07 47L3 50L5 50L12.8555 41.8391Z" fill="#898989"/>
<path d="M12.8555 41.8391L8.00818 36.9918L4.34245e-07 45L-4.08692e-07 47L3 50L5 50L12.8555 41.8391Z" fill="white" fill-opacity="0.8"/>
<path fill-rule="evenodd" clip-rule="evenodd" d="M35.1074 0.383301L36.9018 9.02917L33.313 9.02917L35.1074 0.383301ZM41.5 14.0862V17.8382L49.9986 15.5L41.5 14.0862ZM28.0928 17.8382L28.256 14.0862L20.752 16.0437L28.0928 17.8382ZM32.9867 22.7321H37.1236L35.1074 30.3991L32.9867 22.7321ZM41.1432 23.3846L42.9376 21.5901L45.7108 25.9946L41.1432 23.3846ZM29.0716 7.72413L27.2772 9.51856L24.504 4.7878L29.0716 7.72413ZM29.0716 9.35543C30.2462 8.18089 31.8529 7.77851 32.3423 7.72413C32.1248 8.2679 31.846 9.51856 32.4986 10.1711C33.3142 10.9867 36.7387 11.1499 37.7175 10.1711C38.4682 9.42041 37.9794 8.20998 37.7461 7.63212L37.7175 7.561C38.4244 7.94164 40.0666 8.93129 40.9801 9.84482C41.8367 10.7015 42.4256 12.0077 42.7198 12.6602L42.7745 12.7811L42.7712 12.7805C42.2264 12.6715 41.1498 12.4562 40.4986 13.1074C39.6829 13.9231 39.6668 17.6682 40.4986 18.5C41.3169 19.3184 41.8466 19.1473 42.3995 18.9687C42.5222 18.929 42.6461 18.889 42.7745 18.8594C42.7551 18.9162 42.7358 18.9747 42.7159 19.0349C42.5057 19.6709 42.2308 20.5026 41.1432 21.5901C40.2839 22.4494 39.4471 22.9747 38.7617 23.405C38.4974 23.5709 38.2556 23.7226 38.0437 23.874C38.0437 23.7466 38.0512 23.5956 38.0593 23.4312L38.0593 23.4311C38.0928 22.7532 38.1376 21.8471 37.7175 21.427C37.065 20.7745 32.9867 20.6114 32.1711 21.427C31.5186 22.0795 31.6273 23.4389 31.8448 23.874C31.3011 23.7652 29.9199 23.2541 28.7454 22.0795C27.5708 20.905 27.0597 19.5238 26.9509 18.9801C27.3859 19.0888 28.4191 19.1432 29.0716 18.4907C29.8873 17.675 29.8873 13.7599 29.2348 13.1074C28.7127 12.5854 27.4947 12.6724 26.9509 12.7811C27.1684 12.1286 27.8971 10.53 29.0716 9.35543ZM40.8169 8.05039L42.7745 10.0079L45.0583 5.76658L40.8169 8.05039ZM33.1499 17.6752C34.0508 18.5761 35.5115 18.5761 36.4124 17.6752C37.3134 16.7742 37.3134 15.3135 36.4124 14.4126C35.5115 13.5116 34.0508 13.5116 33.1499 14.4126C32.2489 15.3135 32.2489 16.7742 33.1499 17.6752Z" fill="#546DDB"/>
<path fill-rule="evenodd" clip-rule="evenodd" d="M35.1074 0.383301L36.9018 9.02917L33.313 9.02917L35.1074 0.383301ZM41.5 14.0862V17.8382L49.9986 15.5L41.5 14.0862ZM28.0928 17.8382L28.256 14.0862L20.752 16.0437L28.0928 17.8382ZM32.9867 22.7321H37.1236L35.1074 30.3991L32.9867 22.7321ZM41.1432 23.3846L42.9376 21.5901L45.7108 25.9946L41.1432 23.3846ZM29.0716 7.72413L27.2772 9.51856L24.504 4.7878L29.0716 7.72413ZM29.0716 9.35543C30.2462 8.18089 31.8529 7.77851 32.3423 7.72413C32.1248 8.2679 31.846 9.51856 32.4986 10.1711C33.3142 10.9867 36.7387 11.1499 37.7175 10.1711C38.4682 9.42041 37.9794 8.20998 37.7461 7.63212L37.7175 7.561C38.4244 7.94164 40.0666 8.93129 40.9801 9.84482C41.8367 10.7015 42.4256 12.0077 42.7198 12.6602L42.7745 12.7811L42.7712 12.7805C42.2264 12.6715 41.1498 12.4562 40.4986 13.1074C39.6829 13.9231 39.6668 17.6682 40.4986 18.5C41.3169 19.3184 41.8466 19.1473 42.3995 18.9687C42.5222 18.929 42.6461 18.889 42.7745 18.8594C42.7551 18.9162 42.7358 18.9747 42.7159 19.0349C42.5057 19.6709 42.2308 20.5026 41.1432 21.5901C40.2839 22.4494 39.4471 22.9747 38.7617 23.405C38.4974 23.5709 38.2556 23.7226 38.0437 23.874C38.0437 23.7466 38.0512 23.5956 38.0593 23.4312L38.0593 23.4311C38.0928 22.7532 38.1376 21.8471 37.7175 21.427C37.065 20.7745 32.9867 20.6114 32.1711 21.427C31.5186 22.0795 31.6273 23.4389 31.8448 23.874C31.3011 23.7652 29.9199 23.2541 28.7454 22.0795C27.5708 20.905 27.0597 19.5238 26.9509 18.9801C27.3859 19.0888 28.4191 19.1432 29.0716 18.4907C29.8873 17.675 29.8873 13.7599 29.2348 13.1074C28.7127 12.5854 27.4947 12.6724 26.9509 12.7811C27.1684 12.1286 27.8971 10.53 29.0716 9.35543ZM40.8169 8.05039L42.7745 10.0079L45.0583 5.76658L40.8169 8.05039ZM33.1499 17.6752C34.0508 18.5761 35.5115 18.5761 36.4124 17.6752C37.3134 16.7742 37.3134 15.3135 36.4124 14.4126C35.5115 13.5116 34.0508 13.5116 33.1499 14.4126C32.2489 15.3135 32.2489 16.7742 33.1499 17.6752Z" fill="white" fill-opacity="0.4"/>
<path d="M28.0928 17.8382L28.2559 14.0862L20.752 16.0437L28.0928 17.8382Z" fill="#D0333D"/>
<path d="M28.0928 17.8382L28.2559 14.0862L20.752 16.0437L28.0928 17.8382Z" fill="white" fill-opacity="0.4"/>
<path d="M36.9018 9.02917L35.1074 0.383301L33.313 9.02917L36.9018 9.02917Z" fill="#FAA21E"/>
<path d="M36.9018 9.02917L35.1074 0.383301L33.313 9.02917L36.9018 9.02917Z" fill="white" fill-opacity="0.4"/>
<path d="M41.5 17.8383V14.0863L49.9985 15.5001L41.5 17.8383Z" fill="#2FC4A7"/>
<path d="M41.5 17.8383V14.0863L49.9985 15.5001L41.5 17.8383Z" fill="white" fill-opacity="0.2"/>
<path d="M37.1235 22.732H32.9867L35.1074 30.3991L37.1235 22.732Z" fill="#1D8CE0"/>
<path d="M37.1235 22.732H32.9867L35.1074 30.3991L37.1235 22.732Z" fill="white" fill-opacity="0.2"/>
<path d="M27.2772 9.51857L29.0716 7.72415L24.504 4.78782L27.2772 9.51857Z" fill="#546DDB"/>
<path d="M42.7745 10.0077L40.8169 8.05019L45.0583 5.76637L42.7745 10.0077Z" fill="#7445B8"/>
<path d="M42.7745 10.0077L40.8169 8.05019L45.0583 5.76637L42.7745 10.0077Z" fill="white" fill-opacity="0.2"/>
<path d="M41.1432 23.3848L42.9376 21.5903L45.7108 25.9948L41.1432 23.3848Z" fill="#FAA21E"/>
</svg>
