<svg width="50" height="50" viewBox="0 0 50 50" fill="none" xmlns="http://www.w3.org/2000/svg">
<path d="M18.3426 29.0398C18.0275 26.0112 19.1988 23.6518 19.8079 23.2153L15.1507 23.5955L11.8841 29.1324C11.9562 29.7957 13.6889 32.8488 15.4692 34.8627C17.7989 37.498 20.0993 39.4476 21.1484 40.2008L22.7231 38.9207C20.8826 36.2888 18.597 31.4839 18.3426 29.0398Z" fill="#FAA21E"/>
<path d="M18.3426 29.0398C18.0275 26.0112 19.1988 23.6518 19.8079 23.2153L15.1507 23.5955L11.8841 29.1324C11.9562 29.7957 13.6889 32.8488 15.4692 34.8627C17.7989 37.498 20.0993 39.4476 21.1484 40.2008L22.7231 38.9207C20.8826 36.2888 18.597 31.4839 18.3426 29.0398Z" fill="white" fill-opacity="0.95"/>
<ellipse cx="39" cy="21" rx="3" ry="20" fill="#FAA21E"/>
<ellipse cx="39" cy="21" rx="3" ry="20" fill="white" fill-opacity="0.95"/>
<mask id="mask0_1424_8427" style="mask-type:alpha" maskUnits="userSpaceOnUse" x="2" y="1" width="47" height="49">
<path d="M24.375 17.5001C24.375 17.5001 16.5208 17.2968 14.5 18C12.4792 18.7031 10.5 19.5001 7 24.0001C3.5 28.5001 2 37.0001 2 49.9999H13.4375C13.327 48.2635 12.5 42.2237 12.5 37C12.5 31.2813 12.2947 28.6884 14.4792 26.4705C16.6263 24.2905 20.7292 24.5098 24.375 24.5098V17.5001Z" fill="#FAA21E"/>
<path d="M24.375 17.5001C24.375 17.5001 16.5208 17.2968 14.5 18C12.4792 18.7031 10.5 19.5001 7 24.0001C3.5 28.5001 2 37.0001 2 49.9999H13.4375C13.327 48.2635 12.5 42.2237 12.5 37C12.5 31.2813 12.2947 28.6884 14.4792 26.4705C16.6263 24.2905 20.7292 24.5098 24.375 24.5098V17.5001Z" fill="white" fill-opacity="0.4"/>
<path d="M36 21C36 10.4118 38.3056 3.61438 39 1C36 1.00001 31.875 6 30 8.5C28.125 11 24.375 17.6471 24.375 17.6471V24.5098C24.375 24.5098 27.5 30.5 30 33.5C32.5 36.5 36 41 39 41C38.3056 38.8758 36 31.5882 36 21Z" fill="#FAA21E"/>
<path d="M36 21C36 10.4118 38.3056 3.61438 39 1C36 1.00001 31.875 6 30 8.5C28.125 11 24.375 17.6471 24.375 17.6471V24.5098C24.375 24.5098 27.5 30.5 30 33.5C32.5 36.5 36 41 39 41C38.3056 38.8758 36 31.5882 36 21Z" fill="white" fill-opacity="0.4"/>
<path d="M36 20H42V22.5H36V20Z" fill="#FAA21E"/>
<path d="M36 20H42V22.5H36V20Z" fill="white" fill-opacity="0.4"/>
<path d="M49 21C49 23.2091 47.2091 25 45 25C42.7909 25 41 23.2091 41 21C41 18.7909 42.7909 17 45 17C47.2091 17 49 18.7909 49 21Z" fill="#FAA21E"/>
<path d="M49 21C49 23.2091 47.2091 25 45 25C42.7909 25 41 23.2091 41 21C41 18.7909 42.7909 17 45 17C47.2091 17 49 18.7909 49 21Z" fill="white" fill-opacity="0.4"/>
</mask>
<g mask="url(#mask0_1424_8427)">
<ellipse rx="48.2407" ry="48.2885" transform="matrix(-0.692989 -0.720948 0.726254 -0.687427 35.5 18.4632)" fill="#546DDB"/>
<ellipse rx="48.2407" ry="48.2885" transform="matrix(-0.692989 -0.720948 0.726254 -0.687427 35.5 18.4632)" fill="white" fill-opacity="0.2"/>
<ellipse rx="41.4447" ry="39.9738" transform="matrix(-1 8.74228e-08 0.00768717 -0.99997 48.1375 27.9727)" fill="#1D8CE0"/>
<ellipse rx="41.4447" ry="39.9738" transform="matrix(-1 8.74228e-08 0.00768717 -0.99997 48.1375 27.9727)" fill="white" fill-opacity="0.2"/>
<circle r="26.9584" transform="matrix(-0.692989 -0.720948 0.726254 -0.687427 42.0856 20.7537)" fill="#2FC4A7"/>
<circle r="26.9584" transform="matrix(-0.692989 -0.720948 0.726254 -0.687427 42.0856 20.7537)" fill="white" fill-opacity="0.2"/>
<circle r="35.4455" transform="matrix(-0.692989 -0.720948 0.726254 -0.687427 59.7691 21.4677)" fill="#FAA21E"/>
<circle r="35.4455" transform="matrix(-0.692989 -0.720948 0.726254 -0.687427 59.7691 21.4677)" fill="white" fill-opacity="0.4"/>
<circle r="10.4324" transform="matrix(-0.692989 -0.720948 0.726254 -0.687427 46.5359 20.8278)" fill="#D0333D"/>
<circle r="10.4324" transform="matrix(-0.692989 -0.720948 0.726254 -0.687427 46.5359 20.8278)" fill="white" fill-opacity="0.4"/>
</g>
</svg>
