<svg width="50" height="50" viewBox="0 0 50 50" fill="none" xmlns="http://www.w3.org/2000/svg">
<path d="M12 15C12 15 17 17 26 17C35 17 40 15 40 15V43C40 43 35 46 26 46C17 46 12 43 12 43V15Z" fill="#898989"/>
<path d="M12 15C12 15 17 17 26 17C35 17 40 15 40 15V43C40 43 35 46 26 46C17 46 12 43 12 43V15Z" fill="white" fill-opacity="0.6"/>
<path d="M40 20H46.4C46.6667 20 47.28 20.0789 47.6 20.3947C47.92 20.7105 48 21.3158 48 21.5789V33.4211C48 33.6842 47.92 34.2895 47.6 34.6053C47.28 34.9211 46.6667 35 46.4 35H40" stroke="#898989" stroke-width="3"/>
<path d="M40 20H46.4C46.6667 20 47.28 20.0789 47.6 20.3947C47.92 20.7105 48 21.3158 48 21.5789V33.4211C48 33.6842 47.92 34.2895 47.6 34.6053C47.28 34.9211 46.6667 35 46.4 35H40" stroke="white" stroke-opacity="0.6" stroke-width="3"/>
<path d="M6 15H0L12 33V20.6842L6 15Z" fill="#898989"/>
<path d="M6 15H0L12 33V20.6842L6 15Z" fill="white" fill-opacity="0.6"/>
<path d="M12 12C12 12 17 14.7273 26 14.7273C35 14.7273 40 12 40 12V16C40 16 35 19 26 19C17 19 12 16 12 16V12Z" fill="#898989"/>
<path d="M12 12C12 12 17 14.7273 26 14.7273C35 14.7273 40 12 40 12V16C40 16 35 19 26 19C17 19 12 16 12 16V12Z" fill="white" fill-opacity="0.95"/>
<path d="M40 12C40 13 33.732 15 26 15C18.268 15 12 13 12 12C12 11 18.268 9 26 9C33.732 9 40 11 40 12Z" fill="#898989"/>
<path d="M40 12C40 13 33.732 15 26 15C18.268 15 12 13 12 12C12 11 18.268 9 26 9C33.732 9 40 11 40 12Z" fill="white" fill-opacity="0.6"/>
<circle cx="26" cy="8.5" r="3.5" fill="#898989"/>
<circle cx="26" cy="8.5" r="3.5" fill="white" fill-opacity="0.95"/>
<mask id="mask0_737_1440" style="mask-type:alpha" maskUnits="userSpaceOnUse" x="12" y="20" width="28" height="26">
<path d="M26.3133 23.0577C30.389 20.0718 36.6036 20.7512 40 21V43C40 43 35 46 26 46C17 46 12 43 12 43V34.5C12 29.2746 21.2187 26.7901 26.3133 23.0577Z" fill="#FEFEFE"/>
</mask>
<g mask="url(#mask0_737_1440)">
<circle cx="37" cy="40.3901" r="19" fill="#546DDB"/>
<circle cx="37" cy="40.3901" r="19" fill="white" fill-opacity="0.2"/>
<circle cx="38" cy="42.3901" r="17" fill="#1D8CE0"/>
<circle cx="38" cy="42.3901" r="17" fill="white" fill-opacity="0.2"/>
<ellipse cx="39" cy="42.8901" rx="14" ry="13.5" fill="#2FC4A7"/>
<ellipse cx="39" cy="42.8901" rx="14" ry="13.5" fill="white" fill-opacity="0.2"/>
<ellipse cx="39" cy="42.8901" rx="10" ry="9.5" fill="#FAA21E"/>
<ellipse cx="39" cy="42.8901" rx="10" ry="9.5" fill="white" fill-opacity="0.4"/>
<circle cx="38.5" cy="42.8901" r="5.5" fill="#D0333D"/>
<circle cx="38.5" cy="42.8901" r="5.5" fill="white" fill-opacity="0.4"/>
</g>
</svg>
