<svg width="50" height="50" viewBox="0 0 50 50" fill="none" xmlns="http://www.w3.org/2000/svg">
<path d="M23.866 14.0722L22.9587 8.17529L47 7.72168L46.0928 13.6186L23.866 14.0722Z" fill="#898989"/>
<path d="M23.866 14.0722L22.9587 8.17529L47 7.72168L46.0928 13.6186L23.866 14.0722Z" fill="white" fill-opacity="0.95"/>
<path d="M28.8557 46.2783C23.0495 46.2783 18.2715 45.371 16.6083 44.9174V42.1958C18.4227 42.4982 23.4124 43.103 28.8557 43.103C34.299 43.103 40.1959 41.8934 42.464 41.2886V44.9174C40.3471 45.371 34.6619 46.2783 28.8557 46.2783Z" fill="#898989"/>
<path d="M28.8557 46.2783C23.0495 46.2783 18.2715 45.371 16.6083 44.9174V42.1958C18.4227 42.4982 23.4124 43.103 28.8557 43.103C34.299 43.103 40.1959 41.8934 42.464 41.2886V44.9174C40.3471 45.371 34.6619 46.2783 28.8557 46.2783Z" fill="white" fill-opacity="0.95"/>
<path d="M33.3918 5L9.35052 5.45361L10.2577 11.3505L22.233 11.0784L21.598 7.0866L33.1196 6.81443L33.3918 5Z" fill="#898989"/>
<path d="M33.3918 5L9.35052 5.45361L10.2577 11.3505L22.233 11.0784L21.598 7.0866L33.1196 6.81443L33.3918 5Z" fill="white" fill-opacity="0.95"/>
<path d="M8.89691 40.1999C4.81443 39.9277 3.90722 39.6253 3 39.4741V42.1958C4.81443 42.6494 7.08803 43.0028 7.98969 43.103C12.0722 43.5566 14.4914 43.5566 15.701 43.5566V40.3813C14.3402 40.3813 11.4572 40.3706 8.89691 40.1999Z" fill="#898989"/>
<path d="M8.89691 40.1999C4.81443 39.9277 3.90722 39.6253 3 39.4741V42.1958C4.81443 42.6494 7.08803 43.0028 7.98969 43.103C12.0722 43.5566 14.4914 43.5566 15.701 43.5566V40.3813C14.3402 40.3813 11.4572 40.3706 8.89691 40.1999Z" fill="white" fill-opacity="0.95"/>
<mask id="mask0_761_2003" style="mask-type:alpha" maskUnits="userSpaceOnUse" x="3" y="11" width="23" height="30">
<path d="M5.72165 34.4848C7.16866 33.3995 10.7113 32.2168 12.9794 32.6704L10.2577 11.3508L22.233 11.0786L25.2268 34.3034C24.3196 34.4546 22.1411 34.431 19.7835 35.8456C17.5155 37.2065 16.1546 38.5673 15.701 40.3817H12.9794C9.35052 40.3817 4.81443 39.9281 3 39.4745C3 38.1137 3.90722 35.8456 5.72165 34.4848Z" fill="#FEFEFE"/>
</mask>
<g mask="url(#mask0_761_2003)">
<ellipse rx="36.5493" ry="36.5855" transform="matrix(-0.692989 -0.720948 0.726254 -0.687427 6.89863 11.5)" fill="#546DDB"/>
<ellipse rx="36.5493" ry="36.5855" transform="matrix(-0.692989 -0.720948 0.726254 -0.687427 6.89863 11.5)" fill="white" fill-opacity="0.2"/>
<circle r="27.4968" transform="matrix(-0.692989 -0.720948 0.726254 -0.687427 8.33521 12.1297)" fill="#1D8CE0"/>
<circle r="27.4968" transform="matrix(-0.692989 -0.720948 0.726254 -0.687427 8.33521 12.1297)" fill="white" fill-opacity="0.2"/>
<circle r="20.4249" transform="matrix(-0.692989 -0.720948 0.726254 -0.687427 8.09996 11.7205)" fill="#2FC4A7"/>
<circle r="20.4249" transform="matrix(-0.692989 -0.720948 0.726254 -0.687427 8.09996 11.7205)" fill="white" fill-opacity="0.2"/>
<circle r="13.2161" transform="matrix(-0.692989 -0.720948 0.726254 -0.687427 8.61779 11.504)" fill="#FAA21E"/>
<circle r="13.2161" transform="matrix(-0.692989 -0.720948 0.726254 -0.687427 8.61779 11.504)" fill="white" fill-opacity="0.4"/>
<circle r="7.90404" transform="matrix(-0.692989 -0.720948 0.726254 -0.687427 6.1682 13.292)" fill="#D0333D"/>
<circle r="7.90404" transform="matrix(-0.692989 -0.720948 0.726254 -0.687427 6.1682 13.292)" fill="white" fill-opacity="0.4"/>
</g>
<mask id="mask1_761_2003" style="mask-type:alpha" maskUnits="userSpaceOnUse" x="16" y="13" width="31" height="31">
<path d="M46.0928 13.6191L23.866 14.0727L26.5877 35.3923C25.6804 35.2411 23.1402 35.3016 20.2371 36.7532C17.334 38.2047 16.6083 40.9868 16.6083 42.1965C19.0275 42.4989 22.9588 43.1037 29.3093 43.1037C35.433 43.1037 39.8935 41.8941 42.464 41.2893L46.0928 13.6191Z" fill="#FEFEFE"/>
</mask>
<g mask="url(#mask1_761_2003)">
<ellipse rx="36.5493" ry="36.5855" transform="matrix(-0.692989 -0.720948 0.726254 -0.687427 20.8986 14.5)" fill="#546DDB"/>
<ellipse rx="36.5493" ry="36.5855" transform="matrix(-0.692989 -0.720948 0.726254 -0.687427 20.8986 14.5)" fill="white" fill-opacity="0.2"/>
<circle r="27.4968" transform="matrix(-0.692989 -0.720948 0.726254 -0.687427 22.3352 15.1297)" fill="#1D8CE0"/>
<circle r="27.4968" transform="matrix(-0.692989 -0.720948 0.726254 -0.687427 22.3352 15.1297)" fill="white" fill-opacity="0.2"/>
<circle r="20.4249" transform="matrix(-0.692989 -0.720948 0.726254 -0.687427 22.1 14.7205)" fill="#2FC4A7"/>
<circle r="20.4249" transform="matrix(-0.692989 -0.720948 0.726254 -0.687427 22.1 14.7205)" fill="white" fill-opacity="0.2"/>
<circle r="13.2161" transform="matrix(-0.692989 -0.720948 0.726254 -0.687427 22.6178 14.5035)" fill="#FAA21E"/>
<circle r="13.2161" transform="matrix(-0.692989 -0.720948 0.726254 -0.687427 22.6178 14.5035)" fill="white" fill-opacity="0.4"/>
<circle r="7.90404" transform="matrix(-0.692989 -0.720948 0.726254 -0.687427 20.1682 16.292)" fill="#D0333D"/>
<circle r="7.90404" transform="matrix(-0.692989 -0.720948 0.726254 -0.687427 20.1682 16.292)" fill="white" fill-opacity="0.4"/>
</g>
</svg>
