<svg width="50" height="50" viewBox="0 0 50 50" fill="none" xmlns="http://www.w3.org/2000/svg">
<path d="M37.9138 35.9109C39.6939 36.8312 40.4191 38.1419 41 39L41.6484 23.0396L43.5 19L41.186 14.2381L26.461 13L17 17.1188L18.9918 23.297L29.093 30.3333C30.3023 30.3333 31.0643 29.5729 33.5 31C34.7449 31.7294 35.0565 34.4276 35.1395 35.2857C35.1414 35.3047 36.1337 34.9906 37.9138 35.9109Z" fill="#898989"/>
<path d="M37.9138 35.9109C39.6939 36.8312 40.4191 38.1419 41 39L41.6484 23.0396L43.5 19L41.186 14.2381L26.461 13L17 17.1188L18.9918 23.297L29.093 30.3333C30.3023 30.3333 31.0643 29.5729 33.5 31C34.7449 31.7294 35.0565 34.4276 35.1395 35.2857C35.1414 35.3047 36.1337 34.9906 37.9138 35.9109Z" fill="black" fill-opacity="0.4"/>
<mask id="mask0_1355_8221" style="mask-type:alpha" maskUnits="userSpaceOnUse" x="6" y="0" width="38" height="50">
<path d="M7.58662 10.2411C6.12227 13.3192 5.93051 23.323 6.01768 27.9402C6.54066 27.9402 7.74352 27.9915 8.3711 28.1967C9.15558 28.4533 10.2015 29.7358 10.7245 31.2748C11.1429 32.5061 10.8988 36.063 10.7245 37.6876C12.2935 39.0556 16.5819 42.356 21.1842 44.6133C25.7864 46.8706 31.9925 49.145 34.5202 50C33.8229 46.4944 32.2714 38.7136 31.6438 35.6355C31.0162 32.5574 30.162 26.6577 29.8134 24.0926C29.1161 24.1781 26.8847 24.0926 23.5376 23.0665C19.3537 21.784 18.0463 21.271 18.3078 18.9624C18.5693 16.6538 22.2301 15.1148 25.6295 14.8582C28.349 14.653 31.6438 16.3118 32.9513 17.1668C33.1256 18.3639 33.4742 21.0658 33.4742 22.297V27.1707L36.3506 28.1967L37.6581 26.6577C37.3966 25.8881 36.8213 23.8361 36.6121 21.784C36.4029 19.7319 36.1763 17.8509 36.0891 17.1668C37.1351 16.2263 39.5408 14.4991 40.796 15.1148C42.3649 15.8843 42.8879 17.9364 42.6264 19.9884C42.4172 21.6301 40.796 23.0665 40.0115 23.5796L41.319 49.487L43.9339 45.1263C44.021 37.089 44.0908 20.1423 43.6724 16.6538C43.1494 12.2932 40.273 6.64993 36.0891 3.57182C31.9053 0.493711 27.7214 -0.788835 20.6612 0.493711C13.6009 1.77626 9.41706 6.39342 7.58662 10.2411Z" fill="#FEFEFE"/>
</mask>
<g mask="url(#mask0_1355_8221)">
<ellipse rx="42.1445" ry="42.1862" transform="matrix(-0.787058 -0.616879 0.622911 -0.782292 28.4485 9.99993)" fill="#546DDB"/>
<ellipse rx="42.1445" ry="42.1862" transform="matrix(-0.787058 -0.616879 0.622911 -0.782292 28.4485 9.99993)" fill="white" fill-opacity="0.2"/>
<ellipse rx="20.6467" ry="26.5893" transform="matrix(-0.948839 0.315761 -0.308458 -0.951238 29.8752 16.1949)" fill="#1D8CE0"/>
<ellipse rx="20.6467" ry="26.5893" transform="matrix(-0.948839 0.315761 -0.308458 -0.951238 29.8752 16.1949)" fill="white" fill-opacity="0.2"/>
<ellipse rx="16.182" ry="21.1932" transform="matrix(-0.968105 0.250546 -0.243096 -0.970002 30.9732 13.0472)" fill="#2FC4A7"/>
<ellipse rx="16.182" ry="21.1932" transform="matrix(-0.968105 0.250546 -0.243096 -0.970002 30.9732 13.0472)" fill="white" fill-opacity="0.2"/>
<path d="M29.9596 -6.83985C23.9798 -6.06091 20.1374 2.77868 21.3773 12.9039C22.6171 23.0292 26.5 19 36.5 30.4999C39.5 22 44.2717 20.2084 43.0319 10.0831C41.792 -0.0421045 35.9393 -7.61879 29.9596 -6.83985Z" fill="#FAA21E"/>
<path d="M29.9596 -6.83985C23.9798 -6.06091 20.1374 2.77868 21.3773 12.9039C22.6171 23.0292 26.5 19 36.5 30.4999C39.5 22 44.2717 20.2084 43.0319 10.0831C41.792 -0.0421045 35.9393 -7.61879 29.9596 -6.83985Z" fill="white" fill-opacity="0.4"/>
<path d="M36.5685 12.8243C33.6617 14.0958 30.4011 12.5116 28.7667 8.85212C27.1324 5.19262 28.7764 0.798119 31.0565 -0.503841C33.9633 -1.77534 37.3524 0.436774 38.8726 3.8959C40.5069 7.5554 39.4753 11.5528 36.5685 12.8243Z" fill="#D0333D"/>
<path d="M36.5685 12.8243C33.6617 14.0958 30.4011 12.5116 28.7667 8.85212C27.1324 5.19262 28.7764 0.798119 31.0565 -0.503841C33.9633 -1.77534 37.3524 0.436774 38.8726 3.8959C40.5069 7.5554 39.4753 11.5528 36.5685 12.8243Z" fill="white" fill-opacity="0.4"/>
</g>
</svg>
