<svg width="50" height="50" viewBox="0 0 50 50" fill="none" xmlns="http://www.w3.org/2000/svg">
<path d="M37 14.8182V18.4545C37.619 17.697 39.1357 15.7273 42.1071 15.7273C45.8214 15.7273 47.2143 19.8182 47.2143 23C47.2143 26.1818 45.3571 30.2727 42.1071 30.2727C39.5071 30.2727 37.4643 28 37 27.5455V31.1818C37.4643 31.1818 38.3929 33 42.1071 33C46.75 33 50 28.9091 50 23C50 17.0909 46.75 13 42.1071 13C38.8571 13 37.4643 14.8182 37 14.8182Z" fill="#898989"/>
<path d="M37 14.8182V18.4545C37.619 17.697 39.1357 15.7273 42.1071 15.7273C45.8214 15.7273 47.2143 19.8182 47.2143 23C47.2143 26.1818 45.3571 30.2727 42.1071 30.2727C39.5071 30.2727 37.4643 28 37 27.5455V31.1818C37.4643 31.1818 38.3929 33 42.1071 33C46.75 33 50 28.9091 50 23C50 17.0909 46.75 13 42.1071 13C38.8571 13 37.4643 14.8182 37 14.8182Z" fill="white" fill-opacity="0.95"/>
<path d="M5 7H38V43.5C38 43.5 35 48.5 21.5 48.5C8.00003 48.5 5 43.5 5 43.5V7Z" fill="#898989"/>
<path d="M5 7H38V43.5C38 43.5 35 48.5 21.5 48.5C8.00003 48.5 5 43.5 5 43.5V7Z" fill="white" fill-opacity="0.85"/>
<ellipse cx="21.5" cy="6.5" rx="16.5" ry="4.5" fill="#FEFEFE"/>
<ellipse cx="21.5" cy="6.5" rx="14.5" ry="3.5" fill="#898989"/>
<ellipse cx="21.5" cy="6.5" rx="14.5" ry="3.5" fill="white" fill-opacity="0.4"/>
<path d="M33 8.5C33 8 27.8513 7 21.5 7C15.1487 7 10 8 10 8.5C10 9 15.1487 10 21.5 10C27.8513 10 33 9 33 8.5Z" fill="#FAA21E"/>
<path d="M33 8.5C33 8 27.8513 7 21.5 7C15.1487 7 10 8 10 8.5C10 9 15.1487 10 21.5 10C27.8513 10 33 9 33 8.5Z" fill="black" fill-opacity="0.6"/>
<path d="M13.3348 17.1175C19.204 13.0431 20.7235 20.7563 20.7496 25.1221C24.2657 21.8226 31.6597 17.3044 33.1068 25.6282C34.554 33.9519 21.8094 37.267 15.2563 37.8841C12.1703 32.6595 7.46554 21.1918 13.3348 17.1175Z" fill="#CE4317"/>
<path d="M13.3348 17.1175C19.204 13.0431 20.7235 20.7563 20.7496 25.1221C24.2657 21.8226 31.6597 17.3044 33.1068 25.6282C34.554 33.9519 21.8094 37.267 15.2563 37.8841C12.1703 32.6595 7.46554 21.1918 13.3348 17.1175Z" fill="white" fill-opacity="0.15"/>
<path d="M16.4417 20.5406C17.1836 19.9149 18.324 19.4607 17.2982 18.5466C16.2724 17.6326 14.9646 18.4872 14.2224 19.1128C13.2838 19.904 12.3956 21.1618 13.4201 22.0752C14.7857 23.293 15.6998 21.1664 16.4417 20.5406Z" fill="#FEFEFE"/>
<path d="M14.7273 24.3807C14.2965 23.9435 13.4316 23.5032 12.9944 23.934C12.5566 24.3649 12.202 25.3174 12.5469 25.6669C12.9783 26.1041 13.661 26.7224 14.2798 26.1137C14.7178 25.6829 15.032 24.6899 14.7273 24.3807Z" fill="#FEFEFE"/>
</svg>
