<svg width="50" height="52" viewBox="0 0 50 52" fill="none" xmlns="http://www.w3.org/2000/svg">
<path d="M45 39.5C45 41.7685 42.9413 44.1463 38.8482 46.0149C34.8438 47.843 29.2416 49 23 49C16.7584 49 11.1562 47.843 7.15184 46.0149C3.05874 44.1463 1 41.7685 1 39.5C1 37.2315 3.05874 34.8537 7.15184 32.9851C11.1562 31.157 16.7584 30 23 30C29.2416 30 34.8438 31.157 38.8482 32.9851C42.9413 34.8537 45 37.2315 45 39.5Z" fill="#FAA21E"/>
<path d="M45 39.5C45 41.7685 42.9413 44.1463 38.8482 46.0149C34.8438 47.843 29.2416 49 23 49C16.7584 49 11.1562 47.843 7.15184 46.0149C3.05874 44.1463 1 41.7685 1 39.5C1 37.2315 3.05874 34.8537 7.15184 32.9851C11.1562 31.157 16.7584 30 23 30C29.2416 30 34.8438 31.157 38.8482 32.9851C42.9413 34.8537 45 37.2315 45 39.5Z" fill="white" fill-opacity="0.95"/>
<path d="M45 39.5C45 41.7685 42.9413 44.1463 38.8482 46.0149C34.8438 47.843 29.2416 49 23 49C16.7584 49 11.1562 47.843 7.15184 46.0149C3.05874 44.1463 1 41.7685 1 39.5C1 37.2315 3.05874 34.8537 7.15184 32.9851C11.1562 31.157 16.7584 30 23 30C29.2416 30 34.8438 31.157 38.8482 32.9851C42.9413 34.8537 45 37.2315 45 39.5Z" stroke="#FAA21E" stroke-width="2"/>
<ellipse cx="23" cy="39.5" rx="17" ry="6.5" fill="#898989"/>
<ellipse cx="23" cy="39.5" rx="17" ry="6.5" fill="white" fill-opacity="0.8"/>
<path d="M23 44.5C17.5313 44.5 14 42.5 13.5 41.5C13 40.5 13 36.9304 13 36.9304H33C33 39.0638 33.124 40.4959 32.5 41.5C31.5057 43.1 27.9715 44.5 23 44.5Z" fill="#FAA21E"/>
<path d="M40.3836 22.2136C39.5714 22.1775 38.3919 21.2478 38.876 19.515C39.36 17.7823 41.4491 16.5595 43.8859 16.6679C46.3227 16.7763 47.4827 18.1436 48.6621 19.0733C48.6232 19.9487 48.8735 23.4685 46.7065 26.4421C44.5395 29.4158 42.1388 30.5912 39.5686 31.3875C37.918 31.8988 37.46 33.048 37.421 33.9234C37.3821 34.7988 38.1554 35.7104 38.9677 35.7465" stroke="#FAA21E" stroke-width="2.5" stroke-linecap="round"/>
<path d="M42 11.0909H4C5.63012 14.8946 6.71687 15.4379 7.80362 19.7849C8.347 21.9584 7.80362 28.8709 8.89037 32.6745C10.2666 37.4914 13.0913 40.0112 15.9542 41.3685C18.8052 42.7201 26.7013 42.7201 30.082 41.3685C33.024 40.1923 35.8121 37.5649 37.1459 32.6745C38.6857 27.0284 37.5844 23.026 38.2326 19.7849C38.776 17.0681 39.8265 15.4379 42 11.0909Z" fill="#898989"/>
<path d="M42 11.0909H4C5.63012 14.8946 6.71687 15.4379 7.80362 19.7849C8.347 21.9584 7.80362 28.8709 8.89037 32.6745C10.2666 37.4914 13.0913 40.0112 15.9542 41.3685C18.8052 42.7201 26.7013 42.7201 30.082 41.3685C33.024 40.1923 35.8121 37.5649 37.1459 32.6745C38.6857 27.0284 37.5844 23.026 38.2326 19.7849C38.776 17.0681 39.8265 15.4379 42 11.0909Z" fill="white" fill-opacity="0.95"/>
<path d="M42 10.8857C42 13.584 33.7218 15.8607 23.2284 15.8607C12.735 15.8607 4 13.584 4 10.8857C4 8.18741 12.735 6 23.2284 6C33.7218 6 42 8.18741 42 10.8857Z" fill="#898989"/>
<path d="M42 10.8857C42 13.584 33.7218 15.8607 23.2284 15.8607C12.735 15.8607 4 13.584 4 10.8857C4 8.18741 12.735 6 23.2284 6C33.7218 6 42 8.18741 42 10.8857Z" fill="white" fill-opacity="0.6"/>
<path d="M42 10.8857C42 13.584 33.7218 15.8607 23.2284 15.8607C12.735 15.8607 4 13.584 4 10.8857C4 8.18741 12.735 6 23.2284 6C33.7218 6 42 8.18741 42 10.8857Z" stroke="#FAA21E" stroke-width="1.2"/>
<path d="M37 13.4304C37 13.0805 29.3513 11.9305 23 11.9305C16.6487 11.9305 9 13.0805 9 13.4304C9 13.7804 15 15.2305 23 15.2305C32 15.2305 37 13.7804 37 13.4304Z" fill="#FAA21E"/>
<path d="M37 13.4304C37 13.0805 29.3513 11.9305 23 11.9305C16.6487 11.9305 9 13.0805 9 13.4304C9 13.7804 15 15.2305 23 15.2305C32 15.2305 37 13.7804 37 13.4304Z" fill="white" fill-opacity="0.4"/>
<path d="M26.1625 19.4875C26.1625 18.7029 24.15 18.5001 23 18.5001C21.85 18.5001 19.8375 18.7205 19.8375 19.4875C19.8375 19.9106 20.2688 20.0517 20.4125 20.1927C20.4604 20.6629 20.47 21.8289 20.125 22.7316C19.6938 23.86 18.7475 24.2078 18.1125 24.7063C17.3938 25.2705 17.25 26.3989 17.25 26.9631L17.25 35.9902C17.3938 36.4133 18.488 37.2414 19.8375 37.6828C21.1313 38.1059 24.4375 38.1059 25.875 37.6828C27.1812 37.2983 28.75 36.4133 28.75 35.9902L28.75 26.9631C28.75 26.3518 28.75 25.214 27.8875 24.7063C27.025 24.1985 26.3063 23.5779 25.875 22.7316C25.53 22.0546 25.5396 20.8039 25.5875 20.1927C25.875 20.0517 26.1625 19.8401 26.1625 19.4875Z" fill="white"/>
<path d="M26.1625 19.4875C26.1625 18.7029 24.15 18.5001 23 18.5001C21.85 18.5001 19.8375 18.7205 19.8375 19.4875C19.8375 19.9106 20.2688 20.0517 20.4125 20.1927C20.4604 20.6629 20.47 21.8289 20.125 22.7316C19.6938 23.86 18.7475 24.2078 18.1125 24.7063C17.3938 25.2705 17.25 26.3989 17.25 26.9631L17.25 35.9902C17.3938 36.4133 18.488 37.2414 19.8375 37.6828C21.1313 38.1059 24.4375 38.1059 25.875 37.6828C27.1812 37.2983 28.75 36.4133 28.75 35.9902L28.75 26.9631C28.75 26.3518 28.75 25.214 27.8875 24.7063C27.025 24.1985 26.3063 23.5779 25.875 22.7316C25.53 22.0546 25.5396 20.8039 25.5875 20.1927C25.875 20.0517 26.1625 19.8401 26.1625 19.4875Z" stroke="#898989" stroke-width="0.5"/>
<path d="M26.1625 19.4875C26.1625 18.7029 24.15 18.5001 23 18.5001C21.85 18.5001 19.8375 18.7205 19.8375 19.4875C19.8375 19.9106 20.2688 20.0517 20.4125 20.1927C20.4604 20.6629 20.47 21.8289 20.125 22.7316C19.6938 23.86 18.7475 24.2078 18.1125 24.7063C17.3938 25.2705 17.25 26.3989 17.25 26.9631L17.25 35.9902C17.3938 36.4133 18.488 37.2414 19.8375 37.6828C21.1313 38.1059 24.4375 38.1059 25.875 37.6828C27.1812 37.2983 28.75 36.4133 28.75 35.9902L28.75 26.9631C28.75 26.3518 28.75 25.214 27.8875 24.7063C27.025 24.1985 26.3063 23.5779 25.875 22.7316C25.53 22.0546 25.5396 20.8039 25.5875 20.1927C25.875 20.0517 26.1625 19.8401 26.1625 19.4875Z" stroke="white" stroke-opacity="0.2" stroke-width="0.5"/>
<path d="M26.6712 28.405C26.2105 28.6868 25.8164 28.2484 25.2244 28.391C24.6323 28.5337 24.4348 28.7281 24.2371 29.0843C24.0304 29.4568 24.0385 30.1697 24.4327 30.5083C24.9911 30.988 25.7092 31.4748 26.8272 31.5111C28.1078 31.5526 28.3441 30.8248 28.75 30.5083L28.75 28.75C28.6735 28.5497 28.6772 28.1997 28.4145 27.9011C28.0861 27.5278 27.5273 27.4107 27.2311 27.6319C26.8934 27.8841 27.0235 28.1895 26.6712 28.405Z" fill="#898989"/>
<path d="M26.6712 28.405C26.2105 28.6868 25.8164 28.2484 25.2244 28.391C24.6323 28.5337 24.4348 28.7281 24.2371 29.0843C24.0304 29.4568 24.0385 30.1697 24.4327 30.5083C24.9911 30.988 25.7092 31.4748 26.8272 31.5111C28.1078 31.5526 28.3441 30.8248 28.75 30.5083L28.75 28.75C28.6735 28.5497 28.6772 28.1997 28.4145 27.9011C28.0861 27.5278 27.5273 27.4107 27.2311 27.6319C26.8934 27.8841 27.0235 28.1895 26.6712 28.405Z" fill="white" fill-opacity="0.2"/>
<path d="M19.7 23.5001C19.2816 23.9861 18.6984 24.2342 18.45 24.5001C18.7525 24.942 19.0827 24.9748 19.5981 24.9616C20.4226 24.9405 19.9603 25.4285 21.1258 26.019C22.2914 26.6095 23.2796 26.0156 23.5207 25.3612C23.7627 24.7068 23.0599 24.2946 22.7773 24.1648C22.4947 24.0351 22.7788 23.68 22.7316 23.2408C22.6835 22.8012 22.6004 22.3109 22 22C21.5991 21.7926 20.7871 21.8129 20.3 22.0001C20.1464 22.599 20.0733 23.0666 19.7 23.5001Z" fill="#898989"/>
<path d="M19.7 23.5001C19.2816 23.9861 18.6984 24.2342 18.45 24.5001C18.7525 24.942 19.0827 24.9748 19.5981 24.9616C20.4226 24.9405 19.9603 25.4285 21.1258 26.019C22.2914 26.6095 23.2796 26.0156 23.5207 25.3612C23.7627 24.7068 23.0599 24.2946 22.7773 24.1648C22.4947 24.0351 22.7788 23.68 22.7316 23.2408C22.6835 22.8012 22.6004 22.3109 22 22C21.5991 21.7926 20.7871 21.8129 20.3 22.0001C20.1464 22.599 20.0733 23.0666 19.7 23.5001Z" fill="white" fill-opacity="0.2"/>
<path d="M19 30.75C18.2032 30.6102 17.2507 31.146 17.25 31.75L17.25 36.0001C17.25 36.0001 17.6433 36.5957 18.25 37.0001C19.75 38 21.2776 38.0007 22 38C22 37.5 21.2121 37.4318 21.2303 37.0894C21.2484 36.7469 22.0613 36.8902 22.7131 36.4445C23.0899 36.1868 23.4763 35.2076 22.6205 34.6136C21.6962 33.972 20.5602 34.4926 20.4248 34.0388C20.2894 33.585 20.7849 33.4986 20.8129 32.766C20.8481 31.8423 20.4248 31 19 30.75Z" fill="#898989"/>
<path d="M19 30.75C18.2032 30.6102 17.2507 31.146 17.25 31.75L17.25 36.0001C17.25 36.0001 17.6433 36.5957 18.25 37.0001C19.75 38 21.2776 38.0007 22 38C22 37.5 21.2121 37.4318 21.2303 37.0894C21.2484 36.7469 22.0613 36.8902 22.7131 36.4445C23.0899 36.1868 23.4763 35.2076 22.6205 34.6136C21.6962 33.972 20.5602 34.4926 20.4248 34.0388C20.2894 33.585 20.7849 33.4986 20.8129 32.766C20.8481 31.8423 20.4248 31 19 30.75Z" fill="white" fill-opacity="0.2"/>
<ellipse cx="23.0238" cy="19.3867" rx="2.52321" ry="0.639212" transform="matrix(0.999999 -0.000999037 0.00100097 1 -0.019394 0.0230114)" fill="#898989"/>
<ellipse cx="23.0238" cy="19.3867" rx="2.52321" ry="0.639212" transform="matrix(0.999999 -0.000999037 0.00100097 1 -0.019394 0.0230114)" fill="white" fill-opacity="0.6"/>
</svg>
