<svg width="50" height="52" viewBox="0 0 50 52" fill="none" xmlns="http://www.w3.org/2000/svg">
<path d="M45 39.5C45 41.7685 42.9413 44.1463 38.8482 46.0149C34.8438 47.843 29.2416 49 23 49C16.7584 49 11.1562 47.843 7.15184 46.0149C3.05874 44.1463 1 41.7685 1 39.5C1 37.2315 3.05874 34.8537 7.15184 32.9851C11.1562 31.157 16.7584 30 23 30C29.2416 30 34.8438 31.157 38.8482 32.9851C42.9413 34.8537 45 37.2315 45 39.5Z" fill="#FAA21E"/>
<path d="M45 39.5C45 41.7685 42.9413 44.1463 38.8482 46.0149C34.8438 47.843 29.2416 49 23 49C16.7584 49 11.1562 47.843 7.15184 46.0149C3.05874 44.1463 1 41.7685 1 39.5C1 37.2315 3.05874 34.8537 7.15184 32.9851C11.1562 31.157 16.7584 30 23 30C29.2416 30 34.8438 31.157 38.8482 32.9851C42.9413 34.8537 45 37.2315 45 39.5Z" fill="white" fill-opacity="0.95"/>
<path d="M45 39.5C45 41.7685 42.9413 44.1463 38.8482 46.0149C34.8438 47.843 29.2416 49 23 49C16.7584 49 11.1562 47.843 7.15184 46.0149C3.05874 44.1463 1 41.7685 1 39.5C1 37.2315 3.05874 34.8537 7.15184 32.9851C11.1562 31.157 16.7584 30 23 30C29.2416 30 34.8438 31.157 38.8482 32.9851C42.9413 34.8537 45 37.2315 45 39.5Z" stroke="#FAA21E" stroke-width="2"/>
<ellipse cx="23" cy="39.5" rx="17" ry="6.5" fill="#898989"/>
<ellipse cx="23" cy="39.5" rx="17" ry="6.5" fill="white" fill-opacity="0.8"/>
<path d="M23 44.5C17.5313 44.5 14 42.5 13.5 41.5C13 40.5 13 36.9304 13 36.9304H33C33 39.0638 33.124 40.4959 32.5 41.5C31.5057 43.1 27.9715 44.5 23 44.5Z" fill="#FAA21E"/>
<path d="M40.3836 22.2136C39.5714 22.1775 38.3919 21.2478 38.876 19.515C39.36 17.7823 41.4491 16.5595 43.8859 16.6679C46.3227 16.7763 47.4827 18.1436 48.6621 19.0733C48.6232 19.9487 48.8735 23.4685 46.7065 26.4421C44.5395 29.4158 42.1388 30.5912 39.5686 31.3875C37.918 31.8988 37.46 33.048 37.421 33.9234C37.3821 34.7988 38.1554 35.7104 38.9677 35.7465" stroke="#FAA21E" stroke-width="2.5" stroke-linecap="round"/>
<path d="M42 11.0909H4C5.63012 14.8946 6.71687 15.4379 7.80362 19.7849C8.347 21.9584 7.80362 28.8709 8.89037 32.6745C10.2666 37.4914 13.0913 40.0112 15.9542 41.3685C18.8052 42.7201 26.7013 42.7201 30.082 41.3685C33.024 40.1923 35.8121 37.5649 37.1459 32.6745C38.6857 27.0284 37.5844 23.026 38.2326 19.7849C38.776 17.0681 39.8265 15.4379 42 11.0909Z" fill="#898989"/>
<path d="M42 11.0909H4C5.63012 14.8946 6.71687 15.4379 7.80362 19.7849C8.347 21.9584 7.80362 28.8709 8.89037 32.6745C10.2666 37.4914 13.0913 40.0112 15.9542 41.3685C18.8052 42.7201 26.7013 42.7201 30.082 41.3685C33.024 40.1923 35.8121 37.5649 37.1459 32.6745C38.6857 27.0284 37.5844 23.026 38.2326 19.7849C38.776 17.0681 39.8265 15.4379 42 11.0909Z" fill="white" fill-opacity="0.95"/>
<path d="M42 10.8857C42 13.584 33.7218 15.8607 23.2284 15.8607C12.735 15.8607 4 13.584 4 10.8857C4 8.18741 12.735 6 23.2284 6C33.7218 6 42 8.18741 42 10.8857Z" fill="#898989"/>
<path d="M42 10.8857C42 13.584 33.7218 15.8607 23.2284 15.8607C12.735 15.8607 4 13.584 4 10.8857C4 8.18741 12.735 6 23.2284 6C33.7218 6 42 8.18741 42 10.8857Z" fill="white" fill-opacity="0.6"/>
<path d="M42 10.8857C42 13.584 33.7218 15.8607 23.2284 15.8607C12.735 15.8607 4 13.584 4 10.8857C4 8.18741 12.735 6 23.2284 6C33.7218 6 42 8.18741 42 10.8857Z" stroke="#FAA21E" stroke-width="1.5"/>
<path d="M37 13.4304C37 13.0805 29.3513 11.9305 23 11.9305C16.6487 11.9305 9 13.0805 9 13.4304C9 13.7804 15 15.2305 23 15.2305C32 15.2305 37 13.7804 37 13.4304Z" fill="#FAA21E"/>
<path d="M37 13.4304C37 13.0805 29.3513 11.9305 23 11.9305C16.6487 11.9305 9 13.0805 9 13.4304C9 13.7804 15 15.2305 23 15.2305C32 15.2305 37 13.7804 37 13.4304Z" fill="white" fill-opacity="0.4"/>
<path d="M22.0886 27.0001L16.9926 36.3169" stroke="#FAA21E" stroke-width="3" stroke-linecap="round"/>
<path d="M22.0886 27.0001L16.9926 36.3169" stroke="white" stroke-opacity="0.2" stroke-width="3" stroke-linecap="round"/>
<path d="M28.1482 30.1176L30.1906 26.4218C30.7264 25.4522 30.372 24.2317 29.4001 23.7L20.8151 19.0026C19.8543 18.4769 18.6493 18.8218 18.1121 19.7763L15.9788 23.5673C15.4275 24.5469 15.7916 25.7882 16.7846 26.315L25.4605 30.9171C26.4245 31.4284 27.6204 31.0727 28.1482 30.1176Z" fill="#FAA21E"/>
<path d="M28.1482 30.1176L30.1906 26.4218C30.7264 25.4522 30.372 24.2317 29.4001 23.7L20.8151 19.0026C19.8543 18.4769 18.6493 18.8218 18.1121 19.7763L15.9788 23.5673C15.4275 24.5469 15.7916 25.7882 16.7846 26.315L25.4605 30.9171C26.4245 31.4284 27.6204 31.0727 28.1482 30.1176Z" fill="white" fill-opacity="0.2"/>
<mask id="mask0_1880_9349" style="mask-type:alpha" maskUnits="userSpaceOnUse" x="14" y="18" width="18" height="14">
<path d="M27.1973 31.8383L31.162 24.664L19.0814 18.054L14.9733 25.3542L27.1973 31.8383Z" fill="#FAA21E"/>
<path d="M27.1973 31.8383L31.162 24.664L19.0814 18.054L14.9733 25.3542L27.1973 31.8383Z" fill="white" fill-opacity="0.2"/>
</mask>
<g mask="url(#mask0_1880_9349)">
<circle cx="17.2319" cy="21.9569" r="1.2046" transform="rotate(65.1786 17.2319 21.9569)" fill="#FAA21E"/>
<circle cx="17.2319" cy="21.9569" r="1.2046" transform="rotate(65.1786 17.2319 21.9569)" fill="white" fill-opacity="0.8"/>
<circle cx="27.0989" cy="22.5989" r="1.2046" transform="rotate(65.1786 27.0989 22.5989)" fill="#FAA21E"/>
<circle cx="27.0989" cy="22.5989" r="1.2046" transform="rotate(65.1786 27.0989 22.5989)" fill="white" fill-opacity="0.8"/>
<circle cx="21.9703" cy="21.97" r="1.48421" transform="rotate(65.1786 21.9703 21.97)" fill="#FAA21E"/>
<circle cx="21.9703" cy="21.97" r="1.48421" transform="rotate(65.1786 21.9703 21.97)" fill="white" fill-opacity="0.8"/>
<circle cx="24.0663" cy="26.0659" r="0.803067" transform="rotate(65.1786 24.0663 26.0659)" fill="#FAA21E"/>
<circle cx="24.0663" cy="26.0659" r="0.803067" transform="rotate(65.1786 24.0663 26.0659)" fill="white" fill-opacity="0.8"/>
<circle cx="18.9156" cy="25.4152" r="0.68953" transform="rotate(65.1786 18.9156 25.4152)" fill="#FAA21E"/>
<circle cx="18.9156" cy="25.4152" r="0.68953" transform="rotate(65.1786 18.9156 25.4152)" fill="white" fill-opacity="0.8"/>
<ellipse cx="25.7346" cy="29.2343" rx="1.00791" ry="1.00791" transform="rotate(75 25.7346 29.2343)" fill="#FAA21E"/>
<ellipse cx="25.7346" cy="29.2343" rx="1.00791" ry="1.00791" transform="rotate(75 25.7346 29.2343)" fill="white" fill-opacity="0.8"/>
<circle cx="28.0327" cy="26.5329" r="0.401533" transform="rotate(65.1786 28.0327 26.5329)" fill="#FAA21E"/>
<circle cx="28.0327" cy="26.5329" r="0.401533" transform="rotate(65.1786 28.0327 26.5329)" fill="white" fill-opacity="0.8"/>
</g>
</svg>
