<svg width="50" height="52" viewBox="0 0 50 52" fill="none" xmlns="http://www.w3.org/2000/svg">
<ellipse cx="21.5" cy="44.5" rx="21.5" ry="7.5" fill="#FAA21E"/>
<path d="M37 14.8182V18.4545C37.619 17.697 39.1357 15.7273 42.1071 15.7273C45.8214 15.7273 47.2143 19.8182 47.2143 23C47.2143 26.1818 45.3571 30.2727 42.1071 30.2727C39.5071 30.2727 37.4643 28 37 27.5455V31.1818C37.4643 31.1818 38.3929 33 42.1071 33C46.75 33 50 28.9091 50 23C50 17.0909 46.75 13 42.1071 13C38.8571 13 37.4643 14.8182 37 14.8182Z" fill="#FAA21E"/>
<path d="M5 7H38V43.5C38 43.5 35 48.5 21.5 48.5C8.00003 48.5 5 43.5 5 43.5V7Z" fill="#FAA21E"/>
<path d="M5 7H38V43.5C38 43.5 35 48.5 21.5 48.5C8.00003 48.5 5 43.5 5 43.5V7Z" fill="white" fill-opacity="0.95"/>
<ellipse cx="21.5" cy="6.5" rx="16.5" ry="4.5" fill="#FAA21E"/>
<ellipse cx="21.5" cy="6.5" rx="14.5" ry="3.5" fill="#898989"/>
<ellipse cx="21.5" cy="6.5" rx="14.5" ry="3.5" fill="white" fill-opacity="0.4"/>
<path d="M33 8.5C33 8 27.8513 7 21.5 7C15.1487 7 10 8 10 8.5C10 9 15.1487 10 21.5 10C27.8513 10 33 9 33 8.5Z" fill="#FAA21E"/>
<path d="M33 8.5C33 8 27.8513 7 21.5 7C15.1487 7 10 8 10 8.5C10 9 15.1487 10 21.5 10C27.8513 10 33 9 33 8.5Z" fill="black" fill-opacity="0.6"/>
<path fill-rule="evenodd" clip-rule="evenodd" d="M13.05 25.4C13.05 23.45 13.5214 21.0286 14.35 20.2C15 19.55 16.2473 18.9 17.275 18.9C18.25 18.9 20.525 19.55 21.175 20.2C21.825 20.85 21.5 21.825 20.525 22.15C20.1036 22.2905 19.6215 22.2488 19.1573 22.2087C18.5477 22.156 17.9691 22.1059 17.6 22.475C17.0862 22.9889 17.0862 24.2361 17.6 24.75C18.1118 25.2618 18.4222 25.5721 19.1656 25.9982C19.1758 26.0105 19.1867 26.0224 19.1983 26.0339C19.2724 26.1073 19.3817 26.1937 19.4757 26.268L19.4757 26.268L19.4836 26.2742L19.4996 26.2869C19.602 26.3678 19.7119 26.4546 19.8226 26.5495C20.0681 26.7596 20.257 26.9595 20.3401 27.127C20.4569 27.3624 20.5118 27.6258 20.5378 27.9133C20.5508 28.0568 20.5562 28.2009 20.5601 28.3486L20.5624 28.4431C20.5651 28.5582 20.568 28.6784 20.5742 28.7901C20.5896 29.0658 20.8256 29.2768 21.1013 29.2614C21.377 29.246 21.5881 29.0101 21.5727 28.7343C21.5674 28.6402 21.5651 28.5417 21.5624 28.4298L21.5597 28.3224C21.5557 28.1696 21.5497 27.9996 21.5338 27.8232C21.5021 27.4724 21.4295 27.0749 21.2384 26.6875C23.2431 26.9245 26.5058 26.7971 27.35 26.375C28.0001 26.05 28.65 25.075 28.91 24.1C29.0727 23.4902 28.669 23.48 28.325 23.775C28.1816 23.9185 28.0761 24.1507 27.9582 24.41C27.8092 24.7381 27.6405 25.1096 27.35 25.4C26.7324 26.0177 21.851 26.1177 20.1198 25.5025L20.1037 25.4897C19.989 25.399 19.9289 25.3501 19.902 25.3234C19.7819 25.2044 19.6165 25.1588 19.4618 25.1865C18.3775 24.6041 17.6356 23.9935 17.925 23.125C18.0328 22.8019 18.4349 22.8803 18.9719 22.985C19.5151 23.091 20.1963 23.2238 20.85 22.995C22.1148 22.5523 22.8 20.8501 22.15 19.875C21.5 18.9 18.25 17.925 17.275 17.925C16.5913 17.925 15.9608 18.1914 15.4957 18.3879C15.2976 18.4716 15.1295 18.5426 15 18.575C15.325 17.7083 16.56 15.65 17.6 15.65C18.9 15.65 21.175 15.975 22.8 16.625C24.425 17.275 28 18.9 29.3 20.2C30.4109 21.3109 30.3352 23.8456 30.2897 25.3708C30.2819 25.6305 30.275 25.8609 30.275 26.05C30.275 26.9424 29.5093 28.6005 28.924 29.8679C28.6567 30.4468 28.427 30.9443 28.325 31.25C28.252 31.4691 28.1625 31.7211 28.0641 31.9985C27.7243 32.9554 27.277 34.2152 27.025 35.475C26.8611 36.2945 26.8178 37.5016 26.781 38.5261C26.7594 39.1268 26.7401 39.6647 26.7 40.025C26.5608 40.0715 26.4148 40.1245 26.2585 40.1814C25.3205 40.5225 24.0072 41 21.5 41C18.9929 41 17.5205 40.6817 16.4687 40.4543C16.2934 40.4164 16.1298 40.381 15.975 40.35C16.4084 39.05 17.275 36.125 17.275 34.825C17.275 33.525 17.0584 32.55 16.95 32.225C16.5167 31.6834 15.455 30.275 14.675 28.975C14.5141 28.7067 14.3503 28.4523 14.1918 28.2059C13.5823 27.2587 13.05 26.4317 13.05 25.4Z" fill="#FAA21E"/>
<path fill-rule="evenodd" clip-rule="evenodd" d="M13.05 25.4C13.05 23.45 13.5214 21.0286 14.35 20.2C15 19.55 16.2473 18.9 17.275 18.9C18.25 18.9 20.525 19.55 21.175 20.2C21.825 20.85 21.5 21.825 20.525 22.15C20.1036 22.2905 19.6215 22.2488 19.1573 22.2087C18.5477 22.156 17.9691 22.1059 17.6 22.475C17.0862 22.9889 17.0862 24.2361 17.6 24.75C18.1118 25.2618 18.4222 25.5721 19.1656 25.9982C19.1758 26.0105 19.1867 26.0224 19.1983 26.0339C19.2724 26.1073 19.3817 26.1937 19.4757 26.268L19.4757 26.268L19.4836 26.2742L19.4996 26.2869C19.602 26.3678 19.7119 26.4546 19.8226 26.5495C20.0681 26.7596 20.257 26.9595 20.3401 27.127C20.4569 27.3624 20.5118 27.6258 20.5378 27.9133C20.5508 28.0568 20.5562 28.2009 20.5601 28.3486L20.5624 28.4431C20.5651 28.5582 20.568 28.6784 20.5742 28.7901C20.5896 29.0658 20.8256 29.2768 21.1013 29.2614C21.377 29.246 21.5881 29.0101 21.5727 28.7343C21.5674 28.6402 21.5651 28.5417 21.5624 28.4298L21.5597 28.3224C21.5557 28.1696 21.5497 27.9996 21.5338 27.8232C21.5021 27.4724 21.4295 27.0749 21.2384 26.6875C23.2431 26.9245 26.5058 26.7971 27.35 26.375C28.0001 26.05 28.65 25.075 28.91 24.1C29.0727 23.4902 28.669 23.48 28.325 23.775C28.1816 23.9185 28.0761 24.1507 27.9582 24.41C27.8092 24.7381 27.6405 25.1096 27.35 25.4C26.7324 26.0177 21.851 26.1177 20.1198 25.5025L20.1037 25.4897C19.989 25.399 19.9289 25.3501 19.902 25.3234C19.7819 25.2044 19.6165 25.1588 19.4618 25.1865C18.3775 24.6041 17.6356 23.9935 17.925 23.125C18.0328 22.8019 18.4349 22.8803 18.9719 22.985C19.5151 23.091 20.1963 23.2238 20.85 22.995C22.1148 22.5523 22.8 20.8501 22.15 19.875C21.5 18.9 18.25 17.925 17.275 17.925C16.5913 17.925 15.9608 18.1914 15.4957 18.3879C15.2976 18.4716 15.1295 18.5426 15 18.575C15.325 17.7083 16.56 15.65 17.6 15.65C18.9 15.65 21.175 15.975 22.8 16.625C24.425 17.275 28 18.9 29.3 20.2C30.4109 21.3109 30.3352 23.8456 30.2897 25.3708C30.2819 25.6305 30.275 25.8609 30.275 26.05C30.275 26.9424 29.5093 28.6005 28.924 29.8679C28.6567 30.4468 28.427 30.9443 28.325 31.25C28.252 31.4691 28.1625 31.7211 28.0641 31.9985C27.7243 32.9554 27.277 34.2152 27.025 35.475C26.8611 36.2945 26.8178 37.5016 26.781 38.5261C26.7594 39.1268 26.7401 39.6647 26.7 40.025C26.5608 40.0715 26.4148 40.1245 26.2585 40.1814C25.3205 40.5225 24.0072 41 21.5 41C18.9929 41 17.5205 40.6817 16.4687 40.4543C16.2934 40.4164 16.1298 40.381 15.975 40.35C16.4084 39.05 17.275 36.125 17.275 34.825C17.275 33.525 17.0584 32.55 16.95 32.225C16.5167 31.6834 15.455 30.275 14.675 28.975C14.5141 28.7067 14.3503 28.4523 14.1918 28.2059C13.5823 27.2587 13.05 26.4317 13.05 25.4Z" fill="white" fill-opacity="0.4"/>
</svg>
