<svg width="50" height="50" viewBox="0 0 50 50" fill="none" xmlns="http://www.w3.org/2000/svg">
<circle cx="25" cy="25" r="22.5" stroke="#1D8CE0"/>
<circle cx="25" cy="25" r="22.5" stroke="white" stroke-opacity="0.95"/>
<path d="M40.5 32C43.7 24.4 40.5 15.5 35.5 11C36.5 15.5 35.8 22.2 33 29C30.2 35.8 23.8333 40.1667 21 41.5C26.5 43 37.3 39.6 40.5 32Z" fill="#FEFEFE" fill-opacity="0.15"/>
<path d="M24.7239 11.5061C22.6257 10.3099 18.0695 9.17356 16.6307 14.1974C15.2818 14.6459 12.674 16.171 13.0337 18.6829C13.3934 21.1949 16.1811 21.8228 17.5299 21.8228C17.5299 22.8695 18.8788 25.1422 24.2743 25.8599C29.6698 26.5775 32.5174 24.3647 33.2668 23.1685C34.0161 23.7666 35.9645 24.6936 37.763 23.6171C39.5615 22.5405 40.0111 19.8791 40.0111 18.6829C40.4607 18.2344 41.2701 16.9784 40.9104 15.5431C40.5507 14.1077 38.3625 14.0479 37.3134 14.1974C37.3134 13.5993 36.594 12.0443 33.7164 10.6089C30.8388 9.17356 26.5224 10.6089 24.7239 11.5061Z" fill="#546DDB"/>
<path d="M24.7239 11.5061C22.6257 10.3099 18.0695 9.17356 16.6307 14.1974C15.2818 14.6459 12.674 16.171 13.0337 18.6829C13.3934 21.1949 16.1811 21.8228 17.5299 21.8228C17.5299 22.8695 18.8788 25.1422 24.2743 25.8599C29.6698 26.5775 32.5174 24.3647 33.2668 23.1685C34.0161 23.7666 35.9645 24.6936 37.763 23.6171C39.5615 22.5405 40.0111 19.8791 40.0111 18.6829C40.4607 18.2344 41.2701 16.9784 40.9104 15.5431C40.5507 14.1077 38.3625 14.0479 37.3134 14.1974C37.3134 13.5993 36.594 12.0443 33.7164 10.6089C30.8388 9.17356 26.5224 10.6089 24.7239 11.5061Z" fill="black" fill-opacity="0.2"/>
<path fill-rule="evenodd" clip-rule="evenodd" d="M17.1153 31.2011C21.5097 31.7536 25.8897 29.3002 27.5956 24.9919C29.3014 20.6835 27.788 15.8967 24.2065 13.2913C25.0206 13.3937 25.8352 13.5992 26.6334 13.9152C31.7399 15.9371 34.2405 21.7158 32.2187 26.8223C30.1968 31.9289 24.4181 34.4295 19.3116 32.4076C18.5134 32.0916 17.7789 31.6838 17.1153 31.2011Z" fill="#FAA21E"/>
<path fill-rule="evenodd" clip-rule="evenodd" d="M17.1153 31.2011C21.5097 31.7536 25.8897 29.3002 27.5956 24.9919C29.3014 20.6835 27.788 15.8967 24.2065 13.2913C25.0206 13.3937 25.8352 13.5992 26.6334 13.9152C31.7399 15.9371 34.2405 21.7158 32.2187 26.8223C30.1968 31.9289 24.4181 34.4295 19.3116 32.4076C18.5134 32.0916 17.7789 31.6838 17.1153 31.2011Z" fill="white" fill-opacity="0.2"/>
<path d="M18.8819 32.753C20.1558 32.155 22.9221 31.5868 23.7956 34.0987C24.6146 34.323 26.1979 35.0855 25.9795 36.3415C25.7611 37.5974 24.0686 37.9114 23.2497 37.9114C23.2497 38.4347 22.4307 39.5711 19.1549 39.9299C15.8791 40.2888 14.1502 39.1823 13.6952 38.5843C13.2402 38.8833 12.0573 39.3468 10.9653 38.8085C9.87338 38.2703 9.60039 36.9396 9.60039 36.3415C9.32741 36.1172 8.83603 35.4892 9.05442 34.7715C9.27281 34.0538 10.6013 34.0239 11.2383 34.0987C11.2383 33.7997 11.6751 33.0222 13.4222 32.3045C15.1693 31.5868 17.79 32.3045 18.8819 32.753Z" fill="#546DDB"/>
<path d="M18.8819 32.753C20.1558 32.155 22.9221 31.5868 23.7956 34.0987C24.6146 34.323 26.1979 35.0855 25.9795 36.3415C25.7611 37.5974 24.0686 37.9114 23.2497 37.9114C23.2497 38.4347 22.4307 39.5711 19.1549 39.9299C15.8791 40.2888 14.1502 39.1823 13.6952 38.5843C13.2402 38.8833 12.0573 39.3468 10.9653 38.8085C9.87338 38.2703 9.60039 36.9396 9.60039 36.3415C9.32741 36.1172 8.83603 35.4892 9.05442 34.7715C9.27281 34.0538 10.6013 34.0239 11.2383 34.0987C11.2383 33.7997 11.6751 33.0222 13.4222 32.3045C15.1693 31.5868 17.79 32.3045 18.8819 32.753Z" fill="white" fill-opacity="0.2"/>
<path d="M14.5 9.00006C11.6489 11.5108 10.5 15 10.5 18C10.9875 15.933 14.0949 11.7432 17 10.0001C19.4724 8.5166 21.5 7.00006 25 6.50006C21.5 6.00006 17.3512 6.48933 14.5 9.00006Z" fill="#FEFEFE"/>
<path d="M34 40.0001C37.5 38.0001 41 33.0001 41 30.0001C40.2571 33.0001 36.2975 36.8405 33.5 38.5001C30.4369 40.3173 24.5 42.0001 21 42.0001C24.5 43.0001 30 42.2858 34 40.0001Z" fill="#FEFEFE"/>
</svg>
