<svg width="50" height="50" viewBox="0 0 50 50" fill="none" xmlns="http://www.w3.org/2000/svg">
<path d="M23 44.5C17.5313 44.5 14 42.5 13.5 41.5C13 40.5 13 36.9304 13 36.9304H33C33 39.0638 33.124 40.4959 32.5 41.5C31.5057 43.1 27.9715 44.5 23 44.5Z" fill="#898989"/>
<path d="M23 44.5C17.5313 44.5 14 42.5 13.5 41.5C13 40.5 13 36.9304 13 36.9304H33C33 39.0638 33.124 40.4959 32.5 41.5C31.5057 43.1 27.9715 44.5 23 44.5Z" fill="white" fill-opacity="0.6"/>
<path d="M40.3836 22.2136C39.5714 22.1775 38.3919 21.2478 38.876 19.515C39.36 17.7823 41.4491 16.5595 43.8859 16.6679C46.3227 16.7763 47.4827 18.1436 48.6621 19.0733C48.6232 19.9487 48.8735 23.4685 46.7065 26.4421C44.5395 29.4158 42.1388 30.5912 39.5686 31.3875C37.918 31.8988 37.46 33.048 37.421 33.9234C37.3821 34.7988 38.1554 35.7104 38.9677 35.7465" stroke="#FEFEFE" stroke-width="2.5" stroke-linecap="round"/>
<path d="M42 11.0909H4C5.63012 14.8946 6.71687 15.4379 7.80362 19.7849C8.347 21.9584 7.80362 28.8709 8.89037 32.6745C10.2666 37.4914 13.0913 40.0112 15.9542 41.3685C18.8052 42.7201 26.7013 42.7201 30.082 41.3685C33.024 40.1923 35.8121 37.5649 37.1459 32.6745C38.6857 27.0284 37.5844 23.026 38.2326 19.7849C38.776 17.0681 39.8265 15.4379 42 11.0909Z" fill="#898989"/>
<path d="M42 11.0909H4C5.63012 14.8946 6.71687 15.4379 7.80362 19.7849C8.347 21.9584 7.80362 28.8709 8.89037 32.6745C10.2666 37.4914 13.0913 40.0112 15.9542 41.3685C18.8052 42.7201 26.7013 42.7201 30.082 41.3685C33.024 40.1923 35.8121 37.5649 37.1459 32.6745C38.6857 27.0284 37.5844 23.026 38.2326 19.7849C38.776 17.0681 39.8265 15.4379 42 11.0909Z" fill="white" fill-opacity="0.95"/>
<path d="M42 10.8857C42 13.584 33.7218 15.8607 23.2284 15.8607C12.735 15.8607 4 13.584 4 10.8857C4 8.18741 12.735 6 23.2284 6C33.7218 6 42 8.18741 42 10.8857Z" fill="#898989"/>
<path d="M42 10.8857C42 13.584 33.7218 15.8607 23.2284 15.8607C12.735 15.8607 4 13.584 4 10.8857C4 8.18741 12.735 6 23.2284 6C33.7218 6 42 8.18741 42 10.8857Z" fill="white" fill-opacity="0.6"/>
<path d="M42 10.8857C42 13.584 33.7218 15.8607 23.2284 15.8607C12.735 15.8607 4 13.584 4 10.8857C4 8.18741 12.735 6 23.2284 6C33.7218 6 42 8.18741 42 10.8857Z" stroke="#FEFEFE" stroke-width="1.5"/>
<path d="M37 13.4304C37 13.0805 29.3513 11.9305 23 11.9305C16.6487 11.9305 9 13.0805 9 13.4304C9 13.7804 15 15.2305 23 15.2305C32 15.2305 37 13.7804 37 13.4304Z" fill="#FAA21E"/>
<path d="M37 13.4304C37 13.0805 29.3513 11.9305 23 11.9305C16.6487 11.9305 9 13.0805 9 13.4304C9 13.7804 15 15.2305 23 15.2305C32 15.2305 37 13.7804 37 13.4304Z" fill="white" fill-opacity="0.4"/>
<path d="M14.3333 23.3333L23 18L31.6667 23.3333V32.3333L23 38L14.3333 32.3333V23.3333Z" fill="#7445B8"/>
<path d="M14.3333 23.3333L23 18L31.6667 23.3333V32.3333L23 38L14.3333 32.3333V23.3333Z" fill="white" fill-opacity="0.2"/>
<path d="M18.099 24.4166L19.7083 27.1823L21.3177 24.4166H22.8229L20.5313 28.1718L22.8802 32H21.3594L19.7083 29.1823L18.0573 32H16.5312L18.8854 28.1718L16.5885 24.4166H18.099Z" fill="#FEFEFE"/>
<path d="M26.724 29.1718H24.75V28.1354H26.724C27.0677 28.1354 27.3455 28.0798 27.5573 27.9687C27.7691 27.8576 27.9236 27.7048 28.0208 27.5104C28.1215 27.3125 28.1719 27.0868 28.1719 26.8333C28.1719 26.5937 28.1215 26.3698 28.0208 26.1614C27.9236 25.9496 27.7691 25.7795 27.5573 25.651C27.3455 25.5225 27.0677 25.4583 26.724 25.4583H25.151V32H23.8438V24.4166H26.724C27.3108 24.4166 27.809 24.5208 28.2188 24.7291C28.6319 24.934 28.9462 25.2187 29.1615 25.5833C29.3767 25.9444 29.4844 26.3576 29.4844 26.8229C29.4844 27.3125 29.3767 27.7326 29.1615 28.0833C28.9462 28.434 28.6319 28.7031 28.2188 28.8906C27.809 29.0781 27.3108 29.1718 26.724 29.1718Z" fill="#FEFEFE"/>
</svg>
