<svg width="30" height="30" viewBox="0 0 30 30" fill="none" xmlns="http://www.w3.org/2000/svg">
<path d="M2 8L15 0L28 8V21.5L15 30L2 21.5V8Z" fill="#7445B8"/>
<path d="M2 8L15 0L28 8V21.5L15 30L2 21.5V8Z" fill="white" fill-opacity="0.2"/>
<path d="M10.0703 13.7344L12.4609 9.625H14.7422L11.3047 15.2656L14.8203 21H12.5156L10.0703 16.8281L7.61719 21H5.32031L8.84375 15.2656L5.39844 9.625H7.67969L10.0703 13.7344ZM18.2578 16.7734V21H16.2812V9.625H20.6328C21.9036 9.625 22.9115 9.95573 23.6562 10.6172C24.4062 11.2786 24.7812 12.1536 24.7812 13.2422C24.7812 14.3568 24.4141 15.224 23.6797 15.8438C22.9505 16.4635 21.9271 16.7734 20.6094 16.7734H18.2578ZM18.2578 15.1875H20.6328C21.3359 15.1875 21.8724 15.0234 22.2422 14.6953C22.612 14.362 22.7969 13.8828 22.7969 13.2578C22.7969 12.6432 22.6094 12.1536 22.2344 11.7891C21.8594 11.4193 21.3438 11.2292 20.6875 11.2188H18.2578V15.1875Z" fill="#FEFEFE"/>
</svg>
