<svg width="40" height="40" viewBox="0 0 40 40" fill="none" xmlns="http://www.w3.org/2000/svg">
<path d="M9.912 29.344C8.472 29.344 7.112 29.008 5.832 28.336C4.552 27.664 3.512 26.64 2.712 25.264C1.944 23.856 1.56 22.096 1.56 19.984C1.56 17.84 1.944 16.08 2.712 14.704C3.512 13.328 4.552 12.304 5.832 11.632C7.112 10.96 8.472 10.624 9.912 10.624C11.736 10.624 13.208 10.976 14.328 11.68C15.48 12.384 16.664 13.376 17.88 14.656L25.32 22.48C26.088 23.28 26.84 23.824 27.576 24.112C28.312 24.4 29.048 24.544 29.784 24.544C30.488 24.544 31.144 24.384 31.752 24.064C32.36 23.744 32.84 23.248 33.192 22.576C33.576 21.904 33.768 21.04 33.768 19.984C33.768 18.928 33.576 18.064 33.192 17.392C32.84 16.72 32.36 16.224 31.752 15.904C31.144 15.584 30.488 15.424 29.784 15.424C29.304 15.424 28.808 15.488 28.296 15.616C27.816 15.744 27.32 15.968 26.808 16.288C26.328 16.576 25.832 16.976 25.32 17.488L17.88 25.312C16.632 26.592 15.448 27.584 14.328 28.288C13.208 28.992 11.736 29.344 9.912 29.344ZM10.344 24.544C11.08 24.544 11.832 24.4 12.6 24.112C13.368 23.792 14.104 23.248 14.808 22.48L22.248 14.656C23.464 13.344 24.632 12.352 25.752 11.68C26.904 10.976 28.392 10.624 30.216 10.624C31.688 10.624 33.048 10.96 34.296 11.632C35.576 12.304 36.6 13.328 37.368 14.704C38.168 16.08 38.568 17.84 38.568 19.984C38.568 22.096 38.168 23.856 37.368 25.264C36.6 26.64 35.576 27.664 34.296 28.336C33.048 29.008 31.688 29.344 30.216 29.344C28.392 29.344 26.904 28.992 25.752 28.288C24.632 27.552 23.464 26.56 22.248 25.312L14.808 17.488C14.328 16.976 13.832 16.576 13.32 16.288C12.84 15.968 12.344 15.744 11.832 15.616C11.352 15.488 10.856 15.424 10.344 15.424C9.64 15.424 8.984 15.584 8.376 15.904C7.768 16.224 7.272 16.72 6.888 17.392C6.536 18.064 6.36 18.928 6.36 19.984C6.36 21.04 6.536 21.904 6.888 22.576C7.272 23.248 7.768 23.744 8.376 24.064C8.984 24.384 9.64 24.544 10.344 24.544Z" fill="white"/>
</svg>
