<svg width="20" height="20" viewBox="0 0 20 20" fill="none" xmlns="http://www.w3.org/2000/svg">
<circle cx="10" cy="10" r="10" fill="#546DDB"/>
<circle cx="10" cy="10" r="10" fill="white" fill-opacity="0.2"/>
<path d="M11.0645 12.9768H8.84226V12.5578C8.85441 11.9385 8.99406 11.3921 9.26121 10.9185C9.52836 10.4449 9.98373 9.94703 10.6273 9.42486C11.1495 8.99985 11.4895 8.66591 11.6474 8.42304C11.8052 8.16803 11.8842 7.83409 11.8842 7.42122C11.8842 6.83834 11.702 6.35261 11.3377 5.96403C10.9856 5.5633 10.5423 5.36293 10.008 5.36293C9.43729 5.36293 8.9637 5.58758 8.58726 6.03689C8.22296 6.47404 8.04081 7.03871 8.04081 7.73087V7.96767H5.60001C5.62429 6.60762 5.90359 5.56937 6.43789 4.85291C7.22721 3.7843 8.39903 3.25 9.95338 3.25C11.3741 3.25 12.4974 3.68109 13.3231 4.54326C14.0396 5.29614 14.3978 6.24939 14.3978 7.40301C14.3978 8.14375 14.246 8.75698 13.9424 9.24271C13.651 9.7163 13.0863 10.2506 12.2485 10.8456C11.6899 11.2342 11.3499 11.5378 11.2284 11.7564C11.1191 11.9628 11.0645 12.3696 11.0645 12.9768ZM9.98981 14.2336C10.3298 14.2336 10.6091 14.349 10.8277 14.5797C11.0584 14.7983 11.1738 15.0715 11.1738 15.3994C11.1738 15.7272 11.0584 16.0065 10.8277 16.2373C10.597 16.468 10.3177 16.5833 9.98981 16.5833C9.67408 16.5833 9.40086 16.468 9.17013 16.2373C8.93941 16.0065 8.82405 15.7272 8.82405 15.3994C8.82405 15.0715 8.93941 14.7983 9.17013 14.5797C9.40086 14.349 9.67408 14.2336 9.98981 14.2336Z" fill="#FEFEFE"/>
</svg>
