<svg width="41" height="40" viewBox="0 0 41 40" fill="none" xmlns="http://www.w3.org/2000/svg">
<path fill-rule="evenodd" clip-rule="evenodd" d="M8.32084 4H32.8875V7.66667C35.0875 6.93333 38.0208 6.56667 40.2208 8.03333C42.4208 9.5 39.4875 16.8333 37.2875 19.4C35.5275 21.4533 31.7875 22.8222 30.6875 23.0667C30 24 29.2208 25.0222 27.7542 26C26.7936 26.6404 24.9011 27.0943 23.7857 27.3619C23.6237 27.4008 23.4781 27.4357 23.3542 27.4667V30.4L25.5542 32.6L28.8542 33.3333V37H12.7208V33.3333L16.3875 32.6L18.5875 30.4V27.4667C18.3698 27.385 18.096 27.2922 17.7873 27.1876C16.7095 26.8223 15.2071 26.313 14.1875 25.6333C13.0252 24.8584 12.2911 23.9211 11.7988 23.2925C11.7356 23.2118 11.6764 23.1362 11.6208 23.0667C9.78751 22.9444 6.10979 21.8493 4.28751 19.7667C1.72084 16.8333 -0.112493 9.5 1.72084 8.03333C3.14272 6.89583 5.74168 7.28455 7.59561 7.56183C7.85349 7.6004 8.09696 7.63682 8.32084 7.66667V4ZM33.2537 10.4823C34.4757 10.1156 37.0664 9.52888 37.6529 10.1156C38.3861 10.8489 36.5531 15.9825 35.8199 17.0825C35.2334 17.9626 32.5205 19.2827 31.0541 19.6493C31.5429 18.916 32.2273 17.7426 32.5205 15.9825C32.8138 14.2224 33.1315 11.5823 33.2537 10.4823ZM8.32083 10.6C7.09861 10.2334 4.50749 9.6467 3.92083 10.2334C3.18749 10.9667 5.02083 16.1 5.75416 17.2C6.34083 18.08 9.05416 19.4 10.5208 19.7667C10.0319 19.0333 9.34749 17.86 9.05416 16.1C8.76082 14.34 8.44305 11.7 8.32083 10.6Z" fill="#FAA21E"/>
<path d="M16 6H10.5C10.5 9.5 11 15 12.5 18.5C14.449 23.0477 18.3333 24.8333 20.5 25.5C18.5 22.5 17.8 18.7 17 15.5C16.2 12.3 16 8 16 6Z" fill="#FAA21E"/>
<path d="M16 6H10.5C10.5 9.5 11 15 12.5 18.5C14.449 23.0477 18.3333 24.8333 20.5 25.5C18.5 22.5 17.8 18.7 17 15.5C16.2 12.3 16 8 16 6Z" fill="white" fill-opacity="0.4"/>
</svg>
