<svg width="40" height="40" viewBox="0 0 40 40" fill="none" xmlns="http://www.w3.org/2000/svg">
<rect x="4" y="14" width="32" height="25" fill="#FEFEFE"/>
<path d="M32.5 1H7L1 10.7561V17.0976C1.5 18.3984 2.7 21 5.5 21C8.3 21 10.1667 18.3984 10.5 17.0976C10.8333 18.3984 12.7 21 15.5 21C18.3 21 19.6667 18.3984 20 17.0976C20.3333 18.3984 21.7 21 24.5 21C27.3 21 29.1667 18.3984 29.5 17.0976C29.8333 18.3984 31.3 21 34.5 21C37.7 21 38.5 18.3984 39 17.0976V10.7561L32.5 1Z" fill="#CE4317"/>
<path d="M32.5 1H7L1 10.7561V17.0976C1.5 18.3984 2.7 21 5.5 21C8.3 21 10.1667 18.3984 10.5 17.0976C10.8333 18.3984 12.7 21 15.5 21C18.3 21 19.6667 18.3984 20 17.0976C20.3333 18.3984 21.7 21 24.5 21C27.3 21 29.1667 18.3984 29.5 17.0976C29.8333 18.3984 31.3 21 34.5 21C37.7 21 38.5 18.3984 39 17.0976V10.7561L32.5 1Z" fill="white" fill-opacity="0.3"/>
<path d="M1 10.5L7 1H32.5L39 10.5H1Z" fill="#898989"/>
<path d="M1 10.5L7 1H32.5L39 10.5H1Z" fill="white" fill-opacity="0.6"/>
<rect x="12" y="26" width="7" height="13" fill="#546DDB"/>
<rect x="12" y="26" width="7" height="13" fill="white" fill-opacity="0.4"/>
<rect x="21" y="26" width="7" height="13" fill="#546DDB"/>
<rect x="21" y="26" width="7" height="13" fill="white" fill-opacity="0.4"/>
</svg>
