<svg width="40" height="40" viewBox="0 0 40 40" fill="none" xmlns="http://www.w3.org/2000/svg">
<path fill-rule="evenodd" clip-rule="evenodd" d="M12.758 7.50534C13.851 6.87035 15.035 6.37466 16.2856 6.04259L17.3843 1.17858C18.2394 1.06084 19.1126 1 20 1C20.8872 1 21.7602 1.06081 22.6151 1.17849L23.7136 6.04164C24.9648 6.37354 26.1494 6.86922 27.2429 7.50433L31.4582 4.8425C32.8545 5.89965 34.1001 7.14529 35.1573 8.54155L32.4958 12.7563C33.1313 13.8501 33.6273 15.0349 33.9594 16.2865L38.8215 17.3848C38.9392 18.2397 39 19.1127 39 20C39 20.8873 38.9392 21.7605 38.8215 22.6154L33.9593 23.7137C33.6272 24.9653 33.1312 26.1501 32.4957 27.2438L35.1572 31.4585C34.1 32.8548 32.8544 34.1005 31.4581 35.1576L27.2428 32.4958C26.1493 33.1308 24.9648 33.6265 23.7136 33.9584L22.6151 38.8215C21.7602 38.9392 20.8872 39 20 39C19.1126 39 18.2393 38.9392 17.3842 38.8214L16.2855 33.9574C15.035 33.6254 13.8511 33.1297 12.7582 32.4948L8.54166 35.1574C7.14532 34.1002 5.89961 32.8544 4.84242 31.4581L7.50537 27.2411C6.8708 26.1483 6.37545 24.9647 6.04361 23.7145L1.17856 22.6156C1.06083 21.7606 1 20.8874 1 20C1 19.1127 1.06082 18.2396 1.17853 17.3846L6.04355 16.2857C6.37539 15.0355 6.87074 13.8518 7.50532 12.7591L4.84235 8.542C5.89953 7.14566 7.14521 5.89994 8.54151 4.84272L12.758 7.50534ZM20.0002 26.08C23.3581 26.08 26.0802 23.3578 26.0802 20C26.0802 16.6421 23.3581 13.92 20.0002 13.92C16.6424 13.92 13.9202 16.6421 13.9202 20C13.9202 23.3578 16.6424 26.08 20.0002 26.08Z" fill="#1D8CE0"/>
<path fill-rule="evenodd" clip-rule="evenodd" d="M12.758 7.50534C13.851 6.87035 15.035 6.37466 16.2856 6.04259L17.3843 1.17858C18.2394 1.06084 19.1126 1 20 1C20.8872 1 21.7602 1.06081 22.6151 1.17849L23.7136 6.04164C24.9648 6.37354 26.1494 6.86922 27.2429 7.50433L31.4582 4.8425C32.8545 5.89965 34.1001 7.14529 35.1573 8.54155L32.4958 12.7563C33.1313 13.8501 33.6273 15.0349 33.9594 16.2865L38.8215 17.3848C38.9392 18.2397 39 19.1127 39 20C39 20.8873 38.9392 21.7605 38.8215 22.6154L33.9593 23.7137C33.6272 24.9653 33.1312 26.1501 32.4957 27.2438L35.1572 31.4585C34.1 32.8548 32.8544 34.1005 31.4581 35.1576L27.2428 32.4958C26.1493 33.1308 24.9648 33.6265 23.7136 33.9584L22.6151 38.8215C21.7602 38.9392 20.8872 39 20 39C19.1126 39 18.2393 38.9392 17.3842 38.8214L16.2855 33.9574C15.035 33.6254 13.8511 33.1297 12.7582 32.4948L8.54166 35.1574C7.14532 34.1002 5.89961 32.8544 4.84242 31.4581L7.50537 27.2411C6.8708 26.1483 6.37545 24.9647 6.04361 23.7145L1.17856 22.6156C1.06083 21.7606 1 20.8874 1 20C1 19.1127 1.06082 18.2396 1.17853 17.3846L6.04355 16.2857C6.37539 15.0355 6.87074 13.8518 7.50532 12.7591L4.84235 8.542C5.89953 7.14566 7.14521 5.89994 8.54151 4.84272L12.758 7.50534ZM20.0002 26.08C23.3581 26.08 26.0802 23.3578 26.0802 20C26.0802 16.6421 23.3581 13.92 20.0002 13.92C16.6424 13.92 13.9202 16.6421 13.9202 20C13.9202 23.3578 16.6424 26.08 20.0002 26.08Z" fill="white" fill-opacity="0.4"/>
</svg>
