<svg width="40" height="40" viewBox="0 0 40 40" fill="none" xmlns="http://www.w3.org/2000/svg">
<path d="M13.1974 17C12.5971 12 13.0173 2 19.5002 2C25.983 2 26 11 26 17" stroke="#7445B8" stroke-width="2"/>
<path d="M36.3991 16H3.56155C2.26041 16 1.30569 17.2228 1.62127 18.4851L6.12127 36.4851C6.34385 37.3754 7.14382 38 8.06155 38H31.6159C32.5227 38 33.316 37.39 33.5488 36.5136L38.332 18.5136C38.6693 17.2444 37.7125 16 36.3991 16Z" fill="#7445B8"/>
<path d="M36.3991 16H3.56155C2.26041 16 1.30569 17.2228 1.62127 18.4851L6.12127 36.4851C6.34385 37.3754 7.14382 38 8.06155 38H31.6159C32.5227 38 33.316 37.39 33.5488 36.5136L38.332 18.5136C38.6693 17.2444 37.7125 16 36.3991 16Z" fill="white" fill-opacity="0.6"/>
<circle cx="13" cy="22" r="1.5" fill="#7445B8" stroke="#7445B8"/>
<circle cx="26" cy="22" r="1.5" fill="#7445B8" stroke="#7445B8"/>
</svg>
