<svg width="120" height="121" viewBox="0 0 120 121" fill="none" xmlns="http://www.w3.org/2000/svg">
<line x1="60.7" y1="20.2361" x2="60.7" y2="5.72924" stroke="#FAA21E" stroke-linecap="round"/>
<line x1="60.7" y1="20.2361" x2="60.7" y2="5.72924" stroke="white" stroke-opacity="0.4" stroke-linecap="round"/>
<line x1="60.7" y1="116.097" x2="60.7" y2="101.59" stroke="#FAA21E" stroke-linecap="round"/>
<line x1="60.7" y1="116.097" x2="60.7" y2="101.59" stroke="white" stroke-opacity="0.4" stroke-linecap="round"/>
<line x1="114.422" y1="60.3" x2="100.006" y2="60.3" stroke="#FAA21E" stroke-linecap="round"/>
<line x1="114.422" y1="60.3" x2="100.006" y2="60.3" stroke="white" stroke-opacity="0.4" stroke-linecap="round"/>
<line x1="0.5" y1="-0.5" x2="14.9848" y2="-0.5" transform="matrix(-0.492924 0.870072 -0.867579 -0.4973 86.1165 11.5732)" stroke="#FAA21E" stroke-linecap="round"/>
<line x1="0.5" y1="-0.5" x2="14.9848" y2="-0.5" transform="matrix(-0.492924 0.870072 -0.867579 -0.4973 86.1165 11.5732)" stroke="white" stroke-opacity="0.4" stroke-linecap="round"/>
<line x1="0.5" y1="-0.5" x2="14.9401" y2="-0.5" transform="matrix(-0.849006 0.528383 -0.523928 -0.851762 107.282 30.8295)" stroke="#FAA21E" stroke-linecap="round"/>
<line x1="0.5" y1="-0.5" x2="14.9401" y2="-0.5" transform="matrix(-0.849006 0.528383 -0.523928 -0.851762 107.282 30.8295)" stroke="white" stroke-opacity="0.4" stroke-linecap="round"/>
<line x1="0.5" y1="-0.5" x2="14.9361" y2="-0.5" transform="matrix(-0.875939 -0.482423 0.478097 -0.878307 109.522 87.6472)" stroke="#FAA21E" stroke-linecap="round"/>
<line x1="0.5" y1="-0.5" x2="14.9361" y2="-0.5" transform="matrix(-0.875939 -0.482423 0.478097 -0.878307 109.522 87.6472)" stroke="white" stroke-opacity="0.4" stroke-linecap="round"/>
<line x1="0.5" y1="-0.5" x2="14.9805" y2="-0.5" transform="matrix(-0.538306 -0.842749 0.839871 -0.542786 89.756 108.144)" stroke="#FAA21E" stroke-linecap="round"/>
<line x1="0.5" y1="-0.5" x2="14.9805" y2="-0.5" transform="matrix(-0.538306 -0.842749 0.839871 -0.542786 89.756 108.144)" stroke="white" stroke-opacity="0.4" stroke-linecap="round"/>
<line x1="5.40515" y1="61.8289" x2="19.8215" y2="61.8289" stroke="#FAA21E" stroke-linecap="round"/>
<line x1="5.40515" y1="61.8289" x2="19.8215" y2="61.8289" stroke="white" stroke-opacity="0.4" stroke-linecap="round"/>
<line x1="0.5" y1="-0.5" x2="14.9848" y2="-0.5" transform="matrix(0.492924 -0.870072 0.867579 0.4973 33.7112 109.554)" stroke="#FAA21E" stroke-linecap="round"/>
<line x1="0.5" y1="-0.5" x2="14.9848" y2="-0.5" transform="matrix(0.492924 -0.870072 0.867579 0.4973 33.7112 109.554)" stroke="white" stroke-opacity="0.4" stroke-linecap="round"/>
<line x1="0.5" y1="-0.5" x2="14.9401" y2="-0.5" transform="matrix(0.849006 -0.528383 0.523928 0.851763 12.5455 90.2976)" stroke="#FAA21E" stroke-linecap="round"/>
<line x1="0.5" y1="-0.5" x2="14.9401" y2="-0.5" transform="matrix(0.849006 -0.528383 0.523928 0.851763 12.5455 90.2976)" stroke="white" stroke-opacity="0.4" stroke-linecap="round"/>
<line x1="0.5" y1="-0.5" x2="14.9361" y2="-0.5" transform="matrix(0.875938 0.482423 -0.478097 0.878307 11.2904 34.597)" stroke="#FAA21E" stroke-linecap="round"/>
<line x1="0.5" y1="-0.5" x2="14.9361" y2="-0.5" transform="matrix(0.875938 0.482423 -0.478097 0.878307 11.2904 34.597)" stroke="white" stroke-opacity="0.4" stroke-linecap="round"/>
<line x1="0.5" y1="-0.5" x2="14.9805" y2="-0.5" transform="matrix(0.538306 0.842749 -0.839871 0.542786 30.0714 12.9828)" stroke="#FAA21E" stroke-linecap="round"/>
<line x1="0.5" y1="-0.5" x2="14.9805" y2="-0.5" transform="matrix(0.538306 0.842749 -0.839871 0.542786 30.0714 12.9828)" stroke="white" stroke-opacity="0.4" stroke-linecap="round"/>
<line x1="0.5" y1="-0.5" x2="21.6258" y2="-0.5" transform="matrix(0.267517 -0.963553 0.962737 0.270438 72 22.3193)" stroke="#FAA21E" stroke-linecap="round"/>
<line x1="0.5" y1="-0.5" x2="21.6258" y2="-0.5" transform="matrix(0.267517 -0.963553 0.962737 0.270438 72 22.3193)" stroke="white" stroke-opacity="0.4" stroke-linecap="round"/>
<line x1="0.5" y1="-0.5" x2="21.6258" y2="-0.5" transform="matrix(0.267517 -0.963553 0.962737 0.270438 44.8477 121)" stroke="#FAA21E" stroke-linecap="round"/>
<line x1="0.5" y1="-0.5" x2="21.6258" y2="-0.5" transform="matrix(0.267517 -0.963553 0.962737 0.270438 44.8477 121)" stroke="white" stroke-opacity="0.4" stroke-linecap="round"/>
<line x1="0.5" y1="-0.5" x2="21.5148" y2="-0.5" transform="matrix(-0.962737 -0.270438 0.267517 -0.963553 120 76.03)" stroke="#FAA21E" stroke-linecap="round"/>
<line x1="0.5" y1="-0.5" x2="21.5148" y2="-0.5" transform="matrix(-0.962737 -0.270438 0.267517 -0.963553 120 76.03)" stroke="white" stroke-opacity="0.4" stroke-linecap="round"/>
<line x1="0.5" y1="-0.5" x2="21.57" y2="-0.5" transform="matrix(-0.708494 0.705716 -0.701557 -0.712614 103.23 15.8025)" stroke="#FAA21E" stroke-linecap="round"/>
<line x1="0.5" y1="-0.5" x2="21.57" y2="-0.5" transform="matrix(-0.708494 0.705716 -0.701557 -0.712614 103.23 15.8025)" stroke="white" stroke-opacity="0.4" stroke-linecap="round"/>
<line x1="0.5" y1="-0.5" x2="21.5154" y2="-0.5" transform="matrix(-0.960135 0.279537 -0.276533 -0.961004 119.243 43.2916)" stroke="#FAA21E" stroke-linecap="round"/>
<line x1="0.5" y1="-0.5" x2="21.5154" y2="-0.5" transform="matrix(-0.960135 0.279537 -0.276533 -0.961004 119.243 43.2916)" stroke="white" stroke-opacity="0.4" stroke-linecap="round"/>
<line x1="0.5" y1="-0.5" x2="21.5691" y2="-0.5" transform="matrix(-0.713579 -0.700575 0.696387 -0.717667 104.743 103.864)" stroke="#FAA21E" stroke-linecap="round"/>
<line x1="0.5" y1="-0.5" x2="21.5691" y2="-0.5" transform="matrix(-0.713579 -0.700575 0.696387 -0.717667 104.743 103.864)" stroke="white" stroke-opacity="0.4" stroke-linecap="round"/>
<line x1="0.5" y1="-0.5" x2="21.624" y2="-0.5" transform="matrix(-0.292762 -0.956185 0.955216 -0.29591 77.9531 120.13)" stroke="#FAA21E" stroke-linecap="round"/>
<line x1="0.5" y1="-0.5" x2="21.624" y2="-0.5" transform="matrix(-0.292762 -0.956185 0.955216 -0.29591 77.9531 120.13)" stroke="white" stroke-opacity="0.4" stroke-linecap="round"/>
<line x1="0.5" y1="-0.5" x2="21.5148" y2="-0.5" transform="matrix(0.962737 0.270438 -0.267517 0.963553 0 45.4064)" stroke="#FAA21E" stroke-linecap="round"/>
<line x1="0.5" y1="-0.5" x2="21.5148" y2="-0.5" transform="matrix(0.962737 0.270438 -0.267517 0.963553 0 45.4064)" stroke="white" stroke-opacity="0.4" stroke-linecap="round"/>
<line x1="0.5" y1="-0.5" x2="21.57" y2="-0.5" transform="matrix(0.708495 -0.705716 0.701557 0.712614 16.8 105.375)" stroke="#FAA21E" stroke-linecap="round"/>
<line x1="0.5" y1="-0.5" x2="21.57" y2="-0.5" transform="matrix(0.708495 -0.705716 0.701557 0.712614 16.8 105.375)" stroke="white" stroke-opacity="0.4" stroke-linecap="round"/>
<line x1="0.5" y1="-0.5" x2="21.5154" y2="-0.5" transform="matrix(0.960135 -0.279537 0.276533 0.961004 0.700806 78.3455)" stroke="#FAA21E" stroke-linecap="round"/>
<line x1="0.5" y1="-0.5" x2="21.5154" y2="-0.5" transform="matrix(0.960135 -0.279537 0.276533 0.961004 0.700806 78.3455)" stroke="white" stroke-opacity="0.4" stroke-linecap="round"/>
<line x1="0.5" y1="-0.5" x2="21.5691" y2="-0.5" transform="matrix(0.713579 0.700575 -0.696387 0.717667 15.4163 17.9167)" stroke="#FAA21E" stroke-linecap="round"/>
<line x1="0.5" y1="-0.5" x2="21.5691" y2="-0.5" transform="matrix(0.713579 0.700575 -0.696387 0.717667 15.4163 17.9167)" stroke="white" stroke-opacity="0.4" stroke-linecap="round"/>
<line x1="0.5" y1="-0.5" x2="21.624" y2="-0.5" transform="matrix(0.292852 0.956158 -0.955244 0.29582 42.0447 1)" stroke="#FAA21E" stroke-linecap="round"/>
<line x1="0.5" y1="-0.5" x2="21.624" y2="-0.5" transform="matrix(0.292852 0.956158 -0.955244 0.29582 42.0447 1)" stroke="white" stroke-opacity="0.4" stroke-linecap="round"/>
<path d="M38.1915 21C33.5 20.9999 34.0107 30.2811 33.027 34.7255L44.0938 31.9706C43.356 28.3104 42 21.0001 38.1915 21Z" fill="#FAA21E"/>
<path d="M38.1915 21C33.5 20.9999 34.0107 30.2811 33.027 34.7255L44.0938 31.9706C43.356 28.3104 42 21.0001 38.1915 21Z" fill="black" fill-opacity="0.1"/>
<path d="M81.8824 21C86.9592 21 85.9922 30.2797 86.9592 34.7235L76.0805 31.9706C76.8058 28.311 77.9999 21.0001 81.8824 21Z" fill="#FAA21E"/>
<path d="M81.8824 21C86.9592 21 85.9922 30.2797 86.9592 34.7235L76.0805 31.9706C76.8058 28.311 77.9999 21.0001 81.8824 21Z" fill="black" fill-opacity="0.1"/>
<path d="M23.4357 31.9707C19.5992 31.9707 14.2134 33.5394 12 34.3237C12.7378 36.8074 15.1725 42.1668 19.009 43.7355C22.8454 45.3041 28.4772 45.1734 30.8135 44.912C29.338 46.742 25.7966 52.363 23.4357 60.2061C21.0748 68.0493 19.9927 78.3761 19.7467 82.5592C18.6401 84.7814 16.1316 91.2651 14.9511 99.422C13.7707 107.579 13.7215 117.2 13.8445 120.991H106.805C106.682 116.808 106.141 106.638 104.961 99.422C103.78 92.2062 101.272 85.1735 100.165 82.5592C99.9194 77.8533 98.9111 66.7944 96.8453 60.2061C94.7795 53.6179 91.066 47.2649 89.4674 44.912C91.6808 44.3891 96.8453 43.7355 99.4275 42.1668C101.858 40.6902 104.469 36.5459 105.33 34.3237C102.871 33.8008 97.1404 32.755 93.8941 32.755C90.6479 32.755 87.623 33.8008 86.5163 34.3237C81.7207 33.0165 69.4735 30.4021 58.8494 30.4021C48.2252 30.4021 36.9617 33.0165 32.658 34.3237C31.1824 33.5394 27.2722 31.9707 23.4357 31.9707Z" fill="#FEFEFE"/>
<path d="M60.7525 93.0065C42.5743 93.4137 36.0099 111.838 35 121H86C85.1584 111.499 78.9307 92.5993 60.7525 93.0065Z" fill="#FAA21E"/>
<path d="M60.7525 93.0065C42.5743 93.4137 36.0099 111.838 35 121H86C85.1584 111.499 78.9307 92.5993 60.7525 93.0065Z" fill="white" fill-opacity="0.8"/>
<path d="M64.0019 39.7945C59.5752 37.2847 58.7541 32.713 59 30.4907C61.5001 30.4908 67.7645 30.2259 73.9619 31.1671C80.1593 32.1082 85.1055 33.1278 86.827 33.9122C89.7781 32.7357 91.9492 31.6724 98.2627 32.3435C101.952 32.7357 105.518 33.52 105.641 33.9122C104.903 35.873 103.058 40.5789 100.476 42.1475C97.8938 43.7161 91.5 44.9906 89.5 44.9906C89.9918 45.5135 91.0244 46.7455 92.5 49.4906C93.8813 52.0603 95.5 55.9906 96 57.9906C93.2948 56.8141 89.4093 54.3049 86.0892 51.9519C82.2433 49.2263 77.7738 44.8926 76.5441 43.324C74.2079 43.1932 68.4286 42.3044 64.0019 39.7945Z" fill="#FAA21E"/>
<path d="M64.0019 39.7945C59.5752 37.2847 58.7541 32.713 59 30.4907C61.5001 30.4908 67.7645 30.2259 73.9619 31.1671C80.1593 32.1082 85.1055 33.1278 86.827 33.9122C89.7781 32.7357 91.9492 31.6724 98.2627 32.3435C101.952 32.7357 105.518 33.52 105.641 33.9122C104.903 35.873 103.058 40.5789 100.476 42.1475C97.8938 43.7161 91.5 44.9906 89.5 44.9906C89.9918 45.5135 91.0244 46.7455 92.5 49.4906C93.8813 52.0603 95.5 55.9906 96 57.9906C93.2948 56.8141 89.4093 54.3049 86.0892 51.9519C82.2433 49.2263 77.7738 44.8926 76.5441 43.324C74.2079 43.1932 68.4286 42.3044 64.0019 39.7945Z" fill="white" fill-opacity="0.2"/>
<path d="M59.5873 56.2847C49.6272 56.2847 40.4049 61.3827 40.4049 70.0102C40.4049 78.6377 52.9473 81.775 60.3251 81.775C69.5474 81.775 78.7697 77.0691 78.7697 70.0102C78.7697 62.9514 69.5474 56.2847 59.5873 56.2847Z" fill="#FAA21E"/>
<path d="M59.5873 56.2847C49.6272 56.2847 40.4049 61.3827 40.4049 70.0102C40.4049 78.6377 52.9473 81.775 60.3251 81.775C69.5474 81.775 78.7697 77.0691 78.7697 70.0102C78.7697 62.9514 69.5474 56.2847 59.5873 56.2847Z" fill="white" fill-opacity="0.6"/>
<ellipse cx="41.1428" cy="53.5402" rx="3.32003" ry="3.52943" fill="#898989"/>
<ellipse cx="41.1428" cy="53.5402" rx="3.32003" ry="3.52943" fill="black" fill-opacity="0.8"/>
<ellipse cx="78.0319" cy="53.5402" rx="3.32003" ry="3.52943" fill="#898989"/>
<ellipse cx="78.0319" cy="53.5402" rx="3.32003" ry="3.52943" fill="black" fill-opacity="0.8"/>
<ellipse cx="64.7515" cy="61.7749" rx="1.47557" ry="1.56864" fill="#898989"/>
<ellipse cx="64.7515" cy="61.7749" rx="1.47557" ry="1.56864" fill="black" fill-opacity="0.8"/>
<ellipse cx="54.4227" cy="61.7749" rx="1.47557" ry="1.56864" fill="#898989"/>
<ellipse cx="54.4227" cy="61.7749" rx="1.47557" ry="1.56864" fill="black" fill-opacity="0.8"/>
<line x1="58" y1="71.9907" x2="62" y2="71.9907" stroke="#898989" stroke-width="2" stroke-linecap="round"/>
<line x1="58" y1="71.9907" x2="62" y2="71.9907" stroke="black" stroke-opacity="0.6" stroke-width="2" stroke-linecap="round"/>
<path d="M32.6579 89.6177C34.8713 91.5785 37.4535 94.7157 39.298 98.2452C41.2768 102.032 41.8802 108.049 35.2402 108.049C29.9281 108.049 26.1408 103.082 24.9112 100.598" stroke="#898989" stroke-width="2" stroke-linecap="round"/>
<path d="M32.6579 89.6177C34.8713 91.5785 37.4535 94.7157 39.298 98.2452C41.2768 102.032 41.8802 108.049 35.2402 108.049C29.9281 108.049 26.1408 103.082 24.9112 100.598" stroke="white" stroke-opacity="0.4" stroke-width="2" stroke-linecap="round"/>
<path d="M87.0055 89.2261C84.7211 91.1869 82.056 94.3241 80.1523 97.8536C78.11 101.64 77.4871 107.658 84.3404 107.658C89.823 107.658 93.7319 102.69 95.001 100.206" stroke="#898989" stroke-width="2" stroke-linecap="round"/>
<path d="M87.0055 89.2261C84.7211 91.1869 82.056 94.3241 80.1523 97.8536C78.11 101.64 77.4871 107.658 84.3404 107.658C89.823 107.658 93.7319 102.69 95.001 100.206" stroke="white" stroke-opacity="0.4" stroke-width="2" stroke-linecap="round"/>
<path d="M27.0668 71.5601C26.329 67.2464 23.9927 64.7627 22.6401 64.1091C22.1482 65.6778 21.2364 70.5567 20.7956 74.3053C20.4267 77.4425 20.1808 80.9719 20.0578 82.1484C19.8119 82.6713 18.8282 84.8935 17.8445 88.0308C16.8607 91.1681 16.3689 93.1289 16 95.0897C19.566 94.9589 25.5912 95.0897 27.8046 88.0308C29.649 82.1484 27.8046 79.0112 26.6979 77.8347C27.0668 77.0504 27.5297 74.267 27.0668 71.5601Z" fill="#FAA21E"/>
<path d="M27.0668 71.5601C26.329 67.2464 23.9927 64.7627 22.6401 64.1091C22.1482 65.6778 21.2364 70.5567 20.7956 74.3053C20.4267 77.4425 20.1808 80.9719 20.0578 82.1484C19.8119 82.6713 18.8282 84.8935 17.8445 88.0308C16.8607 91.1681 16.3689 93.1289 16 95.0897C19.566 94.9589 25.5912 95.0897 27.8046 88.0308C29.649 82.1484 27.8046 79.0112 26.6979 77.8347C27.0668 77.0504 27.5297 74.267 27.0668 71.5601Z" fill="white" fill-opacity="0.2"/>
<path d="M98.6318 100.187C98.6318 94.2265 101.583 90.9062 103.059 89.9912C103.673 91.8213 105.124 96.8932 106.01 102.54C106.895 108.187 106.87 113.782 106.747 115.874C104.042 113.129 98.6318 106.148 98.6318 100.187Z" fill="#FAA21E"/>
<path d="M98.6318 100.187C98.6318 94.2265 101.583 90.9062 103.059 89.9912C103.673 91.8213 105.124 96.8932 106.01 102.54C106.895 108.187 106.87 113.782 106.747 115.874C104.042 113.129 98.6318 106.148 98.6318 100.187Z" fill="white" fill-opacity="0.2"/>
<path d="M40 97.4907L31 107.971L38.7467 114.638L47.2313 104.834L40 97.4907Z" fill="#898989"/>
<path d="M40 97.4907L31 107.971L38.7467 114.638L47.2313 104.834L40 97.4907Z" fill="white" fill-opacity="0.2"/>
<path d="M90.1472 106.854L79.8182 96.6577L73.547 104.893L82.7694 113.913L90.1472 106.854Z" fill="#898989"/>
<path d="M90.1472 106.854L79.8182 96.6577L73.547 104.893L82.7694 113.913L90.1472 106.854Z" fill="white" fill-opacity="0.2"/>
<path d="M72 21C72 21.079 71.9452 21.3445 71.3901 21.7483C70.8569 22.1362 70.0211 22.5272 68.8983 22.8726C66.6649 23.5598 63.5187 24 60 24C56.4813 24 53.3351 23.5598 51.1017 22.8726C49.9789 22.5272 49.1431 22.1362 48.6099 21.7483C48.0548 21.3445 48 21.079 48 21C48 20.921 48.0548 20.6555 48.6099 20.2517C49.1431 19.8638 49.9789 19.4728 51.1017 19.1274C53.3351 18.4402 56.4813 18 60 18C63.5187 18 66.6649 18.4402 68.8983 19.1274C70.0211 19.4728 70.8569 19.8638 71.3901 20.2517C71.9452 20.6555 72 20.921 72 21Z" stroke="#FAA21E" stroke-width="2"/>
<path d="M72 21C72 21.079 71.9452 21.3445 71.3901 21.7483C70.8569 22.1362 70.0211 22.5272 68.8983 22.8726C66.6649 23.5598 63.5187 24 60 24C56.4813 24 53.3351 23.5598 51.1017 22.8726C49.9789 22.5272 49.1431 22.1362 48.6099 21.7483C48.0548 21.3445 48 21.079 48 21C48 20.921 48.0548 20.6555 48.6099 20.2517C49.1431 19.8638 49.9789 19.4728 51.1017 19.1274C53.3351 18.4402 56.4813 18 60 18C63.5187 18 66.6649 18.4402 68.8983 19.1274C70.0211 19.4728 70.8569 19.8638 71.3901 20.2517C71.9452 20.6555 72 20.921 72 21Z" stroke="white" stroke-opacity="0.95" stroke-width="2"/>
</svg>
