<svg width="120" height="120" viewBox="0 0 120 120" fill="none" xmlns="http://www.w3.org/2000/svg">
<path d="M38.1915 20C33.5 19.9999 34.0107 29.2811 33.027 33.7255L44.0938 30.9706C43.356 27.3104 42 20.0001 38.1915 20Z" fill="#546DDB"/>
<path d="M38.1915 20C33.5 19.9999 34.0107 29.2811 33.027 33.7255L44.0938 30.9706C43.356 27.3104 42 20.0001 38.1915 20Z" fill="white" fill-opacity="0.2"/>
<path d="M81.8825 20C86.9593 20 85.9923 29.2797 86.9593 33.7235L76.0806 30.9706C76.8058 27.311 78 20.0001 81.8825 20Z" fill="#7445B8"/>
<path d="M81.8825 20C86.9593 20 85.9923 29.2797 86.9593 33.7235L76.0806 30.9706C76.8058 27.311 78 20.0001 81.8825 20Z" fill="white" fill-opacity="0.2"/>
<path d="M23.4357 30.971C19.5992 30.971 14.2134 32.5396 12 33.3239C12.7378 35.8076 15.1725 41.1671 19.009 42.7357C22.8454 44.3044 28.4772 44.1736 30.8135 43.9122C29.338 45.7423 25.7966 51.3632 23.4357 59.2064C21.0748 67.0495 19.9927 77.3764 19.7467 81.5594C18.6401 83.7816 16.1316 90.2653 14.9511 98.4222C13.7707 106.579 13.7215 116.2 13.8445 119.991H106.805C106.682 115.808 106.141 105.638 104.961 98.4222C103.78 91.2065 101.272 84.1738 100.165 81.5594C99.9194 76.8535 98.9111 65.7946 96.8453 59.2064C94.7795 52.6181 91.066 46.2652 89.4674 43.9122C91.6808 43.3893 96.8453 42.7357 99.4275 41.1671C101.858 39.6904 104.469 35.5462 105.33 33.3239C102.871 32.801 97.1404 31.7553 93.8941 31.7553C90.6479 31.7553 87.623 32.801 86.5163 33.3239C81.7207 32.0167 69.4735 29.4023 58.8494 29.4023C48.2252 29.4023 36.9617 32.0167 32.658 33.3239C31.1824 32.5396 27.2722 30.971 23.4357 30.971Z" fill="#FEFEFE"/>
<path d="M60.7525 92.0065C42.5743 92.4137 36.0099 110.838 35 120H86C85.1584 110.499 78.9307 91.5993 60.7525 92.0065Z" fill="#D0333D"/>
<path d="M60.7525 92.0065C42.5743 92.4137 36.0099 110.838 35 120H86C85.1584 110.499 78.9307 91.5993 60.7525 92.0065Z" fill="white" fill-opacity="0.9"/>
<path d="M64.0019 38.7945C59.5752 36.2847 58.7541 31.713 59 29.4907C61.5001 29.4908 67.7645 29.2259 73.9619 30.1671C80.1593 31.1082 85.1055 32.1278 86.827 32.9122C89.7781 31.7357 91.9492 30.6724 98.2627 31.3435C101.952 31.7357 105.518 32.52 105.641 32.9122C104.903 34.873 103.058 39.5789 100.476 41.1475C97.8938 42.7161 91.5 43.9906 89.5 43.9906C89.9918 44.5135 91.0244 45.7455 92.5 48.4906C93.8813 51.0603 95.5 54.9906 96 56.9906C93.2948 55.8141 89.4093 53.3049 86.0892 50.9519C82.2433 48.2263 77.7738 43.8926 76.5441 42.324C74.2079 42.1932 68.4286 41.3044 64.0019 38.7945Z" fill="#2FC4A7"/>
<path d="M64.0019 38.7945C59.5752 36.2847 58.7541 31.713 59 29.4907C61.5001 29.4908 67.7645 29.2259 73.9619 30.1671C80.1593 31.1082 85.1055 32.1278 86.827 32.9122C89.7781 31.7357 91.9492 30.6724 98.2627 31.3435C101.952 31.7357 105.518 32.52 105.641 32.9122C104.903 34.873 103.058 39.5789 100.476 41.1475C97.8938 42.7161 91.5 43.9906 89.5 43.9906C89.9918 44.5135 91.0244 45.7455 92.5 48.4906C93.8813 51.0603 95.5 54.9906 96 56.9906C93.2948 55.8141 89.4093 53.3049 86.0892 50.9519C82.2433 48.2263 77.7738 43.8926 76.5441 42.324C74.2079 42.1932 68.4286 41.3044 64.0019 38.7945Z" fill="white" fill-opacity="0.4"/>
<path d="M59.5873 55.2847C49.6272 55.2847 40.4049 60.3827 40.4049 69.0102C40.4049 77.6377 52.9473 80.775 60.3251 80.775C69.5474 80.775 78.7697 76.0691 78.7697 69.0102C78.7697 61.9514 69.5474 55.2847 59.5873 55.2847Z" fill="#CE4317"/>
<path d="M59.5873 55.2847C49.6272 55.2847 40.4049 60.3827 40.4049 69.0102C40.4049 77.6377 52.9473 80.775 60.3251 80.775C69.5474 80.775 78.7697 76.0691 78.7697 69.0102C78.7697 61.9514 69.5474 55.2847 59.5873 55.2847Z" fill="white" fill-opacity="0.8"/>
<ellipse cx="41.1428" cy="52.5402" rx="3.32003" ry="3.52943" fill="#898989"/>
<ellipse cx="41.1428" cy="52.5402" rx="3.32003" ry="3.52943" fill="black" fill-opacity="0.8"/>
<ellipse cx="78.0319" cy="52.5402" rx="3.32003" ry="3.52943" fill="#898989"/>
<ellipse cx="78.0319" cy="52.5402" rx="3.32003" ry="3.52943" fill="black" fill-opacity="0.8"/>
<ellipse cx="64.7515" cy="60.7747" rx="1.47557" ry="1.56864" fill="#898989"/>
<ellipse cx="64.7515" cy="60.7747" rx="1.47557" ry="1.56864" fill="black" fill-opacity="0.8"/>
<ellipse cx="54.4227" cy="60.7747" rx="1.47557" ry="1.56864" fill="#898989"/>
<ellipse cx="54.4227" cy="60.7747" rx="1.47557" ry="1.56864" fill="black" fill-opacity="0.8"/>
<line x1="58" y1="70.9907" x2="62" y2="70.9907" stroke="#898989" stroke-width="2" stroke-linecap="round"/>
<line x1="58" y1="70.9907" x2="62" y2="70.9907" stroke="black" stroke-opacity="0.6" stroke-width="2" stroke-linecap="round"/>
<path d="M32.6579 88.6177C34.8713 90.5785 37.4535 93.7157 39.298 97.2452C41.2768 101.032 41.8802 107.049 35.2402 107.049C29.9281 107.049 26.1408 102.082 24.9112 99.5981" stroke="#898989" stroke-width="2" stroke-linecap="round"/>
<path d="M32.6579 88.6177C34.8713 90.5785 37.4535 93.7157 39.298 97.2452C41.2768 101.032 41.8802 107.049 35.2402 107.049C29.9281 107.049 26.1408 102.082 24.9112 99.5981" stroke="white" stroke-opacity="0.4" stroke-width="2" stroke-linecap="round"/>
<path d="M87.0055 88.2261C84.721 90.1869 82.0559 93.3241 80.1522 96.8536C78.1099 100.64 77.4871 106.658 84.3403 106.658C89.8229 106.658 93.7318 101.69 95.0009 99.2065" stroke="#898989" stroke-width="2" stroke-linecap="round"/>
<path d="M87.0055 88.2261C84.721 90.1869 82.0559 93.3241 80.1522 96.8536C78.1099 100.64 77.4871 106.658 84.3403 106.658C89.8229 106.658 93.7318 101.69 95.0009 99.2065" stroke="white" stroke-opacity="0.4" stroke-width="2" stroke-linecap="round"/>
<path d="M27.0668 70.5604C26.329 66.2466 23.9927 63.763 22.6401 63.1094C22.1482 64.678 21.2364 69.5569 20.7956 73.3055C20.4267 76.4428 20.1808 79.9722 20.0578 81.1487C19.8119 81.6715 18.8282 83.8938 17.8445 87.031C16.8607 90.1683 16.3689 92.1291 16 94.0899C19.566 93.9592 25.5912 94.0899 27.8046 87.031C29.649 81.1487 27.8046 78.0114 26.6979 76.8349C27.0668 76.0506 27.5297 73.2672 27.0668 70.5604Z" fill="#D0333D"/>
<path d="M27.0668 70.5604C26.329 66.2466 23.9927 63.763 22.6401 63.1094C22.1482 64.678 21.2364 69.5569 20.7956 73.3055C20.4267 76.4428 20.1808 79.9722 20.0578 81.1487C19.8119 81.6715 18.8282 83.8938 17.8445 87.031C16.8607 90.1683 16.3689 92.1291 16 94.0899C19.566 93.9592 25.5912 94.0899 27.8046 87.031C29.649 81.1487 27.8046 78.0114 26.6979 76.8349C27.0668 76.0506 27.5297 73.2672 27.0668 70.5604Z" fill="white" fill-opacity="0.6"/>
<path d="M98.6318 99.1873C98.6318 93.2265 101.583 89.9062 103.058 88.9912C103.673 90.8213 105.124 95.8932 106.01 101.54C106.895 107.187 106.87 112.782 106.747 114.874C104.042 112.129 98.6318 105.148 98.6318 99.1873Z" fill="#1D8CE0"/>
<path d="M98.6318 99.1873C98.6318 93.2265 101.583 89.9062 103.058 88.9912C103.673 90.8213 105.124 95.8932 106.01 101.54C106.895 107.187 106.87 112.782 106.747 114.874C104.042 112.129 98.6318 105.148 98.6318 99.1873Z" fill="white" fill-opacity="0.4"/>
<path d="M40 96.4907L31 106.971L38.7467 113.638L47.2313 103.834L40 96.4907Z" fill="#898989"/>
<path d="M40 96.4907L31 106.971L38.7467 113.638L47.2313 103.834L40 96.4907Z" fill="white" fill-opacity="0.2"/>
<path d="M90.1472 105.854L79.8182 95.6577L73.547 103.893L82.7693 112.913L90.1472 105.854Z" fill="#898989"/>
<path d="M90.1472 105.854L79.8182 95.6577L73.547 103.893L82.7693 112.913L90.1472 105.854Z" fill="white" fill-opacity="0.2"/>
</svg>
