<svg width="80" height="70" viewBox="0 0 80 70" fill="none" xmlns="http://www.w3.org/2000/svg">
<g clip-path="url(#clip0_1441_12076)">
<path d="M59.1014 7.40413C59.8212 4.71764 53.2458 2.21166 49.3821 1.17638C45.5184 0.141105 38.5547 -0.915999 37.8511 1.71011C37.4628 3.159 38.7823 4.03019 39.1359 4.64256C38.8655 6.29558 37.8279 10.2967 35.8406 13.0771C33.3564 16.5526 29.858 16.8918 27.2674 18.0268C24.3349 19.3116 22.8167 23.0459 22.299 24.9778L14.0168 55.8874C14.1116 57.4657 17.0283 61.2862 21.1572 64.0123C25.1157 66.6259 36.2238 69.6023 41.4417 69.4475C46.183 69.3069 52.2656 67.6891 52.6539 66.2402L60.9361 35.3305C61.4968 33.2377 62.5407 29.3418 60.1088 26.8267C57.6769 24.3115 55.8315 21.5395 55.1591 18.2535C54.6211 15.6247 55.8008 11.351 56.5225 9.30131C57.6179 9.07716 58.7779 8.61154 59.1014 7.40413Z" fill="#FEFEFE"/>
<path d="M52.2021 37.68C50.359 38.2595 49.3958 36.3711 47.2253 36.3457C45.0548 36.3203 44.198 36.8271 43.1945 37.9016C42.1453 39.0249 41.5295 41.5341 42.5832 43.0725C44.0758 45.2519 46.1129 47.5984 49.9355 48.7188C54.3145 50.0023 56.1445 47.6717 57.8302 46.9216L59.406 41.1601C59.3231 40.3892 59.3056 38.7417 58.6693 37.4603C57.874 35.8586 56.0524 34.9514 54.8312 35.4644C53.4388 36.0494 53.6117 37.2368 52.2021 37.68Z" fill="#546DDB"/>
<path d="M52.2021 37.68C50.359 38.2595 49.3958 36.3711 47.2253 36.3457C45.0548 36.3203 44.198 36.8271 43.1945 37.9016C42.1453 39.0249 41.5295 41.5341 42.5832 43.0725C44.0758 45.2519 46.1129 47.5984 49.9355 48.7188C54.3145 50.0023 56.1445 47.6717 57.8302 46.9216L59.406 41.1601C59.3231 40.3892 59.3056 38.7417 58.6693 37.4603C57.874 35.8586 56.0524 34.9514 54.8312 35.4644C53.4388 36.0494 53.6117 37.2368 52.2021 37.68Z" fill="white" fill-opacity="0.4"/>
<path d="M31.9667 16.1801C29.9689 17.017 28.3777 17.3184 27.2674 18.0268C27.9281 19.8511 28.9346 20.2951 30.7516 20.7149C33.6589 21.3865 31.5989 22.6807 35.1486 25.8069C38.6982 28.9332 42.6959 27.7425 44.1313 25.664C45.5699 23.5864 43.4802 21.5044 42.6075 20.7935C41.7348 20.0826 43.0504 19.0935 43.2817 17.5096C43.5103 15.9231 43.2787 15.0057 41.4562 13.3718C40.2392 12.2813 38.5869 11.541 36.7118 11.7575C35.633 13.7206 34.2276 15.233 31.9667 16.1801Z" fill="#546DDB"/>
<path d="M31.9667 16.1801C29.9689 17.017 28.3777 17.3184 27.2674 18.0268C27.9281 19.8511 28.9346 20.2951 30.7516 20.7149C33.6589 21.3865 31.5989 22.6807 35.1486 25.8069C38.6982 28.9332 42.6959 27.7425 44.1313 25.664C45.5699 23.5864 43.4802 21.5044 42.6075 20.7935C41.7348 20.0826 43.0504 19.0935 43.2817 17.5096C43.5103 15.9231 43.2787 15.0057 41.4562 13.3718C40.2392 12.2813 38.5869 11.541 36.7118 11.7575C35.633 13.7206 34.2276 15.233 31.9667 16.1801Z" fill="white" fill-opacity="0.4"/>
<path d="M26.6965 37.5439C22.1876 35.2595 18.7059 38.3134 18.158 40.4324L14.0169 55.8873C14.241 56.9826 15.6168 59.3981 18.1647 61.6575C22.3473 65.3664 25.6117 66.2686 28.1429 66.9193C28.7899 64.5045 27.8538 63.9073 28.2265 62.7218C28.5991 61.5364 31.3174 62.7745 34.0027 61.7997C35.5554 61.2362 37.7932 58.1493 35.3317 55.2907C32.6732 52.2034 28.224 53.0034 28.1595 51.2883C28.0949 49.5733 29.9086 49.7182 30.668 47.1725C31.6255 43.9627 30.3036 39.3713 26.6965 37.5439Z" fill="#546DDB"/>
<path d="M26.6965 37.5439C22.1876 35.2595 18.7059 38.3134 18.158 40.4324L14.0169 55.8873C14.241 56.9826 15.6168 59.3981 18.1647 61.6575C22.3473 65.3664 25.6117 66.2686 28.1429 66.9193C28.7899 64.5045 27.8538 63.9073 28.2265 62.7218C28.5991 61.5364 31.3174 62.7745 34.0027 61.7997C35.5554 61.2362 37.7932 58.1493 35.3317 55.2907C32.6732 52.2034 28.224 53.0034 28.1595 51.2883C28.0949 49.5733 29.9086 49.7182 30.668 47.1725C31.6255 43.9627 30.3036 39.3713 26.6965 37.5439Z" fill="white" fill-opacity="0.4"/>
<path d="M12.5523 22.6105C15.0798 22.6262 19.9594 22.6332 22.9668 23.1546L22.0402 25.9436L21.9825 25.9419C18.1085 25.8289 11.5256 25.6367 10.6826 28.9269C9.83541 32.2335 22.6285 39.6761 37.8044 43.7034C52.9803 47.7306 67.7943 48.2663 69.0015 44.0453C69.806 41.2324 63.8381 37.2221 60.8067 35.8134L61.4537 33.3986C63.4263 34.1994 67.3109 35.9325 69.2814 37.0685C71.5851 38.3965 79.9052 43.0723 78.8764 47.0874C77.7569 51.4569 63.8052 53.5376 37.0177 46.7738C13.0623 40.725 -0.668267 31.5472 0.632822 26.4692C1.44979 23.2807 9.03995 22.5886 12.5523 22.6105Z" fill="#FAA21E"/>
<path d="M12.5523 22.6105C15.0798 22.6262 19.9594 22.6332 22.9668 23.1546L22.0402 25.9436L21.9825 25.9419C18.1085 25.8289 11.5256 25.6367 10.6826 28.9269C9.83541 32.2335 22.6285 39.6761 37.8044 43.7034C52.9803 47.7306 67.7943 48.2663 69.0015 44.0453C69.806 41.2324 63.8381 37.2221 60.8067 35.8134L61.4537 33.3986C63.4263 34.1994 67.3109 35.9325 69.2814 37.0685C71.5851 38.3965 79.9052 43.0723 78.8764 47.0874C77.7569 51.4569 63.8052 53.5376 37.0177 46.7738C13.0623 40.725 -0.668267 31.5472 0.632822 26.4692C1.44979 23.2807 9.03995 22.5886 12.5523 22.6105Z" fill="white" fill-opacity="0.2"/>
<path d="M57.4381 6.82817C57.1132 8.06544 52.9523 7.98142 48.0772 6.69681C43.2022 5.4122 39.4536 3.52949 39.7785 2.29223C40.1034 1.05496 44.3788 0.931684 49.2538 2.21629C54.1289 3.5009 57.7631 5.59091 57.4381 6.82817Z" fill="#898989"/>
<path d="M57.4381 6.82817C57.1132 8.06544 52.9523 7.98142 48.0772 6.69681C43.2022 5.4122 39.4536 3.52949 39.7785 2.29223C40.1034 1.05496 44.3788 0.931684 49.2538 2.21629C54.1289 3.5009 57.7631 5.59091 57.4381 6.82817Z" fill="white" fill-opacity="0.6"/>
</g>
<defs>
<clipPath id="clip0_1441_12076">
<rect width="80" height="70" fill="white"/>
</clipPath>
</defs>
</svg>
