<svg width="70" height="70" viewBox="0 0 70 70" fill="none" xmlns="http://www.w3.org/2000/svg">
<g clip-path="url(#clip0_1802_8789)">
<path d="M2.76 2.38002C2.94667 2.38002 3.14 2.43336 3.34 2.54002C3.55333 2.63336 3.71333 2.76002 3.82 2.92002L8.68 10.4L7.68 10.36L12.66 2.92002C12.9133 2.56002 13.24 2.38002 13.64 2.38002C13.96 2.38002 14.2467 2.49336 14.5 2.72002C14.7533 2.94669 14.88 3.24002 14.88 3.60002L14.88 15.18C14.88 15.5267 14.7667 15.82 14.54 16.06C14.3133 16.2867 14.0133 16.4 13.64 16.4C13.2667 16.4 12.96 16.2867 12.72 16.06C12.4933 15.82 12.38 15.5267 12.38 15.18L12.38 5.76002L13.16 5.94002L9.08 12.16C8.96 12.3067 8.80667 12.4334 8.62 12.54C8.44667 12.6467 8.26667 12.6934 8.08 12.68C7.90667 12.6934 7.72667 12.6467 7.54 12.54C7.36667 12.4334 7.22 12.3067 7.1 12.16L3.28 6.12002L3.8 5.06002L3.8 15.18C3.8 15.5267 3.69333 15.82 3.48 16.06C3.26667 16.2867 2.98667 16.4 2.64 16.4C2.30667 16.4 2.03333 16.2867 1.82 16.06C1.60667 15.82 1.5 15.5267 1.5 15.18L1.5 3.60002C1.5 3.26669 1.62 2.98002 1.86 2.74002C2.11333 2.50002 2.41333 2.38002 2.76 2.38002ZM19.9467 15.18C19.9467 15.5267 19.8334 15.82 19.6067 16.06C19.3801 16.2867 19.0934 16.4 18.7467 16.4C18.4001 16.4 18.1134 16.2867 17.8867 16.06C17.6601 15.82 17.5467 15.5267 17.5467 15.18L17.5467 6.92002C17.5467 6.57336 17.6601 6.28669 17.8867 6.06002C18.1134 5.82002 18.4001 5.70002 18.7467 5.70002C19.0934 5.70002 19.3801 5.82002 19.6067 6.06002C19.8334 6.28669 19.9467 6.57336 19.9467 6.92002L19.9467 15.18ZM18.7267 4.40002C18.2734 4.40002 17.9534 4.32669 17.7667 4.18002C17.5801 4.03336 17.4867 3.77336 17.4867 3.40002L17.4867 3.02002C17.4867 2.63336 17.5867 2.37336 17.7867 2.24002C18.0001 2.09336 18.3201 2.02002 18.7467 2.02002C19.2134 2.02002 19.5401 2.09336 19.7267 2.24002C19.9134 2.38669 20.0067 2.64669 20.0067 3.02002L20.0067 3.40002C20.0067 3.78669 19.9067 4.05336 19.7067 4.20002C19.5067 4.33336 19.1801 4.40002 18.7267 4.40002ZM25.0133 15.18C25.0133 15.5267 24.8933 15.82 24.6533 16.06C24.4266 16.2867 24.1399 16.4 23.7933 16.4C23.4599 16.4 23.1799 16.2867 22.9533 16.06C22.7266 15.82 22.6133 15.5267 22.6133 15.18L22.6133 2.82002C22.6133 2.47336 22.7266 2.18669 22.9533 1.96002C23.1933 1.72002 23.4866 1.60002 23.8333 1.60002C24.1799 1.60002 24.4599 1.72002 24.6733 1.96002C24.8999 2.18669 25.0133 2.47336 25.0133 2.82002L25.0133 15.18ZM29.2039 16.4C28.8572 16.4 28.5706 16.2867 28.3439 16.06C28.1172 15.82 28.0039 15.5267 28.0039 15.18L28.0039 2.82002C28.0039 2.47336 28.1172 2.18669 28.3439 1.96002C28.5706 1.72002 28.8572 1.60002 29.2039 1.60002C29.5506 1.60002 29.8372 1.72002 30.0639 1.96002C30.2906 2.18669 30.4039 2.47336 30.4039 2.82002L30.4039 15.18C30.4039 15.5267 30.2906 15.82 30.0639 16.06C29.8372 16.2867 29.5506 16.4 29.2039 16.4ZM35.5639 5.70002C35.8706 5.70002 36.1372 5.82669 36.3639 6.08002C36.5906 6.33336 36.7039 6.58002 36.7039 6.82002C36.7039 7.14002 36.5439 7.44002 36.2239 7.72002L30.2039 13.26L30.1039 10.5L34.6839 6.08002C34.9372 5.82669 35.2306 5.70002 35.5639 5.70002ZM35.8639 16.38C35.5172 16.38 35.2239 16.2467 34.9839 15.98L31.2839 12.06L33.1039 10.38L36.7039 14.3C36.9572 14.5667 37.0839 14.8667 37.0839 15.2C37.0839 15.5467 36.9439 15.8334 36.6639 16.06C36.3972 16.2734 36.1306 16.38 35.8639 16.38ZM47.1306 5.70002C47.4773 5.70002 47.764 5.82002 47.9906 6.06002C48.2173 6.28669 48.3306 6.57336 48.3306 6.92002L48.3306 15.42C48.3306 16.6467 48.0973 17.62 47.6306 18.34C47.1773 19.0734 46.564 19.6 45.7906 19.92C45.0173 20.24 44.1506 20.4 43.1906 20.4C42.764 20.4 42.3106 20.3667 41.8306 20.3C41.3506 20.2334 40.9573 20.1334 40.6506 20C40.2506 19.8267 39.9706 19.6067 39.8106 19.34C39.664 19.0867 39.6373 18.8134 39.7306 18.52C39.8506 18.1334 40.044 17.8667 40.3106 17.72C40.5773 17.5867 40.8573 17.5734 41.1506 17.68C41.364 17.7467 41.644 17.8467 41.9906 17.98C42.3373 18.1267 42.7373 18.2 43.1906 18.2C43.804 18.2 44.3106 18.1134 44.7106 17.94C45.124 17.78 45.4306 17.5 45.6306 17.1C45.844 16.7134 45.9506 16.18 45.9506 15.5L45.9506 14.16L46.3706 14.64C46.144 15.08 45.8573 15.4467 45.5106 15.74C45.1773 16.02 44.7773 16.2334 44.3106 16.38C43.844 16.5267 43.3106 16.6 42.7106 16.6C42.004 16.6 41.384 16.44 40.8506 16.12C40.3306 15.7867 39.924 15.3334 39.6306 14.76C39.3373 14.1734 39.1906 13.5067 39.1906 12.76L39.1906 6.92002C39.1906 6.57336 39.304 6.28669 39.5306 6.06002C39.7573 5.82002 40.044 5.70002 40.3906 5.70002C40.7373 5.70002 41.024 5.82002 41.2506 6.06002C41.4773 6.28669 41.5906 6.57336 41.5906 6.92002L41.5906 12.04C41.5906 12.9067 41.7773 13.52 42.1506 13.88C42.5373 14.2267 43.0706 14.4 43.7506 14.4C44.2173 14.4 44.6106 14.3134 44.9306 14.14C45.2506 13.9534 45.4973 13.6867 45.6706 13.34C45.844 12.98 45.9306 12.5467 45.9306 12.04L45.9306 6.92002C45.9306 6.57336 46.044 6.28669 46.2706 6.06002C46.4973 5.82002 46.784 5.70002 47.1306 5.70002ZM17.24 28.34C17.5467 28.34 17.84 28.46 18.12 28.7C18.4 28.9267 18.54 29.24 18.54 29.64C18.54 29.76 18.52 29.8934 18.48 30.04L14.54 41.64C14.46 41.88 14.3133 42.0667 14.1 42.2C13.9 42.32 13.6867 42.3867 13.46 42.4C13.2333 42.4 13.0067 42.3334 12.78 42.2C12.5667 42.0667 12.4 41.8734 12.28 41.62L9.32 34.9L9.5 35.02L6.58 41.62C6.46 41.8734 6.28667 42.0667 6.06 42.2C5.84667 42.3334 5.62667 42.4 5.4 42.4C5.18667 42.3867 4.97333 42.32 4.76 42.2C4.54667 42.0667 4.4 41.88 4.32 41.64L0.38 30.04C0.34 29.8934 0.32 29.76 0.32 29.64C0.32 29.24 0.46 28.9267 0.74 28.7C1.03333 28.46 1.33333 28.34 1.64 28.34C1.89333 28.34 2.12667 28.4067 2.34 28.54C2.56667 28.6734 2.72 28.8667 2.8 29.12L5.98 38.76L5.54 38.74L8.38 31.92C8.48667 31.68 8.64 31.4934 8.84 31.36C9.04 31.2134 9.26667 31.1467 9.52 31.16C9.77333 31.1467 10 31.2134 10.2 31.36C10.4 31.4934 10.5467 31.68 10.64 31.92L13.24 38.44L12.92 38.64L16.06 29.12C16.14 28.8667 16.2933 28.6734 16.52 28.54C16.7467 28.4067 16.9867 28.34 17.24 28.34ZM28.7514 31.5C29.0981 31.5 29.3847 31.6134 29.6114 31.84C29.8381 32.0667 29.9514 32.36 29.9514 32.72L29.9514 41.18C29.9514 41.5267 29.8381 41.82 29.6114 42.06C29.3847 42.2867 29.0981 42.4 28.7514 42.4C28.4047 42.4 28.1181 42.2867 27.8914 42.06C27.6647 41.82 27.5514 41.5267 27.5514 41.18L27.5514 40.2L27.9914 40.38C27.9914 40.5534 27.8981 40.7667 27.7114 41.02C27.5247 41.26 27.2714 41.5 26.9514 41.74C26.6314 41.98 26.2514 42.1867 25.8114 42.36C25.3847 42.52 24.9181 42.6 24.4114 42.6C23.4914 42.6 22.6581 42.3667 21.9114 41.9C21.1647 41.42 20.5714 40.7667 20.1314 39.94C19.7047 39.1 19.4914 38.14 19.4914 37.06C19.4914 35.9667 19.7047 35.0067 20.1314 34.18C20.5714 33.34 21.1581 32.6867 21.8914 32.22C22.6247 31.74 23.4381 31.5 24.3314 31.5C24.9047 31.5 25.4314 31.5867 25.9114 31.76C26.3914 31.9334 26.8047 32.1534 27.1514 32.42C27.5114 32.6867 27.7847 32.96 27.9714 33.24C28.1714 33.5067 28.2714 33.7334 28.2714 33.92L27.5514 34.18L27.5514 32.72C27.5514 32.3734 27.6647 32.0867 27.8914 31.86C28.1181 31.62 28.4047 31.5 28.7514 31.5ZM24.7114 40.4C25.2981 40.4 25.8114 40.2534 26.2514 39.96C26.6914 39.6667 27.0314 39.2667 27.2714 38.76C27.5247 38.2534 27.6514 37.6867 27.6514 37.06C27.6514 36.42 27.5247 35.8467 27.2714 35.34C27.0314 34.8334 26.6914 34.4334 26.2514 34.14C25.8114 33.8467 25.2981 33.7 24.7114 33.7C24.1381 33.7 23.6314 33.8467 23.1914 34.14C22.7514 34.4334 22.4047 34.8334 22.1514 35.34C21.9114 35.8467 21.7914 36.42 21.7914 37.06C21.7914 37.6867 21.9114 38.2534 22.1514 38.76C22.4047 39.2667 22.7514 39.6667 23.1914 39.96C23.6314 40.2534 24.1381 40.4 24.7114 40.4ZM40.49 31.7C40.8367 31.7 41.1233 31.82 41.35 32.06C41.5767 32.2867 41.69 32.5734 41.69 32.92L41.69 41.42C41.69 42.6467 41.4567 43.62 40.99 44.34C40.5367 45.0734 39.9233 45.6 39.15 45.92C38.3767 46.24 37.51 46.4 36.55 46.4C36.1233 46.4 35.67 46.3667 35.19 46.3C34.71 46.2334 34.3167 46.1334 34.01 46C33.61 45.8267 33.33 45.6067 33.17 45.34C33.0233 45.0867 32.9967 44.8134 33.09 44.52C33.21 44.1334 33.4033 43.8667 33.67 43.72C33.9367 43.5867 34.2167 43.5734 34.51 43.68C34.7233 43.7467 35.0033 43.8467 35.35 43.98C35.6967 44.1267 36.0967 44.2 36.55 44.2C37.1633 44.2 37.67 44.1134 38.07 43.94C38.4833 43.78 38.79 43.5 38.99 43.1C39.2033 42.7134 39.31 42.18 39.31 41.5L39.31 40.16L39.73 40.64C39.5033 41.08 39.2167 41.4467 38.87 41.74C38.5367 42.02 38.1367 42.2334 37.67 42.38C37.2033 42.5267 36.67 42.6 36.07 42.6C35.3633 42.6 34.7433 42.44 34.21 42.12C33.69 41.7867 33.2833 41.3334 32.99 40.76C32.6967 40.1734 32.55 39.5067 32.55 38.76L32.55 32.92C32.55 32.5734 32.6633 32.2867 32.89 32.06C33.1167 31.82 33.4033 31.7 33.75 31.7C34.0967 31.7 34.3833 31.82 34.61 32.06C34.8367 32.2867 34.95 32.5734 34.95 32.92L34.95 38.04C34.95 38.9067 35.1367 39.52 35.51 39.88C35.8967 40.2267 36.43 40.4 37.11 40.4C37.5767 40.4 37.97 40.3134 38.29 40.14C38.61 39.9534 38.8567 39.6867 39.03 39.34C39.2033 38.98 39.29 38.5467 39.29 38.04L39.29 32.92C39.29 32.5734 39.4033 32.2867 39.63 32.06C39.8567 31.82 40.1433 31.7 40.49 31.7ZM4 67.18C4 67.5267 3.87333 67.82 3.62 68.06C3.36667 68.2867 3.07333 68.4 2.74 68.4C2.36667 68.4 2.06667 68.2867 1.84 68.06C1.61333 67.82 1.5 67.5267 1.5 67.18L1.5 55.62C1.5 55.2734 1.62 54.9867 1.86 54.76C2.1 54.52 2.40667 54.4 2.78 54.4C3.1 54.4 3.38 54.52 3.62 54.76C3.87333 54.9867 4 55.2734 4 55.62L4 67.18ZM15.5678 53.6C15.9145 53.6 16.2011 53.7134 16.4278 53.94C16.6545 54.1667 16.7678 54.46 16.7678 54.82L16.7678 67.18C16.7678 67.5267 16.6545 67.82 16.4278 68.06C16.2011 68.2867 15.9145 68.4 15.5678 68.4C15.2211 68.4 14.9345 68.2867 14.7078 68.06C14.4811 67.82 14.3678 67.5267 14.3678 67.18L14.3678 66.2L14.8078 66.38C14.8078 66.5534 14.7145 66.7667 14.5278 67.02C14.3411 67.26 14.0878 67.5 13.7678 67.74C13.4478 67.98 13.0678 68.1867 12.6278 68.36C12.2011 68.52 11.7345 68.6 11.2278 68.6C10.3078 68.6 9.47448 68.3667 8.72781 67.9C7.98115 67.42 7.38781 66.7667 6.94781 65.94C6.52115 65.1 6.30781 64.14 6.30781 63.06C6.30781 61.9667 6.52115 61.0067 6.94781 60.18C7.38781 59.34 7.97448 58.6867 8.70781 58.22C9.44115 57.74 10.2545 57.5 11.1478 57.5C11.7211 57.5 12.2478 57.5867 12.7278 57.76C13.2078 57.9334 13.6211 58.1534 13.9678 58.42C14.3278 58.6867 14.6011 58.96 14.7878 59.24C14.9878 59.5067 15.0878 59.7334 15.0878 59.92L14.3678 60.18L14.3678 54.82C14.3678 54.4734 14.4811 54.1867 14.7078 53.96C14.9345 53.72 15.2211 53.6 15.5678 53.6ZM11.5278 66.4C12.1145 66.4 12.6278 66.2534 13.0678 65.96C13.5078 65.6667 13.8478 65.2667 14.0878 64.76C14.3411 64.2534 14.4678 63.6867 14.4678 63.06C14.4678 62.42 14.3411 61.8467 14.0878 61.34C13.8478 60.8334 13.5078 60.4334 13.0678 60.14C12.6278 59.8467 12.1145 59.7 11.5278 59.7C10.9545 59.7 10.4478 59.8467 10.0078 60.14C9.56781 60.4334 9.22115 60.8334 8.96781 61.34C8.72781 61.8467 8.60781 62.42 8.60781 63.06C8.60781 63.6867 8.72781 64.2534 8.96781 64.76C9.22115 65.2667 9.56781 65.6667 10.0078 65.96C10.4478 66.2534 10.9545 66.4 11.5278 66.4ZM21.9664 67.18C21.9664 67.5267 21.8464 67.82 21.6064 68.06C21.3797 68.2867 21.0931 68.4 20.7464 68.4C20.4131 68.4 20.1331 68.2867 19.9064 68.06C19.6797 67.82 19.5664 67.5267 19.5664 67.18L19.5664 54.82C19.5664 54.4734 19.6797 54.1867 19.9064 53.96C20.1464 53.72 20.4397 53.6 20.7864 53.6C21.1331 53.6 21.4131 53.72 21.6264 53.96C21.8531 54.1867 21.9664 54.4734 21.9664 54.82L21.9664 67.18ZM29.6017 68.6C28.4684 68.6 27.4817 68.3667 26.6417 67.9C25.8151 67.42 25.1751 66.7734 24.7217 65.96C24.2817 65.1467 24.0617 64.2267 24.0617 63.2C24.0617 62 24.3017 60.98 24.7817 60.14C25.2751 59.2867 25.9151 58.6334 26.7017 58.18C27.4884 57.7267 28.3217 57.5 29.2017 57.5C29.8817 57.5 30.5217 57.64 31.1217 57.92C31.7351 58.2 32.2751 58.5867 32.7417 59.08C33.2084 59.56 33.5751 60.12 33.8417 60.76C34.1217 61.4 34.2617 62.08 34.2617 62.8C34.2484 63.12 34.1217 63.38 33.8817 63.58C33.6417 63.78 33.3617 63.88 33.0417 63.88L25.4017 63.88L24.8017 61.88L32.1417 61.88L31.7017 62.28L31.7017 61.74C31.6751 61.3534 31.5351 61.0067 31.2817 60.7C31.0417 60.3934 30.7351 60.1534 30.3617 59.98C30.0017 59.7934 29.6151 59.7 29.2017 59.7C28.8017 59.7 28.4284 59.7534 28.0817 59.86C27.7351 59.9667 27.4351 60.1467 27.1817 60.4C26.9284 60.6534 26.7284 60.9934 26.5817 61.42C26.4351 61.8467 26.3617 62.3867 26.3617 63.04C26.3617 63.76 26.5084 64.3734 26.8017 64.88C27.1084 65.3734 27.4951 65.7534 27.9617 66.02C28.4417 66.2734 28.9484 66.4 29.4817 66.4C29.9751 66.4 30.3684 66.36 30.6617 66.28C30.9551 66.2 31.1884 66.1067 31.3617 66C31.5484 65.88 31.7151 65.78 31.8617 65.7C32.1017 65.58 32.3284 65.52 32.5417 65.52C32.8351 65.52 33.0751 65.62 33.2617 65.82C33.4617 66.02 33.5617 66.2534 33.5617 66.52C33.5617 66.88 33.3751 67.2067 33.0017 67.5C32.6551 67.7934 32.1684 68.0534 31.5417 68.28C30.9151 68.4934 30.2684 68.6 29.6017 68.6Z" fill="#898989"/>
<path d="M2.76 2.38002C2.94667 2.38002 3.14 2.43336 3.34 2.54002C3.55333 2.63336 3.71333 2.76002 3.82 2.92002L8.68 10.4L7.68 10.36L12.66 2.92002C12.9133 2.56002 13.24 2.38002 13.64 2.38002C13.96 2.38002 14.2467 2.49336 14.5 2.72002C14.7533 2.94669 14.88 3.24002 14.88 3.60002L14.88 15.18C14.88 15.5267 14.7667 15.82 14.54 16.06C14.3133 16.2867 14.0133 16.4 13.64 16.4C13.2667 16.4 12.96 16.2867 12.72 16.06C12.4933 15.82 12.38 15.5267 12.38 15.18L12.38 5.76002L13.16 5.94002L9.08 12.16C8.96 12.3067 8.80667 12.4334 8.62 12.54C8.44667 12.6467 8.26667 12.6934 8.08 12.68C7.90667 12.6934 7.72667 12.6467 7.54 12.54C7.36667 12.4334 7.22 12.3067 7.1 12.16L3.28 6.12002L3.8 5.06002L3.8 15.18C3.8 15.5267 3.69333 15.82 3.48 16.06C3.26667 16.2867 2.98667 16.4 2.64 16.4C2.30667 16.4 2.03333 16.2867 1.82 16.06C1.60667 15.82 1.5 15.5267 1.5 15.18L1.5 3.60002C1.5 3.26669 1.62 2.98002 1.86 2.74002C2.11333 2.50002 2.41333 2.38002 2.76 2.38002ZM19.9467 15.18C19.9467 15.5267 19.8334 15.82 19.6067 16.06C19.3801 16.2867 19.0934 16.4 18.7467 16.4C18.4001 16.4 18.1134 16.2867 17.8867 16.06C17.6601 15.82 17.5467 15.5267 17.5467 15.18L17.5467 6.92002C17.5467 6.57336 17.6601 6.28669 17.8867 6.06002C18.1134 5.82002 18.4001 5.70002 18.7467 5.70002C19.0934 5.70002 19.3801 5.82002 19.6067 6.06002C19.8334 6.28669 19.9467 6.57336 19.9467 6.92002L19.9467 15.18ZM18.7267 4.40002C18.2734 4.40002 17.9534 4.32669 17.7667 4.18002C17.5801 4.03336 17.4867 3.77336 17.4867 3.40002L17.4867 3.02002C17.4867 2.63336 17.5867 2.37336 17.7867 2.24002C18.0001 2.09336 18.3201 2.02002 18.7467 2.02002C19.2134 2.02002 19.5401 2.09336 19.7267 2.24002C19.9134 2.38669 20.0067 2.64669 20.0067 3.02002L20.0067 3.40002C20.0067 3.78669 19.9067 4.05336 19.7067 4.20002C19.5067 4.33336 19.1801 4.40002 18.7267 4.40002ZM25.0133 15.18C25.0133 15.5267 24.8933 15.82 24.6533 16.06C24.4266 16.2867 24.1399 16.4 23.7933 16.4C23.4599 16.4 23.1799 16.2867 22.9533 16.06C22.7266 15.82 22.6133 15.5267 22.6133 15.18L22.6133 2.82002C22.6133 2.47336 22.7266 2.18669 22.9533 1.96002C23.1933 1.72002 23.4866 1.60002 23.8333 1.60002C24.1799 1.60002 24.4599 1.72002 24.6733 1.96002C24.8999 2.18669 25.0133 2.47336 25.0133 2.82002L25.0133 15.18ZM29.2039 16.4C28.8572 16.4 28.5706 16.2867 28.3439 16.06C28.1172 15.82 28.0039 15.5267 28.0039 15.18L28.0039 2.82002C28.0039 2.47336 28.1172 2.18669 28.3439 1.96002C28.5706 1.72002 28.8572 1.60002 29.2039 1.60002C29.5506 1.60002 29.8372 1.72002 30.0639 1.96002C30.2906 2.18669 30.4039 2.47336 30.4039 2.82002L30.4039 15.18C30.4039 15.5267 30.2906 15.82 30.0639 16.06C29.8372 16.2867 29.5506 16.4 29.2039 16.4ZM35.5639 5.70002C35.8706 5.70002 36.1372 5.82669 36.3639 6.08002C36.5906 6.33336 36.7039 6.58002 36.7039 6.82002C36.7039 7.14002 36.5439 7.44002 36.2239 7.72002L30.2039 13.26L30.1039 10.5L34.6839 6.08002C34.9372 5.82669 35.2306 5.70002 35.5639 5.70002ZM35.8639 16.38C35.5172 16.38 35.2239 16.2467 34.9839 15.98L31.2839 12.06L33.1039 10.38L36.7039 14.3C36.9572 14.5667 37.0839 14.8667 37.0839 15.2C37.0839 15.5467 36.9439 15.8334 36.6639 16.06C36.3972 16.2734 36.1306 16.38 35.8639 16.38ZM47.1306 5.70002C47.4773 5.70002 47.764 5.82002 47.9906 6.06002C48.2173 6.28669 48.3306 6.57336 48.3306 6.92002L48.3306 15.42C48.3306 16.6467 48.0973 17.62 47.6306 18.34C47.1773 19.0734 46.564 19.6 45.7906 19.92C45.0173 20.24 44.1506 20.4 43.1906 20.4C42.764 20.4 42.3106 20.3667 41.8306 20.3C41.3506 20.2334 40.9573 20.1334 40.6506 20C40.2506 19.8267 39.9706 19.6067 39.8106 19.34C39.664 19.0867 39.6373 18.8134 39.7306 18.52C39.8506 18.1334 40.044 17.8667 40.3106 17.72C40.5773 17.5867 40.8573 17.5734 41.1506 17.68C41.364 17.7467 41.644 17.8467 41.9906 17.98C42.3373 18.1267 42.7373 18.2 43.1906 18.2C43.804 18.2 44.3106 18.1134 44.7106 17.94C45.124 17.78 45.4306 17.5 45.6306 17.1C45.844 16.7134 45.9506 16.18 45.9506 15.5L45.9506 14.16L46.3706 14.64C46.144 15.08 45.8573 15.4467 45.5106 15.74C45.1773 16.02 44.7773 16.2334 44.3106 16.38C43.844 16.5267 43.3106 16.6 42.7106 16.6C42.004 16.6 41.384 16.44 40.8506 16.12C40.3306 15.7867 39.924 15.3334 39.6306 14.76C39.3373 14.1734 39.1906 13.5067 39.1906 12.76L39.1906 6.92002C39.1906 6.57336 39.304 6.28669 39.5306 6.06002C39.7573 5.82002 40.044 5.70002 40.3906 5.70002C40.7373 5.70002 41.024 5.82002 41.2506 6.06002C41.4773 6.28669 41.5906 6.57336 41.5906 6.92002L41.5906 12.04C41.5906 12.9067 41.7773 13.52 42.1506 13.88C42.5373 14.2267 43.0706 14.4 43.7506 14.4C44.2173 14.4 44.6106 14.3134 44.9306 14.14C45.2506 13.9534 45.4973 13.6867 45.6706 13.34C45.844 12.98 45.9306 12.5467 45.9306 12.04L45.9306 6.92002C45.9306 6.57336 46.044 6.28669 46.2706 6.06002C46.4973 5.82002 46.784 5.70002 47.1306 5.70002ZM17.24 28.34C17.5467 28.34 17.84 28.46 18.12 28.7C18.4 28.9267 18.54 29.24 18.54 29.64C18.54 29.76 18.52 29.8934 18.48 30.04L14.54 41.64C14.46 41.88 14.3133 42.0667 14.1 42.2C13.9 42.32 13.6867 42.3867 13.46 42.4C13.2333 42.4 13.0067 42.3334 12.78 42.2C12.5667 42.0667 12.4 41.8734 12.28 41.62L9.32 34.9L9.5 35.02L6.58 41.62C6.46 41.8734 6.28667 42.0667 6.06 42.2C5.84667 42.3334 5.62667 42.4 5.4 42.4C5.18667 42.3867 4.97333 42.32 4.76 42.2C4.54667 42.0667 4.4 41.88 4.32 41.64L0.38 30.04C0.34 29.8934 0.32 29.76 0.32 29.64C0.32 29.24 0.46 28.9267 0.74 28.7C1.03333 28.46 1.33333 28.34 1.64 28.34C1.89333 28.34 2.12667 28.4067 2.34 28.54C2.56667 28.6734 2.72 28.8667 2.8 29.12L5.98 38.76L5.54 38.74L8.38 31.92C8.48667 31.68 8.64 31.4934 8.84 31.36C9.04 31.2134 9.26667 31.1467 9.52 31.16C9.77333 31.1467 10 31.2134 10.2 31.36C10.4 31.4934 10.5467 31.68 10.64 31.92L13.24 38.44L12.92 38.64L16.06 29.12C16.14 28.8667 16.2933 28.6734 16.52 28.54C16.7467 28.4067 16.9867 28.34 17.24 28.34ZM28.7514 31.5C29.0981 31.5 29.3847 31.6134 29.6114 31.84C29.8381 32.0667 29.9514 32.36 29.9514 32.72L29.9514 41.18C29.9514 41.5267 29.8381 41.82 29.6114 42.06C29.3847 42.2867 29.0981 42.4 28.7514 42.4C28.4047 42.4 28.1181 42.2867 27.8914 42.06C27.6647 41.82 27.5514 41.5267 27.5514 41.18L27.5514 40.2L27.9914 40.38C27.9914 40.5534 27.8981 40.7667 27.7114 41.02C27.5247 41.26 27.2714 41.5 26.9514 41.74C26.6314 41.98 26.2514 42.1867 25.8114 42.36C25.3847 42.52 24.9181 42.6 24.4114 42.6C23.4914 42.6 22.6581 42.3667 21.9114 41.9C21.1647 41.42 20.5714 40.7667 20.1314 39.94C19.7047 39.1 19.4914 38.14 19.4914 37.06C19.4914 35.9667 19.7047 35.0067 20.1314 34.18C20.5714 33.34 21.1581 32.6867 21.8914 32.22C22.6247 31.74 23.4381 31.5 24.3314 31.5C24.9047 31.5 25.4314 31.5867 25.9114 31.76C26.3914 31.9334 26.8047 32.1534 27.1514 32.42C27.5114 32.6867 27.7847 32.96 27.9714 33.24C28.1714 33.5067 28.2714 33.7334 28.2714 33.92L27.5514 34.18L27.5514 32.72C27.5514 32.3734 27.6647 32.0867 27.8914 31.86C28.1181 31.62 28.4047 31.5 28.7514 31.5ZM24.7114 40.4C25.2981 40.4 25.8114 40.2534 26.2514 39.96C26.6914 39.6667 27.0314 39.2667 27.2714 38.76C27.5247 38.2534 27.6514 37.6867 27.6514 37.06C27.6514 36.42 27.5247 35.8467 27.2714 35.34C27.0314 34.8334 26.6914 34.4334 26.2514 34.14C25.8114 33.8467 25.2981 33.7 24.7114 33.7C24.1381 33.7 23.6314 33.8467 23.1914 34.14C22.7514 34.4334 22.4047 34.8334 22.1514 35.34C21.9114 35.8467 21.7914 36.42 21.7914 37.06C21.7914 37.6867 21.9114 38.2534 22.1514 38.76C22.4047 39.2667 22.7514 39.6667 23.1914 39.96C23.6314 40.2534 24.1381 40.4 24.7114 40.4ZM40.49 31.7C40.8367 31.7 41.1233 31.82 41.35 32.06C41.5767 32.2867 41.69 32.5734 41.69 32.92L41.69 41.42C41.69 42.6467 41.4567 43.62 40.99 44.34C40.5367 45.0734 39.9233 45.6 39.15 45.92C38.3767 46.24 37.51 46.4 36.55 46.4C36.1233 46.4 35.67 46.3667 35.19 46.3C34.71 46.2334 34.3167 46.1334 34.01 46C33.61 45.8267 33.33 45.6067 33.17 45.34C33.0233 45.0867 32.9967 44.8134 33.09 44.52C33.21 44.1334 33.4033 43.8667 33.67 43.72C33.9367 43.5867 34.2167 43.5734 34.51 43.68C34.7233 43.7467 35.0033 43.8467 35.35 43.98C35.6967 44.1267 36.0967 44.2 36.55 44.2C37.1633 44.2 37.67 44.1134 38.07 43.94C38.4833 43.78 38.79 43.5 38.99 43.1C39.2033 42.7134 39.31 42.18 39.31 41.5L39.31 40.16L39.73 40.64C39.5033 41.08 39.2167 41.4467 38.87 41.74C38.5367 42.02 38.1367 42.2334 37.67 42.38C37.2033 42.5267 36.67 42.6 36.07 42.6C35.3633 42.6 34.7433 42.44 34.21 42.12C33.69 41.7867 33.2833 41.3334 32.99 40.76C32.6967 40.1734 32.55 39.5067 32.55 38.76L32.55 32.92C32.55 32.5734 32.6633 32.2867 32.89 32.06C33.1167 31.82 33.4033 31.7 33.75 31.7C34.0967 31.7 34.3833 31.82 34.61 32.06C34.8367 32.2867 34.95 32.5734 34.95 32.92L34.95 38.04C34.95 38.9067 35.1367 39.52 35.51 39.88C35.8967 40.2267 36.43 40.4 37.11 40.4C37.5767 40.4 37.97 40.3134 38.29 40.14C38.61 39.9534 38.8567 39.6867 39.03 39.34C39.2033 38.98 39.29 38.5467 39.29 38.04L39.29 32.92C39.29 32.5734 39.4033 32.2867 39.63 32.06C39.8567 31.82 40.1433 31.7 40.49 31.7ZM4 67.18C4 67.5267 3.87333 67.82 3.62 68.06C3.36667 68.2867 3.07333 68.4 2.74 68.4C2.36667 68.4 2.06667 68.2867 1.84 68.06C1.61333 67.82 1.5 67.5267 1.5 67.18L1.5 55.62C1.5 55.2734 1.62 54.9867 1.86 54.76C2.1 54.52 2.40667 54.4 2.78 54.4C3.1 54.4 3.38 54.52 3.62 54.76C3.87333 54.9867 4 55.2734 4 55.62L4 67.18ZM15.5678 53.6C15.9145 53.6 16.2011 53.7134 16.4278 53.94C16.6545 54.1667 16.7678 54.46 16.7678 54.82L16.7678 67.18C16.7678 67.5267 16.6545 67.82 16.4278 68.06C16.2011 68.2867 15.9145 68.4 15.5678 68.4C15.2211 68.4 14.9345 68.2867 14.7078 68.06C14.4811 67.82 14.3678 67.5267 14.3678 67.18L14.3678 66.2L14.8078 66.38C14.8078 66.5534 14.7145 66.7667 14.5278 67.02C14.3411 67.26 14.0878 67.5 13.7678 67.74C13.4478 67.98 13.0678 68.1867 12.6278 68.36C12.2011 68.52 11.7345 68.6 11.2278 68.6C10.3078 68.6 9.47448 68.3667 8.72781 67.9C7.98115 67.42 7.38781 66.7667 6.94781 65.94C6.52115 65.1 6.30781 64.14 6.30781 63.06C6.30781 61.9667 6.52115 61.0067 6.94781 60.18C7.38781 59.34 7.97448 58.6867 8.70781 58.22C9.44115 57.74 10.2545 57.5 11.1478 57.5C11.7211 57.5 12.2478 57.5867 12.7278 57.76C13.2078 57.9334 13.6211 58.1534 13.9678 58.42C14.3278 58.6867 14.6011 58.96 14.7878 59.24C14.9878 59.5067 15.0878 59.7334 15.0878 59.92L14.3678 60.18L14.3678 54.82C14.3678 54.4734 14.4811 54.1867 14.7078 53.96C14.9345 53.72 15.2211 53.6 15.5678 53.6ZM11.5278 66.4C12.1145 66.4 12.6278 66.2534 13.0678 65.96C13.5078 65.6667 13.8478 65.2667 14.0878 64.76C14.3411 64.2534 14.4678 63.6867 14.4678 63.06C14.4678 62.42 14.3411 61.8467 14.0878 61.34C13.8478 60.8334 13.5078 60.4334 13.0678 60.14C12.6278 59.8467 12.1145 59.7 11.5278 59.7C10.9545 59.7 10.4478 59.8467 10.0078 60.14C9.56781 60.4334 9.22115 60.8334 8.96781 61.34C8.72781 61.8467 8.60781 62.42 8.60781 63.06C8.60781 63.6867 8.72781 64.2534 8.96781 64.76C9.22115 65.2667 9.56781 65.6667 10.0078 65.96C10.4478 66.2534 10.9545 66.4 11.5278 66.4ZM21.9664 67.18C21.9664 67.5267 21.8464 67.82 21.6064 68.06C21.3797 68.2867 21.0931 68.4 20.7464 68.4C20.4131 68.4 20.1331 68.2867 19.9064 68.06C19.6797 67.82 19.5664 67.5267 19.5664 67.18L19.5664 54.82C19.5664 54.4734 19.6797 54.1867 19.9064 53.96C20.1464 53.72 20.4397 53.6 20.7864 53.6C21.1331 53.6 21.4131 53.72 21.6264 53.96C21.8531 54.1867 21.9664 54.4734 21.9664 54.82L21.9664 67.18ZM29.6017 68.6C28.4684 68.6 27.4817 68.3667 26.6417 67.9C25.8151 67.42 25.1751 66.7734 24.7217 65.96C24.2817 65.1467 24.0617 64.2267 24.0617 63.2C24.0617 62 24.3017 60.98 24.7817 60.14C25.2751 59.2867 25.9151 58.6334 26.7017 58.18C27.4884 57.7267 28.3217 57.5 29.2017 57.5C29.8817 57.5 30.5217 57.64 31.1217 57.92C31.7351 58.2 32.2751 58.5867 32.7417 59.08C33.2084 59.56 33.5751 60.12 33.8417 60.76C34.1217 61.4 34.2617 62.08 34.2617 62.8C34.2484 63.12 34.1217 63.38 33.8817 63.58C33.6417 63.78 33.3617 63.88 33.0417 63.88L25.4017 63.88L24.8017 61.88L32.1417 61.88L31.7017 62.28L31.7017 61.74C31.6751 61.3534 31.5351 61.0067 31.2817 60.7C31.0417 60.3934 30.7351 60.1534 30.3617 59.98C30.0017 59.7934 29.6151 59.7 29.2017 59.7C28.8017 59.7 28.4284 59.7534 28.0817 59.86C27.7351 59.9667 27.4351 60.1467 27.1817 60.4C26.9284 60.6534 26.7284 60.9934 26.5817 61.42C26.4351 61.8467 26.3617 62.3867 26.3617 63.04C26.3617 63.76 26.5084 64.3734 26.8017 64.88C27.1084 65.3734 27.4951 65.7534 27.9617 66.02C28.4417 66.2734 28.9484 66.4 29.4817 66.4C29.9751 66.4 30.3684 66.36 30.6617 66.28C30.9551 66.2 31.1884 66.1067 31.3617 66C31.5484 65.88 31.7151 65.78 31.8617 65.7C32.1017 65.58 32.3284 65.52 32.5417 65.52C32.8351 65.52 33.0751 65.62 33.2617 65.82C33.4617 66.02 33.5617 66.2534 33.5617 66.52C33.5617 66.88 33.3751 67.2067 33.0017 67.5C32.6551 67.7934 32.1684 68.0534 31.5417 68.28C30.9151 68.4934 30.2684 68.6 29.6017 68.6Z" fill="white" fill-opacity="0.95"/>
<rect x="36" y="53" width="28" height="12" rx="6" fill="#546DDB"/>
<path d="M42.42 57.05C42.8867 57.05 43.3033 57.17 43.67 57.41C44.0433 57.6433 44.3367 57.9667 44.55 58.38C44.77 58.7933 44.88 59.2733 44.88 59.82C44.88 60.3667 44.77 60.85 44.55 61.27C44.3367 61.6833 44.0467 62.01 43.68 62.25C43.32 62.4833 42.9133 62.6 42.46 62.6C42.1933 62.6 41.9433 62.5567 41.71 62.47C41.4767 62.3833 41.27 62.2733 41.09 62.14C40.9167 62.0067 40.78 61.8733 40.68 61.74C40.5867 61.6 40.54 61.4833 40.54 61.39L40.85 61.26V61.99C40.85 62.1633 40.7933 62.31 40.68 62.43C40.5667 62.5433 40.4233 62.6 40.25 62.6C40.0767 62.6 39.9333 62.5433 39.82 62.43C39.7067 62.3167 39.65 62.17 39.65 61.99V55.71C39.65 55.5367 39.7067 55.3933 39.82 55.28C39.9333 55.16 40.0767 55.1 40.25 55.1C40.4233 55.1 40.5667 55.16 40.68 55.28C40.7933 55.3933 40.85 55.5367 40.85 55.71V58.25L40.68 58.16C40.68 58.0733 40.7267 57.97 40.82 57.85C40.9133 57.7233 41.04 57.6 41.2 57.48C41.36 57.3533 41.5433 57.25 41.75 57.17C41.9633 57.09 42.1867 57.05 42.42 57.05ZM42.27 58.15C41.9767 58.15 41.72 58.2233 41.5 58.37C41.28 58.5167 41.1067 58.7167 40.98 58.97C40.86 59.2167 40.8 59.5 40.8 59.82C40.8 60.1333 40.86 60.42 40.98 60.68C41.1067 60.9333 41.28 61.1333 41.5 61.28C41.72 61.4267 41.9767 61.5 42.27 61.5C42.5633 61.5 42.8167 61.4267 43.03 61.28C43.25 61.1333 43.42 60.9333 43.54 60.68C43.6667 60.42 43.73 60.1333 43.73 59.82C43.73 59.5 43.6667 59.2167 43.54 58.97C43.42 58.7167 43.25 58.5167 43.03 58.37C42.8167 58.2233 42.5633 58.15 42.27 58.15ZM48.4493 62.6C47.8826 62.6 47.3893 62.4833 46.9693 62.25C46.556 62.01 46.236 61.6867 46.0093 61.28C45.7893 60.8733 45.6793 60.4133 45.6793 59.9C45.6793 59.3 45.7993 58.79 46.0393 58.37C46.286 57.9433 46.606 57.6167 46.9993 57.39C47.3926 57.1633 47.8093 57.05 48.2493 57.05C48.5893 57.05 48.9093 57.12 49.2093 57.26C49.516 57.4 49.786 57.5933 50.0193 57.84C50.2526 58.08 50.436 58.36 50.5693 58.68C50.7093 59 50.7793 59.34 50.7793 59.7C50.7726 59.86 50.7093 59.99 50.5893 60.09C50.4693 60.19 50.3293 60.24 50.1693 60.24H46.3493L46.0493 59.24H49.7193L49.4993 59.44V59.17C49.486 58.9767 49.416 58.8033 49.2893 58.65C49.1693 58.4967 49.016 58.3767 48.8293 58.29C48.6493 58.1967 48.456 58.15 48.2493 58.15C48.0493 58.15 47.8626 58.1767 47.6893 58.23C47.516 58.2833 47.366 58.3733 47.2393 58.5C47.1126 58.6267 47.0126 58.7967 46.9393 59.01C46.866 59.2233 46.8293 59.4933 46.8293 59.82C46.8293 60.18 46.9026 60.4867 47.0493 60.74C47.2026 60.9867 47.396 61.1767 47.6293 61.31C47.8693 61.4367 48.1226 61.5 48.3893 61.5C48.636 61.5 48.8326 61.48 48.9793 61.44C49.126 61.4 49.2426 61.3533 49.3293 61.3C49.4226 61.24 49.506 61.19 49.5793 61.15C49.6993 61.09 49.8126 61.06 49.9193 61.06C50.066 61.06 50.186 61.11 50.2793 61.21C50.3793 61.31 50.4293 61.4267 50.4293 61.56C50.4293 61.74 50.336 61.9033 50.1493 62.05C49.976 62.1967 49.7326 62.3267 49.4193 62.44C49.106 62.5467 48.7826 62.6 48.4493 62.6ZM51.8877 57.25H54.2577C54.4177 57.25 54.5511 57.3033 54.6577 57.41C54.7644 57.5167 54.8177 57.65 54.8177 57.81C54.8177 57.9633 54.7644 58.0933 54.6577 58.2C54.5511 58.3 54.4177 58.35 54.2577 58.35H51.8877C51.7277 58.35 51.5944 58.2967 51.4877 58.19C51.3811 58.0833 51.3277 57.95 51.3277 57.79C51.3277 57.6367 51.3811 57.51 51.4877 57.41C51.5944 57.3033 51.7277 57.25 51.8877 57.25ZM52.9577 56C53.1311 56 53.2711 56.06 53.3777 56.18C53.4911 56.2933 53.5477 56.4367 53.5477 56.61V61.06C53.5477 61.1533 53.5644 61.23 53.5977 61.29C53.6377 61.35 53.6877 61.3933 53.7477 61.42C53.8144 61.4467 53.8844 61.46 53.9577 61.46C54.0377 61.46 54.1111 61.4467 54.1777 61.42C54.2444 61.3867 54.3211 61.37 54.4077 61.37C54.5011 61.37 54.5844 61.4133 54.6577 61.5C54.7377 61.5867 54.7777 61.7067 54.7777 61.86C54.7777 62.0467 54.6744 62.2 54.4677 62.32C54.2677 62.44 54.0511 62.5 53.8177 62.5C53.6777 62.5 53.5211 62.49 53.3477 62.47C53.1811 62.4433 53.0211 62.3867 52.8677 62.3C52.7211 62.2067 52.5977 62.0667 52.4977 61.88C52.3977 61.6933 52.3477 61.4367 52.3477 61.11V56.61C52.3477 56.4367 52.4044 56.2933 52.5177 56.18C52.6377 56.06 52.7844 56 52.9577 56ZM60.2995 57.05C60.4729 57.05 60.6162 57.1067 60.7295 57.22C60.8429 57.3333 60.8995 57.48 60.8995 57.66V61.89C60.8995 62.0633 60.8429 62.21 60.7295 62.33C60.6162 62.4433 60.4729 62.5 60.2995 62.5C60.1262 62.5 59.9829 62.4433 59.8695 62.33C59.7562 62.21 59.6995 62.0633 59.6995 61.89V61.4L59.9195 61.49C59.9195 61.5767 59.8729 61.6833 59.7795 61.81C59.6862 61.93 59.5595 62.05 59.3995 62.17C59.2395 62.29 59.0495 62.3933 58.8295 62.48C58.6162 62.56 58.3829 62.6 58.1295 62.6C57.6695 62.6 57.2529 62.4833 56.8795 62.25C56.5062 62.01 56.2095 61.6833 55.9895 61.27C55.7762 60.85 55.6695 60.37 55.6695 59.83C55.6695 59.2833 55.7762 58.8033 55.9895 58.39C56.2095 57.97 56.5029 57.6433 56.8695 57.41C57.2362 57.17 57.6429 57.05 58.0895 57.05C58.3762 57.05 58.6395 57.0933 58.8795 57.18C59.1195 57.2667 59.3262 57.3767 59.4995 57.51C59.6795 57.6433 59.8162 57.78 59.9095 57.92C60.0095 58.0533 60.0595 58.1667 60.0595 58.26L59.6995 58.39V57.66C59.6995 57.4867 59.7562 57.3433 59.8695 57.23C59.9829 57.11 60.1262 57.05 60.2995 57.05ZM58.2795 61.5C58.5729 61.5 58.8295 61.4267 59.0495 61.28C59.2695 61.1333 59.4395 60.9333 59.5595 60.68C59.6862 60.4267 59.7495 60.1433 59.7495 59.83C59.7495 59.51 59.6862 59.2233 59.5595 58.97C59.4395 58.7167 59.2695 58.5167 59.0495 58.37C58.8295 58.2233 58.5729 58.15 58.2795 58.15C57.9929 58.15 57.7395 58.2233 57.5195 58.37C57.2995 58.5167 57.1262 58.7167 56.9995 58.97C56.8795 59.2233 56.8195 59.51 56.8195 59.83C56.8195 60.1433 56.8795 60.4267 56.9995 60.68C57.1262 60.9333 57.2995 61.1333 57.5195 61.28C57.7395 61.4267 57.9929 61.5 58.2795 61.5Z" fill="white"/>
</g>
<defs>
<clipPath id="clip0_1802_8789">
<rect width="70" height="70" fill="white"/>
</clipPath>
</defs>
</svg>
