<svg width="100" height="100" viewBox="0 0 100 100" fill="none" xmlns="http://www.w3.org/2000/svg">
<path d="M74.7594 66.8605C71.7362 54.5539 79.8852 57.5069 84.6602 52.3113C86.9644 49.8042 91.4999 53 93.9999 56.5C96.4999 60.0001 97.4999 64 97.4999 64C97.4999 64 96.5 86 90.8512 84.5018C80.0004 81.624 77.7826 79.1671 74.7594 66.8605Z" fill="#898989"/>
<path d="M74.7594 66.8605C71.7362 54.5539 79.8852 57.5069 84.6602 52.3113C86.9644 49.8042 91.4999 53 93.9999 56.5C96.4999 60.0001 97.4999 64 97.4999 64C97.4999 64 96.5 86 90.8512 84.5018C80.0004 81.624 77.7826 79.1671 74.7594 66.8605Z" fill="white" fill-opacity="0.2"/>
<path d="M84.6601 52.3115C87.9414 49.3357 92.6175 54.4721 91.5 57.0001C91.5 59 91.5 63.9999 87 64.9999C82 78 76 65 76 65C76 65 75 63 74.4756 60.0931C75.3582 55.6836 78.4153 57.2128 84.6601 52.3115Z" fill="#898989"/>
<path d="M50.6429 80.7231C38.8143 81.1073 15.0714 77.5216 5 75.9209C7.57143 83.1242 16.0334 90.9735 25.5714 95.1297C41 101.853 60.377 101.39 73.7857 95.1297C84.0714 90.3275 91.7857 81.6835 95 74C85.1429 75.6007 62.4714 80.3389 50.6429 80.7231Z" fill="#FAA21E"/>
<path d="M50.6429 80.7231C38.8143 81.1073 15.0714 77.5216 5 75.9209C7.57143 83.1242 16.0334 90.9735 25.5714 95.1297C41 101.853 60.377 101.39 73.7857 95.1297C84.0714 90.3275 91.7857 81.6835 95 74C85.1429 75.6007 62.4714 80.3389 50.6429 80.7231Z" fill="black" fill-opacity="0.1"/>
<path d="M25.8889 68.2921C17.5333 68.9903 5 70.5601 5 75.0979C5 81.3403 32.1327 84 53.3429 84C63.5714 84 82.1429 82.651 82.1429 79.8621C82.1429 78.6659 80.7653 78.8276 80.7653 78.1379C80.7653 77.028 95 78.1379 95 73.3639C95 66.0812 47.9714 62.7071 43.7936 64.4525C39.6159 66.1978 34.2444 67.594 25.8889 68.2921Z" fill="#FAA21E"/>
<path d="M25.8889 68.2921C17.5333 68.9903 5 70.5601 5 75.0979C5 81.3403 32.1327 84 53.3429 84C63.5714 84 82.1429 82.651 82.1429 79.8621C82.1429 78.6659 80.7653 78.8276 80.7653 78.1379C80.7653 77.028 95 78.1379 95 73.3639C95 66.0812 47.9714 62.7071 43.7936 64.4525C39.6159 66.1978 34.2444 67.594 25.8889 68.2921Z" fill="white" fill-opacity="0.6"/>
<ellipse cx="45" cy="79" rx="5" ry="2" fill="#FAA21E"/>
<ellipse cx="45" cy="79" rx="5" ry="2" fill="black" fill-opacity="0.1"/>
<ellipse cx="17" cy="74.5" rx="4" ry="1.5" fill="#FAA21E"/>
<ellipse cx="17" cy="74.5" rx="4" ry="1.5" fill="black" fill-opacity="0.1"/>
<ellipse cx="66.5" cy="82" rx="6.5" ry="3" fill="#FAA21E"/>
<ellipse cx="66.5" cy="82" rx="6.5" ry="3" fill="black" fill-opacity="0.1"/>
<ellipse cx="79.5" cy="71.5" rx="3.5" ry="1.5" fill="#FAA21E"/>
<ellipse cx="79.5" cy="71.5" rx="3.5" ry="1.5" fill="black" fill-opacity="0.1"/>
<ellipse cx="50" cy="71" rx="17.5" ry="4" fill="#FEFEFE" fill-opacity="0.15"/>
<path d="M67 71C67 71.1179 66.9499 71.2738 66.7719 71.4726C66.5912 71.6745 66.3015 71.8931 65.8871 72.1171C65.0588 72.5647 63.8273 72.9834 62.263 73.341C59.1423 74.0543 54.8065 74.5 50 74.5C45.1935 74.5 40.8577 74.0543 37.737 73.341C36.1727 72.9834 34.9412 72.5647 34.1129 72.1171C33.6985 71.8931 33.4088 71.6745 33.2281 71.4726C33.0501 71.2738 33 71.1179 33 71C33 70.8821 33.0501 70.7262 33.2281 70.5274C33.4088 70.3255 33.6985 70.1069 34.1129 69.8829C34.9412 69.4353 36.1727 69.0166 37.737 68.659C40.8577 67.9457 45.1935 67.5 50 67.5C54.8065 67.5 59.1423 67.9457 62.263 68.659C63.8273 69.0166 65.0588 69.4353 65.8871 69.8829C66.3015 70.1069 66.5912 70.3255 66.7719 70.5274C66.9499 70.7262 67 70.8821 67 71Z" fill="#FEFEFE" fill-opacity="0.15" stroke="#FEFEFE"/>
<path d="M50.5024 74.9824C40.3088 75.2877 34.221 71.5478 32.1617 69.6397C31.3895 66.2051 29.0001 59.0409 34.6715 52.2758C40.2702 45.5974 47.7995 44.8341 50.5024 45.025C53.2052 45.2158 59.5762 45.2158 65.368 52.2758C70.527 58.5646 69.1648 66.2687 67.4916 69.6397C66.0759 71.2934 60.6959 74.6771 50.5024 74.9824Z" fill="#FEFEFE" fill-opacity="0.15"/>
<path d="M50.5024 74.9824C40.3088 75.2877 34.221 71.5478 32.1617 69.6397C31.3895 66.2051 29.0001 59.0409 34.6715 52.2758C40.2702 45.5974 47.7995 44.8341 50.5024 45.025C53.2052 45.2158 59.5762 45.2158 65.368 52.2758C70.527 58.5646 69.1648 66.2687 67.4916 69.6397C66.0759 71.2934 60.6959 74.6771 50.5024 74.9824Z" fill="#FEFEFE" fill-opacity="0.15"/>
<path d="M50.5024 74.9824C39.0048 74.9824 34.5593 73.4081 32.5 71.5C31.7278 68.0654 29.0001 59.0409 34.6715 52.2758C40.2702 45.5974 47.7996 44.8341 50.5024 45.025C53.2052 45.2158 59.5762 45.2158 65.368 52.2758C70.5271 58.5646 69.1732 68.129 67.5 71.5C66.0842 73.1537 62 74.9824 50.5024 74.9824Z" fill="#FEFEFE" fill-opacity="0.15"/>
<path d="M33 70.5L44 73.5M33 70.5L38.9091 57.2M33 70.5L34.5 53.5M33 70.5L32 67.7778M44 73.5L38.9091 57.2M44 73.5L54.5 58.5M44 73.5L61.5 72.5M38.9091 57.2L54.5 58.5M38.9091 57.2L47.0909 46M38.9091 57.2L34.5 53.5M54.5 58.5L61.5 72.5M54.5 58.5L65.3125 55M54.5 58.5L47.0909 46M54.5 58.5L60 48.5M61.5 72.5L65.3125 55M61.5 72.5L67 70.5M65.3125 55L67 70.5M65.3125 55L60 48.5M65.3125 55L66 54M67 70.5L68 66.9481M47.0909 46L60 48.5M47.0909 46L34.5 53.5" stroke="#FEFEFE" stroke-linecap="round"/>
<path d="M8.07811 7.13627C8.07811 6.63627 6.57811 5.63627 5.57811 6.13627C4.91144 6.4696 3.67811 7.33628 4.07811 8.13629C4.57811 9.13631 5.57811 10.1363 7.07811 9.63629C8.57811 9.13629 8.07811 7.63627 8.07811 7.13627Z" fill="#898989"/>
<path d="M8.07811 7.13627C8.07811 6.63627 6.57811 5.63627 5.57811 6.13627C4.91144 6.4696 3.67811 7.33628 4.07811 8.13629C4.57811 9.13631 5.57811 10.1363 7.07811 9.63629C8.57811 9.13629 8.07811 7.63627 8.07811 7.13627Z" fill="black" fill-opacity="0.4"/>
<path d="M11.5 8.5C11 8.5 10.4 8.6 9.99997 9C9.83331 9.5 9.59997 10.6 9.99997 11C10.5 11.5 12 10.5 12.5 10C12.9 9.6 12 8.5 11.5 8.5Z" fill="#898989"/>
<path d="M11.5 8.5C11 8.5 10.4 8.6 9.99997 9C9.83331 9.5 9.59997 10.6 9.99997 11C10.5 11.5 12 10.5 12.5 10C12.9 9.6 12 8.5 11.5 8.5Z" fill="black" fill-opacity="0.4"/>
<path d="M15 6.13627L15.5 5.13627C16.5 4.63627 18 5.63627 18.5 6.13627C19 6.63627 18.5 8.13627 18 8.63627C17.6 9.03627 16.5 8.80294 16 8.63627V7.13627L15 6.13627Z" fill="#898989"/>
<path d="M15 6.13627L15.5 5.13627C16.5 4.63627 18 5.63627 18.5 6.13627C19 6.63627 18.5 8.13627 18 8.63627C17.6 9.03627 16.5 8.80294 16 8.63627V7.13627L15 6.13627Z" fill="black" fill-opacity="0.4"/>
<path d="M21 8.69C21 8.19 21.5 8.19003 22 7.19003C22.1667 6.69001 23 7.29003 23 7.69003C23 8.18999 24 7.69006 24 8.19003C24 9.19 23.3 9.29 22.5 9.69C21.5 10.19 21 9.19 21 8.69Z" fill="#898989"/>
<path d="M21 8.69C21 8.19 21.5 8.19003 22 7.19003C22.1667 6.69001 23 7.29003 23 7.69003C23 8.18999 24 7.69006 24 8.19003C24 9.19 23.3 9.29 22.5 9.69C21.5 10.19 21 9.19 21 8.69Z" fill="black" fill-opacity="0.4"/>
<path d="M44.0334 12.5017C43.9829 13.0299 45.6772 14.2582 46.9248 13.8446C47.7565 13.5689 49.3204 12.7947 48.9226 11.9038C48.4252 10.79 47.3294 9.61908 45.4833 9.97535C43.6372 10.3316 44.084 11.9735 44.0334 12.5017Z" fill="#898989"/>
<path d="M44.0334 12.5017C43.9829 13.0299 45.6772 14.2582 46.9248 13.8446C47.7565 13.5689 49.3204 12.7947 48.9226 11.9038C48.4252 10.79 47.3294 9.61908 45.4833 9.97535C43.6372 10.3316 44.084 11.9735 44.0334 12.5017Z" fill="black" fill-opacity="0.4"/>
<path d="M40.2958 10.3414C40.8252 10.3921 41.4713 10.3396 41.9382 9.92708C42.1689 9.37759 42.5352 8.15517 42.1551 7.6615C41.68 7.04442 39.9833 8.02514 39.3997 8.54085C38.9328 8.95342 39.7664 10.2907 40.2958 10.3414Z" fill="#898989"/>
<path d="M40.2958 10.3414C40.8252 10.3921 41.4713 10.3396 41.9382 9.92708C42.1689 9.37759 42.5352 8.15517 42.1551 7.6615C41.68 7.04442 39.9833 8.02514 39.3997 8.54085C38.9328 8.95342 39.7664 10.2907 40.2958 10.3414Z" fill="black" fill-opacity="0.4"/>
<path d="M35.8762 12.7528L35.2403 13.7337C34.1168 14.147 32.6045 12.9604 32.1168 12.3928C31.6292 11.8253 32.3145 10.3282 32.901 9.86346C33.3702 9.49167 34.5286 9.84567 35.0492 10.0691L34.9009 11.6176L35.8762 12.7528Z" fill="#898989"/>
<path d="M35.8762 12.7528L35.2403 13.7337C34.1168 14.147 32.6045 12.9604 32.1168 12.3928C31.6292 11.8253 32.3145 10.3282 32.901 9.86346C33.3702 9.49167 34.5286 9.84567 35.0492 10.0691L34.9009 11.6176L35.8762 12.7528Z" fill="black" fill-opacity="0.4"/>
<path d="M19.2202 12C18.8657 12 18.4402 11.9241 18.1566 11.6207C18.0384 11.2414 17.873 10.4068 18.1566 10.1034C18.5112 9.72406 19.5748 10.4827 19.9293 10.862C20.213 11.1655 19.5748 12 19.2202 12Z" fill="#898989"/>
<path d="M19.2202 12C18.8657 12 18.4402 11.9241 18.1566 11.6207C18.0384 11.2414 17.873 10.4068 18.1566 10.1034C18.5112 9.72406 19.5748 10.4827 19.9293 10.862C20.213 11.1655 19.5748 12 19.2202 12Z" fill="black" fill-opacity="0.4"/>
<path d="M3.20028 10.2505L2.36729 10.2577C1.77571 10.7258 2.14179 11.9572 2.38319 12.4181C2.62459 12.8789 3.81571 13.023 4.29057 12.8646C4.67045 12.7378 4.76013 11.986 4.75748 11.626L3.68309 11.1723L3.20028 10.2505Z" fill="#898989"/>
<path d="M3.20028 10.2505L2.36729 10.2577C1.77571 10.7258 2.14179 11.9572 2.38319 12.4181C2.62459 12.8789 3.81571 13.023 4.29057 12.8646C4.67045 12.7378 4.76013 11.986 4.75748 11.626L3.68309 11.1723L3.20028 10.2505Z" fill="black" fill-opacity="0.4"/>
<path d="M29.2143 8.88675C29.1469 9.59117 28.6491 9.54347 28.0165 10.9047C27.7832 11.5932 27.0346 10.6685 27.0885 10.1049C27.156 9.40056 26.0931 10.0096 26.1605 9.30519C26.2954 7.89638 27.0057 7.82221 27.856 7.33492C28.9189 6.72581 29.2817 8.18232 29.2143 8.88675Z" fill="#898989"/>
<path d="M29.2143 8.88675C29.1469 9.59117 28.6491 9.54347 28.0165 10.9047C27.7832 11.5932 27.0346 10.6685 27.0885 10.1049C27.156 9.40056 26.0931 10.0096 26.1605 9.30519C26.2954 7.89638 27.0057 7.82221 27.856 7.33492C28.9189 6.72581 29.2817 8.18232 29.2143 8.88675Z" fill="black" fill-opacity="0.4"/>
<path d="M74.0811 21.3338C74.6528 21.7231 77.1196 20.5584 77.4302 18.8735C77.6373 17.7502 77.7345 15.4775 76.4669 15.3728C74.8824 15.2419 72.8567 15.7589 72.1049 18.0916C71.3532 20.4242 73.5094 20.9444 74.0811 21.3338Z" fill="#898989"/>
<path d="M74.0811 21.3338C74.6528 21.7231 77.1196 20.5584 77.4302 18.8735C77.6373 17.7502 77.7345 15.4775 76.4669 15.3728C74.8824 15.2419 72.8567 15.7589 72.1049 18.0916C71.3532 20.4242 73.5094 20.9444 74.0811 21.3338Z" fill="black" fill-opacity="0.2"/>
<path d="M66.2215 11.0514C65.7861 10.7459 65.1984 10.4725 64.5887 10.6007C64.1167 10.9646 63.1946 11.8467 63.2814 12.4637C63.3898 13.2349 65.3495 13.2199 66.1116 13.0596C66.7214 12.9314 66.6568 11.3568 66.2215 11.0514Z" fill="#898989"/>
<path d="M66.2215 11.0514C65.7861 10.7459 65.1984 10.4725 64.5887 10.6007C64.1167 10.9646 63.1946 11.8467 63.2814 12.4637C63.3898 13.2349 65.3495 13.2199 66.1116 13.0596C66.7214 12.9314 66.6568 11.3568 66.2215 11.0514Z" fill="black" fill-opacity="0.4"/>
<path d="M63.0941 17.19L62.4582 18.1709C61.3347 18.5843 59.8224 17.3977 59.3348 16.8301C58.8472 16.2625 59.5325 14.7655 60.1189 14.3007C60.5881 13.9289 61.7466 14.2829 62.2671 14.5064L62.1189 16.0549L63.0941 17.19Z" fill="#898989"/>
<path d="M63.0941 17.19L62.4582 18.1709C61.3347 18.5843 59.8224 17.3977 59.3348 16.8301C58.8472 16.2625 59.5325 14.7655 60.1189 14.3007C60.5881 13.9289 61.7466 14.2829 62.2671 14.5064L62.1189 16.0549L63.0941 17.19Z" fill="black" fill-opacity="0.2"/>
<path d="M53.2969 10.4408C53.763 9.90826 54.1392 10.2376 55.4475 9.50183C56.039 9.07904 56.1068 10.2669 55.734 10.6929C55.268 11.2254 56.4865 11.3515 56.0205 11.884C55.0885 12.949 54.4685 12.5945 53.4936 12.4937C52.2751 12.3676 52.8309 10.9733 53.2969 10.4408Z" fill="#898989"/>
<path d="M53.2969 10.4408C53.763 9.90826 54.1392 10.2376 55.4475 9.50183C56.039 9.07904 56.1068 10.2669 55.734 10.6929C55.268 11.2254 56.4865 11.3515 56.0205 11.884C55.0885 12.949 54.4685 12.5945 53.4936 12.4937C52.2751 12.3676 52.8309 10.9733 53.2969 10.4408Z" fill="black" fill-opacity="0.2"/>
<path d="M92.0008 26.1694L90.6995 24.44C90.6953 22.2235 92.785 21.6481 93.6882 20.5975C94.8341 19.2648 98.4815 21.5181 98.9167 22.8334C99.2649 23.8856 97.9127 25.6748 97.1931 26.4379L94.3679 26.8278L92.0008 26.1694Z" fill="#898989"/>
<path d="M92.0008 26.1694L90.6995 24.44C90.6953 22.2235 92.785 21.6481 93.6882 20.5975C94.8341 19.2648 98.4815 21.5181 98.9167 22.8334C99.2649 23.8856 97.9127 25.6748 97.1931 26.4379L94.3679 26.8278L92.0008 26.1694Z" fill="black" fill-opacity="0.2"/>
<path d="M86.3635 11.211C87.6704 11.3038 87.6047 12.2272 90.1529 13.3362C91.438 13.7368 91.1984 16.9185 90.1529 16.8442C88.8461 16.7514 88.5836 16.937 87.2768 16.8442C84.6631 16.6586 84.4935 15.3472 83.553 13.7955C82.3772 11.8559 85.0566 11.1182 86.3635 11.211Z" fill="#898989"/>
<path d="M86.3635 11.211C87.6704 11.3038 87.6047 12.2272 90.1529 13.3362C91.438 13.7368 91.1984 16.9185 90.1529 16.8442C88.8461 16.7514 88.5836 16.937 87.2768 16.8442C84.6631 16.6586 84.4935 15.3472 83.553 13.7955C82.3772 11.8559 85.0566 11.1182 86.3635 11.211Z" fill="black" fill-opacity="0.4"/>
<path d="M38.086 91.6081L40.8541 85.034C39.1877 78.3455 32.2011 78.7918 28.5737 76.5668C23.9718 73.7439 14.2464 84.3473 13.8792 88.7682C13.5854 92.3049 19.18 96.2889 22.014 97.8388L31.1652 96.0648L38.086 91.6081Z" fill="#898989"/>
<path d="M38.086 91.6081L40.8541 85.034C39.1877 78.3455 32.2011 78.7918 28.5737 76.5668C23.9718 73.7439 14.2464 84.3473 13.8792 88.7682C13.5854 92.3049 19.18 96.2889 22.014 97.8388L31.1652 96.0648L38.086 91.6081Z" fill="white" fill-opacity="0.6"/>
<path d="M22.014 88.7682C22.014 84.2682 27.4263 86.5 28 83.5C28.5737 80.4999 30.5533 80.4042 28 77C25 73 14.2464 84.3474 13.8792 88.7682C13.5854 92.3049 19.18 96.2889 22.014 97.8389L27 97C27 97 22.014 93.2683 22.014 88.7682Z" fill="#898989"/>
<path d="M22.014 88.7682C22.014 84.2682 27.4263 86.5 28 83.5C28.5737 80.4999 30.5533 80.4042 28 77C25 73 14.2464 84.3474 13.8792 88.7682C13.5854 92.3049 19.18 96.2889 22.014 97.8389L27 97C27 97 22.014 93.2683 22.014 88.7682Z" fill="white" fill-opacity="0.4"/>
<path d="M8.704 45.8252L7.03781 48.3573C7.21687 51.7514 10.1725 52.8199 11.5169 54.5096C13.2224 56.6534 18.1093 53.5291 18.605 51.5537C19.0016 49.9734 16.9709 47.1121 15.9059 45.879L11.9425 45.0289L8.704 45.8252Z" fill="#898989"/>
<ellipse cx="28" cy="71" rx="2.5" ry="1" fill="#898989"/>
<ellipse cx="28" cy="71" rx="2.5" ry="1" fill="white" fill-opacity="0.95"/>
<line x1="28" y1="69.5004" x2="28" y2="31.4996" stroke="#FEFEFE" stroke-linecap="round"/>
<line x1="28" y1="70" x2="28" y2="57" stroke="#FEFEFE" stroke-width="2" stroke-linecap="round"/>
<path d="M30.5 28.5L28.5 28M28.5 28L25.5 28.5M28.5 28L28 32M28.5 28L28 24.5" stroke="#898989" stroke-width="0.5"/>
<path d="M30.5 28.5L28.5 28M28.5 28L25.5 28.5M28.5 28L28 32M28.5 28L28 24.5" stroke="white" stroke-opacity="0.4" stroke-width="0.5"/>
<path d="M28 32L25.5 28.5M28 32L30.5 28.5M28 32L27.5 29M25.5 28.5L28 24.5M25.5 28.5L27.5 29M28 24.5L30.5 28.5M28 24.5L27.5 29M30.5 28.5L27.5 29" stroke="#FEFEFE" stroke-width="0.5"/>
</svg>
