<svg width="100" height="100" viewBox="0 0 100 100" fill="none" xmlns="http://www.w3.org/2000/svg">
<path d="M50.6429 80.7231C38.8143 81.1073 15.0714 77.5216 5 75.9209C7.57143 83.1242 16.0334 90.9735 25.5714 95.1297C41 101.853 60.377 101.39 73.7857 95.1297C84.0714 90.3275 91.7857 81.6835 95 74C85.1429 75.6007 62.4714 80.3389 50.6429 80.7231Z" fill="#546DDB"/>
<path d="M50.6429 80.7231C38.8143 81.1073 15.0714 77.5216 5 75.9209C7.57143 83.1242 16.0334 90.9735 25.5714 95.1297C41 101.853 60.377 101.39 73.7857 95.1297C84.0714 90.3275 91.7857 81.6835 95 74C85.1429 75.6007 62.4714 80.3389 50.6429 80.7231Z" fill="black" fill-opacity="0.2"/>
<path d="M25.8889 68.2921C17.5333 68.9903 5 70.5601 5 75.0979C5 81.3403 32.1327 84 53.3429 84C63.5714 84 82.1429 82.651 82.1429 79.8621C82.1429 78.6659 80.7653 78.8276 80.7653 78.1379C80.7653 77.028 95 78.1379 95 73.3639C95 66.0812 47.9714 62.7071 43.7936 64.4525C39.6159 66.1978 34.2444 67.594 25.8889 68.2921Z" fill="#546DDB"/>
<path d="M25.8889 68.2921C17.5333 68.9903 5 70.5601 5 75.0979C5 81.3403 32.1327 84 53.3429 84C63.5714 84 82.1429 82.651 82.1429 79.8621C82.1429 78.6659 80.7653 78.8276 80.7653 78.1379C80.7653 77.028 95 78.1379 95 73.3639C95 66.0812 47.9714 62.7071 43.7936 64.4525C39.6159 66.1978 34.2444 67.594 25.8889 68.2921Z" fill="white" fill-opacity="0.6"/>
<path d="M78 66.4999C78.1289 68.4286 62.5386 70.5608 46.438 71.6366C30.3374 72.7124 12.6289 71.9286 12.5 69.9999C12.3711 68.0712 29.7837 64.3457 45.8843 63.2699C61.985 62.1941 77.8711 64.5712 78 66.4999Z" fill="#7445B8"/>
<path d="M78 66.4999C78.1289 68.4286 62.5386 70.5608 46.438 71.6366C30.3374 72.7124 12.6289 71.9286 12.5 69.9999C12.3711 68.0712 29.7837 64.3457 45.8843 63.2699C61.985 62.1941 77.8711 64.5712 78 66.4999Z" fill="white" fill-opacity="0.2"/>
<ellipse cx="70" cy="77" rx="5" ry="2" fill="#7445B8"/>
<ellipse cx="70" cy="77" rx="5" ry="2" fill="white" fill-opacity="0.4"/>
<path d="M48.2039 5.30259C44.1595 7.10009 41.6505 9.79634 40.9016 10.9198L60 8.11118C58.502 7.36222 52.2483 3.50509 48.2039 5.30259Z" fill="#2FC4A7"/>
<path d="M48.2039 5.30259C44.1595 7.10009 41.6505 9.79634 40.9016 10.9198L60 8.11118C58.502 7.36222 52.2483 3.50509 48.2039 5.30259Z" fill="black" fill-opacity="0.4"/>
<path d="M48.4014 12.7741C44.6672 12.4377 41.4711 13.5429 40.3399 14.1376L54.8144 20.4463C54.2183 19.146 52.1356 13.1106 48.4014 12.7741Z" fill="#2FC4A7"/>
<path d="M48.4014 12.7741C44.6672 12.4377 41.4711 13.5429 40.3399 14.1376L54.8144 20.4463C54.2183 19.146 52.1356 13.1106 48.4014 12.7741Z" fill="black" fill-opacity="0.4"/>
<path d="M31.1542 1.10552C27.169 0.308498 23.7329 1.06745 22.513 1.54655L37.8698 9.81261C37.2562 8.39595 35.1394 1.90255 31.1542 1.10552Z" fill="#2FC4A7"/>
<path d="M31.1542 1.10552C27.169 0.308498 23.7329 1.06745 22.513 1.54655L37.8698 9.81261C37.2562 8.39595 35.1394 1.90255 31.1542 1.10552Z" fill="black" fill-opacity="0.4"/>
<path d="M24.5601 7.36769C20.3158 8.9012 17.5834 11.4305 16.7477 12.5035L36.4325 10.9303C34.9496 10.0864 28.8043 5.83418 24.5601 7.36769Z" fill="#2FC4A7"/>
<path d="M24.5601 7.36769C20.3158 8.9012 17.5834 11.4305 16.7477 12.5035L36.4325 10.9303C34.9496 10.0864 28.8043 5.83418 24.5601 7.36769Z" fill="black" fill-opacity="0.4"/>
<path d="M28.069 15.6494C25.7888 18.7094 25.0491 21.9983 24.9643 23.2602L38.1564 13.8054C36.708 13.6945 30.3492 12.5894 28.069 15.6494Z" fill="#2FC4A7"/>
<path d="M28.069 15.6494C25.7888 18.7094 25.0491 21.9983 24.9643 23.2602L38.1564 13.8054C36.708 13.6945 30.3492 12.5894 28.069 15.6494Z" fill="black" fill-opacity="0.4"/>
<path d="M31.3523 34.3542C31.9426 25.5 35.0971 19.9072 36.9695 15.4135L38.6547 16.5369C36.9695 21.0306 34.1609 29.8605 34.1609 38.848C34.1609 47.8355 36.4078 61.0999 38.6546 65.4064H32.9999C31.3148 58.853 30.5659 46.1503 31.3523 34.3542Z" fill="#FAA21E"/>
<path d="M31.3523 34.3542C31.9426 25.5 35.0971 19.9072 36.9695 15.4135L38.6547 16.5369C36.9695 21.0306 34.1609 29.8605 34.1609 38.848C34.1609 47.8355 36.4078 61.0999 38.6546 65.4064H32.9999C31.3148 58.853 30.5659 46.1503 31.3523 34.3542Z" fill="black" fill-opacity="0.6"/>
<circle cx="40.3399" cy="10.9197" r="3.37031" fill="#FAA21E"/>
<circle cx="40.3399" cy="10.9197" r="3.37031" fill="white" fill-opacity="0.4"/>
<circle cx="34.7227" cy="12.0432" r="3.37031" fill="#FAA21E"/>
<circle cx="34.7227" cy="12.0432" r="3.37031" fill="white" fill-opacity="0.4"/>
<circle cx="39.2164" cy="15.4134" r="3.37031" fill="#FAA21E"/>
<circle cx="39.2164" cy="15.4134" r="3.37031" fill="white" fill-opacity="0.6"/>
<path d="M14.0416 23.2128C18.0414 24.3164 20.7429 26.4669 21.5936 27.4042L3.49621 27.4587C4.7807 26.5558 10.0418 22.1093 14.0416 23.2128Z" fill="#2FC4A7"/>
<path d="M14.0416 23.2128C18.0414 24.3164 20.7429 26.4669 21.5936 27.4042L3.49621 27.4587C4.7807 26.5558 10.0418 22.1093 14.0416 23.2128Z" fill="black" fill-opacity="0.2"/>
<path d="M14.2249 29.0754C16.9557 28.0542 19.5798 28.2248 20.5506 28.4378L10.9959 36.1488C11.1752 35.0511 11.4941 30.0966 14.2249 29.0754Z" fill="#2FC4A7"/>
<path d="M14.2249 29.0754C16.9557 28.0542 19.5798 28.2248 20.5506 28.4378L10.9959 36.1488C11.1752 35.0511 11.4941 30.0966 14.2249 29.0754Z" fill="black" fill-opacity="0.2"/>
<path d="M19.1973 18.2162C20.913 15.5656 23.2609 14.0395 24.2203 13.6077L20.7292 26.5489C20.2162 25.4614 17.4817 20.8667 19.1973 18.2162Z" fill="#2FC4A7"/>
<path d="M19.1973 18.2162C20.913 15.5656 23.2609 14.0395 24.2203 13.6077L20.7292 26.5489C20.2162 25.4614 17.4817 20.8667 19.1973 18.2162Z" fill="black" fill-opacity="0.2"/>
<path d="M30.2014 20.7069C33.689 21.0953 36.2145 22.5113 37.0412 23.1707L21.8721 25.5573C22.84 24.6498 26.7139 20.3184 30.2014 20.7069Z" fill="#2FC4A7"/>
<path d="M30.2014 20.7069C33.689 21.0953 36.2145 22.5113 37.0412 23.1707L21.8721 25.5573C22.84 24.6498 26.7139 20.3184 30.2014 20.7069Z" fill="black" fill-opacity="0.2"/>
<path d="M29.0529 27.6059C31.3328 29.5053 32.4895 31.8576 32.7829 32.7963L21.091 28.0442C22.166 27.6973 26.773 25.7065 29.0529 27.6059Z" fill="#2FC4A7"/>
<path d="M29.0529 27.6059C31.3328 29.5053 32.4895 31.8576 32.7829 32.7963L21.091 28.0442C22.166 27.6973 26.773 25.7065 29.0529 27.6059Z" fill="black" fill-opacity="0.2"/>
<path d="M29.6798 44.8694C28.1155 39.8546 24.5125 32.102 22.2805 29.0445L21.2105 30.2001C23.3009 33.2916 26.4197 40.244 28.0524 47.0393C29.6851 53.8346 29.7307 63.7913 28.8143 67.4555L33.4771 67.4555C33.5606 62.1945 32.4173 53.6454 29.6798 44.8694Z" fill="#FAA21E"/>
<path d="M29.6798 44.8694C28.1155 39.8546 24.5125 32.102 22.2805 29.0445L21.2105 30.2001C23.3009 33.2916 26.4197 40.244 28.0524 47.0393C29.6851 53.8346 29.7307 63.7913 28.8143 67.4555L33.4771 67.4555C33.5606 62.1945 32.4173 53.6454 29.6798 44.8694Z" fill="black" fill-opacity="0.4"/>
<circle r="2.62075" transform="matrix(-0.972327 0.233624 0.233624 0.972327 23.367 26.0881)" fill="#FAA21E"/>
<circle r="2.62075" transform="matrix(-0.972327 0.233624 0.233624 0.972327 23.367 26.0881)" fill="white" fill-opacity="0.4"/>
<circle r="2.62075" transform="matrix(-0.972327 0.233624 0.233624 0.972327 20.5817 29.4526)" fill="#FAA21E"/>
<circle r="2.62075" transform="matrix(-0.972327 0.233624 0.233624 0.972327 20.5817 29.4526)" fill="white" fill-opacity="0.6"/>
<circle cx="70" cy="25" r="6" fill="#CE4317"/>
</svg>
