<svg width="100" height="100" viewBox="0 0 100 100" fill="none" xmlns="http://www.w3.org/2000/svg">
<path d="M50.6429 80.7231C38.8143 81.1073 15.0714 77.5216 5 75.9209C7.57143 83.1242 16.0334 90.9735 25.5714 95.1297C41 101.853 60.377 101.39 73.7857 95.1297C84.0714 90.3275 91.7857 81.6835 95 74C85.1429 75.6007 62.4714 80.3389 50.6429 80.7231Z" fill="#2FC4A7"/>
<path d="M50.6429 80.7231C38.8143 81.1073 15.0714 77.5216 5 75.9209C7.57143 83.1242 16.0334 90.9735 25.5714 95.1297C41 101.853 60.377 101.39 73.7857 95.1297C84.0714 90.3275 91.7857 81.6835 95 74C85.1429 75.6007 62.4714 80.3389 50.6429 80.7231Z" fill="black" fill-opacity="0.6"/>
<path d="M25.8889 68.2921C17.5333 68.9903 5 70.5601 5 75.0979C5 81.3403 32.1327 84 53.3429 84C63.5714 84 82.1429 82.651 82.1429 79.8621C82.1429 78.6659 80.7653 78.8276 80.7653 78.1379C80.7653 77.028 95 78.1379 95 73.3639C95 66.0812 47.9714 62.7071 43.7936 64.4525C39.6159 66.1978 34.2444 67.594 25.8889 68.2921Z" fill="#2FC4A7"/>
<path d="M25.8889 68.2921C17.5333 68.9903 5 70.5601 5 75.0979C5 81.3403 32.1327 84 53.3429 84C63.5714 84 82.1429 82.651 82.1429 79.8621C82.1429 78.6659 80.7653 78.8276 80.7653 78.1379C80.7653 77.028 95 78.1379 95 73.3639C95 66.0812 47.9714 62.7071 43.7936 64.4525C39.6159 66.1978 34.2444 67.594 25.8889 68.2921Z" fill="black" fill-opacity="0.4"/>
<path d="M52.2861 45.6041C51.7008 44.3263 50.8075 40.5487 50.5237 39.6481L51.6284 39.5285C51.6284 39.5285 53.6163 46.0189 54.721 45.8993C55.8256 45.7797 57.1517 38.9305 57.1517 38.9305L58.3161 39.3633C58.3161 39.3633 56.5852 44.0211 57.3169 45.6183C58.0486 47.2155 61.4096 51.9367 63.0114 51.7633C64.116 51.6437 66.1115 48.9131 66.1115 48.9131L64.9686 43.0017L65.9628 42.8941C65.9628 42.8941 67.0519 48.3084 68.0461 48.2007C69.0403 48.0931 74.252 40.488 74.252 40.488L74.2803 42.5C74.2803 42.5 68 50.0404 68 51C69 51 73 49.5 73 49.5L74.5 48.2007L76 46.5L76.5 46.5C76.5 46.5 74.252 50.25 73.5 50.5C72.748 50.75 68.5 52 66.5 52.5C65.1163 53.6556 63.7094 54.9846 63.6631 57.7837C63.604 61.3664 64.281 63.4911 64.3807 64.4116L64.9686 67.8908L57.1517 67.8908L58.5584 62.2479C58.752 58.8741 59.1249 57.1574 58.154 53.3509C57.1831 49.5444 53.0179 47.2013 52.2861 45.6041Z" fill="#FAA21E"/>
<path d="M52.2861 45.6041C51.7008 44.3263 50.8075 40.5487 50.5237 39.6481L51.6284 39.5285C51.6284 39.5285 53.6163 46.0189 54.721 45.8993C55.8256 45.7797 57.1517 38.9305 57.1517 38.9305L58.3161 39.3633C58.3161 39.3633 56.5852 44.0211 57.3169 45.6183C58.0486 47.2155 61.4096 51.9367 63.0114 51.7633C64.116 51.6437 66.1115 48.9131 66.1115 48.9131L64.9686 43.0017L65.9628 42.8941C65.9628 42.8941 67.0519 48.3084 68.0461 48.2007C69.0403 48.0931 74.252 40.488 74.252 40.488L74.2803 42.5C74.2803 42.5 68 50.0404 68 51C69 51 73 49.5 73 49.5L74.5 48.2007L76 46.5L76.5 46.5C76.5 46.5 74.252 50.25 73.5 50.5C72.748 50.75 68.5 52 66.5 52.5C65.1163 53.6556 63.7094 54.9846 63.6631 57.7837C63.604 61.3664 64.281 63.4911 64.3807 64.4116L64.9686 67.8908L57.1517 67.8908L58.5584 62.2479C58.752 58.8741 59.1249 57.1574 58.154 53.3509C57.1831 49.5444 53.0179 47.2013 52.2861 45.6041Z" fill="black" fill-opacity="0.6"/>
<path d="M49.5708 10.7461C45.9884 8.33824 37.5 6.99994 37.1065 17.8576C35.0291 19.0429 30.9585 22.4086 32 28C33.0415 33.5914 37.799 35.0354 39.9595 34.8571C40.1534 37.2066 42.7349 42.1303 51.5098 43.0283C60.2847 43.9262 65.0213 40.2842 66 37.4999C67.3111 38.7435 70.0179 38.8649 72.6991 36.2105C75.3803 33.5561 75.6074 27.522 75.3858 24.8368C76.0229 23.7704 77.342 21.6746 76.5 18.4999C75.658 15.3252 71.8866 14.6495 70.2339 15.1238C70.1231 13.7812 68.8965 9.98223 63.8078 7.54358C58.5 4.99992 51.5098 7.99998 49.5708 10.7461Z" fill="#2FC4A7"/>
<path d="M49.5708 10.7461C45.9884 8.33824 37.5 6.99994 37.1065 17.8576C35.0291 19.0429 30.9585 22.4086 32 28C33.0415 33.5914 37.799 35.0354 39.9595 34.8571C40.1534 37.2066 42.7349 42.1303 51.5098 43.0283C60.2847 43.9262 65.0213 40.2842 66 37.4999C67.3111 38.7435 70.0179 38.8649 72.6991 36.2105C75.3803 33.5561 75.6074 27.522 75.3858 24.8368C76.0229 23.7704 77.342 21.6746 76.5 18.4999C75.658 15.3252 71.8866 14.6495 70.2339 15.1238C70.1231 13.7812 68.8965 9.98223 63.8078 7.54358C58.5 4.99992 51.5098 7.99998 49.5708 10.7461Z" fill="black" fill-opacity="0.6"/>
<path d="M82.4938 24.8945C86.4163 23.6007 90.7584 23.9108 91.3302 30.2474C92.8029 31.1396 95.5681 34.0128 94.8474 38.3683C94.1266 42.7239 90.8891 43.5945 89.3604 43.4853C89.2299 45.3122 87.418 49.1701 81.2139 49.9862C75.0098 50.8023 72.0586 46.7091 71.3584 44.5605C70.4346 45.5438 65.5562 44.6024 64.0495 41.9884C62.6616 39.5805 64.1253 38.2728 64.2744 36.1848C63.8208 35.3655 61.4865 34.7875 62.3039 31.337C63.238 27.3935 66.7024 27.6409 67.5761 27.7033C67.7076 25.8626 68.8489 23.92 72.4147 22.6007C76.2814 21.17 80.5674 23.183 82.4938 24.8945Z" fill="#2FC4A7"/>
<path d="M82.4938 24.8945C86.4163 23.6007 90.7584 23.9108 91.3302 30.2474C92.8029 31.1396 95.5681 34.0128 94.8474 38.3683C94.1266 42.7239 90.8891 43.5945 89.3604 43.4853C89.2299 45.3122 87.418 49.1701 81.2139 49.9862C75.0098 50.8023 72.0586 46.7091 71.3584 44.5605C70.4346 45.5438 65.5562 44.6024 64.0495 41.9884C62.6616 39.5805 64.1253 38.2728 64.2744 36.1848C63.8208 35.3655 61.4865 34.7875 62.3039 31.337C63.238 27.3935 66.7024 27.6409 67.5761 27.7033C67.7076 25.8626 68.8489 23.92 72.4147 22.6007C76.2814 21.17 80.5674 23.183 82.4938 24.8945Z" fill="black" fill-opacity="0.4"/>
<path d="M94 67.5C81.7219 64.6554 74.9198 62.985 63 62V64C75.6511 64.9404 82.4139 66.1978 94 69.5V67.5Z" fill="#898989"/>
<path d="M94 67.5C81.7219 64.6554 74.9198 62.985 63 62V64C75.6511 64.9404 82.4139 66.1978 94 69.5V67.5Z" fill="white" fill-opacity="0.8"/>
<path d="M73.0758 59.043L71.1379 61.5345L71.6916 69.8397L74 70L74.7368 62.365L73.0758 59.043Z" fill="#898989"/>
<path d="M73.0758 59.043L71.1379 61.5345L71.6916 69.8397L74 70L74.7368 62.365L73.0758 59.043Z" fill="white" fill-opacity="0.8"/>
<path d="M67.5241 58.043L65.5862 60.5345L66.1399 68.8397L68.5 69L69.1851 61.365L67.5241 58.043Z" fill="#898989"/>
<path d="M67.5241 58.043L65.5862 60.5345L66.1399 68.8397L68.5 69L69.1851 61.365L67.5241 58.043Z" fill="white" fill-opacity="0.8"/>
<path d="M78.6125 59.9532L76.6747 62.4448L77.5052 70.7499L80 71L80.2736 63.2753L78.6125 59.9532Z" fill="#898989"/>
<path d="M78.6125 59.9532L76.6747 62.4448L77.5052 70.7499L80 71L80.2736 63.2753L78.6125 59.9532Z" fill="white" fill-opacity="0.8"/>
<path d="M84.1493 60.8634L82.2115 63.3549L82.7651 71.6601L85 72L85.8104 63.3549L84.1493 60.8634Z" fill="#898989"/>
<path d="M84.1493 60.8634L82.2115 63.3549L82.7651 71.6601L85 72L85.8104 63.3549L84.1493 60.8634Z" fill="white" fill-opacity="0.8"/>
<path d="M89.6125 61.9532L87.6747 64.4448L88.5052 72.7499L91 73L91.2736 65.2753L89.6125 61.9532Z" fill="#898989"/>
<path d="M89.6125 61.9532L87.6747 64.4448L88.5052 72.7499L91 73L91.2736 65.2753L89.6125 61.9532Z" fill="white" fill-opacity="0.8"/>
<path d="M45.5 46L23.5 45L34.5 58H58.5L45.5 46Z" fill="#898989"/>
<path d="M45.5 46L23.5 45L34.5 58H58.5L45.5 46Z" fill="white" fill-opacity="0.4"/>
<path d="M16.0196 58H12L23.5447 45L35 58H31.7595L23.5447 50L16.0196 58Z" fill="#FEFEFE"/>
<path d="M15 58L23.5 49L32 58V75H15V58Z" fill="#D0333D"/>
<path d="M15 58L23.5 49L32 58V75H15V58Z" fill="black" fill-opacity="0.2"/>
<path d="M56 74L32 75V58H56V74Z" fill="#D0333D"/>
<path d="M56 74L32 75V58H56V74Z" fill="black" fill-opacity="0.4"/>
<path d="M37.1694 60.6874V74.6428L44.6406 60.5999M37.1694 60.6874L44.6406 60.5999M37.1694 60.6874L44.5 73.5M51 60.5134V74.2432L44.6406 60.5999M51 60.5134L44.6406 60.5999M51 60.5134L44.5 73.5M44.6406 60.5999L44.5 73.5" stroke="#898989"/>
<path d="M37.1694 60.6874V74.6428L44.6406 60.5999M37.1694 60.6874L44.6406 60.5999M37.1694 60.6874L44.5 73.5M51 60.5134V74.2432L44.6406 60.5999M51 60.5134L44.6406 60.5999M51 60.5134L44.5 73.5M44.6406 60.5999L44.5 73.5" stroke="white" stroke-opacity="0.8"/>
<path d="M36.68 74.5L51 74" stroke="#FEFEFE"/>
<path d="M32 75L55 74V75L32 76V75Z" fill="#2FC4A7"/>
<path d="M32 75L55 74V75L32 76V75Z" fill="black" fill-opacity="0.4"/>
<path d="M23.4768 73.1622C24.559 74.0547 25.1031 76.2698 21.2937 76.884C20.3062 77.0432 19.808 76.9661 17.6134 76.9726C15.319 76.9793 15.855 76.9844 14.5823 76.9038C13.6714 76.9439 11.5 76.6323 11 75C10.4371 73.1622 11.4738 72.3808 12.5 72C11.9648 71.6878 11.476 70.036 12.5 68.5C13.5 67 15.6381 66.4078 16.2966 67.0043C16.6782 66.7861 17.5 66 19 66.5C21.0876 67.1959 21.2779 68.3985 21.1684 68.8734C21.6888 68.8505 23 68.5 23.8721 69.8006C24.7443 71.1012 24.2222 72.3237 23.4768 73.1622Z" fill="#2FC4A7"/>
<path d="M23.4768 73.1622C24.559 74.0547 25.1031 76.2698 21.2937 76.884C20.3062 77.0432 19.808 76.9661 17.6134 76.9726C15.319 76.9793 15.855 76.9844 14.5823 76.9038C13.6714 76.9439 11.5 76.6323 11 75C10.4371 73.1622 11.4738 72.3808 12.5 72C11.9648 71.6878 11.476 70.036 12.5 68.5C13.5 67 15.6381 66.4078 16.2966 67.0043C16.6782 66.7861 17.5 66 19 66.5C21.0876 67.1959 21.2779 68.3985 21.1684 68.8734C21.6888 68.8505 23 68.5 23.8721 69.8006C24.7443 71.1012 24.2222 72.3237 23.4768 73.1622Z" fill="black" fill-opacity="0.2"/>
<ellipse cx="51.5" cy="79.5" rx="4.5" ry="1.5" fill="#2FC4A7"/>
<ellipse cx="51.5" cy="79.5" rx="4.5" ry="1.5" fill="black" fill-opacity="0.6"/>
<ellipse cx="66.5" cy="81" rx="5.5" ry="2" fill="#2FC4A7"/>
<ellipse cx="66.5" cy="81" rx="5.5" ry="2" fill="black" fill-opacity="0.6"/>
<ellipse cx="44.5" cy="76.5" rx="3.5" ry="1" fill="#2FC4A7"/>
<ellipse cx="44.5" cy="76.5" rx="3.5" ry="1" fill="black" fill-opacity="0.6"/>
</svg>
