<svg width="100" height="100" viewBox="0 0 100 100" fill="none" xmlns="http://www.w3.org/2000/svg">
<path d="M50.6429 80.7231C38.8143 81.1073 15.0714 77.5216 5 75.9209C7.57143 83.1242 16.0334 90.9735 25.5714 95.1297C41 101.853 60.377 101.39 73.7857 95.1297C84.0714 90.3275 91.7857 81.6835 95 74C85.1429 75.6007 62.4714 80.3389 50.6429 80.7231Z" fill="#FAA21E"/>
<path d="M50.6429 80.7231C38.8143 81.1073 15.0714 77.5216 5 75.9209C7.57143 83.1242 16.0334 90.9735 25.5714 95.1297C41 101.853 60.377 101.39 73.7857 95.1297C84.0714 90.3275 91.7857 81.6835 95 74C85.1429 75.6007 62.4714 80.3389 50.6429 80.7231Z" fill="black" fill-opacity="0.6"/>
<path d="M25.8889 68.2921C17.5333 68.9903 5 70.5601 5 75.0979C5 81.3403 32.1327 84 53.3429 84C63.5714 84 82.1429 82.651 82.1429 79.8621C82.1429 78.6659 80.7653 78.8276 80.7653 78.1379C80.7653 77.028 95 78.1379 95 73.3639C95 66.0812 47.9714 62.7071 43.7936 64.4525C39.6159 66.1978 34.2444 67.594 25.8889 68.2921Z" fill="#2FC4A7"/>
<path d="M25.8889 68.2921C17.5333 68.9903 5 70.5601 5 75.0979C5 81.3403 32.1327 84 53.3429 84C63.5714 84 82.1429 82.651 82.1429 79.8621C82.1429 78.6659 80.7653 78.8276 80.7653 78.1379C80.7653 77.028 95 78.1379 95 73.3639C95 66.0812 47.9714 62.7071 43.7936 64.4525C39.6159 66.1978 34.2444 67.594 25.8889 68.2921Z" fill="black" fill-opacity="0.4"/>
<ellipse cx="78.5" cy="71.5" rx="6.5" ry="2.5" fill="#2FC4A7"/>
<ellipse cx="78.5" cy="71.5" rx="6.5" ry="2.5" fill="black" fill-opacity="0.6"/>
<ellipse cx="18" cy="76.5" rx="4" ry="1.5" fill="#2FC4A7"/>
<ellipse cx="18" cy="76.5" rx="4" ry="1.5" fill="black" fill-opacity="0.6"/>
<ellipse cx="40.5" cy="74" rx="6.5" ry="3" fill="#2FC4A7"/>
<ellipse cx="40.5" cy="74" rx="6.5" ry="3" fill="black" fill-opacity="0.6"/>
<ellipse cx="56.5" cy="78.5" rx="3.5" ry="1.5" fill="#2FC4A7"/>
<ellipse cx="56.5" cy="78.5" rx="3.5" ry="1.5" fill="black" fill-opacity="0.6"/>
<path d="M70.8492 43.3462C71.3095 41.9615 71.8082 37.9615 72 37H70.8492C70.8492 37 69.6984 42.7692 68.5476 42.7692C67.3968 42.7692 65.0952 37 65.0952 37L63.9444 37.5769C63.9444 37.5769 66.246 42.1923 65.6706 43.9231C65.0952 45.6538 62.7936 50.2692 59.9167 50.2692C58.7659 50.2692 57.0397 47.7885 57.0397 47.7885L57.5 42.077H56.4643C56.4643 42.077 55.9464 47.7885 54.9107 47.7885C53.875 47.7885 47.6607 40.5193 47.6607 40.5193L45.5893 41.5577C45.5893 41.5577 52.8393 48.4808 51.8036 49.3462C51.3572 49.7192 47.6607 49.3462 47.6607 49.3462L44.0357 47.2693L43 47.7885C43 47.7885 46.1071 50.3846 47.6607 50.9039C49.2143 51.4231 54.4504 50.4423 55.4286 50.9039C57.3057 51.7896 60.1324 54.3077 60.4921 57.1923C60.9524 60.8846 60.4921 63.1538 60.4921 64.1154L59.9167 67H67.3968L66.246 61.2308C65.6706 57.7692 65.0952 56.0385 65.6706 52C66.246 47.9615 70.2738 45.0769 70.8492 43.3462Z" fill="#FAA21E"/>
<path d="M70.8492 43.3462C71.3095 41.9615 71.8082 37.9615 72 37H70.8492C70.8492 37 69.6984 42.7692 68.5476 42.7692C67.3968 42.7692 65.0952 37 65.0952 37L63.9444 37.5769C63.9444 37.5769 66.246 42.1923 65.6706 43.9231C65.0952 45.6538 62.7936 50.2692 59.9167 50.2692C58.7659 50.2692 57.0397 47.7885 57.0397 47.7885L57.5 42.077H56.4643C56.4643 42.077 55.9464 47.7885 54.9107 47.7885C53.875 47.7885 47.6607 40.5193 47.6607 40.5193L45.5893 41.5577C45.5893 41.5577 52.8393 48.4808 51.8036 49.3462C51.3572 49.7192 47.6607 49.3462 47.6607 49.3462L44.0357 47.2693L43 47.7885C43 47.7885 46.1071 50.3846 47.6607 50.9039C49.2143 51.4231 54.4504 50.4423 55.4286 50.9039C57.3057 51.7896 60.1324 54.3077 60.4921 57.1923C60.9524 60.8846 60.4921 63.1538 60.4921 64.1154L59.9167 67H67.3968L66.246 61.2308C65.6706 57.7692 65.0952 56.0385 65.6706 52C66.246 47.9615 70.2738 45.0769 70.8492 43.3462Z" fill="black" fill-opacity="0.6"/>
<path d="M68.8386 5.57688C72.268 2.73602 79.7145 0.0372095 82.0661 11.9688C84.2706 13.0341 88.5328 16.6562 87.9449 22.622C87.357 28.5878 82.8009 30.0793 80.5963 30.0793C80.5963 32.565 78.3918 37.9626 69.5735 39.6671C60.7552 41.3717 56.1011 36.1161 54.8764 33.2752C53.6516 34.6956 50.4672 36.8973 47.5278 34.3405C44.5884 31.7838 43.8535 25.4629 43.8535 22.622C43.1186 21.5567 41.7959 18.5738 42.3838 15.1648C42.9717 11.7557 46.548 11.6137 48.2626 11.9688C48.2626 10.5484 49.4384 6.85526 54.1415 3.44623C58.8446 0.0372012 65.8992 3.44623 68.8386 5.57688Z" fill="#2FC4A7"/>
<path d="M68.8386 5.57688C72.268 2.73602 79.7145 0.0372095 82.0661 11.9688C84.2706 13.0341 88.5328 16.6562 87.9449 22.622C87.357 28.5878 82.8009 30.0793 80.5963 30.0793C80.5963 32.565 78.3918 37.9626 69.5735 39.6671C60.7552 41.3717 56.1011 36.1161 54.8764 33.2752C53.6516 34.6956 50.4672 36.8973 47.5278 34.3405C44.5884 31.7838 43.8535 25.4629 43.8535 22.622C43.1186 21.5567 41.7959 18.5738 42.3838 15.1648C42.9717 11.7557 46.548 11.6137 48.2626 11.9688C48.2626 10.5484 49.4384 6.85526 54.1415 3.44623C58.8446 0.0372012 65.8992 3.44623 68.8386 5.57688Z" fill="black" fill-opacity="0.4"/>
<path d="M41.5461 22.6356C39.1217 20.5423 33.8574 18.5537 32.195 27.3454C30.6365 28.1304 27.6233 30.7993 28.0389 35.1952C28.4546 39.591 31.6755 40.69 33.234 40.69C33.234 42.5216 34.7925 46.4988 41.0266 47.7547C47.2606 49.0107 50.5508 45.1382 51.4167 43.0449C52.2825 44.0915 57.1313 43.8839 59.2093 42C61.2873 40.1161 59.2093 37.2884 59.2093 35.1952C59.7288 34.4102 61.9229 33.0119 61.5073 30.5C61.0917 27.9881 57.3044 27.0838 56.0922 27.3454C56.0922 26.2988 55.261 23.5776 51.9362 21.0656C48.6114 18.5537 43.6241 21.0656 41.5461 22.6356Z" fill="#2FC4A7"/>
<path d="M41.5461 22.6356C39.1217 20.5423 33.8574 18.5537 32.195 27.3454C30.6365 28.1304 27.6233 30.7993 28.0389 35.1952C28.4546 39.591 31.6755 40.69 33.234 40.69C33.234 42.5216 34.7925 46.4988 41.0266 47.7547C47.2606 49.0107 50.5508 45.1382 51.4167 43.0449C52.2825 44.0915 57.1313 43.8839 59.2093 42C61.2873 40.1161 59.2093 37.2884 59.2093 35.1952C59.7288 34.4102 61.9229 33.0119 61.5073 30.5C61.0917 27.9881 57.3044 27.0838 56.0922 27.3454C56.0922 26.2988 55.261 23.5776 51.9362 21.0656C48.6114 18.5537 43.6241 21.0656 41.5461 22.6356Z" fill="black" fill-opacity="0.6"/>
<path d="M30.5 58H27L26 75H32L30.5 58Z" fill="#FAA21E"/>
<path d="M30.5 58H27L26 75H32L30.5 58Z" fill="black" fill-opacity="0.8"/>
<path d="M34.0465 47.0909C31.0884 45.2 28.2946 41.1818 27.8837 40C26.6512 42.3636 23.693 45.2 21.7209 47.0909C19.7488 48.9818 12.6822 54.1818 9.39535 55.3636C12.8675 55.1867 14.7672 54.7434 18.0233 53C17.6124 53.3939 15.5581 56.5455 11.8605 58.9091C9.53991 60.3924 6.93023 61.2727 2 63.6364C2 63.6364 6.93023 63.6364 10.6279 62.4545C14.3256 61.2727 15.5581 60.0909 15.5581 60.0909L14.3256 63.6364L20.4884 60.5L18.0233 66L24.5 61.2727L26 66L28.5 62L32 66.5L32.814 61.2727L36.5116 64.8182L35.2791 60.0909L42.6744 66L40.2093 61.2727L46.3721 63.6364L42.6744 60.0909C47.1543 61.9383 49.9206 62.2694 55 62.4545C51.3023 61.2727 47.7279 59.5591 43.907 57.7273C41.9349 56.7818 38.9767 54.1818 37.7442 53C41.4419 54.1818 42.6744 54.1818 46.3721 54.1818C43.907 53.3939 37.0047 48.9818 34.0465 47.0909Z" fill="#2FC4A7"/>
<path d="M34.0465 47.0909C31.0884 45.2 28.2946 41.1818 27.8837 40C26.6512 42.3636 23.693 45.2 21.7209 47.0909C19.7488 48.9818 12.6822 54.1818 9.39535 55.3636C12.8675 55.1867 14.7672 54.7434 18.0233 53C17.6124 53.3939 15.5581 56.5455 11.8605 58.9091C9.53991 60.3924 6.93023 61.2727 2 63.6364C2 63.6364 6.93023 63.6364 10.6279 62.4545C14.3256 61.2727 15.5581 60.0909 15.5581 60.0909L14.3256 63.6364L20.4884 60.5L18.0233 66L24.5 61.2727L26 66L28.5 62L32 66.5L32.814 61.2727L36.5116 64.8182L35.2791 60.0909L42.6744 66L40.2093 61.2727L46.3721 63.6364L42.6744 60.0909C47.1543 61.9383 49.9206 62.2694 55 62.4545C51.3023 61.2727 47.7279 59.5591 43.907 57.7273C41.9349 56.7818 38.9767 54.1818 37.7442 53C41.4419 54.1818 42.6744 54.1818 46.3721 54.1818C43.907 53.3939 37.0047 48.9818 34.0465 47.0909Z" fill="black" fill-opacity="0.6"/>
<path d="M24.2576 38.4756C26.5202 36.9539 28.6571 33.7203 28.9714 32.7693C29.9141 34.6714 32.1767 36.9539 33.6851 38.4756L33.6852 38.4756C35.1936 39.9973 40.5987 44.1819 43.1127 45.1329C40.4569 44.9905 39.0039 44.6338 36.5134 43.2308C36.8277 43.5478 38.3989 46.084 41.2272 47.9861C43.0021 49.1798 44.9982 49.8882 48.7692 51.7903C48.7692 51.7903 44.9982 51.7903 42.1699 50.8392C39.3417 49.8882 38.3989 48.9371 38.3989 48.9371L39.3417 51.7903L34.6279 48.9371V51.7903L30.8569 47.9861V52.7413L28.0286 49.8882L27.0859 53.6924L25.2004 49.8882L22.3721 52.7413L23.3149 48.9371L17.6583 53.6924L19.5438 49.8882L14.8301 51.7903L17.6583 48.9371C14.2317 50.4238 12.1159 50.6902 8.23077 50.8392C11.059 49.8882 13.793 48.5091 16.7156 47.035L16.7156 47.035C18.224 46.2742 20.4866 44.1819 21.4293 43.2308C18.6011 44.1819 17.6583 44.1819 14.8301 44.1819C16.7156 43.5478 21.995 39.9973 24.2576 38.4756Z" fill="#2FC4A7"/>
<path d="M24.2576 38.4756C26.5202 36.9539 28.6571 33.7203 28.9714 32.7693C29.9141 34.6714 32.1767 36.9539 33.6851 38.4756L33.6852 38.4756C35.1936 39.9973 40.5987 44.1819 43.1127 45.1329C40.4569 44.9905 39.0039 44.6338 36.5134 43.2308C36.8277 43.5478 38.3989 46.084 41.2272 47.9861C43.0021 49.1798 44.9982 49.8882 48.7692 51.7903C48.7692 51.7903 44.9982 51.7903 42.1699 50.8392C39.3417 49.8882 38.3989 48.9371 38.3989 48.9371L39.3417 51.7903L34.6279 48.9371V51.7903L30.8569 47.9861V52.7413L28.0286 49.8882L27.0859 53.6924L25.2004 49.8882L22.3721 52.7413L23.3149 48.9371L17.6583 53.6924L19.5438 49.8882L14.8301 51.7903L17.6583 48.9371C14.2317 50.4238 12.1159 50.6902 8.23077 50.8392C11.059 49.8882 13.793 48.5091 16.7156 47.035L16.7156 47.035C18.224 46.2742 20.4866 44.1819 21.4293 43.2308C18.6011 44.1819 17.6583 44.1819 14.8301 44.1819C16.7156 43.5478 21.995 39.9973 24.2576 38.4756Z" fill="black" fill-opacity="0.4"/>
<path d="M25.3524 31.8182C27.0311 30.6769 28.6166 28.2517 28.8497 27.5385C29.5492 28.965 31.2279 30.6769 32.3471 31.8182C33.4662 32.9594 37.4765 36.0979 39.3417 36.8112C37.3713 36.7044 36.2932 36.4369 34.4454 35.3846C34.6786 35.6224 35.8444 37.5245 37.9428 38.951C39.2597 39.8463 40.7406 40.3776 43.5385 41.8042C43.5385 41.8042 40.7406 41.8042 38.6422 41.0909C36.5438 40.3776 35.8444 39.6643 35.8444 39.6643L36.5438 41.8042L33.0465 39.6643V41.8042L30.2487 38.951V42.5175L28.1503 40.3776L27.4508 43.2308L26.0519 40.3776L23.9535 42.5175L24.653 39.6643L20.4562 43.2308L21.8551 40.3776L18.3578 41.8042L20.4562 39.6643C17.9139 40.7793 16.3441 40.9792 13.4615 41.0909C15.5599 40.3776 17.5884 39.3434 19.7567 38.2378L19.7567 38.2378C20.8759 37.6671 22.5546 36.0979 23.254 35.3846C21.1556 36.0979 20.4562 36.0979 18.3578 36.0979C19.7567 35.6224 23.6737 32.9594 25.3524 31.8182Z" fill="#2FC4A7"/>
<path d="M25.3524 31.8182C27.0311 30.6769 28.6166 28.2517 28.8497 27.5385C29.5492 28.965 31.2279 30.6769 32.3471 31.8182C33.4662 32.9594 37.4765 36.0979 39.3417 36.8112C37.3713 36.7044 36.2932 36.4369 34.4454 35.3846C34.6786 35.6224 35.8444 37.5245 37.9428 38.951C39.2597 39.8463 40.7406 40.3776 43.5385 41.8042C43.5385 41.8042 40.7406 41.8042 38.6422 41.0909C36.5438 40.3776 35.8444 39.6643 35.8444 39.6643L36.5438 41.8042L33.0465 39.6643V41.8042L30.2487 38.951V42.5175L28.1503 40.3776L27.4508 43.2308L26.0519 40.3776L23.9535 42.5175L24.653 39.6643L20.4562 43.2308L21.8551 40.3776L18.3578 41.8042L20.4562 39.6643C17.9139 40.7793 16.3441 40.9792 13.4615 41.0909C15.5599 40.3776 17.5884 39.3434 19.7567 38.2378L19.7567 38.2378C20.8759 37.6671 22.5546 36.0979 23.254 35.3846C21.1556 36.0979 20.4562 36.0979 18.3578 36.0979C19.7567 35.6224 23.6737 32.9594 25.3524 31.8182Z" fill="black" fill-opacity="0.2"/>
<path d="M25.8846 24.9231C27.4538 23.8769 28.9359 21.6538 29.1538 21C29.8077 22.3077 31.3769 23.8769 32.4231 24.9231C33.4692 25.9692 37.2179 28.8462 38.9615 29.5C37.1196 29.4021 36.1119 29.1569 34.3846 28.1923C34.6026 28.4103 35.6923 30.1538 37.6538 31.4615C38.8848 32.2822 40.2692 32.7692 42.8846 34.0769C42.8846 34.0769 40.2692 34.0769 38.3077 33.4231C36.3461 32.7692 35.6923 32.1154 35.6923 32.1154L36.3461 34.0769L33.0769 32.1154V34.0769L30.4615 31.4615V34.7308L28.5 32.7692L27.8461 35.3846L26.5385 32.7692L24.5769 34.7308L25.2308 32.1154L21.3077 35.3846L22.6154 32.7692L19.3461 34.0769L21.3077 32.1154C18.9312 33.1375 17.4638 33.3206 14.7692 33.4231C16.7308 32.7692 18.6269 31.8212 20.6538 30.8077L20.6538 30.8077C21.7 30.2846 23.2692 28.8462 23.9231 28.1923C21.9615 28.8462 21.3077 28.8462 19.3461 28.8462C20.6538 28.4103 24.3154 25.9692 25.8846 24.9231Z" fill="#2FC4A7"/>
<path d="M79.5 80H73C73.6666 78.3333 74 74.5 74 70.5C74 65.5 73.8822 49.9987 74 44.5C74.1886 35.6915 73.7742 30.7669 72.5 22H73.5L76 38.5C77.2 38.5 79.8333 32.3333 80 29.5L81 30C80.9044 33.656 77.0536 41.9419 76.5 44.5C75.7622 47.909 76.9915 63.8894 77.4948 70.4325L77.5 70.5C77.9 75.7 79 79 79.5 80Z" fill="#FAA21E"/>
<path d="M79.5 80H73C73.6666 78.3333 74 74.5 74 70.5C74 65.5 73.8822 49.9987 74 44.5C74.1886 35.6915 73.7742 30.7669 72.5 22H73.5L76 38.5C77.2 38.5 79.8333 32.3333 80 29.5L81 30C80.9044 33.656 77.0536 41.9419 76.5 44.5C75.7622 47.909 76.9915 63.8894 77.4948 70.4325L77.5 70.5C77.9 75.7 79 79 79.5 80Z" fill="black" fill-opacity="0.4"/>
<path d="M82.5 51L81 50C80.8333 50.8333 80.3 52.8 79.5 54C78.7 55.2 77.1667 56.5 76.5 57L78 58.5C79 57.1667 81.1 54.3 81.5 53.5C81.9 52.7 82.3333 51.5 82.5 51Z" fill="#FAA21E"/>
<path d="M82.5 51L81 50C80.8333 50.8333 80.3 52.8 79.5 54C78.7 55.2 77.1667 56.5 76.5 57L78 58.5C79 57.1667 81.1 54.3 81.5 53.5C81.9 52.7 82.3333 51.5 82.5 51Z" fill="black" fill-opacity="0.4"/>
<path d="M73.8042 62.6534L73.8042 61.6534C73.0114 61.3472 71.3042 60.6534 70.2496 59.8763C69.0885 59.0208 68.3042 57.6534 67.8042 56.1534L66.8042 56.6534C67.8042 58.6534 67.8042 59.5485 69.3042 60.6534C70.8042 61.7584 73.3399 62.404 73.8042 62.6534Z" fill="#FAA21E"/>
<path d="M73.8042 62.6534L73.8042 61.6534C73.0114 61.3472 71.3042 60.6534 70.2496 59.8763C69.0885 59.0208 68.3042 57.6534 67.8042 56.1534L66.8042 56.6534C67.8042 58.6534 67.8042 59.5485 69.3042 60.6534C70.8042 61.7584 73.3399 62.404 73.8042 62.6534Z" fill="black" fill-opacity="0.4"/>
<circle cx="82" cy="29" r="5" fill="#2FC4A7"/>
<circle cx="82" cy="29" r="5" fill="black" fill-opacity="0.2"/>
<circle cx="73.5" cy="20.5" r="6.5" fill="#2FC4A7"/>
<circle cx="66" cy="52" r="5" fill="#2FC4A7"/>
<circle cx="66" cy="52" r="5" fill="black" fill-opacity="0.2"/>
<circle cx="83.5" cy="45.5" r="6.5" fill="#2FC4A7"/>
<circle cx="83.5" cy="45.5" r="6.5" fill="black" fill-opacity="0.2"/>
<ellipse cx="76" cy="59.5" rx="7" ry="6.5" fill="#2FC4A7"/>
<ellipse cx="76" cy="59.5" rx="7" ry="6.5" fill="black" fill-opacity="0.2"/>
<circle cx="72" cy="39" r="8" fill="#2FC4A7"/>
</svg>
