<svg width="100" height="100" viewBox="0 0 100 100" fill="none" xmlns="http://www.w3.org/2000/svg">
<path d="M50.6429 80.7231C38.8143 81.1073 15.0714 77.5216 5 75.9209C7.57143 83.1242 16.0334 90.9735 25.5714 95.1297C41 101.853 60.377 101.39 73.7857 95.1297C84.0714 90.3275 91.7857 81.6835 95 74C85.1429 75.6007 62.4714 80.3389 50.6429 80.7231Z" fill="#CE4317"/>
<path d="M50.6429 80.7231C38.8143 81.1073 15.0714 77.5216 5 75.9209C7.57143 83.1242 16.0334 90.9735 25.5714 95.1297C41 101.853 60.377 101.39 73.7857 95.1297C84.0714 90.3275 91.7857 81.6835 95 74C85.1429 75.6007 62.4714 80.3389 50.6429 80.7231Z" fill="black" fill-opacity="0.5"/>
<path d="M25.8889 68.2921C17.5333 68.9903 5 70.5601 5 75.0979C5 81.3403 32.1327 84 53.3429 84C63.5714 84 82.1429 82.651 82.1429 79.8621C82.1429 78.6659 80.7653 78.8276 80.7653 78.1379C80.7653 77.028 95 78.1379 95 73.3639C95 66.0812 47.9714 62.7071 43.7936 64.4525C39.6159 66.1978 34.2444 67.594 25.8889 68.2921Z" fill="#898989"/>
<path d="M25.8889 68.2921C17.5333 68.9903 5 70.5601 5 75.0979C5 81.3403 32.1327 84 53.3429 84C63.5714 84 82.1429 82.651 82.1429 79.8621C82.1429 78.6659 80.7653 78.8276 80.7653 78.1379C80.7653 77.028 95 78.1379 95 73.3639C95 66.0812 47.9714 62.7071 43.7936 64.4525C39.6159 66.1978 34.2444 67.594 25.8889 68.2921Z" fill="white" fill-opacity="0.2"/>
<path d="M42.1985 6.41899C39.9875 4.9164 35.3188 3.65818 34.3311 10.646C33.0198 11.3505 30.5442 13.6152 31.1318 17.0378C31.7194 20.4605 34.5698 21.138 35.9216 21.0489C36.0162 22.4849 37.5735 25.514 43.0455 26.1425C48.5175 26.7709 51.1712 23.5467 51.8141 21.8561C52.6192 22.6271 55.195 23.4288 56.6755 21.5357C58.2044 19.5807 57.2308 17.3835 56.7195 15.914C57.1321 15.8868 58.9771 13.2334 58.4869 11.2878C57.9966 9.34213 56.0963 9.00582 55.0584 9.28024C55.0043 8.45967 54.1428 6.37368 51.1292 4.59432C48.1157 2.81496 43.9197 5.06937 42.1985 6.41899Z" fill="#FEFEFE" fill-opacity="0.15"/>
<path d="M53.7052 30.6726C54.9837 32.0829 58.0379 33.8041 60.0269 29.4065C61.0805 29.1955 63.2427 28.1836 63.4626 25.8242C63.6825 23.4647 61.8009 22.4734 60.8327 22.2726C61.0319 21.3119 60.4962 19.0248 56.7598 17.563C53.0235 16.1012 50.5582 17.7088 49.7926 18.6953C49.3686 18.0347 47.7034 17.0146 46.3106 17.9733C44.8722 18.9635 45.151 20.5925 45.2389 21.6552C44.9434 21.5939 43.1532 22.9819 43.1382 24.3531C43.1232 25.7243 44.3989 26.3094 45.1805 26.3283C45.0666 26.8773 45.2871 28.4119 47.0795 30.1578C48.8719 31.9037 52.2434 31.2284 53.7052 30.6726Z" fill="#FEFEFE" fill-opacity="0.15"/>
<path d="M43 37C42.5 37.5 40.5 37 40.5 37L44 44H52L56 37C55.5 36.5 54.7 36.6 53.5 37C52.3 37.4 50 36.8333 49.5 36.5C49.5 36.5 48 37.5 47 37.5C46 37.5 44 36 44 36L43 37Z" fill="#D0333D"/>
<path d="M43 37C42.5 37.5 40.5 37 40.5 37L44 44H52L56 37C55.5 36.5 54.7 36.6 53.5 37C52.3 37.4 50 36.8333 49.5 36.5C49.5 36.5 48 37.5 47 37.5C46 37.5 44 36 44 36L43 37Z" fill="black" fill-opacity="0.4"/>
<path d="M52.8168 29.4807C53.501 25.5397 52.7004 22.3558 52.2146 21.2565L52.2174 21.2673C52.4491 22.1632 53.1275 24.7856 51.746 29.8023C50.3589 34.8393 47.0782 37.0929 46.5 37.5C47.8205 36.7143 52.1326 33.4218 52.8168 29.4807Z" fill="#CE4317"/>
<path d="M52.8168 29.4807C53.501 25.5397 52.7004 22.3558 52.2146 21.2565L52.2174 21.2673C52.4491 22.1632 53.1275 24.7856 51.746 29.8023C50.3589 34.8393 47.0782 37.0929 46.5 37.5C47.8205 36.7143 52.1326 33.4218 52.8168 29.4807Z" fill="white" fill-opacity="0.15"/>
<path d="M43.3325 35.4877C43.8728 38.5312 45.5242 40.5925 46.2824 41.2427C45.8174 40.6713 44.7303 39.0403 44.5 35C44.2697 30.9597 45.2294 29.214 45.5231 28.8201C43.8693 30.1256 42.7922 32.4443 43.3325 35.4877Z" fill="#CE4317"/>
<path d="M43.3325 35.4877C43.8728 38.5312 45.5242 40.5925 46.2824 41.2427C45.8174 40.6713 44.7303 39.0403 44.5 35C44.2697 30.9597 45.2294 29.214 45.5231 28.8201C43.8693 30.1256 42.7922 32.4443 43.3325 35.4877Z" fill="white" fill-opacity="0.15"/>
<path d="M47.3352 16.5575C49.3462 12.1537 47.5671 9.41108 45.5638 7.82349C48.124 9.51922 50.1279 11.6484 48.25 16.5575C46.3721 21.4666 48.581 25.0223 50.1082 26.0853C48.3267 25.3398 44.9221 21.8421 47.3352 16.5575Z" fill="#CE4317"/>
<path d="M47.3352 16.5575C49.3462 12.1537 47.5671 9.41108 45.5638 7.82349C48.124 9.51922 50.1279 11.6484 48.25 16.5575C46.3721 21.4666 48.581 25.0223 50.1082 26.0853C48.3267 25.3398 44.9221 21.8421 47.3352 16.5575Z" fill="white" fill-opacity="0.15"/>
<path d="M51.1626 8.07181C49.6356 4.98534 50.528 3.00319 51.6367 1.83655C50.1969 3.09097 48.6532 4.62403 50.1342 8.07181C51.6152 11.5196 50.9896 14.1056 50.1342 14.8904C51.1661 14.3259 52.995 11.7756 51.1626 8.07181Z" fill="#CE4317"/>
<path d="M51.1626 8.07181C49.6356 4.98534 50.528 3.00319 51.6367 1.83655C50.1969 3.09097 48.6532 4.62403 50.1342 8.07181C51.6152 11.5196 50.9896 14.1056 50.1342 14.8904C51.1661 14.3259 52.995 11.7756 51.1626 8.07181Z" fill="white" fill-opacity="0.15"/>
<path d="M45.4935 25.1264C41.934 23.2928 41.941 20.43 42.6591 18.2202C41.5836 20.8192 41.2989 23.7495 45 26C48.7011 28.2505 48.5861 31.5523 47.9689 33.1375C48.9229 31.6225 49.765 27.3267 45.4935 25.1264Z" fill="#CE4317"/>
<path d="M45.4935 25.1264C41.934 23.2928 41.941 20.43 42.6591 18.2202C41.5836 20.8192 41.2989 23.7495 45 26C48.7011 28.2505 48.5861 31.5523 47.9689 33.1375C48.9229 31.6225 49.765 27.3267 45.4935 25.1264Z" fill="white" fill-opacity="0.15"/>
<path d="M51.5935 40.3448C52.7915 44.6219 50.148 46.6849 47.5292 47.6862C50.7965 46.7 53.4287 45.0406 52.5 40.3448C51.5713 35.649 55.0058 33.1363 56.9672 32.5027C54.7972 32.8062 50.1559 35.2122 51.5935 40.3448Z" fill="#CE4317"/>
<path d="M51.5935 40.3448C52.7915 44.6219 50.148 46.6849 47.5292 47.6862C50.7965 46.7 53.4287 45.0406 52.5 40.3448C51.5713 35.649 55.0058 33.1363 56.9672 32.5027C54.7972 32.8062 50.1559 35.2122 51.5935 40.3448Z" fill="white" fill-opacity="0.15"/>
<path d="M31 52C24.6 60 11.8333 70.1667 5 75L46 75.5L95 73C89.5 69 71 59.5 67 55C63 50.5 56.6667 39.3333 56 37L53.5 38C53.5 38 52.5 39 51.5 39C50 39 49 38.5 49 38.5L46 38C46 38 44 38.5 42.5 38.5C41 38 40.5 37 40.5 37C40.8333 37.8333 37.4 44 31 52Z" fill="#898989"/>
<path d="M31 52C24.6 60 11.8333 70.1667 5 75L46 75.5L95 73C89.5 69 71 59.5 67 55C63 50.5 56.6667 39.3333 56 37L53.5 38C53.5 38 52.5 39 51.5 39C50 39 49 38.5 49 38.5L46 38C46 38 44 38.5 42.5 38.5C41 38 40.5 37 40.5 37C40.8333 37.8333 37.4 44 31 52Z" fill="white" fill-opacity="0.2"/>
<path d="M45.5 45C45.24 43.4404 46 38 46 38C46 38 43.5 38.5 42.5 38.5C41 38 40.8219 37.4293 40.5 37C38 41 32.6 48.8349 27 54.8349C21.4 60.8349 11.6666 67.8333 8.49997 70.5C6.49997 72 2.88497 75.1637 5.99997 77.5C12 82 33.5 83.5 44 84C54.1401 84.4829 59 84 65 83.5C65 83.5 56 75 55 70.5C54 66 52.0714 60.5 51 58C48.8333 53.1667 46.5 51 45.5 45Z" fill="#898989"/>
<path d="M45.5 45C45.24 43.4404 46 38 46 38C46 38 43.5 38.5 42.5 38.5C41 38 40.8219 37.4293 40.5 37C38 41 32.6 48.8349 27 54.8349C21.4 60.8349 11.6666 67.8333 8.49997 70.5C6.49997 72 2.88497 75.1637 5.99997 77.5C12 82 33.5 83.5 44 84C54.1401 84.4829 59 84 65 83.5C65 83.5 56 75 55 70.5C54 66 52.0714 60.5 51 58C48.8333 53.1667 46.5 51 45.5 45Z" fill="black" fill-opacity="0.2"/>
<path d="M57 54C56.6 52.8 56.6667 50 56 47.5C56.344 48.7755 57.4257 51.9612 59 54.5C60.5743 57.0388 62 57 62.5 59C62.802 60.208 64.2 61.9 65 63.5C65.8 65.1 69.5 67.8333 72 69C73.3333 69.3333 76.3233 69.7647 77.5 70C80 70.5 83 75 91 76.5C90.8333 76.5 90.3 76.6 89.5 77C88.5 77.5 85.5 77.5 84 77.5C82.8 77.5 80 78 81 78.5C73.5 77.5 72.2398 74.1053 66 69C60.5 64.5 57.5 55.5 57 54Z" fill="#898989"/>
<path d="M57 54C56.6 52.8 56.6667 50 56 47.5C56.344 48.7755 57.4257 51.9612 59 54.5C60.5743 57.0388 62 57 62.5 59C62.802 60.208 64.2 61.9 65 63.5C65.8 65.1 69.5 67.8333 72 69C73.3333 69.3333 76.3233 69.7647 77.5 70C80 70.5 83 75 91 76.5C90.8333 76.5 90.3 76.6 89.5 77C88.5 77.5 85.5 77.5 84 77.5C82.8 77.5 80 78 81 78.5C73.5 77.5 72.2398 74.1053 66 69C60.5 64.5 57.5 55.5 57 54Z" fill="black" fill-opacity="0.2"/>
<path d="M47.3394 43.5C46.5394 41.5 47.3394 41 47.8394 40C47.8394 41.5 48.7394 44 50.3394 46C52.8394 48.5 53.3394 52.5 52.8394 51.5C52.3171 49 48.3394 46.5 47.3394 43.5Z" fill="#898989"/>
<path d="M47.3394 43.5C46.5394 41.5 47.3394 41 47.8394 40C47.8394 41.5 48.7394 44 50.3394 46C52.8394 48.5 53.3394 52.5 52.8394 51.5C52.3171 49 48.3394 46.5 47.3394 43.5Z" fill="black" fill-opacity="0.2"/>
<path d="M85.5001 70.9418C89.0342 73.7226 91.666 72.9708 95.6572 72.6974C90.1217 72.4666 85.9526 70.02 81.4798 67.0859C76.5158 63.268 72.0452 65.7052 72.0452 65.7052C72.0452 65.7052 77.0436 65.0655 85.5001 70.9418Z" fill="#898989"/>
<path d="M85.5001 70.9418C89.0342 73.7226 91.666 72.9708 95.6572 72.6974C90.1217 72.4666 85.9526 70.02 81.4798 67.0859C76.5158 63.268 72.0452 65.7052 72.0452 65.7052C72.0452 65.7052 77.0436 65.0655 85.5001 70.9418Z" fill="black" fill-opacity="0.2"/>
<path d="M37.2333 55.1865C37.8629 53.0163 36.8681 52.639 36.1459 51.7026C36.365 53.2311 35.6932 55.9273 34.1419 58.2296C31.6265 61.19 31.6348 65.3486 32.0648 64.247C32.3013 61.6132 36.5194 58.4086 37.2333 55.1865Z" fill="#898989"/>
<path d="M37.2333 55.1865C37.8629 53.0163 36.8681 52.639 36.1459 51.7026C36.365 53.2311 35.6932 55.9273 34.1419 58.2296C31.6265 61.19 31.6348 65.3486 32.0648 64.247C32.3013 61.6132 36.5194 58.4086 37.2333 55.1865Z" fill="black" fill-opacity="0.4"/>
<path d="M14.0537 76.9418C11.9473 79.7226 10.3788 78.9708 8 78.6974C11.2992 78.4666 13.784 76.02 16.4499 73.0859C19.4084 69.268 22.0729 71.7052 22.0729 71.7052C22.0729 71.7052 19.0938 71.0655 14.0537 76.9418Z" fill="#898989"/>
<path d="M14.0537 76.9418C11.9473 79.7226 10.3788 78.9708 8 78.6974C11.2992 78.4666 13.784 76.02 16.4499 73.0859C19.4084 69.268 22.0729 71.7052 22.0729 71.7052C22.0729 71.7052 19.0938 71.0655 14.0537 76.9418Z" fill="black" fill-opacity="0.4"/>
</svg>
