<svg width="100" height="100" viewBox="0 0 100 100" fill="none" xmlns="http://www.w3.org/2000/svg">
<path d="M80.5 67.4359C84.4995 68.3719 88.0001 69.75 89 73H8C13 54.718 19 60.141 31 51C38.5 45.2869 42 42 42 42C42 42 52.5 42.5 55.5 45.5C58.5 48.5 72 62.9762 79 63.0641C82.999 63.1144 75.5006 66.2659 80.5 67.4359Z" fill="#898989"/>
<path d="M80.5 67.4359C84.4995 68.3719 88.0001 69.75 89 73H8C13 54.718 19 60.141 31 51C38.5 45.2869 42 42 42 42C42 42 52.5 42.5 55.5 45.5C58.5 48.5 72 62.9762 79 63.0641C82.999 63.1144 75.5006 66.2659 80.5 67.4359Z" fill="white" fill-opacity="0.6"/>
<path d="M50.6429 80.7231C38.8143 81.1073 15.0714 77.5216 5 75.9209C7.57143 83.1242 16.0334 90.9735 25.5714 95.1297C41 101.853 60.377 101.39 73.7857 95.1297C84.0714 90.3275 91.7857 81.6835 95 74C85.1429 75.6007 62.4714 80.3389 50.6429 80.7231Z" fill="#1D8CE0"/>
<path d="M50.6429 80.7231C38.8143 81.1073 15.0714 77.5216 5 75.9209C7.57143 83.1242 16.0334 90.9735 25.5714 95.1297C41 101.853 60.377 101.39 73.7857 95.1297C84.0714 90.3275 91.7857 81.6835 95 74C85.1429 75.6007 62.4714 80.3389 50.6429 80.7231Z" fill="black" fill-opacity="0.2"/>
<path d="M25.5 66.5C17.1728 67.4797 5 70.5601 5 75.0979C5 81.3403 32.1327 84 53.3429 84C63.5714 84 82.1429 82.6511 82.1429 79.8621C82.1429 78.666 80.7653 78.8276 80.7653 78.138C80.7653 77.028 95 78.138 95 73.3639C95 66.0812 54 64.5 48 64.5C42.5 64.5 34 65.5 25.5 66.5Z" fill="#1D8CE0"/>
<path d="M25.5 66.5C17.1728 67.4797 5 70.5601 5 75.0979C5 81.3403 32.1327 84 53.3429 84C63.5714 84 82.1429 82.6511 82.1429 79.8621C82.1429 78.666 80.7653 78.8276 80.7653 78.138C80.7653 77.028 95 78.138 95 73.3639C95 66.0812 54 64.5 48 64.5C42.5 64.5 34 65.5 25.5 66.5Z" fill="white" fill-opacity="0.4"/>
<path d="M87.5 61C87.5 61 90.5 64 92.5 70.5C92.5 70.5 80.3934 71.7228 66 70.5C53.0258 69.3978 58 66 34.5 66C27.5 66.3649 22 67 22 67C26.5971 64.9966 35.9916 54.6547 45.518 56.1572C55.0444 57.6597 60.9169 59.7299 64.9281 59.7299C68.9392 59.7299 87.5 61 87.5 61Z" fill="#898989"/>
<path d="M87.5 61C87.5 61 90.5 64 92.5 70.5C92.5 70.5 80.3934 71.7228 66 70.5C53.0258 69.3978 58 66 34.5 66C27.5 66.3649 22 67 22 67C26.5971 64.9966 35.9916 54.6547 45.518 56.1572C55.0444 57.6597 60.9169 59.7299 64.9281 59.7299C68.9392 59.7299 87.5 61 87.5 61Z" fill="white" fill-opacity="0.4"/>
<path d="M30 71C30.131 70.6667 30.6286 70 31.5714 70C32.5143 70 33.0119 70.6667 33.1429 71C33.2738 71.3333 33.7714 72 34.7143 72C35.6571 72 36.1548 71.3333 36.2857 71C36.5476 70.6667 37.2286 70 37.8571 70C38.4857 70 39.1667 70.6667 39.4286 71C39.5595 71.3333 40.0571 72 41 72C41.9429 72 42.4405 71.3333 42.5714 71C42.7024 70.6667 43.2 70 44.1429 70C45.0857 70 45.5833 70.6667 45.7143 71C45.8452 71.3333 46.3429 72 47.2857 72C48.2286 72 48.7262 71.3333 48.8571 71C48.9881 70.6667 49.4857 70 50.4286 70C51.3714 70 51.869 70.6667 52 71" stroke="#1D8CE0"/>
<path d="M30 71C30.131 70.6667 30.6286 70 31.5714 70C32.5143 70 33.0119 70.6667 33.1429 71C33.2738 71.3333 33.7714 72 34.7143 72C35.6571 72 36.1548 71.3333 36.2857 71C36.5476 70.6667 37.2286 70 37.8571 70C38.4857 70 39.1667 70.6667 39.4286 71C39.5595 71.3333 40.0571 72 41 72C41.9429 72 42.4405 71.3333 42.5714 71C42.7024 70.6667 43.2 70 44.1429 70C45.0857 70 45.5833 70.6667 45.7143 71C45.8452 71.3333 46.3429 72 47.2857 72C48.2286 72 48.7262 71.3333 48.8571 71C48.9881 70.6667 49.4857 70 50.4286 70C51.3714 70 51.869 70.6667 52 71" stroke="white" stroke-opacity="0.6"/>
<path d="M44 78.5C44.1548 78 44.7429 77 45.8571 77C46.9714 77 47.5595 78 47.7143 78.5C47.869 79 48.4571 80 49.5714 80C50.6857 80 51.2738 79 51.4286 78.5C51.7381 78 52.5429 77 53.2857 77C54.0286 77 54.8333 78 55.1429 78.5C55.2976 79 55.8857 80 57 80C58.1143 80 58.7024 79 58.8571 78.5C59.0119 78 59.6 77 60.7143 77C61.8286 77 62.4167 78 62.5714 78.5C62.7262 79 63.3143 80 64.4286 80C65.5429 80 66.131 79 66.2857 78.5C66.4405 78 67.0286 77 68.1429 77C69.2571 77 69.8452 78 70 78.5" stroke="#1D8CE0"/>
<path d="M44 78.5C44.1548 78 44.7429 77 45.8571 77C46.9714 77 47.5595 78 47.7143 78.5C47.869 79 48.4571 80 49.5714 80C50.6857 80 51.2738 79 51.4286 78.5C51.7381 78 52.5429 77 53.2857 77C54.0286 77 54.8333 78 55.1429 78.5C55.2976 79 55.8857 80 57 80C58.1143 80 58.7024 79 58.8571 78.5C59.0119 78 59.6 77 60.7143 77C61.8286 77 62.4167 78 62.5714 78.5C62.7262 79 63.3143 80 64.4286 80C65.5429 80 66.131 79 66.2857 78.5C66.4405 78 67.0286 77 68.1429 77C69.2571 77 69.8452 78 70 78.5" stroke="white" stroke-opacity="0.6"/>
<path d="M67.5 50.5C65.8381 42.8037 62.1082 30.7105 61 27C63.3143 30.0408 69.0492 43.097 70.5 53C71.9508 62.903 71.573 72.8463 70.9672 75.8218C70.5429 71.6771 69.1619 58.1963 67.5 50.5Z" fill="#2FC4A7"/>
<path d="M67.5 50.5C65.8381 42.8037 62.1082 30.7105 61 27C63.3143 30.0408 69.0492 43.097 70.5 53C71.9508 62.903 71.573 72.8463 70.9672 75.8218C70.5429 71.6771 69.1619 58.1963 67.5 50.5Z" fill="black" fill-opacity="0.6"/>
<path d="M65.0074 59.355C66.0815 65.6478 70.7519 70.4018 74.0441 73.5405C70.8802 72.2302 64.2456 67.8115 62.8647 59.7207C61.6372 52.5288 63.9322 47.991 65.842 41.6342C67.5999 35.7832 67.7634 30.2808 66.8301 24.8125C65.9095 19.4186 61.0587 10.378 58.9401 7.65565C61.4409 9.38756 67.7454 17.2549 68.9728 24.4468C70.5072 33.4366 69.3604 36.4079 68.1382 42.1675C66.7718 48.607 63.9334 53.0621 65.0074 59.355Z" fill="#2FC4A7"/>
<path d="M65.0074 59.355C66.0815 65.6478 70.7519 70.4018 74.0441 73.5405C70.8802 72.2302 64.2456 67.8115 62.8647 59.7207C61.6372 52.5288 63.9322 47.991 65.842 41.6342C67.5999 35.7832 67.7634 30.2808 66.8301 24.8125C65.9095 19.4186 61.0587 10.378 58.9401 7.65565C61.4409 9.38756 67.7454 17.2549 68.9728 24.4468C70.5072 33.4366 69.3604 36.4079 68.1382 42.1675C66.7718 48.607 63.9334 53.0621 65.0074 59.355Z" fill="black" fill-opacity="0.4"/>
<rect x="59.9313" y="11.4242" width="3.81832" height="12.4325" rx="1.90916" transform="rotate(-26.3791 59.9313 11.4242)" fill="#FAA21E"/>
<rect x="59.9313" y="11.4242" width="3.81832" height="12.4325" rx="1.90916" transform="rotate(-26.3791 59.9313 11.4242)" fill="white" fill-opacity="0.4"/>
<path d="M75.8154 33.899C77.8285 20.7412 81.9842 6.86696 83.2924 0.497314C80.6736 5.83664 74.6929 21.2411 72.8589 38.1132C71.025 54.9853 72.041 68.6575 72.6359 73.6385C73.2022 66.5926 73.8023 47.0568 75.8154 33.899Z" fill="#2FC4A7"/>
<path d="M75.8154 33.899C77.8285 20.7412 81.9842 6.86696 83.2924 0.497314C80.6736 5.83664 74.6929 21.2411 72.8589 38.1132C71.025 54.9853 72.041 68.6575 72.6359 73.6385C73.2022 66.5926 73.8023 47.0568 75.8154 33.899Z" fill="black" fill-opacity="0.6"/>
<path d="M83.7846 54.6102C87.4289 45.1479 88.7024 30.4982 90.2906 25.8156C89.7618 30.2059 88.948 45.8672 83.8808 57.7723C78.8136 69.6773 72.8358 75.7582 70.7407 78.9256C72.962 74.0149 80.1402 64.0725 83.7846 54.6102Z" fill="#2FC4A7"/>
<path d="M83.7846 54.6102C87.4289 45.1479 88.7024 30.4982 90.2906 25.8156C89.7618 30.2059 88.948 45.8672 83.8808 57.7723C78.8136 69.6773 72.8358 75.7582 70.7407 78.9256C72.962 74.0149 80.1402 64.0725 83.7846 54.6102Z" fill="black" fill-opacity="0.6"/>
<path d="M78.1911 53.2977C81.8665 44.8643 89.9522 34.4578 91.889 30.4149C89.5466 33.6229 80.6022 44.4158 76.2423 55.3187C71.8824 66.2216 71.5141 73.8468 70.7636 77.2007C72.4901 72.6238 74.5157 61.731 78.1911 53.2977Z" fill="#2FC4A7"/>
<path d="M78.1911 53.2977C81.8665 44.8643 89.9522 34.4578 91.889 30.4149C89.5466 33.6229 80.6022 44.4158 76.2423 55.3187C71.8824 66.2216 71.5141 73.8468 70.7636 77.2007C72.4901 72.6238 74.5157 61.731 78.1911 53.2977Z" fill="black" fill-opacity="0.6"/>
<path d="M76 43C76.7109 27.5 72.2817 20.311 70.6007 13.5C72.8493 18.0407 78 25.5 78 41.5C78 54.6015 72.0693 72.1634 70.6007 75.786C71.3883 70.3856 75.5286 53.2787 76 43Z" fill="#2FC4A7"/>
<path d="M76 43C76.7109 27.5 72.2817 20.311 70.6007 13.5C72.8493 18.0407 78 25.5 78 41.5C78 54.6015 72.0693 72.1634 70.6007 75.786C71.3883 70.3856 75.5286 53.2787 76 43Z" fill="black" fill-opacity="0.4"/>
<path d="M80.5794 70.0125C78.0897 74.6842 74.2183 77.7627 71.5546 79.7709C73.5897 79.1416 78.3712 76.5481 81.5722 70.5416C84.4176 65.2024 84.6295 61.475 85.5996 56.406C86.4926 51.7403 88.1007 47.5266 90.2642 43.467C92.3982 39.4626 97.6812 33.1374 99.6113 31.3095C97.7886 32.3377 92.1167 37.5987 89.2713 42.9379C85.7147 49.6119 85.3923 52.0109 84.2511 56.5443C82.9753 61.6129 83.0691 65.3407 80.5794 70.0125Z" fill="#2FC4A7"/>
<path d="M80.5794 70.0125C78.0897 74.6842 74.2183 77.7627 71.5546 79.7709C73.5897 79.1416 78.3712 76.5481 81.5722 70.5416C84.4176 65.2024 84.6295 61.475 85.5996 56.406C86.4926 51.7403 88.1007 47.5266 90.2642 43.467C92.3982 39.4626 97.6812 33.1374 99.6113 31.3095C97.7886 32.3377 92.1167 37.5987 89.2713 42.9379C85.7147 49.6119 85.3923 52.0109 84.2511 56.5443C82.9753 61.6129 83.0691 65.3407 80.5794 70.0125Z" fill="black" fill-opacity="0.4"/>
<rect width="2.95963" height="10.5207" rx="1.47982" transform="matrix(-0.757398 -0.652953 -0.652953 0.757398 98.8993 34.3469)" fill="#FAA21E"/>
<rect width="2.95963" height="10.5207" rx="1.47982" transform="matrix(-0.757398 -0.652953 -0.652953 0.757398 98.8993 34.3469)" fill="white" fill-opacity="0.4"/>
<path d="M77.5219 65.0174C75.6694 70.6365 71.7829 74.6951 69.0824 77.3647C71.3631 76.3366 76.4537 72.675 78.8355 65.4505C80.9526 59.0287 80.3101 54.8285 80.2513 49.0078C80.1972 43.6502 81.1063 38.6837 82.7161 33.8009C84.3039 28.9845 89.097 21.0717 90.9643 18.7207C89.0333 20.1607 83.5196 26.9461 81.4025 33.3679C78.7561 41.3951 78.9474 44.1281 78.6731 49.3775C78.3665 55.2465 79.3744 59.3984 77.5219 65.0174Z" fill="#2FC4A7"/>
<path d="M77.5219 65.0174C75.6694 70.6365 71.7829 74.6951 69.0824 77.3647C71.3631 76.3366 76.4537 72.675 78.8355 65.4505C80.9526 59.0287 80.3101 54.8285 80.2513 49.0078C80.1972 43.6502 81.1063 38.6837 82.7161 33.8009C84.3039 28.9845 89.097 21.0717 90.9643 18.7207C89.0333 20.1607 83.5196 26.9461 81.4025 33.3679C78.7561 41.3951 78.9474 44.1281 78.6731 49.3775C78.3665 55.2465 79.3744 59.3984 77.5219 65.0174Z" fill="black" fill-opacity="0.4"/>
<rect width="2.99301" height="10.7406" rx="1.4965" transform="matrix(-0.888202 -0.459452 -0.459452 0.888202 89.4395 22.757)" fill="#FAA21E"/>
<rect width="2.99301" height="10.7406" rx="1.4965" transform="matrix(-0.888202 -0.459452 -0.459452 0.888202 89.4395 22.757)" fill="white" fill-opacity="0.4"/>
<path d="M81.0322 63.0618C85.404 58.4427 91.2458 55.0955 93.5293 52.9746C90.8528 54.2268 85.0715 55.3202 78.6923 62.0787C73.1339 67.9678 70.4355 75.1084 69.4601 77.3256C71.545 74.6754 76.6604 67.681 81.0322 63.0618Z" fill="#2FC4A7"/>
<path d="M81.0322 63.0618C85.404 58.4427 91.2458 55.0955 93.5293 52.9746C90.8528 54.2268 85.0715 55.3202 78.6923 62.0787C73.1339 67.9678 70.4355 75.1084 69.4601 77.3256C71.545 74.6754 76.6604 67.681 81.0322 63.0618Z" fill="black" fill-opacity="0.2"/>
<path d="M17.7564 70.8983C20.2125 76.6679 21.9754 77.9575 27.5 79.5C22.4024 79.7229 17.6173 79.7199 14.4595 72.3019C11.6524 65.708 14.6692 60.0607 16.8593 52.7819C18.8752 46.0821 18.4474 40.5032 16.3131 35.4897C14.2079 30.5443 9.82242 21.6555 6.18015 19.9607C10.2958 20.4804 16.803 27.4923 19.6101 34.0861C23.1188 42.3284 21.6988 45.8537 20.5071 52.2026C19.1748 59.3009 15.3002 65.1288 17.7564 70.8983Z" fill="#2FC4A7"/>
<path d="M17.7564 70.8983C20.2125 76.6679 21.9754 77.9575 27.5 79.5C22.4024 79.7229 17.6173 79.7199 14.4595 72.3019C11.6524 65.708 14.6692 60.0607 16.8593 52.7819C18.8752 46.0821 18.4474 40.5032 16.3131 35.4897C14.2079 30.5443 9.82242 21.6555 6.18015 19.9607C10.2958 20.4804 16.803 27.4923 19.6101 34.0861C23.1188 42.3284 21.6988 45.8537 20.5071 52.2026C19.1748 59.3009 15.3002 65.1288 17.7564 70.8983Z" fill="black" fill-opacity="0.4"/>
<path d="M16.1386 22.7706C15.0449 24.9081 16.5803 27.8609 17.2721 29.4858C19.4469 27.8402 21.2176 26.7985 21.971 25.3262C22.9127 23.4857 21.9809 20.2836 21.4621 19.0649C20.0015 19.6866 17.1589 20.7768 16.1386 22.7706Z" fill="#2FC4A7"/>
<path d="M16.1386 22.7706C15.0449 24.9081 16.5803 27.8609 17.2721 29.4858C19.4469 27.8402 21.2176 26.7985 21.971 25.3262C22.9127 23.4857 21.9809 20.2836 21.4621 19.0649C20.0015 19.6866 17.1589 20.7768 16.1386 22.7706Z" fill="black" fill-opacity="0.2"/>
<path d="M13.5908 38.3496C11.0214 37.3194 7.79724 39.3946 6.00663 40.3606C8.12714 42.6842 9.51148 44.6075 11.2814 45.3171C13.4938 46.2041 17.0685 44.7957 18.4115 44.0712C17.542 42.4597 15.9876 39.3105 13.5908 38.3496Z" fill="#2FC4A7"/>
<path d="M13.5908 38.3496C11.0214 37.3194 7.79724 39.3946 6.00663 40.3606C8.12714 42.6842 9.51148 44.6075 11.2814 45.3171C13.4938 46.2041 17.0685 44.7957 18.4115 44.0712C17.542 42.4597 15.9876 39.3105 13.5908 38.3496Z" fill="black" fill-opacity="0.2"/>
<path d="M25.6651 53.6344C27.4082 52.3609 27.467 49.2725 27.6176 47.6399C25.2478 48.0388 23.4439 48.1195 22.2432 48.9967C20.7423 50.0932 20.1131 53.1225 20.0002 54.347C21.3882 54.4749 24.0391 54.8223 25.6651 53.6344Z" fill="#2FC4A7"/>
<path d="M25.6651 53.6344C27.4082 52.3609 27.467 49.2725 27.6176 47.6399C25.2478 48.0388 23.4439 48.1195 22.2432 48.9967C20.7423 50.0932 20.1131 53.1225 20.0002 54.347C21.3882 54.4749 24.0391 54.8223 25.6651 53.6344Z" fill="black" fill-opacity="0.2"/>
<path d="M4.20086 66.8982C6.64539 68.9001 10.8669 67.7455 13.1474 67.3072C11.6348 64.0507 10.7865 61.4824 9.10263 60.1033C6.99777 58.3795 2.6231 58.6881 0.912675 59.0168C1.30711 61.0693 1.92056 65.0307 4.20086 66.8982Z" fill="#2FC4A7"/>
<path d="M4.20086 66.8982C6.64539 68.9001 10.8669 67.7455 13.1474 67.3072C11.6348 64.0507 10.7865 61.4824 9.10263 60.1033C6.99777 58.3795 2.6231 58.6881 0.912675 59.0168C1.30711 61.0693 1.92056 65.0307 4.20086 66.8982Z" fill="black" fill-opacity="0.2"/>
<path d="M11.7915 56.8865C13.4293 58.2792 14.0137 62.1067 14.2476 62.6561L15.6677 59.1308C15.3168 58.3066 14.9659 57.4824 13.44 56.1848C12.348 55.2563 10.0724 54.373 8.73953 54.2914C9.91464 54.7647 10.771 56.0188 11.7915 56.8865Z" fill="#2FC4A7"/>
<path d="M11.7915 56.8865C13.4293 58.2792 14.0137 62.1067 14.2476 62.6561L15.6677 59.1308C15.3168 58.3066 14.9659 57.4824 13.44 56.1848C12.348 55.2563 10.0724 54.373 8.73953 54.2914C9.91464 54.7647 10.771 56.0188 11.7915 56.8865Z" fill="black" fill-opacity="0.4"/>
<path d="M22.4336 33.8578C21.6866 35.7125 21.2882 39.5568 21.242 40.2067L19.0143 37.2606C19.0836 36.2859 19.7471 33.9251 20.9077 32.5602C22.2052 31.0342 23.8537 30.3325 25.853 30.455C24.354 31.328 22.907 32.6827 22.4336 33.8578Z" fill="#2FC4A7"/>
<path d="M22.4336 33.8578C21.6866 35.7125 21.2882 39.5568 21.242 40.2067L19.0143 37.2606C19.0836 36.2859 19.7471 33.9251 20.9077 32.5602C22.2052 31.0342 23.8537 30.3325 25.853 30.455C24.354 31.328 22.907 32.6827 22.4336 33.8578Z" fill="black" fill-opacity="0.4"/>
<path d="M19.8148 64.3561C18.513 65.8737 16.9043 69.388 16.6523 69.9888L15.4856 66.4844C15.8635 65.5832 17.2482 63.5593 18.7848 62.6381C20.5028 61.6081 22.2892 61.4714 24.144 62.2278C22.4443 62.5747 20.6396 63.3945 19.8148 64.3561Z" fill="#2FC4A7"/>
<path d="M19.8148 64.3561C18.513 65.8737 16.9043 69.388 16.6523 69.9888L15.4856 66.4844C15.8635 65.5832 17.2482 63.5593 18.7848 62.6381C20.5028 61.6081 22.2892 61.4714 24.144 62.2278C22.4443 62.5747 20.6396 63.3945 19.8148 64.3561Z" fill="black" fill-opacity="0.4"/>
<path d="M76.2548 71.622C73.542 73.3058 72.8493 72.0526 72.2817 76.0257C72.2817 77.7284 74.552 77.8655 76.2548 77.8655C77.9575 77.8655 81.9307 77.2979 81.9307 75.5951C81.9307 73.8924 77.39 70.9174 76.2548 71.622Z" fill="#898989"/>
<path d="M76.2548 71.622C73.542 73.3058 72.8493 72.0526 72.2817 76.0257C72.2817 77.7284 74.552 77.8655 76.2548 77.8655C77.9575 77.8655 81.9307 77.2979 81.9307 75.5951C81.9307 73.8924 77.39 70.9174 76.2548 71.622Z" fill="white" fill-opacity="0.2"/>
<path d="M70.8748 73.9268C69.5669 73.3451 64.9894 74.5085 64.3354 78.5806C64.3354 80.3257 68.913 80.3257 70.8748 80.3257C72.8366 80.3257 77.4142 79.744 77.4142 77.9989C77.4142 76.2537 72.1827 74.5085 70.8748 73.9268Z" fill="#898989"/>
<path d="M70.8748 73.9268C69.5669 73.3451 64.9894 74.5085 64.3354 78.5806C64.3354 80.3257 68.913 80.3257 70.8748 80.3257C72.8366 80.3257 77.4142 79.744 77.4142 77.9989C77.4142 76.2537 72.1827 74.5085 70.8748 73.9268Z" fill="white" fill-opacity="0.6"/>
<path d="M24 75.1289C23 74.5951 19.5 75.6626 19 79.3988C19 81 22.5 81 24 81C25.5 81 29 80.4663 29 78.865C29 77.2638 25 75.6626 24 75.1289Z" fill="#898989"/>
<path d="M24 75.1289C23 74.5951 19.5 75.6626 19 79.3988C19 81 22.5 81 24 81C25.5 81 29 80.4663 29 78.865C29 77.2638 25 75.6626 24 75.1289Z" fill="white" fill-opacity="0.2"/>
<path d="M29.5 78.0224C28.5 78.0224 26.3 77.5746 26 80.688C26 82.0224 28.1 82.0224 29 82.0224C29.9 82.0224 32 81.5776 32 80.2433C32 78.9089 30.2469 78.0224 29.5 78.0224Z" fill="#898989"/>
<path d="M29.5 78.0224C28.5 78.0224 26.3 77.5746 26 80.688C26 82.0224 28.1 82.0224 29 82.0224C29.9 82.0224 32 81.5776 32 80.2433C32 78.9089 30.2469 78.0224 29.5 78.0224Z" fill="white" fill-opacity="0.6"/>
<path d="M87.0833 73.0111C87.9167 73.0111 89.75 72.7885 90 74.3365C90 75 88.25 75 87.5 75C86.75 75 85 74.7788 85 74.1154C85 73.4519 86.4609 73.0112 87.0833 73.0111Z" fill="#898989"/>
<path d="M87.0833 73.0111C87.9167 73.0111 89.75 72.7885 90 74.3365C90 75 88.25 75 87.5 75C86.75 75 85 74.7788 85 74.1154C85 73.4519 86.4609 73.0112 87.0833 73.0111Z" fill="white" fill-opacity="0.6"/>
<path d="M10 70C9 70 7.3 70.5746 7 73.688C7 75.0224 9.1 75.0224 10 75.0224C10.9 75.0224 13 74.5776 13 73.2433C13 71.9089 10.7469 70 10 70Z" fill="#898989"/>
<path d="M10 70C9 70 7.3 70.5746 7 73.688C7 75.0224 9.1 75.0224 10 75.0224C10.9 75.0224 13 74.5776 13 73.2433C13 71.9089 10.7469 70 10 70Z" fill="white" fill-opacity="0.2"/>
</svg>
