<svg width="100" height="100" viewBox="0 0 100 100" fill="none" xmlns="http://www.w3.org/2000/svg">
<path d="M50.6429 80.7231C38.8143 81.1073 15.0714 77.5216 5 75.9209C7.57143 83.1242 16.0334 90.9735 25.5714 95.1297C41 101.853 60.377 101.39 73.7857 95.1297C84.0714 90.3275 91.7857 81.6835 95 74C85.1429 75.6007 62.4714 80.3389 50.6429 80.7231Z" fill="#898989"/>
<path d="M25.8889 68.2921C17.5333 68.9903 5 70.5601 5 75.0979C5 81.3403 32.1327 84 53.3429 84C63.5714 84 82.1429 82.651 82.1429 79.8621C82.1429 78.6659 80.7653 78.8276 80.7653 78.1379C80.7653 77.028 95 78.1379 95 73.3639C95 66.0812 47.9714 62.7071 43.7936 64.4525C39.6159 66.1978 34.2444 67.594 25.8889 68.2921Z" fill="#2FC4A7"/>
<path d="M25.8889 68.2921C17.5333 68.9903 5 70.5601 5 75.0979C5 81.3403 32.1327 84 53.3429 84C63.5714 84 82.1429 82.651 82.1429 79.8621C82.1429 78.6659 80.7653 78.8276 80.7653 78.1379C80.7653 77.028 95 78.1379 95 73.3639C95 66.0812 47.9714 62.7071 43.7936 64.4525C39.6159 66.1978 34.2444 67.594 25.8889 68.2921Z" fill="black" fill-opacity="0.4"/>
<path d="M48 70C44.5 69 40.3333 67.6666 38.5 68C41.8333 68 47.5 72.5781 47.5 73C47.5 73.5 39 73 39.5 75.5C40 78 48.1582 78.5121 55 81C59.7197 82.7162 61 82.2812 61 83.7812V100L71.5 98C71.6667 93 71.9 84.1 71.5 82.5C71 80.5 65.5 80.5 62.5 79.5C59.5 78.5 47 76.5 47 75.5C47 74.5 54.5 74.5616 54.5 72.5C54.5 71.5 51.3653 70.9615 48 70Z" fill="#1D8CE0"/>
<path d="M48 70C44.5 69 40.3333 67.6666 38.5 68C41.8333 68 47.5 72.5781 47.5 73C47.5 73.5 39 73 39.5 75.5C40 78 48.1582 78.5121 55 81C59.7197 82.7162 61 82.2812 61 83.7812V100L71.5 98C71.6667 93 71.9 84.1 71.5 82.5C71 80.5 65.5 80.5 62.5 79.5C59.5 78.5 47 76.5 47 75.5C47 74.5 54.5 74.5616 54.5 72.5C54.5 71.5 51.3653 70.9615 48 70Z" fill="white" fill-opacity="0.6"/>
<path d="M19 68.9999C15 70.1999 14 70.9999 10 73.4999C18 73.4999 47.1622 72.6648 45.5 72C38 69 58.3452 67.7204 69 70.4999C80.4999 73.4999 89.4998 73.4999 94.4999 73.4999H94.5C90 65.9999 87.2 45.9999 86 41.9999C84.5 36.9999 72.5 27.8749 68 28.9999C58 31.4999 44.5 57.9999 39 59.9999C35.2116 61.3775 24 67.4999 19 68.9999Z" fill="#546DDB"/>
<path d="M19 68.9999C15 70.1999 14 70.9999 10 73.4999C18 73.4999 47.1622 72.6648 45.5 72C38 69 58.3452 67.7204 69 70.4999C80.4999 73.4999 89.4998 73.4999 94.4999 73.4999H94.5C90 65.9999 87.2 45.9999 86 41.9999C84.5 36.9999 72.5 27.8749 68 28.9999C58 31.4999 44.5 57.9999 39 59.9999C35.2116 61.3775 24 67.4999 19 68.9999Z" fill="black" fill-opacity="0.2"/>
<path d="M54.5 58.5001C52.6213 59.9142 30.072 70.1162 27.5 71.0001C27.5 71.0001 56 67.5 67 70.0001C78 72.5001 87 74.0001 95 73.5001C95 73.5001 94 63 93 61.5001C92 60.0002 81 54.0001 81 54.0001C78.428 52.8216 68.6103 55.6466 67 56.0001C64.9871 56.442 56.8484 56.7323 54.5 58.5001Z" fill="#546DDB"/>
<path fill-rule="evenodd" clip-rule="evenodd" d="M45.0557 13.7941C47.1789 14.0611 49.2952 12.8757 50.1194 10.794C50.9436 8.71241 50.2124 6.39962 48.482 5.14078C48.8753 5.19024 49.2689 5.28955 49.6545 5.44223C52.1218 6.41912 53.33 9.21118 52.3531 11.6785C51.3763 14.1458 48.5842 15.354 46.1169 14.3771C45.7312 14.2244 45.3763 14.0273 45.0557 13.7941Z" fill="#FAA21E"/>
<path fill-rule="evenodd" clip-rule="evenodd" d="M45.0557 13.7941C47.1789 14.0611 49.2952 12.8757 50.1194 10.794C50.9436 8.71241 50.2124 6.39962 48.482 5.14078C48.8753 5.19024 49.2689 5.28955 49.6545 5.44223C52.1218 6.41912 53.33 9.21118 52.3531 11.6785C51.3763 14.1458 48.5842 15.354 46.1169 14.3771C45.7312 14.2244 45.3763 14.0273 45.0557 13.7941Z" fill="white" fill-opacity="0.4"/>
<path d="M18.5 61.4999L8 71.4999C14.1667 72.1666 27.6 73.5999 32 73.9999C37.5 74.4999 51.3089 73.8852 49 72.4999C46.5 70.9999 39.1781 66.8128 32 63.4999C25.5 60.4999 21.1667 60.6666 18.5 61.4999Z" fill="#546DDB"/>
<path d="M18.5 61.4999L8 71.4999C14.1667 72.1666 27.6 73.5999 32 73.9999C37.5 74.4999 51.3089 73.8852 49 72.4999C46.5 70.9999 39.1781 66.8128 32 63.4999C25.5 60.4999 21.1667 60.6666 18.5 61.4999Z" fill="white" fill-opacity="0.2"/>
<path d="M9 59C7.4 61 6.00001 71 5.00001 75C3.87502 79.5 18.7346 81.7168 25 82.5C33 83.5 60 85 61 83.5C61 81 44.5 78 42.5 75C40.5 72 31.5 68.5 29.5 67.5C27.5 66.5 19 55.5 16.5 55C14 54.5 11 56.5 9 59Z" fill="#546DDB"/>
<path d="M9 59C7.4 61 6.00001 71 5.00001 75C3.87502 79.5 18.7346 81.7168 25 82.5C33 83.5 60 85 61 83.5C61 81 44.5 78 42.5 75C40.5 72 31.5 68.5 29.5 67.5C27.5 66.5 19 55.5 16.5 55C14 54.5 11 56.5 9 59Z" fill="white" fill-opacity="0.4"/>
<path d="M48.5 70C45 69 44 69 42 68.5C45 70.5 48.5 72 49 72.5H53.5C52 71.5 51.8653 70.9615 48.5 70Z" fill="#1D8CE0"/>
<path d="M48.5 70C45 69 44 69 42 68.5C45 70.5 48.5 72 49 72.5H53.5C52 71.5 51.8653 70.9615 48.5 70Z" fill="white" fill-opacity="0.6"/>
<path d="M71.5 98.5C71.5 98.5 72 84.5 71.5 83C71 83 65.1005 83.7428 61 84.2188V100L71.5 98.5Z" fill="#1D8CE0"/>
<path d="M71.5 98.5C71.5 98.5 72 84.5 71.5 83C71 83 65.1005 83.7428 61 84.2188V100L71.5 98.5Z" fill="white" fill-opacity="0.4"/>
</svg>
